<?xml version="1.0" encoding="utf-8" standalone="no"?>
<!DOCTYPE svg PUBLIC "-//W3C//DTD SVG 1.1//EN"
  "http://www.w3.org/Graphics/SVG/1.1/DTD/svg11.dtd">
<svg xmlns:xlink="http://www.w3.org/1999/xlink" width="872.39952pt" height="152.397733pt" viewBox="0 0 872.39952 152.397733" xmlns="http://www.w3.org/2000/svg" version="1.1">
 <metadata>
  <rdf:RDF xmlns:dc="http://purl.org/dc/elements/1.1/" xmlns:cc="http://creativecommons.org/ns#" xmlns:rdf="http://www.w3.org/1999/02/22-rdf-syntax-ns#">
   <cc:Work>
    <dc:type rdf:resource="http://purl.org/dc/dcmitype/StillImage"/>
    <dc:format>image/svg+xml</dc:format>
    <dc:creator>
     <cc:Agent>
      <dc:title>Matplotlib, https://matplotlib.org/</dc:title>
     </cc:Agent>
    </dc:creator>
   </cc:Work>
  </rdf:RDF>
 </metadata>
 <defs>
  <style type="text/css">*{stroke-linejoin: round; stroke-linecap: butt}</style>
 </defs>
 <g id="figure_1">
  <g id="patch_1">
   <path d="M 0 152.397733 
L 872.39952 152.397733 
L 872.39952 0 
L 0 0 
z
" style="fill: #ffffff"/>
  </g>
  <g id="axes_1">
   <g id="patch_2">
    <path d="M 10.7 128.519608 
L 865.19952 128.519608 
L 865.19952 20.213731 
L 10.7 20.213731 
z
" style="fill: #ffffff"/>
   </g>
   <g id="matplotlib.axis_1">
    <g id="xtick_1">
     <g id="line2d_1">
      <defs>
       <path id="m8f1de1206a" d="M 0 0 
L 0 3.5 
" style="stroke: #000000; stroke-width: 0.8"/>
      </defs>
      <g>
       <use xlink:href="#m8f1de1206a" x="113.497617" y="128.519608" style="stroke: #000000; stroke-width: 0.8"/>
      </g>
     </g>
     <g id="text_1">
      <!-- −3 -->
      <g transform="translate(106.126523 143.118045) scale(0.1 -0.1)">
       <defs>
        <path id="DejaVuSans-2212" d="M 678 2272 
L 4684 2272 
L 4684 1741 
L 678 1741 
L 678 2272 
z
" transform="scale(0.015625)"/>
        <path id="DejaVuSans-33" d="M 2597 2516 
Q 3050 2419 3304 2112 
Q 3559 1806 3559 1356 
Q 3559 666 3084 287 
Q 2609 -91 1734 -91 
Q 1441 -91 1130 -33 
Q 819 25 488 141 
L 488 750 
Q 750 597 1062 519 
Q 1375 441 1716 441 
Q 2309 441 2620 675 
Q 2931 909 2931 1356 
Q 2931 1769 2642 2001 
Q 2353 2234 1838 2234 
L 1294 2234 
L 1294 2753 
L 1863 2753 
Q 2328 2753 2575 2939 
Q 2822 3125 2822 3475 
Q 2822 3834 2567 4026 
Q 2313 4219 1838 4219 
Q 1578 4219 1281 4162 
Q 984 4106 628 3988 
L 628 4550 
Q 988 4650 1302 4700 
Q 1616 4750 1894 4750 
Q 2613 4750 3031 4423 
Q 3450 4097 3450 3541 
Q 3450 3153 3228 2886 
Q 3006 2619 2597 2516 
z
" transform="scale(0.015625)"/>
       </defs>
       <use xlink:href="#DejaVuSans-2212"/>
       <use xlink:href="#DejaVuSans-33" x="83.789062"/>
      </g>
     </g>
    </g>
    <g id="xtick_2">
     <g id="line2d_2">
      <g>
       <use xlink:href="#m8f1de1206a" x="221.593577" y="128.519608" style="stroke: #000000; stroke-width: 0.8"/>
      </g>
     </g>
     <g id="text_2">
      <!-- −2 -->
      <g transform="translate(214.222483 143.118045) scale(0.1 -0.1)">
       <defs>
        <path id="DejaVuSans-32" d="M 1228 531 
L 3431 531 
L 3431 0 
L 469 0 
L 469 531 
Q 828 903 1448 1529 
Q 2069 2156 2228 2338 
Q 2531 2678 2651 2914 
Q 2772 3150 2772 3378 
Q 2772 3750 2511 3984 
Q 2250 4219 1831 4219 
Q 1534 4219 1204 4116 
Q 875 4013 500 3803 
L 500 4441 
Q 881 4594 1212 4672 
Q 1544 4750 1819 4750 
Q 2544 4750 2975 4387 
Q 3406 4025 3406 3419 
Q 3406 3131 3298 2873 
Q 3191 2616 2906 2266 
Q 2828 2175 2409 1742 
Q 1991 1309 1228 531 
z
" transform="scale(0.015625)"/>
       </defs>
       <use xlink:href="#DejaVuSans-2212"/>
       <use xlink:href="#DejaVuSans-32" x="83.789062"/>
      </g>
     </g>
    </g>
    <g id="xtick_3">
     <g id="line2d_3">
      <g>
       <use xlink:href="#m8f1de1206a" x="329.689537" y="128.519608" style="stroke: #000000; stroke-width: 0.8"/>
      </g>
     </g>
     <g id="text_3">
      <!-- −1 -->
      <g transform="translate(322.318443 143.118045) scale(0.1 -0.1)">
       <defs>
        <path id="DejaVuSans-31" d="M 794 531 
L 1825 531 
L 1825 4091 
L 703 3866 
L 703 4441 
L 1819 4666 
L 2450 4666 
L 2450 531 
L 3481 531 
L 3481 0 
L 794 0 
L 794 531 
z
" transform="scale(0.015625)"/>
       </defs>
       <use xlink:href="#DejaVuSans-2212"/>
       <use xlink:href="#DejaVuSans-31" x="83.789062"/>
      </g>
     </g>
    </g>
    <g id="xtick_4">
     <g id="line2d_4">
      <g>
       <use xlink:href="#m8f1de1206a" x="437.785496" y="128.519608" style="stroke: #000000; stroke-width: 0.8"/>
      </g>
     </g>
     <g id="text_4">
      <!-- 0 -->
      <g transform="translate(434.604246 143.118045) scale(0.1 -0.1)">
       <defs>
        <path id="DejaVuSans-30" d="M 2034 4250 
Q 1547 4250 1301 3770 
Q 1056 3291 1056 2328 
Q 1056 1369 1301 889 
Q 1547 409 2034 409 
Q 2525 409 2770 889 
Q 3016 1369 3016 2328 
Q 3016 3291 2770 3770 
Q 2525 4250 2034 4250 
z
M 2034 4750 
Q 2819 4750 3233 4129 
Q 3647 3509 3647 2328 
Q 3647 1150 3233 529 
Q 2819 -91 2034 -91 
Q 1250 -91 836 529 
Q 422 1150 422 2328 
Q 422 3509 836 4129 
Q 1250 4750 2034 4750 
z
" transform="scale(0.015625)"/>
       </defs>
       <use xlink:href="#DejaVuSans-30"/>
      </g>
     </g>
    </g>
    <g id="xtick_5">
     <g id="line2d_5">
      <g>
       <use xlink:href="#m8f1de1206a" x="545.881456" y="128.519608" style="stroke: #000000; stroke-width: 0.8"/>
      </g>
     </g>
     <g id="text_5">
      <!-- 1 -->
      <g transform="translate(542.700206 143.118045) scale(0.1 -0.1)">
       <use xlink:href="#DejaVuSans-31"/>
      </g>
     </g>
    </g>
    <g id="xtick_6">
     <g id="line2d_6">
      <g>
       <use xlink:href="#m8f1de1206a" x="653.977416" y="128.519608" style="stroke: #000000; stroke-width: 0.8"/>
      </g>
     </g>
     <g id="text_6">
      <!-- 2 -->
      <g transform="translate(650.796166 143.118045) scale(0.1 -0.1)">
       <use xlink:href="#DejaVuSans-32"/>
      </g>
     </g>
    </g>
    <g id="xtick_7">
     <g id="line2d_7">
      <g>
       <use xlink:href="#m8f1de1206a" x="762.073376" y="128.519608" style="stroke: #000000; stroke-width: 0.8"/>
      </g>
     </g>
     <g id="text_7">
      <!-- 3 -->
      <g transform="translate(758.892126 143.118045) scale(0.1 -0.1)">
       <use xlink:href="#DejaVuSans-33"/>
      </g>
     </g>
    </g>
   </g>
   <g id="matplotlib.axis_2"/>
   <g id="line2d_8">
    <path d="M 120.366343 128.519608 
L 120.366343 20.213731 
" clip-path="url(#paf5285ae87)" style="fill: none; stroke: #000000; stroke-width: 1.5; stroke-linecap: square"/>
   </g>
   <g id="line2d_9">
    <path d="M 225.968022 128.519608 
L 225.968022 20.213731 
" clip-path="url(#paf5285ae87)" style="fill: none; stroke: #000000; stroke-width: 1.5; stroke-linecap: square"/>
   </g>
   <g id="line2d_10">
    <path d="M 331.569702 128.519608 
L 331.569702 20.213731 
" clip-path="url(#paf5285ae87)" style="fill: none; stroke: #000000; stroke-width: 1.5; stroke-linecap: square"/>
   </g>
   <g id="line2d_11">
    <path d="M 437.171381 128.519608 
L 437.171381 20.213731 
" clip-path="url(#paf5285ae87)" style="fill: none; stroke: #000000; stroke-width: 1.5; stroke-linecap: square"/>
   </g>
   <g id="line2d_12">
    <path d="M 542.77306 128.519608 
L 542.77306 20.213731 
" clip-path="url(#paf5285ae87)" style="fill: none; stroke: #000000; stroke-width: 1.5; stroke-linecap: square"/>
   </g>
   <g id="line2d_13">
    <path d="M 648.37474 128.519608 
L 648.37474 20.213731 
" clip-path="url(#paf5285ae87)" style="fill: none; stroke: #000000; stroke-width: 1.5; stroke-linecap: square"/>
   </g>
   <g id="line2d_14">
    <path d="M 753.976419 128.519608 
L 753.976419 20.213731 
" clip-path="url(#paf5285ae87)" style="fill: none; stroke: #000000; stroke-width: 1.5; stroke-linecap: square"/>
   </g>
   <g id="line2d_15">
    <path d="M 27.126365 128.519608 
L 27.126365 20.213731 
" clip-path="url(#paf5285ae87)" style="fill: none; stroke: #ff0000; stroke-width: 1.5; stroke-linecap: square"/>
   </g>
   <g id="line2d_16">
    <path d="M 776.888536 128.519608 
L 776.888536 20.213731 
" clip-path="url(#paf5285ae87)" style="fill: none; stroke: #ff0000; stroke-width: 1.5; stroke-linecap: square"/>
   </g>
   <g id="patch_3">
    <path d="M 10.7 128.519608 
L 10.7 20.213731 
" style="fill: none; stroke: #000000; stroke-width: 0.8; stroke-linejoin: miter; stroke-linecap: square"/>
   </g>
   <g id="patch_4">
    <path d="M 865.19952 128.519608 
L 865.19952 20.213731 
" style="fill: none; stroke: #000000; stroke-width: 0.8; stroke-linejoin: miter; stroke-linecap: square"/>
   </g>
   <g id="patch_5">
    <path d="M 10.7 128.519608 
L 865.19952 128.519608 
" style="fill: none; stroke: #000000; stroke-width: 0.8; stroke-linejoin: miter; stroke-linecap: square"/>
   </g>
   <g id="patch_6">
    <path d="M 10.7 20.213731 
L 865.19952 20.213731 
" style="fill: none; stroke: #000000; stroke-width: 0.8; stroke-linejoin: miter; stroke-linecap: square"/>
   </g>
   <g id="text_8">
    <g id="patch_7">
     <path d="M 26.126365 104.102607 
L 26.126365 44.630732 
Q 26.126365 44.630732 26.126365 44.630732 
L 16.44824 44.630732 
Q 16.44824 44.630732 16.44824 44.630732 
L 16.44824 104.102607 
Q 16.44824 104.102607 16.44824 104.102607 
L 26.126365 104.102607 
Q 26.126365 104.102607 26.126365 104.102607 
z
" style="fill: #ffffff"/>
    </g>
    <!-- min=-3.799 -->
    <g transform="translate(24.046678 104.102607) rotate(-90) scale(0.1 -0.1)">
     <defs>
      <path id="DejaVuSans-6d" d="M 3328 2828 
Q 3544 3216 3844 3400 
Q 4144 3584 4550 3584 
Q 5097 3584 5394 3201 
Q 5691 2819 5691 2113 
L 5691 0 
L 5113 0 
L 5113 2094 
Q 5113 2597 4934 2840 
Q 4756 3084 4391 3084 
Q 3944 3084 3684 2787 
Q 3425 2491 3425 1978 
L 3425 0 
L 2847 0 
L 2847 2094 
Q 2847 2600 2669 2842 
Q 2491 3084 2119 3084 
Q 1678 3084 1418 2786 
Q 1159 2488 1159 1978 
L 1159 0 
L 581 0 
L 581 3500 
L 1159 3500 
L 1159 2956 
Q 1356 3278 1631 3431 
Q 1906 3584 2284 3584 
Q 2666 3584 2933 3390 
Q 3200 3197 3328 2828 
z
" transform="scale(0.015625)"/>
      <path id="DejaVuSans-69" d="M 603 3500 
L 1178 3500 
L 1178 0 
L 603 0 
L 603 3500 
z
M 603 4863 
L 1178 4863 
L 1178 4134 
L 603 4134 
L 603 4863 
z
" transform="scale(0.015625)"/>
      <path id="DejaVuSans-6e" d="M 3513 2113 
L 3513 0 
L 2938 0 
L 2938 2094 
Q 2938 2591 2744 2837 
Q 2550 3084 2163 3084 
Q 1697 3084 1428 2787 
Q 1159 2491 1159 1978 
L 1159 0 
L 581 0 
L 581 3500 
L 1159 3500 
L 1159 2956 
Q 1366 3272 1645 3428 
Q 1925 3584 2291 3584 
Q 2894 3584 3203 3211 
Q 3513 2838 3513 2113 
z
" transform="scale(0.015625)"/>
      <path id="DejaVuSans-3d" d="M 678 2906 
L 4684 2906 
L 4684 2381 
L 678 2381 
L 678 2906 
z
M 678 1631 
L 4684 1631 
L 4684 1100 
L 678 1100 
L 678 1631 
z
" transform="scale(0.015625)"/>
      <path id="DejaVuSans-2d" d="M 313 2009 
L 1997 2009 
L 1997 1497 
L 313 1497 
L 313 2009 
z
" transform="scale(0.015625)"/>
      <path id="DejaVuSans-2e" d="M 684 794 
L 1344 794 
L 1344 0 
L 684 0 
L 684 794 
z
" transform="scale(0.015625)"/>
      <path id="DejaVuSans-37" d="M 525 4666 
L 3525 4666 
L 3525 4397 
L 1831 0 
L 1172 0 
L 2766 4134 
L 525 4134 
L 525 4666 
z
" transform="scale(0.015625)"/>
      <path id="DejaVuSans-39" d="M 703 97 
L 703 672 
Q 941 559 1184 500 
Q 1428 441 1663 441 
Q 2288 441 2617 861 
Q 2947 1281 2994 2138 
Q 2813 1869 2534 1725 
Q 2256 1581 1919 1581 
Q 1219 1581 811 2004 
Q 403 2428 403 3163 
Q 403 3881 828 4315 
Q 1253 4750 1959 4750 
Q 2769 4750 3195 4129 
Q 3622 3509 3622 2328 
Q 3622 1225 3098 567 
Q 2575 -91 1691 -91 
Q 1453 -91 1209 -44 
Q 966 3 703 97 
z
M 1959 2075 
Q 2384 2075 2632 2365 
Q 2881 2656 2881 3163 
Q 2881 3666 2632 3958 
Q 2384 4250 1959 4250 
Q 1534 4250 1286 3958 
Q 1038 3666 1038 3163 
Q 1038 2656 1286 2365 
Q 1534 2075 1959 2075 
z
" transform="scale(0.015625)"/>
     </defs>
     <use xlink:href="#DejaVuSans-6d"/>
     <use xlink:href="#DejaVuSans-69" x="97.412109"/>
     <use xlink:href="#DejaVuSans-6e" x="125.195312"/>
     <use xlink:href="#DejaVuSans-3d" x="188.574219"/>
     <use xlink:href="#DejaVuSans-2d" x="272.363281"/>
     <use xlink:href="#DejaVuSans-33" x="308.447266"/>
     <use xlink:href="#DejaVuSans-2e" x="372.070312"/>
     <use xlink:href="#DejaVuSans-37" x="403.857422"/>
     <use xlink:href="#DejaVuSans-39" x="467.480469"/>
     <use xlink:href="#DejaVuSans-39" x="531.103516"/>
    </g>
   </g>
   <g id="text_9">
    <g id="patch_8">
     <path d="M 788.566661 103.764326 
L 788.566661 44.969013 
Q 788.566661 44.969013 788.566661 44.969013 
L 778.888536 44.969013 
Q 778.888536 44.969013 778.888536 44.969013 
L 778.888536 103.764326 
Q 778.888536 103.764326 778.888536 103.764326 
L 788.566661 103.764326 
Q 788.566661 103.764326 788.566661 103.764326 
z
" style="fill: #ffffff"/>
    </g>
    <!-- max=3.137 -->
    <g transform="translate(786.486974 103.764326) rotate(-90) scale(0.1 -0.1)">
     <defs>
      <path id="DejaVuSans-61" d="M 2194 1759 
Q 1497 1759 1228 1600 
Q 959 1441 959 1056 
Q 959 750 1161 570 
Q 1363 391 1709 391 
Q 2188 391 2477 730 
Q 2766 1069 2766 1631 
L 2766 1759 
L 2194 1759 
z
M 3341 1997 
L 3341 0 
L 2766 0 
L 2766 531 
Q 2569 213 2275 61 
Q 1981 -91 1556 -91 
Q 1019 -91 701 211 
Q 384 513 384 1019 
Q 384 1609 779 1909 
Q 1175 2209 1959 2209 
L 2766 2209 
L 2766 2266 
Q 2766 2663 2505 2880 
Q 2244 3097 1772 3097 
Q 1472 3097 1187 3025 
Q 903 2953 641 2809 
L 641 3341 
Q 956 3463 1253 3523 
Q 1550 3584 1831 3584 
Q 2591 3584 2966 3190 
Q 3341 2797 3341 1997 
z
" transform="scale(0.015625)"/>
      <path id="DejaVuSans-78" d="M 3513 3500 
L 2247 1797 
L 3578 0 
L 2900 0 
L 1881 1375 
L 863 0 
L 184 0 
L 1544 1831 
L 300 3500 
L 978 3500 
L 1906 2253 
L 2834 3500 
L 3513 3500 
z
" transform="scale(0.015625)"/>
     </defs>
     <use xlink:href="#DejaVuSans-6d"/>
     <use xlink:href="#DejaVuSans-61" x="97.412109"/>
     <use xlink:href="#DejaVuSans-78" x="158.691406"/>
     <use xlink:href="#DejaVuSans-3d" x="217.871094"/>
     <use xlink:href="#DejaVuSans-33" x="301.660156"/>
     <use xlink:href="#DejaVuSans-2e" x="365.283203"/>
     <use xlink:href="#DejaVuSans-31" x="397.070312"/>
     <use xlink:href="#DejaVuSans-33" x="460.693359"/>
     <use xlink:href="#DejaVuSans-37" x="524.316406"/>
    </g>
   </g>
   <g id="text_10">
    <!-- Array[1000] x∈[-3.799, 3.137] μ=-0.006 σ=0.977 gpu:0 -->
    <g transform="translate(10.7 14.798437) scale(0.1 -0.1)">
     <defs>
      <path id="DejaVuSans-41" d="M 2188 4044 
L 1331 1722 
L 3047 1722 
L 2188 4044 
z
M 1831 4666 
L 2547 4666 
L 4325 0 
L 3669 0 
L 3244 1197 
L 1141 1197 
L 716 0 
L 50 0 
L 1831 4666 
z
" transform="scale(0.015625)"/>
      <path id="DejaVuSans-72" d="M 2631 2963 
Q 2534 3019 2420 3045 
Q 2306 3072 2169 3072 
Q 1681 3072 1420 2755 
Q 1159 2438 1159 1844 
L 1159 0 
L 581 0 
L 581 3500 
L 1159 3500 
L 1159 2956 
Q 1341 3275 1631 3429 
Q 1922 3584 2338 3584 
Q 2397 3584 2469 3576 
Q 2541 3569 2628 3553 
L 2631 2963 
z
" transform="scale(0.015625)"/>
      <path id="DejaVuSans-79" d="M 2059 -325 
Q 1816 -950 1584 -1140 
Q 1353 -1331 966 -1331 
L 506 -1331 
L 506 -850 
L 844 -850 
Q 1081 -850 1212 -737 
Q 1344 -625 1503 -206 
L 1606 56 
L 191 3500 
L 800 3500 
L 1894 763 
L 2988 3500 
L 3597 3500 
L 2059 -325 
z
" transform="scale(0.015625)"/>
      <path id="DejaVuSans-5b" d="M 550 4863 
L 1875 4863 
L 1875 4416 
L 1125 4416 
L 1125 -397 
L 1875 -397 
L 1875 -844 
L 550 -844 
L 550 4863 
z
" transform="scale(0.015625)"/>
      <path id="DejaVuSans-5d" d="M 1947 4863 
L 1947 -844 
L 622 -844 
L 622 -397 
L 1369 -397 
L 1369 4416 
L 622 4416 
L 622 4863 
L 1947 4863 
z
" transform="scale(0.015625)"/>
      <path id="DejaVuSans-20" transform="scale(0.015625)"/>
      <path id="DejaVuSans-2208" d="M 1072 1959 
Q 1094 1728 1291 1353 
Q 1522 919 1959 675 
Q 2388 438 2850 434 
L 5028 434 
L 5028 -63 
L 2850 -63 
Q 2250 -63 1695 246 
Q 1141 556 844 1106 
Q 547 1656 547 2241 
Q 547 2819 844 3369 
Q 1141 3919 1695 4231 
Q 2250 4544 2850 4544 
L 5028 4544 
L 5028 4047 
L 2850 4047 
Q 2388 4044 1959 3803 
Q 1525 3556 1291 3125 
Q 1091 2750 1063 2459 
L 5028 2459 
L 5028 1959 
L 1072 1959 
z
" transform="scale(0.015625)"/>
      <path id="DejaVuSans-2c" d="M 750 794 
L 1409 794 
L 1409 256 
L 897 -744 
L 494 -744 
L 750 256 
L 750 794 
z
" transform="scale(0.015625)"/>
      <path id="DejaVuSans-3bc" d="M 544 -1331 
L 544 3500 
L 1119 3500 
L 1119 1325 
Q 1119 872 1334 640 
Q 1550 409 1972 409 
Q 2434 409 2667 671 
Q 2900 934 2900 1459 
L 2900 3500 
L 3475 3500 
L 3475 806 
Q 3475 619 3529 530 
Q 3584 441 3700 441 
Q 3728 441 3778 458 
Q 3828 475 3916 513 
L 3916 50 
Q 3788 -22 3673 -56 
Q 3559 -91 3450 -91 
Q 3234 -91 3106 31 
Q 2978 153 2931 403 
Q 2775 156 2548 32 
Q 2322 -91 2016 -91 
Q 1697 -91 1473 31 
Q 1250 153 1119 397 
L 1119 -1331 
L 544 -1331 
z
" transform="scale(0.015625)"/>
      <path id="DejaVuSans-36" d="M 2113 2584 
Q 1688 2584 1439 2293 
Q 1191 2003 1191 1497 
Q 1191 994 1439 701 
Q 1688 409 2113 409 
Q 2538 409 2786 701 
Q 3034 994 3034 1497 
Q 3034 2003 2786 2293 
Q 2538 2584 2113 2584 
z
M 3366 4563 
L 3366 3988 
Q 3128 4100 2886 4159 
Q 2644 4219 2406 4219 
Q 1781 4219 1451 3797 
Q 1122 3375 1075 2522 
Q 1259 2794 1537 2939 
Q 1816 3084 2150 3084 
Q 2853 3084 3261 2657 
Q 3669 2231 3669 1497 
Q 3669 778 3244 343 
Q 2819 -91 2113 -91 
Q 1303 -91 875 529 
Q 447 1150 447 2328 
Q 447 3434 972 4092 
Q 1497 4750 2381 4750 
Q 2619 4750 2861 4703 
Q 3103 4656 3366 4563 
z
" transform="scale(0.015625)"/>
      <path id="DejaVuSans-3c3" d="M 1959 3044 
Q 1484 3044 1228 2700 
Q 959 2341 959 1747 
Q 959 1119 1226 758 
Q 1494 397 1959 397 
Q 2419 397 2687 759 
Q 2956 1122 2956 1747 
Q 2956 2319 2688 2700 
Q 2441 3044 1959 3044 
z
M 1959 3500 
L 3869 3500 
L 3869 2925 
L 3225 2925 
Q 3566 2438 3566 1747 
Q 3566 888 3138 400 
Q 2709 -91 1959 -91 
Q 1206 -91 781 400 
Q 353 888 353 1747 
Q 353 2613 781 3097 
Q 1134 3500 1959 3500 
z
" transform="scale(0.015625)"/>
      <path id="DejaVuSans-67" d="M 2906 1791 
Q 2906 2416 2648 2759 
Q 2391 3103 1925 3103 
Q 1463 3103 1205 2759 
Q 947 2416 947 1791 
Q 947 1169 1205 825 
Q 1463 481 1925 481 
Q 2391 481 2648 825 
Q 2906 1169 2906 1791 
z
M 3481 434 
Q 3481 -459 3084 -895 
Q 2688 -1331 1869 -1331 
Q 1566 -1331 1297 -1286 
Q 1028 -1241 775 -1147 
L 775 -588 
Q 1028 -725 1275 -790 
Q 1522 -856 1778 -856 
Q 2344 -856 2625 -561 
Q 2906 -266 2906 331 
L 2906 616 
Q 2728 306 2450 153 
Q 2172 0 1784 0 
Q 1141 0 747 490 
Q 353 981 353 1791 
Q 353 2603 747 3093 
Q 1141 3584 1784 3584 
Q 2172 3584 2450 3431 
Q 2728 3278 2906 2969 
L 2906 3500 
L 3481 3500 
L 3481 434 
z
" transform="scale(0.015625)"/>
      <path id="DejaVuSans-70" d="M 1159 525 
L 1159 -1331 
L 581 -1331 
L 581 3500 
L 1159 3500 
L 1159 2969 
Q 1341 3281 1617 3432 
Q 1894 3584 2278 3584 
Q 2916 3584 3314 3078 
Q 3713 2572 3713 1747 
Q 3713 922 3314 415 
Q 2916 -91 2278 -91 
Q 1894 -91 1617 61 
Q 1341 213 1159 525 
z
M 3116 1747 
Q 3116 2381 2855 2742 
Q 2594 3103 2138 3103 
Q 1681 3103 1420 2742 
Q 1159 2381 1159 1747 
Q 1159 1113 1420 752 
Q 1681 391 2138 391 
Q 2594 391 2855 752 
Q 3116 1113 3116 1747 
z
" transform="scale(0.015625)"/>
      <path id="DejaVuSans-75" d="M 544 1381 
L 544 3500 
L 1119 3500 
L 1119 1403 
Q 1119 906 1312 657 
Q 1506 409 1894 409 
Q 2359 409 2629 706 
Q 2900 1003 2900 1516 
L 2900 3500 
L 3475 3500 
L 3475 0 
L 2900 0 
L 2900 538 
Q 2691 219 2414 64 
Q 2138 -91 1772 -91 
Q 1169 -91 856 284 
Q 544 659 544 1381 
z
M 1991 3584 
L 1991 3584 
z
" transform="scale(0.015625)"/>
      <path id="DejaVuSans-3a" d="M 750 794 
L 1409 794 
L 1409 0 
L 750 0 
L 750 794 
z
M 750 3309 
L 1409 3309 
L 1409 2516 
L 750 2516 
L 750 3309 
z
" transform="scale(0.015625)"/>
     </defs>
     <use xlink:href="#DejaVuSans-41"/>
     <use xlink:href="#DejaVuSans-72" x="68.408203"/>
     <use xlink:href="#DejaVuSans-72" x="107.771484"/>
     <use xlink:href="#DejaVuSans-61" x="148.884766"/>
     <use xlink:href="#DejaVuSans-79" x="210.164062"/>
     <use xlink:href="#DejaVuSans-5b" x="269.34375"/>
     <use xlink:href="#DejaVuSans-31" x="308.357422"/>
     <use xlink:href="#DejaVuSans-30" x="371.980469"/>
     <use xlink:href="#DejaVuSans-30" x="435.603516"/>
     <use xlink:href="#DejaVuSans-30" x="499.226562"/>
     <use xlink:href="#DejaVuSans-5d" x="562.849609"/>
     <use xlink:href="#DejaVuSans-20" x="601.863281"/>
     <use xlink:href="#DejaVuSans-78" x="633.650391"/>
     <use xlink:href="#DejaVuSans-2208" x="692.830078"/>
     <use xlink:href="#DejaVuSans-5b" x="779.939453"/>
     <use xlink:href="#DejaVuSans-2d" x="818.953125"/>
     <use xlink:href="#DejaVuSans-33" x="855.037109"/>
     <use xlink:href="#DejaVuSans-2e" x="918.660156"/>
     <use xlink:href="#DejaVuSans-37" x="950.447266"/>
     <use xlink:href="#DejaVuSans-39" x="1014.070312"/>
     <use xlink:href="#DejaVuSans-39" x="1077.693359"/>
     <use xlink:href="#DejaVuSans-2c" x="1141.316406"/>
     <use xlink:href="#DejaVuSans-20" x="1173.103516"/>
     <use xlink:href="#DejaVuSans-33" x="1204.890625"/>
     <use xlink:href="#DejaVuSans-2e" x="1268.513672"/>
     <use xlink:href="#DejaVuSans-31" x="1300.300781"/>
     <use xlink:href="#DejaVuSans-33" x="1363.923828"/>
     <use xlink:href="#DejaVuSans-37" x="1427.546875"/>
     <use xlink:href="#DejaVuSans-5d" x="1491.169922"/>
     <use xlink:href="#DejaVuSans-20" x="1530.183594"/>
     <use xlink:href="#DejaVuSans-3bc" x="1561.970703"/>
     <use xlink:href="#DejaVuSans-3d" x="1625.59375"/>
     <use xlink:href="#DejaVuSans-2d" x="1709.382812"/>
     <use xlink:href="#DejaVuSans-30" x="1745.466797"/>
     <use xlink:href="#DejaVuSans-2e" x="1809.089844"/>
     <use xlink:href="#DejaVuSans-30" x="1840.876953"/>
     <use xlink:href="#DejaVuSans-30" x="1904.5"/>
     <use xlink:href="#DejaVuSans-36" x="1968.123047"/>
     <use xlink:href="#DejaVuSans-20" x="2031.746094"/>
     <use xlink:href="#DejaVuSans-3c3" x="2063.533203"/>
     <use xlink:href="#DejaVuSans-3d" x="2126.912109"/>
     <use xlink:href="#DejaVuSans-30" x="2210.701172"/>
     <use xlink:href="#DejaVuSans-2e" x="2274.324219"/>
     <use xlink:href="#DejaVuSans-39" x="2306.111328"/>
     <use xlink:href="#DejaVuSans-37" x="2369.734375"/>
     <use xlink:href="#DejaVuSans-37" x="2433.357422"/>
     <use xlink:href="#DejaVuSans-20" x="2496.980469"/>
     <use xlink:href="#DejaVuSans-67" x="2528.767578"/>
     <use xlink:href="#DejaVuSans-70" x="2592.244141"/>
     <use xlink:href="#DejaVuSans-75" x="2655.720703"/>
     <use xlink:href="#DejaVuSans-3a" x="2719.099609"/>
     <use xlink:href="#DejaVuSans-30" x="2752.791016"/>
    </g>
   </g>
   <g id="patch_9">
    <path d="M 27.126365 128.519608 
L 68.779828 128.519608 
L 68.779828 127.596992 
L 27.126365 127.596992 
z
" clip-path="url(#paf5285ae87)" style="fill: #00bfff"/>
   </g>
   <g id="patch_10">
    <path d="M 68.779828 128.519608 
L 110.433265 128.519608 
L 110.433265 127.596992 
L 68.779828 127.596992 
z
" clip-path="url(#paf5285ae87)" style="fill: #00bfff"/>
   </g>
   <g id="patch_11">
    <path d="M 110.433265 128.519608 
L 152.086727 128.519608 
L 152.086727 127.596992 
L 110.433265 127.596992 
z
" clip-path="url(#paf5285ae87)" style="fill: #00bfff"/>
   </g>
   <g id="patch_12">
    <path d="M 152.086727 128.519608 
L 193.74019 128.519608 
L 193.74019 124.367837 
L 152.086727 124.367837 
z
" clip-path="url(#paf5285ae87)" style="fill: #00bfff"/>
   </g>
   <g id="patch_13">
    <path d="M 193.74019 128.519608 
L 235.393639 128.519608 
L 235.393639 123.44522 
L 193.74019 123.44522 
z
" clip-path="url(#paf5285ae87)" style="fill: #00bfff"/>
   </g>
   <g id="patch_14">
    <path d="M 235.393639 128.519608 
L 277.047089 128.519608 
L 277.047089 112.373829 
L 235.393639 112.373829 
z
" clip-path="url(#paf5285ae87)" style="fill: #00bfff"/>
   </g>
   <g id="patch_15">
    <path d="M 277.047089 128.519608 
L 318.700539 128.519608 
L 318.700539 99.918514 
L 277.047089 99.918514 
z
" clip-path="url(#paf5285ae87)" style="fill: #00bfff"/>
   </g>
   <g id="patch_16">
    <path d="M 318.700539 128.519608 
L 360.353995 128.519608 
L 360.353995 77.314431 
L 318.700539 77.314431 
z
" clip-path="url(#paf5285ae87)" style="fill: #00bfff"/>
   </g>
   <g id="patch_17">
    <path d="M 360.353995 128.519608 
L 402.007451 128.519608 
L 402.007451 69.933505 
L 360.353995 69.933505 
z
" clip-path="url(#paf5285ae87)" style="fill: #00bfff"/>
   </g>
   <g id="patch_18">
    <path d="M 402.007451 128.519608 
L 443.660905 128.519608 
L 443.660905 49.174643 
L 402.007451 49.174643 
z
" clip-path="url(#paf5285ae87)" style="fill: #00bfff"/>
   </g>
   <g id="patch_19">
    <path d="M 443.660905 128.519608 
L 485.31436 128.519608 
L 485.31436 58.862115 
L 443.660905 58.862115 
z
" clip-path="url(#paf5285ae87)" style="fill: #00bfff"/>
   </g>
   <g id="patch_20">
    <path d="M 485.31436 128.519608 
L 526.967813 128.519608 
L 526.967813 66.243037 
L 485.31436 66.243037 
z
" clip-path="url(#paf5285ae87)" style="fill: #00bfff"/>
   </g>
   <g id="patch_21">
    <path d="M 526.967813 128.519608 
L 568.621262 128.519608 
L 568.621262 92.998894 
L 526.967813 92.998894 
z
" clip-path="url(#paf5285ae87)" style="fill: #00bfff"/>
   </g>
   <g id="patch_22">
    <path d="M 568.621262 128.519608 
L 610.274725 128.519608 
L 610.274725 104.070293 
L 568.621262 104.070293 
z
" clip-path="url(#paf5285ae87)" style="fill: #00bfff"/>
   </g>
   <g id="patch_23">
    <path d="M 610.274725 128.519608 
L 651.928174 128.519608 
L 651.928174 114.219061 
L 610.274725 114.219061 
z
" clip-path="url(#paf5285ae87)" style="fill: #00bfff"/>
   </g>
   <g id="patch_24">
    <path d="M 651.928174 128.519608 
L 693.581637 128.519608 
L 693.581637 123.90653 
L 651.928174 123.90653 
z
" clip-path="url(#paf5285ae87)" style="fill: #00bfff"/>
   </g>
   <g id="patch_25">
    <path d="M 693.581637 128.519608 
L 735.235074 128.519608 
L 735.235074 124.829143 
L 693.581637 124.829143 
z
" clip-path="url(#paf5285ae87)" style="fill: #00bfff"/>
   </g>
   <g id="patch_26">
    <path d="M 735.235074 128.519608 
L 776.888536 128.519608 
L 776.888536 127.596992 
L 735.235074 127.596992 
z
" clip-path="url(#paf5285ae87)" style="fill: #00bfff"/>
   </g>
   <g id="line2d_17">
    <path d="M 10.7 128.498747 
L 19.331308 128.490685 
L 27.962617 128.479775 
L 36.593925 128.465114 
L 45.225233 128.445555 
L 53.856541 128.419644 
L 62.48785 128.385567 
L 71.119158 128.341069 
L 79.750466 128.283382 
L 88.381775 128.209138 
L 97.013083 128.114276 
L 105.644391 127.993953 
L 114.275699 127.842451 
L 122.907008 127.653092 
L 131.538316 127.418164 
L 140.169624 127.128865 
L 148.800933 126.775272 
L 157.432241 126.346345 
L 166.063549 125.829976 
L 174.694857 125.21308 
L 183.326166 124.481758 
L 191.957474 123.621517 
L 200.588782 122.617567 
L 209.220091 121.455192 
L 217.851399 120.120194 
L 226.482707 118.599408 
L 235.114015 116.881283 
L 243.745324 114.956499 
L 252.376632 112.81863 
L 261.00794 110.464803 
L 269.639248 107.896334 
L 278.270557 105.119327 
L 286.901865 102.145169 
L 295.533173 98.990927 
L 304.164482 95.679577 
L 312.79579 92.24007 
L 321.427098 88.707185 
L 330.058406 85.121165 
L 338.689715 81.527128 
L 347.321023 77.974251 
L 355.952331 74.514749 
L 364.58364 71.202655 
L 373.214948 68.09247 
L 381.846256 65.23769 
L 390.477564 62.689295 
L 399.108873 60.494242 
L 407.740181 58.694031 
L 416.371489 57.323401 
L 425.002798 56.409216 
L 433.634106 55.969589 
L 442.265414 56.013284 
L 450.896722 56.539429 
L 459.528031 57.537542 
L 468.159339 58.98788 
L 476.790647 60.862085 
L 485.421956 63.124112 
L 494.053264 65.731374 
L 502.684572 68.636081 
L 511.31588 71.786686 
L 519.947189 75.129401 
L 528.578497 78.609703 
L 537.209805 82.173789 
L 545.841114 85.76991 
L 554.472422 89.349549 
L 563.10373 92.868414 
L 571.735038 96.287211 
L 580.366347 99.572192 
L 588.997655 102.695478 
L 597.628963 105.63517 
L 606.260272 108.375247 
L 614.89158 110.905307 
L 623.522888 113.220151 
L 632.154196 115.319263 
L 640.785505 117.206205 
L 649.416813 118.887976 
L 658.048121 120.374344 
L 666.679429 121.677197 
L 675.310738 122.809927 
L 683.942046 123.786862 
L 692.573354 124.622762 
L 701.204663 125.332389 
L 709.835971 125.930147 
L 718.467279 126.429805 
L 727.098587 126.844279 
L 735.729896 127.185492 
L 744.361204 127.464284 
L 752.992512 127.690375 
L 761.623821 127.872367 
L 770.255129 128.017781 
L 778.886437 128.133116 
L 787.517745 128.223925 
L 796.149054 128.294904 
L 804.780362 128.349982 
L 813.41167 128.392411 
L 822.042979 128.424863 
L 830.674287 128.449505 
L 839.305595 128.468084 
L 847.936903 128.481991 
L 856.568212 128.492327 
L 865.19952 128.499954 
" clip-path="url(#paf5285ae87)" style="fill: none; stroke: #1f77b4; stroke-width: 1.5; stroke-linecap: square"/>
   </g>
   <g id="text_11">
    <g id="patch_27">
     <path d="M 112.212437 38.30715 
L 128.520249 38.30715 
Q 131.520249 38.30715 131.520249 35.30715 
L 131.520249 25.629025 
Q 131.520249 22.629025 128.520249 22.629025 
L 112.212437 22.629025 
Q 109.212437 22.629025 109.212437 25.629025 
L 109.212437 35.30715 
Q 109.212437 38.30715 112.212437 38.30715 
z
" style="fill: #ffffff"/>
    </g>
    <!-- -3σ -->
    <g transform="translate(112.212437 33.227463) scale(0.1 -0.1)">
     <use xlink:href="#DejaVuSans-2d"/>
     <use xlink:href="#DejaVuSans-33" x="36.083984"/>
     <use xlink:href="#DejaVuSans-3c3" x="99.707031"/>
    </g>
   </g>
   <g id="text_12">
    <g id="patch_28">
     <path d="M 217.814116 38.30715 
L 234.121928 38.30715 
Q 237.121928 38.30715 237.121928 35.30715 
L 237.121928 25.629025 
Q 237.121928 22.629025 234.121928 22.629025 
L 217.814116 22.629025 
Q 214.814116 22.629025 214.814116 25.629025 
L 214.814116 35.30715 
Q 214.814116 38.30715 217.814116 38.30715 
z
" style="fill: #ffffff"/>
    </g>
    <!-- -2σ -->
    <g transform="translate(217.814116 33.227463) scale(0.1 -0.1)">
     <use xlink:href="#DejaVuSans-2d"/>
     <use xlink:href="#DejaVuSans-32" x="36.083984"/>
     <use xlink:href="#DejaVuSans-3c3" x="99.707031"/>
    </g>
   </g>
   <g id="text_13">
    <g id="patch_29">
     <path d="M 326.597045 38.30715 
L 336.542358 38.30715 
Q 339.542358 38.30715 339.542358 35.30715 
L 339.542358 25.629025 
Q 339.542358 22.629025 336.542358 22.629025 
L 326.597045 22.629025 
Q 323.597045 22.629025 323.597045 25.629025 
L 323.597045 35.30715 
Q 323.597045 38.30715 326.597045 38.30715 
z
" style="fill: #ffffff"/>
    </g>
    <!-- -σ -->
    <g transform="translate(326.597045 33.227463) scale(0.1 -0.1)">
     <use xlink:href="#DejaVuSans-2d"/>
     <use xlink:href="#DejaVuSans-3c3" x="36.083984"/>
    </g>
   </g>
   <g id="text_14">
    <g id="patch_30">
     <path d="M 433.492475 38.30715 
L 440.850287 38.30715 
Q 443.850287 38.30715 443.850287 35.30715 
L 443.850287 25.629025 
Q 443.850287 22.629025 440.850287 22.629025 
L 433.492475 22.629025 
Q 430.492475 22.629025 430.492475 25.629025 
L 430.492475 35.30715 
Q 430.492475 38.30715 433.492475 38.30715 
z
" style="fill: #ffffff"/>
    </g>
    <!-- μ -->
    <g transform="translate(433.492475 33.216525) scale(0.1 -0.1)">
     <defs>
      <path id="DejaVuSans-Bold-3bc" d="M 544 -1338 
L 544 3500 
L 1672 3500 
L 1672 1466 
Q 1672 1103 1828 926 
Q 1984 750 2303 750 
Q 2625 750 2781 926 
Q 2938 1103 2938 1466 
L 2938 3500 
L 4063 3500 
L 4063 1159 
Q 4063 938 4114 850 
Q 4166 763 4288 763 
Q 4344 763 4395 778 
Q 4447 794 4506 831 
L 4506 50 
Q 4341 -22 4195 -56 
Q 4050 -91 3909 -91 
Q 3631 -91 3454 26 
Q 3278 144 3169 403 
Q 3022 156 2811 32 
Q 2600 -91 2322 -91 
Q 2091 -91 1928 -17 
Q 1766 56 1672 206 
L 1672 -1338 
L 544 -1338 
z
" transform="scale(0.015625)"/>
     </defs>
     <use xlink:href="#DejaVuSans-Bold-3bc"/>
    </g>
   </g>
   <g id="text_15">
    <g id="patch_31">
     <path d="M 535.414467 38.30715 
L 550.131654 38.30715 
Q 553.131654 38.30715 553.131654 35.30715 
L 553.131654 25.629025 
Q 553.131654 22.629025 550.131654 22.629025 
L 535.414467 22.629025 
Q 532.414467 22.629025 532.414467 25.629025 
L 532.414467 35.30715 
Q 532.414467 38.30715 535.414467 38.30715 
z
" style="fill: #ffffff"/>
    </g>
    <!-- +σ -->
    <g transform="translate(535.414467 33.227463) scale(0.1 -0.1)">
     <defs>
      <path id="DejaVuSans-2b" d="M 2944 4013 
L 2944 2272 
L 4684 2272 
L 4684 1741 
L 2944 1741 
L 2944 0 
L 2419 0 
L 2419 1741 
L 678 1741 
L 678 2272 
L 2419 2272 
L 2419 4013 
L 2944 4013 
z
" transform="scale(0.015625)"/>
     </defs>
     <use xlink:href="#DejaVuSans-2b"/>
     <use xlink:href="#DejaVuSans-3c3" x="83.789062"/>
    </g>
   </g>
   <g id="text_16">
    <g id="patch_32">
     <path d="M 637.834896 38.30715 
L 658.914584 38.30715 
Q 661.914584 38.30715 661.914584 35.30715 
L 661.914584 25.629025 
Q 661.914584 22.629025 658.914584 22.629025 
L 637.834896 22.629025 
Q 634.834896 22.629025 634.834896 25.629025 
L 634.834896 35.30715 
Q 634.834896 38.30715 637.834896 38.30715 
z
" style="fill: #ffffff"/>
    </g>
    <!-- +2σ -->
    <g transform="translate(637.834896 33.227463) scale(0.1 -0.1)">
     <use xlink:href="#DejaVuSans-2b"/>
     <use xlink:href="#DejaVuSans-32" x="83.789062"/>
     <use xlink:href="#DejaVuSans-3c3" x="147.412109"/>
    </g>
   </g>
   <g id="text_17">
    <g id="patch_33">
     <path d="M 743.436575 38.30715 
L 764.516263 38.30715 
Q 767.516263 38.30715 767.516263 35.30715 
L 767.516263 25.629025 
Q 767.516263 22.629025 764.516263 22.629025 
L 743.436575 22.629025 
Q 740.436575 22.629025 740.436575 25.629025 
L 740.436575 35.30715 
Q 740.436575 38.30715 743.436575 38.30715 
z
" style="fill: #ffffff"/>
    </g>
    <!-- +3σ -->
    <g transform="translate(743.436575 33.227463) scale(0.1 -0.1)">
     <use xlink:href="#DejaVuSans-2b"/>
     <use xlink:href="#DejaVuSans-33" x="83.789062"/>
     <use xlink:href="#DejaVuSans-3c3" x="147.412109"/>
    </g>
   </g>
  </g>
 </g>
 <defs>
  <clipPath id="paf5285ae87">
   <rect x="10.7" y="20.213731" width="854.49952" height="108.305876"/>
  </clipPath>
 </defs>
</svg>
