<?xml version="1.0" encoding="utf-8" standalone="no"?>
<!DOCTYPE svg PUBLIC "-//W3C//DTD SVG 1.1//EN"
  "http://www.w3.org/Graphics/SVG/1.1/DTD/svg11.dtd">
<svg xmlns:xlink="http://www.w3.org/1999/xlink" width="872.39952pt" height="152.406273pt" viewBox="0 0 872.39952 152.406273" xmlns="http://www.w3.org/2000/svg" version="1.1">
 <metadata>
  <rdf:RDF xmlns:dc="http://purl.org/dc/elements/1.1/" xmlns:cc="http://creativecommons.org/ns#" xmlns:rdf="http://www.w3.org/1999/02/22-rdf-syntax-ns#">
   <cc:Work>
    <dc:type rdf:resource="http://purl.org/dc/dcmitype/StillImage"/>
    <dc:format>image/svg+xml</dc:format>
    <dc:creator>
     <cc:Agent>
      <dc:title>Matplotlib, https://matplotlib.org/</dc:title>
     </cc:Agent>
    </dc:creator>
   </cc:Work>
  </rdf:RDF>
 </metadata>
 <defs>
  <style type="text/css">*{stroke-linejoin: round; stroke-linecap: butt}</style>
 </defs>
 <g id="figure_1">
  <g id="patch_1">
   <path d="M 0 152.406273 
L 872.39952 152.406273 
L 872.39952 0 
L 0 0 
z
" style="fill: #ffffff"/>
  </g>
  <g id="axes_1">
   <g id="patch_2">
    <path d="M 10.7 128.528148 
L 865.19952 128.528148 
L 865.19952 20.214138 
L 10.7 20.214138 
z
" style="fill: #ffffff"/>
   </g>
   <g id="matplotlib.axis_1">
    <g id="xtick_1">
     <g id="line2d_1">
      <defs>
       <path id="m8f1de1206a" d="M 0 0 
L 0 3.5 
" style="stroke: #000000; stroke-width: 0.8"/>
      </defs>
      <g>
       <use xlink:href="#m8f1de1206a" x="113.497617" y="128.528148" style="stroke: #000000; stroke-width: 0.8"/>
      </g>
     </g>
     <g id="text_1">
      <!-- −3 -->
      <g transform="translate(106.126523 143.126585) scale(0.1 -0.1)">
       <defs>
        <path id="DejaVuSans-2212" d="M 678 2272 
L 4684 2272 
L 4684 1741 
L 678 1741 
L 678 2272 
z
" transform="scale(0.015625)"/>
        <path id="DejaVuSans-33" d="M 2597 2516 
Q 3050 2419 3304 2112 
Q 3559 1806 3559 1356 
Q 3559 666 3084 287 
Q 2609 -91 1734 -91 
Q 1441 -91 1130 -33 
Q 819 25 488 141 
L 488 750 
Q 750 597 1062 519 
Q 1375 441 1716 441 
Q 2309 441 2620 675 
Q 2931 909 2931 1356 
Q 2931 1769 2642 2001 
Q 2353 2234 1838 2234 
L 1294 2234 
L 1294 2753 
L 1863 2753 
Q 2328 2753 2575 2939 
Q 2822 3125 2822 3475 
Q 2822 3834 2567 4026 
Q 2313 4219 1838 4219 
Q 1578 4219 1281 4162 
Q 984 4106 628 3988 
L 628 4550 
Q 988 4650 1302 4700 
Q 1616 4750 1894 4750 
Q 2613 4750 3031 4423 
Q 3450 4097 3450 3541 
Q 3450 3153 3228 2886 
Q 3006 2619 2597 2516 
z
" transform="scale(0.015625)"/>
       </defs>
       <use xlink:href="#DejaVuSans-2212"/>
       <use xlink:href="#DejaVuSans-33" x="83.789062"/>
      </g>
     </g>
    </g>
    <g id="xtick_2">
     <g id="line2d_2">
      <g>
       <use xlink:href="#m8f1de1206a" x="221.593577" y="128.528148" style="stroke: #000000; stroke-width: 0.8"/>
      </g>
     </g>
     <g id="text_2">
      <!-- −2 -->
      <g transform="translate(214.222483 143.126585) scale(0.1 -0.1)">
       <defs>
        <path id="DejaVuSans-32" d="M 1228 531 
L 3431 531 
L 3431 0 
L 469 0 
L 469 531 
Q 828 903 1448 1529 
Q 2069 2156 2228 2338 
Q 2531 2678 2651 2914 
Q 2772 3150 2772 3378 
Q 2772 3750 2511 3984 
Q 2250 4219 1831 4219 
Q 1534 4219 1204 4116 
Q 875 4013 500 3803 
L 500 4441 
Q 881 4594 1212 4672 
Q 1544 4750 1819 4750 
Q 2544 4750 2975 4387 
Q 3406 4025 3406 3419 
Q 3406 3131 3298 2873 
Q 3191 2616 2906 2266 
Q 2828 2175 2409 1742 
Q 1991 1309 1228 531 
z
" transform="scale(0.015625)"/>
       </defs>
       <use xlink:href="#DejaVuSans-2212"/>
       <use xlink:href="#DejaVuSans-32" x="83.789062"/>
      </g>
     </g>
    </g>
    <g id="xtick_3">
     <g id="line2d_3">
      <g>
       <use xlink:href="#m8f1de1206a" x="329.689537" y="128.528148" style="stroke: #000000; stroke-width: 0.8"/>
      </g>
     </g>
     <g id="text_3">
      <!-- −1 -->
      <g transform="translate(322.318443 143.126585) scale(0.1 -0.1)">
       <defs>
        <path id="DejaVuSans-31" d="M 794 531 
L 1825 531 
L 1825 4091 
L 703 3866 
L 703 4441 
L 1819 4666 
L 2450 4666 
L 2450 531 
L 3481 531 
L 3481 0 
L 794 0 
L 794 531 
z
" transform="scale(0.015625)"/>
       </defs>
       <use xlink:href="#DejaVuSans-2212"/>
       <use xlink:href="#DejaVuSans-31" x="83.789062"/>
      </g>
     </g>
    </g>
    <g id="xtick_4">
     <g id="line2d_4">
      <g>
       <use xlink:href="#m8f1de1206a" x="437.785496" y="128.528148" style="stroke: #000000; stroke-width: 0.8"/>
      </g>
     </g>
     <g id="text_4">
      <!-- 0 -->
      <g transform="translate(434.604246 143.126585) scale(0.1 -0.1)">
       <defs>
        <path id="DejaVuSans-30" d="M 2034 4250 
Q 1547 4250 1301 3770 
Q 1056 3291 1056 2328 
Q 1056 1369 1301 889 
Q 1547 409 2034 409 
Q 2525 409 2770 889 
Q 3016 1369 3016 2328 
Q 3016 3291 2770 3770 
Q 2525 4250 2034 4250 
z
M 2034 4750 
Q 2819 4750 3233 4129 
Q 3647 3509 3647 2328 
Q 3647 1150 3233 529 
Q 2819 -91 2034 -91 
Q 1250 -91 836 529 
Q 422 1150 422 2328 
Q 422 3509 836 4129 
Q 1250 4750 2034 4750 
z
" transform="scale(0.015625)"/>
       </defs>
       <use xlink:href="#DejaVuSans-30"/>
      </g>
     </g>
    </g>
    <g id="xtick_5">
     <g id="line2d_5">
      <g>
       <use xlink:href="#m8f1de1206a" x="545.881456" y="128.528148" style="stroke: #000000; stroke-width: 0.8"/>
      </g>
     </g>
     <g id="text_5">
      <!-- 1 -->
      <g transform="translate(542.700206 143.126585) scale(0.1 -0.1)">
       <use xlink:href="#DejaVuSans-31"/>
      </g>
     </g>
    </g>
    <g id="xtick_6">
     <g id="line2d_6">
      <g>
       <use xlink:href="#m8f1de1206a" x="653.977416" y="128.528148" style="stroke: #000000; stroke-width: 0.8"/>
      </g>
     </g>
     <g id="text_6">
      <!-- 2 -->
      <g transform="translate(650.796166 143.126585) scale(0.1 -0.1)">
       <use xlink:href="#DejaVuSans-32"/>
      </g>
     </g>
    </g>
    <g id="xtick_7">
     <g id="line2d_7">
      <g>
       <use xlink:href="#m8f1de1206a" x="762.073376" y="128.528148" style="stroke: #000000; stroke-width: 0.8"/>
      </g>
     </g>
     <g id="text_7">
      <!-- 3 -->
      <g transform="translate(758.892126 143.126585) scale(0.1 -0.1)">
       <use xlink:href="#DejaVuSans-33"/>
      </g>
     </g>
    </g>
   </g>
   <g id="matplotlib.axis_2"/>
   <g id="line2d_8">
    <path d="M 68.660889 128.528148 
L 68.660889 20.214138 
" clip-path="url(#p7d672977dc)" style="fill: none; stroke: #000000; stroke-width: 1.5; stroke-linecap: square"/>
   </g>
   <g id="line2d_9">
    <path d="M 190.996776 128.528148 
L 190.996776 20.214138 
" clip-path="url(#p7d672977dc)" style="fill: none; stroke: #000000; stroke-width: 1.5; stroke-linecap: square"/>
   </g>
   <g id="line2d_10">
    <path d="M 313.332663 128.528148 
L 313.332663 20.214138 
" clip-path="url(#p7d672977dc)" style="fill: none; stroke: #000000; stroke-width: 1.5; stroke-linecap: square"/>
   </g>
   <g id="line2d_11">
    <path d="M 435.66855 128.528148 
L 435.66855 20.214138 
" clip-path="url(#p7d672977dc)" style="fill: none; stroke: #000000; stroke-width: 1.5; stroke-linecap: square"/>
   </g>
   <g id="line2d_12">
    <path d="M 558.004438 128.528148 
L 558.004438 20.214138 
" clip-path="url(#p7d672977dc)" style="fill: none; stroke: #000000; stroke-width: 1.5; stroke-linecap: square"/>
   </g>
   <g id="line2d_13">
    <path d="M 680.340325 128.528148 
L 680.340325 20.214138 
" clip-path="url(#p7d672977dc)" style="fill: none; stroke: #000000; stroke-width: 1.5; stroke-linecap: square"/>
   </g>
   <g id="line2d_14">
    <path d="M 802.676212 128.528148 
L 802.676212 20.214138 
" clip-path="url(#p7d672977dc)" style="fill: none; stroke: #000000; stroke-width: 1.5; stroke-linecap: square"/>
   </g>
   <g id="line2d_15">
    <path d="M 27.126365 128.528148 
L 27.126365 20.214138 
" clip-path="url(#p7d672977dc)" style="fill: none; stroke: #ff0000; stroke-width: 1.5; stroke-linecap: square"/>
   </g>
   <g id="line2d_16">
    <path d="M 776.888536 128.528148 
L 776.888536 20.214138 
" clip-path="url(#p7d672977dc)" style="fill: none; stroke: #ff0000; stroke-width: 1.5; stroke-linecap: square"/>
   </g>
   <g id="patch_3">
    <path d="M 10.7 128.528148 
L 10.7 20.214138 
" style="fill: none; stroke: #000000; stroke-width: 0.8; stroke-linejoin: miter; stroke-linecap: square"/>
   </g>
   <g id="patch_4">
    <path d="M 865.19952 128.528148 
L 865.19952 20.214138 
" style="fill: none; stroke: #000000; stroke-width: 0.8; stroke-linejoin: miter; stroke-linecap: square"/>
   </g>
   <g id="patch_5">
    <path d="M 10.7 128.528148 
L 865.19952 128.528148 
" style="fill: none; stroke: #000000; stroke-width: 0.8; stroke-linejoin: miter; stroke-linecap: square"/>
   </g>
   <g id="patch_6">
    <path d="M 10.7 20.214138 
L 865.19952 20.214138 
" style="fill: none; stroke: #000000; stroke-width: 0.8; stroke-linejoin: miter; stroke-linecap: square"/>
   </g>
   <g id="text_8">
    <g id="patch_7">
     <path d="M 26.126365 104.10708 
L 26.126365 44.635205 
Q 26.126365 44.635205 26.126365 44.635205 
L 16.44824 44.635205 
Q 16.44824 44.635205 16.44824 44.635205 
L 16.44824 104.10708 
Q 16.44824 104.10708 16.44824 104.10708 
L 26.126365 104.10708 
Q 26.126365 104.10708 26.126365 104.10708 
z
" style="fill: #ffffff"/>
    </g>
    <!-- min=-3.799 -->
    <g transform="translate(24.046678 104.10708) rotate(-90) scale(0.1 -0.1)">
     <defs>
      <path id="DejaVuSans-6d" d="M 3328 2828 
Q 3544 3216 3844 3400 
Q 4144 3584 4550 3584 
Q 5097 3584 5394 3201 
Q 5691 2819 5691 2113 
L 5691 0 
L 5113 0 
L 5113 2094 
Q 5113 2597 4934 2840 
Q 4756 3084 4391 3084 
Q 3944 3084 3684 2787 
Q 3425 2491 3425 1978 
L 3425 0 
L 2847 0 
L 2847 2094 
Q 2847 2600 2669 2842 
Q 2491 3084 2119 3084 
Q 1678 3084 1418 2786 
Q 1159 2488 1159 1978 
L 1159 0 
L 581 0 
L 581 3500 
L 1159 3500 
L 1159 2956 
Q 1356 3278 1631 3431 
Q 1906 3584 2284 3584 
Q 2666 3584 2933 3390 
Q 3200 3197 3328 2828 
z
" transform="scale(0.015625)"/>
      <path id="DejaVuSans-69" d="M 603 3500 
L 1178 3500 
L 1178 0 
L 603 0 
L 603 3500 
z
M 603 4863 
L 1178 4863 
L 1178 4134 
L 603 4134 
L 603 4863 
z
" transform="scale(0.015625)"/>
      <path id="DejaVuSans-6e" d="M 3513 2113 
L 3513 0 
L 2938 0 
L 2938 2094 
Q 2938 2591 2744 2837 
Q 2550 3084 2163 3084 
Q 1697 3084 1428 2787 
Q 1159 2491 1159 1978 
L 1159 0 
L 581 0 
L 581 3500 
L 1159 3500 
L 1159 2956 
Q 1366 3272 1645 3428 
Q 1925 3584 2291 3584 
Q 2894 3584 3203 3211 
Q 3513 2838 3513 2113 
z
" transform="scale(0.015625)"/>
      <path id="DejaVuSans-3d" d="M 678 2906 
L 4684 2906 
L 4684 2381 
L 678 2381 
L 678 2906 
z
M 678 1631 
L 4684 1631 
L 4684 1100 
L 678 1100 
L 678 1631 
z
" transform="scale(0.015625)"/>
      <path id="DejaVuSans-2d" d="M 313 2009 
L 1997 2009 
L 1997 1497 
L 313 1497 
L 313 2009 
z
" transform="scale(0.015625)"/>
      <path id="DejaVuSans-2e" d="M 684 794 
L 1344 794 
L 1344 0 
L 684 0 
L 684 794 
z
" transform="scale(0.015625)"/>
      <path id="DejaVuSans-37" d="M 525 4666 
L 3525 4666 
L 3525 4397 
L 1831 0 
L 1172 0 
L 2766 4134 
L 525 4134 
L 525 4666 
z
" transform="scale(0.015625)"/>
      <path id="DejaVuSans-39" d="M 703 97 
L 703 672 
Q 941 559 1184 500 
Q 1428 441 1663 441 
Q 2288 441 2617 861 
Q 2947 1281 2994 2138 
Q 2813 1869 2534 1725 
Q 2256 1581 1919 1581 
Q 1219 1581 811 2004 
Q 403 2428 403 3163 
Q 403 3881 828 4315 
Q 1253 4750 1959 4750 
Q 2769 4750 3195 4129 
Q 3622 3509 3622 2328 
Q 3622 1225 3098 567 
Q 2575 -91 1691 -91 
Q 1453 -91 1209 -44 
Q 966 3 703 97 
z
M 1959 2075 
Q 2384 2075 2632 2365 
Q 2881 2656 2881 3163 
Q 2881 3666 2632 3958 
Q 2384 4250 1959 4250 
Q 1534 4250 1286 3958 
Q 1038 3666 1038 3163 
Q 1038 2656 1286 2365 
Q 1534 2075 1959 2075 
z
" transform="scale(0.015625)"/>
     </defs>
     <use xlink:href="#DejaVuSans-6d"/>
     <use xlink:href="#DejaVuSans-69" x="97.412109"/>
     <use xlink:href="#DejaVuSans-6e" x="125.195312"/>
     <use xlink:href="#DejaVuSans-3d" x="188.574219"/>
     <use xlink:href="#DejaVuSans-2d" x="272.363281"/>
     <use xlink:href="#DejaVuSans-33" x="308.447266"/>
     <use xlink:href="#DejaVuSans-2e" x="372.070312"/>
     <use xlink:href="#DejaVuSans-37" x="403.857422"/>
     <use xlink:href="#DejaVuSans-39" x="467.480469"/>
     <use xlink:href="#DejaVuSans-39" x="531.103516"/>
    </g>
   </g>
   <g id="text_9">
    <g id="patch_8">
     <path d="M 788.566661 103.768799 
L 788.566661 44.973487 
Q 788.566661 44.973487 788.566661 44.973487 
L 778.888536 44.973487 
Q 778.888536 44.973487 778.888536 44.973487 
L 778.888536 103.768799 
Q 778.888536 103.768799 778.888536 103.768799 
L 788.566661 103.768799 
Q 788.566661 103.768799 788.566661 103.768799 
z
" style="fill: #ffffff"/>
    </g>
    <!-- max=3.137 -->
    <g transform="translate(786.486974 103.768799) rotate(-90) scale(0.1 -0.1)">
     <defs>
      <path id="DejaVuSans-61" d="M 2194 1759 
Q 1497 1759 1228 1600 
Q 959 1441 959 1056 
Q 959 750 1161 570 
Q 1363 391 1709 391 
Q 2188 391 2477 730 
Q 2766 1069 2766 1631 
L 2766 1759 
L 2194 1759 
z
M 3341 1997 
L 3341 0 
L 2766 0 
L 2766 531 
Q 2569 213 2275 61 
Q 1981 -91 1556 -91 
Q 1019 -91 701 211 
Q 384 513 384 1019 
Q 384 1609 779 1909 
Q 1175 2209 1959 2209 
L 2766 2209 
L 2766 2266 
Q 2766 2663 2505 2880 
Q 2244 3097 1772 3097 
Q 1472 3097 1187 3025 
Q 903 2953 641 2809 
L 641 3341 
Q 956 3463 1253 3523 
Q 1550 3584 1831 3584 
Q 2591 3584 2966 3190 
Q 3341 2797 3341 1997 
z
" transform="scale(0.015625)"/>
      <path id="DejaVuSans-78" d="M 3513 3500 
L 2247 1797 
L 3578 0 
L 2900 0 
L 1881 1375 
L 863 0 
L 184 0 
L 1544 1831 
L 300 3500 
L 978 3500 
L 1906 2253 
L 2834 3500 
L 3513 3500 
z
" transform="scale(0.015625)"/>
     </defs>
     <use xlink:href="#DejaVuSans-6d"/>
     <use xlink:href="#DejaVuSans-61" x="97.412109"/>
     <use xlink:href="#DejaVuSans-78" x="158.691406"/>
     <use xlink:href="#DejaVuSans-3d" x="217.871094"/>
     <use xlink:href="#DejaVuSans-33" x="301.660156"/>
     <use xlink:href="#DejaVuSans-2e" x="365.283203"/>
     <use xlink:href="#DejaVuSans-31" x="397.070312"/>
     <use xlink:href="#DejaVuSans-33" x="460.693359"/>
     <use xlink:href="#DejaVuSans-37" x="524.316406"/>
    </g>
   </g>
   <g id="text_10">
    <!-- 100 samples (μ=-0.020, σ=1.132) of Array[1000] x∈[-3.799, 3.137] μ=-0.006 σ=0.977 gpu:0 -->
    <g transform="translate(10.7 14.798437) scale(0.1 -0.1)">
     <defs>
      <path id="DejaVuSans-20" transform="scale(0.015625)"/>
      <path id="DejaVuSans-73" d="M 2834 3397 
L 2834 2853 
Q 2591 2978 2328 3040 
Q 2066 3103 1784 3103 
Q 1356 3103 1142 2972 
Q 928 2841 928 2578 
Q 928 2378 1081 2264 
Q 1234 2150 1697 2047 
L 1894 2003 
Q 2506 1872 2764 1633 
Q 3022 1394 3022 966 
Q 3022 478 2636 193 
Q 2250 -91 1575 -91 
Q 1294 -91 989 -36 
Q 684 19 347 128 
L 347 722 
Q 666 556 975 473 
Q 1284 391 1588 391 
Q 1994 391 2212 530 
Q 2431 669 2431 922 
Q 2431 1156 2273 1281 
Q 2116 1406 1581 1522 
L 1381 1569 
Q 847 1681 609 1914 
Q 372 2147 372 2553 
Q 372 3047 722 3315 
Q 1072 3584 1716 3584 
Q 2034 3584 2315 3537 
Q 2597 3491 2834 3397 
z
" transform="scale(0.015625)"/>
      <path id="DejaVuSans-70" d="M 1159 525 
L 1159 -1331 
L 581 -1331 
L 581 3500 
L 1159 3500 
L 1159 2969 
Q 1341 3281 1617 3432 
Q 1894 3584 2278 3584 
Q 2916 3584 3314 3078 
Q 3713 2572 3713 1747 
Q 3713 922 3314 415 
Q 2916 -91 2278 -91 
Q 1894 -91 1617 61 
Q 1341 213 1159 525 
z
M 3116 1747 
Q 3116 2381 2855 2742 
Q 2594 3103 2138 3103 
Q 1681 3103 1420 2742 
Q 1159 2381 1159 1747 
Q 1159 1113 1420 752 
Q 1681 391 2138 391 
Q 2594 391 2855 752 
Q 3116 1113 3116 1747 
z
" transform="scale(0.015625)"/>
      <path id="DejaVuSans-6c" d="M 603 4863 
L 1178 4863 
L 1178 0 
L 603 0 
L 603 4863 
z
" transform="scale(0.015625)"/>
      <path id="DejaVuSans-65" d="M 3597 1894 
L 3597 1613 
L 953 1613 
Q 991 1019 1311 708 
Q 1631 397 2203 397 
Q 2534 397 2845 478 
Q 3156 559 3463 722 
L 3463 178 
Q 3153 47 2828 -22 
Q 2503 -91 2169 -91 
Q 1331 -91 842 396 
Q 353 884 353 1716 
Q 353 2575 817 3079 
Q 1281 3584 2069 3584 
Q 2775 3584 3186 3129 
Q 3597 2675 3597 1894 
z
M 3022 2063 
Q 3016 2534 2758 2815 
Q 2500 3097 2075 3097 
Q 1594 3097 1305 2825 
Q 1016 2553 972 2059 
L 3022 2063 
z
" transform="scale(0.015625)"/>
      <path id="DejaVuSans-28" d="M 1984 4856 
Q 1566 4138 1362 3434 
Q 1159 2731 1159 2009 
Q 1159 1288 1364 580 
Q 1569 -128 1984 -844 
L 1484 -844 
Q 1016 -109 783 600 
Q 550 1309 550 2009 
Q 550 2706 781 3412 
Q 1013 4119 1484 4856 
L 1984 4856 
z
" transform="scale(0.015625)"/>
      <path id="DejaVuSans-3bc" d="M 544 -1331 
L 544 3500 
L 1119 3500 
L 1119 1325 
Q 1119 872 1334 640 
Q 1550 409 1972 409 
Q 2434 409 2667 671 
Q 2900 934 2900 1459 
L 2900 3500 
L 3475 3500 
L 3475 806 
Q 3475 619 3529 530 
Q 3584 441 3700 441 
Q 3728 441 3778 458 
Q 3828 475 3916 513 
L 3916 50 
Q 3788 -22 3673 -56 
Q 3559 -91 3450 -91 
Q 3234 -91 3106 31 
Q 2978 153 2931 403 
Q 2775 156 2548 32 
Q 2322 -91 2016 -91 
Q 1697 -91 1473 31 
Q 1250 153 1119 397 
L 1119 -1331 
L 544 -1331 
z
" transform="scale(0.015625)"/>
      <path id="DejaVuSans-2c" d="M 750 794 
L 1409 794 
L 1409 256 
L 897 -744 
L 494 -744 
L 750 256 
L 750 794 
z
" transform="scale(0.015625)"/>
      <path id="DejaVuSans-3c3" d="M 1959 3044 
Q 1484 3044 1228 2700 
Q 959 2341 959 1747 
Q 959 1119 1226 758 
Q 1494 397 1959 397 
Q 2419 397 2687 759 
Q 2956 1122 2956 1747 
Q 2956 2319 2688 2700 
Q 2441 3044 1959 3044 
z
M 1959 3500 
L 3869 3500 
L 3869 2925 
L 3225 2925 
Q 3566 2438 3566 1747 
Q 3566 888 3138 400 
Q 2709 -91 1959 -91 
Q 1206 -91 781 400 
Q 353 888 353 1747 
Q 353 2613 781 3097 
Q 1134 3500 1959 3500 
z
" transform="scale(0.015625)"/>
      <path id="DejaVuSans-29" d="M 513 4856 
L 1013 4856 
Q 1481 4119 1714 3412 
Q 1947 2706 1947 2009 
Q 1947 1309 1714 600 
Q 1481 -109 1013 -844 
L 513 -844 
Q 928 -128 1133 580 
Q 1338 1288 1338 2009 
Q 1338 2731 1133 3434 
Q 928 4138 513 4856 
z
" transform="scale(0.015625)"/>
      <path id="DejaVuSans-6f" d="M 1959 3097 
Q 1497 3097 1228 2736 
Q 959 2375 959 1747 
Q 959 1119 1226 758 
Q 1494 397 1959 397 
Q 2419 397 2687 759 
Q 2956 1122 2956 1747 
Q 2956 2369 2687 2733 
Q 2419 3097 1959 3097 
z
M 1959 3584 
Q 2709 3584 3137 3096 
Q 3566 2609 3566 1747 
Q 3566 888 3137 398 
Q 2709 -91 1959 -91 
Q 1206 -91 779 398 
Q 353 888 353 1747 
Q 353 2609 779 3096 
Q 1206 3584 1959 3584 
z
" transform="scale(0.015625)"/>
      <path id="DejaVuSans-66" d="M 2375 4863 
L 2375 4384 
L 1825 4384 
Q 1516 4384 1395 4259 
Q 1275 4134 1275 3809 
L 1275 3500 
L 2222 3500 
L 2222 3053 
L 1275 3053 
L 1275 0 
L 697 0 
L 697 3053 
L 147 3053 
L 147 3500 
L 697 3500 
L 697 3744 
Q 697 4328 969 4595 
Q 1241 4863 1831 4863 
L 2375 4863 
z
" transform="scale(0.015625)"/>
      <path id="DejaVuSans-41" d="M 2188 4044 
L 1331 1722 
L 3047 1722 
L 2188 4044 
z
M 1831 4666 
L 2547 4666 
L 4325 0 
L 3669 0 
L 3244 1197 
L 1141 1197 
L 716 0 
L 50 0 
L 1831 4666 
z
" transform="scale(0.015625)"/>
      <path id="DejaVuSans-72" d="M 2631 2963 
Q 2534 3019 2420 3045 
Q 2306 3072 2169 3072 
Q 1681 3072 1420 2755 
Q 1159 2438 1159 1844 
L 1159 0 
L 581 0 
L 581 3500 
L 1159 3500 
L 1159 2956 
Q 1341 3275 1631 3429 
Q 1922 3584 2338 3584 
Q 2397 3584 2469 3576 
Q 2541 3569 2628 3553 
L 2631 2963 
z
" transform="scale(0.015625)"/>
      <path id="DejaVuSans-79" d="M 2059 -325 
Q 1816 -950 1584 -1140 
Q 1353 -1331 966 -1331 
L 506 -1331 
L 506 -850 
L 844 -850 
Q 1081 -850 1212 -737 
Q 1344 -625 1503 -206 
L 1606 56 
L 191 3500 
L 800 3500 
L 1894 763 
L 2988 3500 
L 3597 3500 
L 2059 -325 
z
" transform="scale(0.015625)"/>
      <path id="DejaVuSans-5b" d="M 550 4863 
L 1875 4863 
L 1875 4416 
L 1125 4416 
L 1125 -397 
L 1875 -397 
L 1875 -844 
L 550 -844 
L 550 4863 
z
" transform="scale(0.015625)"/>
      <path id="DejaVuSans-5d" d="M 1947 4863 
L 1947 -844 
L 622 -844 
L 622 -397 
L 1369 -397 
L 1369 4416 
L 622 4416 
L 622 4863 
L 1947 4863 
z
" transform="scale(0.015625)"/>
      <path id="DejaVuSans-2208" d="M 1072 1959 
Q 1094 1728 1291 1353 
Q 1522 919 1959 675 
Q 2388 438 2850 434 
L 5028 434 
L 5028 -63 
L 2850 -63 
Q 2250 -63 1695 246 
Q 1141 556 844 1106 
Q 547 1656 547 2241 
Q 547 2819 844 3369 
Q 1141 3919 1695 4231 
Q 2250 4544 2850 4544 
L 5028 4544 
L 5028 4047 
L 2850 4047 
Q 2388 4044 1959 3803 
Q 1525 3556 1291 3125 
Q 1091 2750 1063 2459 
L 5028 2459 
L 5028 1959 
L 1072 1959 
z
" transform="scale(0.015625)"/>
      <path id="DejaVuSans-36" d="M 2113 2584 
Q 1688 2584 1439 2293 
Q 1191 2003 1191 1497 
Q 1191 994 1439 701 
Q 1688 409 2113 409 
Q 2538 409 2786 701 
Q 3034 994 3034 1497 
Q 3034 2003 2786 2293 
Q 2538 2584 2113 2584 
z
M 3366 4563 
L 3366 3988 
Q 3128 4100 2886 4159 
Q 2644 4219 2406 4219 
Q 1781 4219 1451 3797 
Q 1122 3375 1075 2522 
Q 1259 2794 1537 2939 
Q 1816 3084 2150 3084 
Q 2853 3084 3261 2657 
Q 3669 2231 3669 1497 
Q 3669 778 3244 343 
Q 2819 -91 2113 -91 
Q 1303 -91 875 529 
Q 447 1150 447 2328 
Q 447 3434 972 4092 
Q 1497 4750 2381 4750 
Q 2619 4750 2861 4703 
Q 3103 4656 3366 4563 
z
" transform="scale(0.015625)"/>
      <path id="DejaVuSans-67" d="M 2906 1791 
Q 2906 2416 2648 2759 
Q 2391 3103 1925 3103 
Q 1463 3103 1205 2759 
Q 947 2416 947 1791 
Q 947 1169 1205 825 
Q 1463 481 1925 481 
Q 2391 481 2648 825 
Q 2906 1169 2906 1791 
z
M 3481 434 
Q 3481 -459 3084 -895 
Q 2688 -1331 1869 -1331 
Q 1566 -1331 1297 -1286 
Q 1028 -1241 775 -1147 
L 775 -588 
Q 1028 -725 1275 -790 
Q 1522 -856 1778 -856 
Q 2344 -856 2625 -561 
Q 2906 -266 2906 331 
L 2906 616 
Q 2728 306 2450 153 
Q 2172 0 1784 0 
Q 1141 0 747 490 
Q 353 981 353 1791 
Q 353 2603 747 3093 
Q 1141 3584 1784 3584 
Q 2172 3584 2450 3431 
Q 2728 3278 2906 2969 
L 2906 3500 
L 3481 3500 
L 3481 434 
z
" transform="scale(0.015625)"/>
      <path id="DejaVuSans-75" d="M 544 1381 
L 544 3500 
L 1119 3500 
L 1119 1403 
Q 1119 906 1312 657 
Q 1506 409 1894 409 
Q 2359 409 2629 706 
Q 2900 1003 2900 1516 
L 2900 3500 
L 3475 3500 
L 3475 0 
L 2900 0 
L 2900 538 
Q 2691 219 2414 64 
Q 2138 -91 1772 -91 
Q 1169 -91 856 284 
Q 544 659 544 1381 
z
M 1991 3584 
L 1991 3584 
z
" transform="scale(0.015625)"/>
      <path id="DejaVuSans-3a" d="M 750 794 
L 1409 794 
L 1409 0 
L 750 0 
L 750 794 
z
M 750 3309 
L 1409 3309 
L 1409 2516 
L 750 2516 
L 750 3309 
z
" transform="scale(0.015625)"/>
     </defs>
     <use xlink:href="#DejaVuSans-31"/>
     <use xlink:href="#DejaVuSans-30" x="63.623047"/>
     <use xlink:href="#DejaVuSans-30" x="127.246094"/>
     <use xlink:href="#DejaVuSans-20" x="190.869141"/>
     <use xlink:href="#DejaVuSans-73" x="222.65625"/>
     <use xlink:href="#DejaVuSans-61" x="274.755859"/>
     <use xlink:href="#DejaVuSans-6d" x="336.035156"/>
     <use xlink:href="#DejaVuSans-70" x="433.447266"/>
     <use xlink:href="#DejaVuSans-6c" x="496.923828"/>
     <use xlink:href="#DejaVuSans-65" x="524.707031"/>
     <use xlink:href="#DejaVuSans-73" x="586.230469"/>
     <use xlink:href="#DejaVuSans-20" x="638.330078"/>
     <use xlink:href="#DejaVuSans-28" x="670.117188"/>
     <use xlink:href="#DejaVuSans-3bc" x="709.130859"/>
     <use xlink:href="#DejaVuSans-3d" x="772.753906"/>
     <use xlink:href="#DejaVuSans-2d" x="856.542969"/>
     <use xlink:href="#DejaVuSans-30" x="892.626953"/>
     <use xlink:href="#DejaVuSans-2e" x="956.25"/>
     <use xlink:href="#DejaVuSans-30" x="988.037109"/>
     <use xlink:href="#DejaVuSans-32" x="1051.660156"/>
     <use xlink:href="#DejaVuSans-30" x="1115.283203"/>
     <use xlink:href="#DejaVuSans-2c" x="1178.90625"/>
     <use xlink:href="#DejaVuSans-20" x="1210.693359"/>
     <use xlink:href="#DejaVuSans-3c3" x="1242.480469"/>
     <use xlink:href="#DejaVuSans-3d" x="1305.859375"/>
     <use xlink:href="#DejaVuSans-31" x="1389.648438"/>
     <use xlink:href="#DejaVuSans-2e" x="1453.271484"/>
     <use xlink:href="#DejaVuSans-31" x="1485.058594"/>
     <use xlink:href="#DejaVuSans-33" x="1548.681641"/>
     <use xlink:href="#DejaVuSans-32" x="1612.304688"/>
     <use xlink:href="#DejaVuSans-29" x="1675.927734"/>
     <use xlink:href="#DejaVuSans-20" x="1714.941406"/>
     <use xlink:href="#DejaVuSans-6f" x="1746.728516"/>
     <use xlink:href="#DejaVuSans-66" x="1807.910156"/>
     <use xlink:href="#DejaVuSans-20" x="1843.115234"/>
     <use xlink:href="#DejaVuSans-41" x="1874.902344"/>
     <use xlink:href="#DejaVuSans-72" x="1943.310547"/>
     <use xlink:href="#DejaVuSans-72" x="1982.673828"/>
     <use xlink:href="#DejaVuSans-61" x="2023.787109"/>
     <use xlink:href="#DejaVuSans-79" x="2085.066406"/>
     <use xlink:href="#DejaVuSans-5b" x="2144.246094"/>
     <use xlink:href="#DejaVuSans-31" x="2183.259766"/>
     <use xlink:href="#DejaVuSans-30" x="2246.882812"/>
     <use xlink:href="#DejaVuSans-30" x="2310.505859"/>
     <use xlink:href="#DejaVuSans-30" x="2374.128906"/>
     <use xlink:href="#DejaVuSans-5d" x="2437.751953"/>
     <use xlink:href="#DejaVuSans-20" x="2476.765625"/>
     <use xlink:href="#DejaVuSans-78" x="2508.552734"/>
     <use xlink:href="#DejaVuSans-2208" x="2567.732422"/>
     <use xlink:href="#DejaVuSans-5b" x="2654.841797"/>
     <use xlink:href="#DejaVuSans-2d" x="2693.855469"/>
     <use xlink:href="#DejaVuSans-33" x="2729.939453"/>
     <use xlink:href="#DejaVuSans-2e" x="2793.5625"/>
     <use xlink:href="#DejaVuSans-37" x="2825.349609"/>
     <use xlink:href="#DejaVuSans-39" x="2888.972656"/>
     <use xlink:href="#DejaVuSans-39" x="2952.595703"/>
     <use xlink:href="#DejaVuSans-2c" x="3016.21875"/>
     <use xlink:href="#DejaVuSans-20" x="3048.005859"/>
     <use xlink:href="#DejaVuSans-33" x="3079.792969"/>
     <use xlink:href="#DejaVuSans-2e" x="3143.416016"/>
     <use xlink:href="#DejaVuSans-31" x="3175.203125"/>
     <use xlink:href="#DejaVuSans-33" x="3238.826172"/>
     <use xlink:href="#DejaVuSans-37" x="3302.449219"/>
     <use xlink:href="#DejaVuSans-5d" x="3366.072266"/>
     <use xlink:href="#DejaVuSans-20" x="3405.085938"/>
     <use xlink:href="#DejaVuSans-3bc" x="3436.873047"/>
     <use xlink:href="#DejaVuSans-3d" x="3500.496094"/>
     <use xlink:href="#DejaVuSans-2d" x="3584.285156"/>
     <use xlink:href="#DejaVuSans-30" x="3620.369141"/>
     <use xlink:href="#DejaVuSans-2e" x="3683.992188"/>
     <use xlink:href="#DejaVuSans-30" x="3715.779297"/>
     <use xlink:href="#DejaVuSans-30" x="3779.402344"/>
     <use xlink:href="#DejaVuSans-36" x="3843.025391"/>
     <use xlink:href="#DejaVuSans-20" x="3906.648438"/>
     <use xlink:href="#DejaVuSans-3c3" x="3938.435547"/>
     <use xlink:href="#DejaVuSans-3d" x="4001.814453"/>
     <use xlink:href="#DejaVuSans-30" x="4085.603516"/>
     <use xlink:href="#DejaVuSans-2e" x="4149.226562"/>
     <use xlink:href="#DejaVuSans-39" x="4181.013672"/>
     <use xlink:href="#DejaVuSans-37" x="4244.636719"/>
     <use xlink:href="#DejaVuSans-37" x="4308.259766"/>
     <use xlink:href="#DejaVuSans-20" x="4371.882812"/>
     <use xlink:href="#DejaVuSans-67" x="4403.669922"/>
     <use xlink:href="#DejaVuSans-70" x="4467.146484"/>
     <use xlink:href="#DejaVuSans-75" x="4530.623047"/>
     <use xlink:href="#DejaVuSans-3a" x="4594.001953"/>
     <use xlink:href="#DejaVuSans-30" x="4627.693359"/>
    </g>
   </g>
   <g id="patch_9">
    <path d="M 164.749867 128.528148 
L 220.72163 128.528148 
L 220.72163 113.413683 
L 164.749867 113.413683 
z
" clip-path="url(#p7d672977dc)" style="fill: #00bfff"/>
   </g>
   <g id="patch_10">
    <path d="M 220.72163 128.528148 
L 276.693419 128.528148 
L 276.693419 109.635075 
L 220.72163 109.635075 
z
" clip-path="url(#p7d672977dc)" style="fill: #00bfff"/>
   </g>
   <g id="patch_11">
    <path d="M 276.693419 128.528148 
L 332.665188 128.528148 
L 332.665188 94.520605 
L 276.693419 94.520605 
z
" clip-path="url(#p7d672977dc)" style="fill: #00bfff"/>
   </g>
   <g id="patch_12">
    <path d="M 332.665188 128.528148 
L 388.636961 128.528148 
L 388.636961 49.177225 
L 332.665188 49.177225 
z
" clip-path="url(#p7d672977dc)" style="fill: #00bfff"/>
   </g>
   <g id="patch_13">
    <path d="M 388.636961 128.528148 
L 444.608733 128.528148 
L 444.608733 83.184763 
L 388.636961 83.184763 
z
" clip-path="url(#p7d672977dc)" style="fill: #00bfff"/>
   </g>
   <g id="patch_14">
    <path d="M 444.608733 128.528148 
L 500.580509 128.528148 
L 500.580509 56.734456 
L 444.608733 56.734456 
z
" clip-path="url(#p7d672977dc)" style="fill: #00bfff"/>
   </g>
   <g id="patch_15">
    <path d="M 500.580509 128.528148 
L 556.552285 128.528148 
L 556.552285 56.734456 
L 500.580509 56.734456 
z
" clip-path="url(#p7d672977dc)" style="fill: #00bfff"/>
   </g>
   <g id="patch_16">
    <path d="M 556.552285 128.528148 
L 612.524048 128.528148 
L 612.524048 120.970915 
L 556.552285 120.970915 
z
" clip-path="url(#p7d672977dc)" style="fill: #00bfff"/>
   </g>
   <g id="patch_17">
    <path d="M 612.524048 128.528148 
L 668.495837 128.528148 
L 668.495837 120.970919 
L 612.524048 120.970919 
z
" clip-path="url(#p7d672977dc)" style="fill: #00bfff"/>
   </g>
   <g id="patch_18">
    <path d="M 668.495837 128.528148 
L 724.4676 128.528148 
L 724.4676 102.077834 
L 668.495837 102.077834 
z
" clip-path="url(#p7d672977dc)" style="fill: #00bfff"/>
   </g>
   <g id="line2d_17">
    <path d="M 10.7 128.362836 
L 19.331308 128.317448 
L 27.962617 128.260932 
L 36.593925 128.190939 
L 45.225233 128.104726 
L 53.856541 127.999111 
L 62.48785 127.870434 
L 71.119158 127.71452 
L 79.750466 127.526643 
L 88.381775 127.301504 
L 97.013083 127.033214 
L 105.644391 126.715291 
L 114.275699 126.340672 
L 122.907008 125.901746 
L 131.538316 125.390407 
L 140.169624 124.798128 
L 148.800933 124.116067 
L 157.432241 123.335202 
L 166.063549 122.446485 
L 174.694857 121.441041 
L 183.326166 120.310383 
L 191.957474 119.046657 
L 200.588782 117.642917 
L 209.220091 116.093406 
L 217.851399 114.393856 
L 226.482707 112.541792 
L 235.114015 110.536829 
L 243.745324 108.380949 
L 252.376632 106.078762 
L 261.00794 103.637719 
L 269.639248 101.06828 
L 278.270557 98.384027 
L 286.901865 95.601696 
L 295.533173 92.741142 
L 304.164482 89.82521 
L 312.79579 86.879526 
L 321.427098 83.932194 
L 330.058406 81.013402 
L 338.689715 78.154953 
L 347.321023 75.389719 
L 355.952331 72.751033 
L 364.58364 70.272033 
L 373.214948 67.984984 
L 381.846256 65.920579 
L 390.477564 64.107261 
L 399.108873 62.570572 
L 407.740181 61.332554 
L 416.371489 60.411222 
L 425.002798 59.820131 
L 433.634106 59.568043 
L 442.265414 59.65871 
L 450.896722 60.09078 
L 459.528031 60.857835 
L 468.159339 61.948545 
L 476.790647 63.346949 
L 485.421956 65.032843 
L 494.053264 66.982263 
L 502.684572 69.168058 
L 511.31588 71.560511 
L 519.947189 74.128011 
L 528.578497 76.837746 
L 537.209805 79.65639 
L 545.841114 82.550777 
L 554.472422 85.488527 
L 563.10373 88.438627 
L 571.735038 91.371936 
L 580.366347 94.261619 
L 588.997655 97.083485 
L 597.628963 99.816251 
L 606.260272 102.441699 
L 614.89158 104.944761 
L 623.522888 107.313516 
L 632.154196 109.53911 
L 640.785505 111.615619 
L 649.416813 113.539851 
L 658.048121 115.31111 
L 666.679429 116.930922 
L 675.310738 118.402747 
L 683.942046 119.731677 
L 692.573354 120.924135 
L 701.204663 121.987582 
L 709.835971 122.930238 
L 718.467279 123.760824 
L 727.098587 124.488332 
L 735.729896 125.121819 
L 744.361204 125.67023 
L 752.992512 126.142255 
L 761.623821 126.546208 
L 770.255129 126.889944 
L 778.886437 127.180788 
L 787.517745 127.425499 
L 796.149054 127.630245 
L 804.780362 127.800604 
L 813.41167 127.941567 
L 822.042979 128.057567 
L 830.674287 128.152502 
L 839.305595 128.229774 
L 847.936903 128.292327 
L 856.568212 128.342692 
L 865.19952 128.383024 
" clip-path="url(#p7d672977dc)" style="fill: none; stroke: #1f77b4; stroke-width: 1.5; stroke-linecap: square"/>
   </g>
   <g id="text_11">
    <g id="patch_19">
     <path d="M 60.506982 38.307963 
L 76.814795 38.307963 
Q 79.814795 38.307963 79.814795 35.307963 
L 79.814795 25.629838 
Q 79.814795 22.629838 76.814795 22.629838 
L 60.506982 22.629838 
Q 57.506982 22.629838 57.506982 25.629838 
L 57.506982 35.307963 
Q 57.506982 38.307963 60.506982 38.307963 
z
" style="fill: #ffffff"/>
    </g>
    <!-- -3σ -->
    <g transform="translate(60.506982 33.228276) scale(0.1 -0.1)">
     <use xlink:href="#DejaVuSans-2d"/>
     <use xlink:href="#DejaVuSans-33" x="36.083984"/>
     <use xlink:href="#DejaVuSans-3c3" x="99.707031"/>
    </g>
   </g>
   <g id="text_12">
    <g id="patch_20">
     <path d="M 182.84287 38.307963 
L 199.150682 38.307963 
Q 202.150682 38.307963 202.150682 35.307963 
L 202.150682 25.629838 
Q 202.150682 22.629838 199.150682 22.629838 
L 182.84287 22.629838 
Q 179.84287 22.629838 179.84287 25.629838 
L 179.84287 35.307963 
Q 179.84287 38.307963 182.84287 38.307963 
z
" style="fill: #ffffff"/>
    </g>
    <!-- -2σ -->
    <g transform="translate(182.84287 33.228276) scale(0.1 -0.1)">
     <use xlink:href="#DejaVuSans-2d"/>
     <use xlink:href="#DejaVuSans-32" x="36.083984"/>
     <use xlink:href="#DejaVuSans-3c3" x="99.707031"/>
    </g>
   </g>
   <g id="text_13">
    <g id="patch_21">
     <path d="M 308.360007 38.307963 
L 318.305319 38.307963 
Q 321.305319 38.307963 321.305319 35.307963 
L 321.305319 25.629838 
Q 321.305319 22.629838 318.305319 22.629838 
L 308.360007 22.629838 
Q 305.360007 22.629838 305.360007 25.629838 
L 305.360007 35.307963 
Q 305.360007 38.307963 308.360007 38.307963 
z
" style="fill: #ffffff"/>
    </g>
    <!-- -σ -->
    <g transform="translate(308.360007 33.228276) scale(0.1 -0.1)">
     <use xlink:href="#DejaVuSans-2d"/>
     <use xlink:href="#DejaVuSans-3c3" x="36.083984"/>
    </g>
   </g>
   <g id="text_14">
    <g id="patch_22">
     <path d="M 431.989644 38.307963 
L 439.347457 38.307963 
Q 442.347457 38.307963 442.347457 35.307963 
L 442.347457 25.629838 
Q 442.347457 22.629838 439.347457 22.629838 
L 431.989644 22.629838 
Q 428.989644 22.629838 428.989644 25.629838 
L 428.989644 35.307963 
Q 428.989644 38.307963 431.989644 38.307963 
z
" style="fill: #ffffff"/>
    </g>
    <!-- μ -->
    <g transform="translate(431.989644 33.217338) scale(0.1 -0.1)">
     <defs>
      <path id="DejaVuSans-Bold-3bc" d="M 544 -1338 
L 544 3500 
L 1672 3500 
L 1672 1466 
Q 1672 1103 1828 926 
Q 1984 750 2303 750 
Q 2625 750 2781 926 
Q 2938 1103 2938 1466 
L 2938 3500 
L 4063 3500 
L 4063 1159 
Q 4063 938 4114 850 
Q 4166 763 4288 763 
Q 4344 763 4395 778 
Q 4447 794 4506 831 
L 4506 50 
Q 4341 -22 4195 -56 
Q 4050 -91 3909 -91 
Q 3631 -91 3454 26 
Q 3278 144 3169 403 
Q 3022 156 2811 32 
Q 2600 -91 2322 -91 
Q 2091 -91 1928 -17 
Q 1766 56 1672 206 
L 1672 -1338 
L 544 -1338 
z
" transform="scale(0.015625)"/>
     </defs>
     <use xlink:href="#DejaVuSans-Bold-3bc"/>
    </g>
   </g>
   <g id="text_15">
    <g id="patch_23">
     <path d="M 550.645844 38.307963 
L 565.363032 38.307963 
Q 568.363032 38.307963 568.363032 35.307963 
L 568.363032 25.629838 
Q 568.363032 22.629838 565.363032 22.629838 
L 550.645844 22.629838 
Q 547.645844 22.629838 547.645844 25.629838 
L 547.645844 35.307963 
Q 547.645844 38.307963 550.645844 38.307963 
z
" style="fill: #ffffff"/>
    </g>
    <!-- +σ -->
    <g transform="translate(550.645844 33.228276) scale(0.1 -0.1)">
     <defs>
      <path id="DejaVuSans-2b" d="M 2944 4013 
L 2944 2272 
L 4684 2272 
L 4684 1741 
L 2944 1741 
L 2944 0 
L 2419 0 
L 2419 1741 
L 678 1741 
L 678 2272 
L 2419 2272 
L 2419 4013 
L 2944 4013 
z
" transform="scale(0.015625)"/>
     </defs>
     <use xlink:href="#DejaVuSans-2b"/>
     <use xlink:href="#DejaVuSans-3c3" x="83.789062"/>
    </g>
   </g>
   <g id="text_16">
    <g id="patch_24">
     <path d="M 669.800481 38.307963 
L 690.880169 38.307963 
Q 693.880169 38.307963 693.880169 35.307963 
L 693.880169 25.629838 
Q 693.880169 22.629838 690.880169 22.629838 
L 669.800481 22.629838 
Q 666.800481 22.629838 666.800481 25.629838 
L 666.800481 35.307963 
Q 666.800481 38.307963 669.800481 38.307963 
z
" style="fill: #ffffff"/>
    </g>
    <!-- +2σ -->
    <g transform="translate(669.800481 33.228276) scale(0.1 -0.1)">
     <use xlink:href="#DejaVuSans-2b"/>
     <use xlink:href="#DejaVuSans-32" x="83.789062"/>
     <use xlink:href="#DejaVuSans-3c3" x="147.412109"/>
    </g>
   </g>
   <g id="text_17">
    <g id="patch_25">
     <path d="M 792.136369 38.307963 
L 813.216056 38.307963 
Q 816.216056 38.307963 816.216056 35.307963 
L 816.216056 25.629838 
Q 816.216056 22.629838 813.216056 22.629838 
L 792.136369 22.629838 
Q 789.136369 22.629838 789.136369 25.629838 
L 789.136369 35.307963 
Q 789.136369 38.307963 792.136369 38.307963 
z
" style="fill: #ffffff"/>
    </g>
    <!-- +3σ -->
    <g transform="translate(792.136369 33.228276) scale(0.1 -0.1)">
     <use xlink:href="#DejaVuSans-2b"/>
     <use xlink:href="#DejaVuSans-33" x="83.789062"/>
     <use xlink:href="#DejaVuSans-3c3" x="147.412109"/>
    </g>
   </g>
  </g>
 </g>
 <defs>
  <clipPath id="p7d672977dc">
   <rect x="10.7" y="20.214138" width="854.49952" height="108.31401"/>
  </clipPath>
 </defs>
</svg>
