<?xml version="1.0" encoding="utf-8" standalone="no"?>
<!DOCTYPE svg PUBLIC "-//W3C//DTD SVG 1.1//EN"
  "http://www.w3.org/Graphics/SVG/1.1/DTD/svg11.dtd">
<svg xmlns:xlink="http://www.w3.org/1999/xlink" width="872.39952pt" height="152.406273pt" viewBox="0 0 872.39952 152.406273" xmlns="http://www.w3.org/2000/svg" version="1.1">
 <metadata>
  <rdf:RDF xmlns:dc="http://purl.org/dc/elements/1.1/" xmlns:cc="http://creativecommons.org/ns#" xmlns:rdf="http://www.w3.org/1999/02/22-rdf-syntax-ns#">
   <cc:Work>
    <dc:type rdf:resource="http://purl.org/dc/dcmitype/StillImage"/>
    <dc:format>image/svg+xml</dc:format>
    <dc:creator>
     <cc:Agent>
      <dc:title>Matplotlib, https://matplotlib.org/</dc:title>
     </cc:Agent>
    </dc:creator>
   </cc:Work>
  </rdf:RDF>
 </metadata>
 <defs>
  <style type="text/css">*{stroke-linejoin: round; stroke-linecap: butt}</style>
 </defs>
 <g id="figure_1">
  <g id="patch_1">
   <path d="M 0 152.406273 
L 872.39952 152.406273 
L 872.39952 0 
L 0 0 
z
" style="fill: #ffffff"/>
  </g>
  <g id="axes_1">
   <g id="patch_2">
    <path d="M 10.7 128.528148 
L 865.19952 128.528148 
L 865.19952 20.214138 
L 10.7 20.214138 
z
" style="fill: #ffffff"/>
   </g>
   <g id="matplotlib.axis_1">
    <g id="xtick_1">
     <g id="line2d_1">
      <defs>
       <path id="m8f1de1206a" d="M 0 0 
L 0 3.5 
" style="stroke: #000000; stroke-width: 0.8"/>
      </defs>
      <g>
       <use xlink:href="#m8f1de1206a" x="80.181581" y="128.528148" style="stroke: #000000; stroke-width: 0.8"/>
      </g>
     </g>
     <g id="text_1">
      <!-- −3 -->
      <g transform="translate(72.810487 143.126585) scale(0.1 -0.1)">
       <defs>
        <path id="DejaVuSans-2212" d="M 678 2272 
L 4684 2272 
L 4684 1741 
L 678 1741 
L 678 2272 
z
" transform="scale(0.015625)"/>
        <path id="DejaVuSans-33" d="M 2597 2516 
Q 3050 2419 3304 2112 
Q 3559 1806 3559 1356 
Q 3559 666 3084 287 
Q 2609 -91 1734 -91 
Q 1441 -91 1130 -33 
Q 819 25 488 141 
L 488 750 
Q 750 597 1062 519 
Q 1375 441 1716 441 
Q 2309 441 2620 675 
Q 2931 909 2931 1356 
Q 2931 1769 2642 2001 
Q 2353 2234 1838 2234 
L 1294 2234 
L 1294 2753 
L 1863 2753 
Q 2328 2753 2575 2939 
Q 2822 3125 2822 3475 
Q 2822 3834 2567 4026 
Q 2313 4219 1838 4219 
Q 1578 4219 1281 4162 
Q 984 4106 628 3988 
L 628 4550 
Q 988 4650 1302 4700 
Q 1616 4750 1894 4750 
Q 2613 4750 3031 4423 
Q 3450 4097 3450 3541 
Q 3450 3153 3228 2886 
Q 3006 2619 2597 2516 
z
" transform="scale(0.015625)"/>
       </defs>
       <use xlink:href="#DejaVuSans-2212"/>
       <use xlink:href="#DejaVuSans-33" x="83.789062"/>
      </g>
     </g>
    </g>
    <g id="xtick_2">
     <g id="line2d_2">
      <g>
       <use xlink:href="#m8f1de1206a" x="216.398431" y="128.528148" style="stroke: #000000; stroke-width: 0.8"/>
      </g>
     </g>
     <g id="text_2">
      <!-- −2 -->
      <g transform="translate(209.027337 143.126585) scale(0.1 -0.1)">
       <defs>
        <path id="DejaVuSans-32" d="M 1228 531 
L 3431 531 
L 3431 0 
L 469 0 
L 469 531 
Q 828 903 1448 1529 
Q 2069 2156 2228 2338 
Q 2531 2678 2651 2914 
Q 2772 3150 2772 3378 
Q 2772 3750 2511 3984 
Q 2250 4219 1831 4219 
Q 1534 4219 1204 4116 
Q 875 4013 500 3803 
L 500 4441 
Q 881 4594 1212 4672 
Q 1544 4750 1819 4750 
Q 2544 4750 2975 4387 
Q 3406 4025 3406 3419 
Q 3406 3131 3298 2873 
Q 3191 2616 2906 2266 
Q 2828 2175 2409 1742 
Q 1991 1309 1228 531 
z
" transform="scale(0.015625)"/>
       </defs>
       <use xlink:href="#DejaVuSans-2212"/>
       <use xlink:href="#DejaVuSans-32" x="83.789062"/>
      </g>
     </g>
    </g>
    <g id="xtick_3">
     <g id="line2d_3">
      <g>
       <use xlink:href="#m8f1de1206a" x="352.61528" y="128.528148" style="stroke: #000000; stroke-width: 0.8"/>
      </g>
     </g>
     <g id="text_3">
      <!-- −1 -->
      <g transform="translate(345.244186 143.126585) scale(0.1 -0.1)">
       <defs>
        <path id="DejaVuSans-31" d="M 794 531 
L 1825 531 
L 1825 4091 
L 703 3866 
L 703 4441 
L 1819 4666 
L 2450 4666 
L 2450 531 
L 3481 531 
L 3481 0 
L 794 0 
L 794 531 
z
" transform="scale(0.015625)"/>
       </defs>
       <use xlink:href="#DejaVuSans-2212"/>
       <use xlink:href="#DejaVuSans-31" x="83.789062"/>
      </g>
     </g>
    </g>
    <g id="xtick_4">
     <g id="line2d_4">
      <g>
       <use xlink:href="#m8f1de1206a" x="488.83213" y="128.528148" style="stroke: #000000; stroke-width: 0.8"/>
      </g>
     </g>
     <g id="text_4">
      <!-- 0 -->
      <g transform="translate(485.65088 143.126585) scale(0.1 -0.1)">
       <defs>
        <path id="DejaVuSans-30" d="M 2034 4250 
Q 1547 4250 1301 3770 
Q 1056 3291 1056 2328 
Q 1056 1369 1301 889 
Q 1547 409 2034 409 
Q 2525 409 2770 889 
Q 3016 1369 3016 2328 
Q 3016 3291 2770 3770 
Q 2525 4250 2034 4250 
z
M 2034 4750 
Q 2819 4750 3233 4129 
Q 3647 3509 3647 2328 
Q 3647 1150 3233 529 
Q 2819 -91 2034 -91 
Q 1250 -91 836 529 
Q 422 1150 422 2328 
Q 422 3509 836 4129 
Q 1250 4750 2034 4750 
z
" transform="scale(0.015625)"/>
       </defs>
       <use xlink:href="#DejaVuSans-30"/>
      </g>
     </g>
    </g>
    <g id="xtick_5">
     <g id="line2d_5">
      <g>
       <use xlink:href="#m8f1de1206a" x="625.04898" y="128.528148" style="stroke: #000000; stroke-width: 0.8"/>
      </g>
     </g>
     <g id="text_5">
      <!-- 1 -->
      <g transform="translate(621.86773 143.126585) scale(0.1 -0.1)">
       <use xlink:href="#DejaVuSans-31"/>
      </g>
     </g>
    </g>
    <g id="xtick_6">
     <g id="line2d_6">
      <g>
       <use xlink:href="#m8f1de1206a" x="761.265829" y="128.528148" style="stroke: #000000; stroke-width: 0.8"/>
      </g>
     </g>
     <g id="text_6">
      <!-- 2 -->
      <g transform="translate(758.084579 143.126585) scale(0.1 -0.1)">
       <use xlink:href="#DejaVuSans-32"/>
      </g>
     </g>
    </g>
   </g>
   <g id="matplotlib.axis_2"/>
   <g id="line2d_7">
    <path d="M 146.658356 128.528148 
L 146.658356 20.214138 
" clip-path="url(#pc12b36b30b)" style="fill: none; stroke: #000000; stroke-width: 1.5; stroke-linecap: square"/>
   </g>
   <g id="line2d_8">
    <path d="M 292.22193 128.528148 
L 292.22193 20.214138 
" clip-path="url(#pc12b36b30b)" style="fill: none; stroke: #000000; stroke-width: 1.5; stroke-linecap: square"/>
   </g>
   <g id="line2d_9">
    <path d="M 437.785504 128.528148 
L 437.785504 20.214138 
" clip-path="url(#pc12b36b30b)" style="fill: none; stroke: #000000; stroke-width: 1.5; stroke-linecap: square"/>
   </g>
   <g id="line2d_10">
    <path d="M 583.349079 128.528148 
L 583.349079 20.214138 
" clip-path="url(#pc12b36b30b)" style="fill: none; stroke: #000000; stroke-width: 1.5; stroke-linecap: square"/>
   </g>
   <g id="line2d_11">
    <path d="M 728.912653 128.528148 
L 728.912653 20.214138 
" clip-path="url(#pc12b36b30b)" style="fill: none; stroke: #000000; stroke-width: 1.5; stroke-linecap: square"/>
   </g>
   <g id="line2d_12">
    <path d="M 200.337926 128.528148 
L 200.337926 20.214138 
" clip-path="url(#pc12b36b30b)" style="fill: none; stroke: #ff0000; stroke-width: 1.5; stroke-linecap: square"/>
   </g>
   <g id="line2d_13">
    <path d="M 848.444627 128.528148 
L 848.444627 20.214138 
" clip-path="url(#pc12b36b30b)" style="fill: none; stroke: #ff0000; stroke-width: 1.5; stroke-linecap: square"/>
   </g>
   <g id="patch_3">
    <path d="M 10.7 128.528148 
L 10.7 20.214138 
" style="fill: none; stroke: #000000; stroke-width: 0.8; stroke-linejoin: miter; stroke-linecap: square"/>
   </g>
   <g id="patch_4">
    <path d="M 865.19952 128.528148 
L 865.19952 20.214138 
" style="fill: none; stroke: #000000; stroke-width: 0.8; stroke-linejoin: miter; stroke-linecap: square"/>
   </g>
   <g id="patch_5">
    <path d="M 10.7 128.528148 
L 865.19952 128.528148 
" style="fill: none; stroke: #000000; stroke-width: 0.8; stroke-linejoin: miter; stroke-linecap: square"/>
   </g>
   <g id="patch_6">
    <path d="M 10.7 20.214138 
L 865.19952 20.214138 
" style="fill: none; stroke: #000000; stroke-width: 0.8; stroke-linejoin: miter; stroke-linecap: square"/>
   </g>
   <g id="text_7">
    <g id="patch_7">
     <path d="M 199.337926 104.10708 
L 199.337926 44.635205 
Q 199.337926 44.635205 199.337926 44.635205 
L 189.659801 44.635205 
Q 189.659801 44.635205 189.659801 44.635205 
L 189.659801 104.10708 
Q 189.659801 104.10708 189.659801 104.10708 
L 199.337926 104.10708 
Q 199.337926 104.10708 199.337926 104.10708 
z
" style="fill: #ffffff"/>
    </g>
    <!-- min=-2.118 -->
    <g transform="translate(197.258239 104.10708) rotate(-90) scale(0.1 -0.1)">
     <defs>
      <path id="DejaVuSans-6d" d="M 3328 2828 
Q 3544 3216 3844 3400 
Q 4144 3584 4550 3584 
Q 5097 3584 5394 3201 
Q 5691 2819 5691 2113 
L 5691 0 
L 5113 0 
L 5113 2094 
Q 5113 2597 4934 2840 
Q 4756 3084 4391 3084 
Q 3944 3084 3684 2787 
Q 3425 2491 3425 1978 
L 3425 0 
L 2847 0 
L 2847 2094 
Q 2847 2600 2669 2842 
Q 2491 3084 2119 3084 
Q 1678 3084 1418 2786 
Q 1159 2488 1159 1978 
L 1159 0 
L 581 0 
L 581 3500 
L 1159 3500 
L 1159 2956 
Q 1356 3278 1631 3431 
Q 1906 3584 2284 3584 
Q 2666 3584 2933 3390 
Q 3200 3197 3328 2828 
z
" transform="scale(0.015625)"/>
      <path id="DejaVuSans-69" d="M 603 3500 
L 1178 3500 
L 1178 0 
L 603 0 
L 603 3500 
z
M 603 4863 
L 1178 4863 
L 1178 4134 
L 603 4134 
L 603 4863 
z
" transform="scale(0.015625)"/>
      <path id="DejaVuSans-6e" d="M 3513 2113 
L 3513 0 
L 2938 0 
L 2938 2094 
Q 2938 2591 2744 2837 
Q 2550 3084 2163 3084 
Q 1697 3084 1428 2787 
Q 1159 2491 1159 1978 
L 1159 0 
L 581 0 
L 581 3500 
L 1159 3500 
L 1159 2956 
Q 1366 3272 1645 3428 
Q 1925 3584 2291 3584 
Q 2894 3584 3203 3211 
Q 3513 2838 3513 2113 
z
" transform="scale(0.015625)"/>
      <path id="DejaVuSans-3d" d="M 678 2906 
L 4684 2906 
L 4684 2381 
L 678 2381 
L 678 2906 
z
M 678 1631 
L 4684 1631 
L 4684 1100 
L 678 1100 
L 678 1631 
z
" transform="scale(0.015625)"/>
      <path id="DejaVuSans-2d" d="M 313 2009 
L 1997 2009 
L 1997 1497 
L 313 1497 
L 313 2009 
z
" transform="scale(0.015625)"/>
      <path id="DejaVuSans-2e" d="M 684 794 
L 1344 794 
L 1344 0 
L 684 0 
L 684 794 
z
" transform="scale(0.015625)"/>
      <path id="DejaVuSans-38" d="M 2034 2216 
Q 1584 2216 1326 1975 
Q 1069 1734 1069 1313 
Q 1069 891 1326 650 
Q 1584 409 2034 409 
Q 2484 409 2743 651 
Q 3003 894 3003 1313 
Q 3003 1734 2745 1975 
Q 2488 2216 2034 2216 
z
M 1403 2484 
Q 997 2584 770 2862 
Q 544 3141 544 3541 
Q 544 4100 942 4425 
Q 1341 4750 2034 4750 
Q 2731 4750 3128 4425 
Q 3525 4100 3525 3541 
Q 3525 3141 3298 2862 
Q 3072 2584 2669 2484 
Q 3125 2378 3379 2068 
Q 3634 1759 3634 1313 
Q 3634 634 3220 271 
Q 2806 -91 2034 -91 
Q 1263 -91 848 271 
Q 434 634 434 1313 
Q 434 1759 690 2068 
Q 947 2378 1403 2484 
z
M 1172 3481 
Q 1172 3119 1398 2916 
Q 1625 2713 2034 2713 
Q 2441 2713 2670 2916 
Q 2900 3119 2900 3481 
Q 2900 3844 2670 4047 
Q 2441 4250 2034 4250 
Q 1625 4250 1398 4047 
Q 1172 3844 1172 3481 
z
" transform="scale(0.015625)"/>
     </defs>
     <use xlink:href="#DejaVuSans-6d"/>
     <use xlink:href="#DejaVuSans-69" x="97.412109"/>
     <use xlink:href="#DejaVuSans-6e" x="125.195312"/>
     <use xlink:href="#DejaVuSans-3d" x="188.574219"/>
     <use xlink:href="#DejaVuSans-2d" x="272.363281"/>
     <use xlink:href="#DejaVuSans-32" x="308.447266"/>
     <use xlink:href="#DejaVuSans-2e" x="372.070312"/>
     <use xlink:href="#DejaVuSans-31" x="403.857422"/>
     <use xlink:href="#DejaVuSans-31" x="467.480469"/>
     <use xlink:href="#DejaVuSans-38" x="531.103516"/>
    </g>
   </g>
   <g id="text_8">
    <g id="patch_8">
     <path d="M 860.122752 103.768799 
L 860.122752 44.973487 
Q 860.122752 44.973487 860.122752 44.973487 
L 850.444627 44.973487 
Q 850.444627 44.973487 850.444627 44.973487 
L 850.444627 103.768799 
Q 850.444627 103.768799 850.444627 103.768799 
L 860.122752 103.768799 
Q 860.122752 103.768799 860.122752 103.768799 
z
" style="fill: #ffffff"/>
    </g>
    <!-- max=2.640 -->
    <g transform="translate(858.043065 103.768799) rotate(-90) scale(0.1 -0.1)">
     <defs>
      <path id="DejaVuSans-61" d="M 2194 1759 
Q 1497 1759 1228 1600 
Q 959 1441 959 1056 
Q 959 750 1161 570 
Q 1363 391 1709 391 
Q 2188 391 2477 730 
Q 2766 1069 2766 1631 
L 2766 1759 
L 2194 1759 
z
M 3341 1997 
L 3341 0 
L 2766 0 
L 2766 531 
Q 2569 213 2275 61 
Q 1981 -91 1556 -91 
Q 1019 -91 701 211 
Q 384 513 384 1019 
Q 384 1609 779 1909 
Q 1175 2209 1959 2209 
L 2766 2209 
L 2766 2266 
Q 2766 2663 2505 2880 
Q 2244 3097 1772 3097 
Q 1472 3097 1187 3025 
Q 903 2953 641 2809 
L 641 3341 
Q 956 3463 1253 3523 
Q 1550 3584 1831 3584 
Q 2591 3584 2966 3190 
Q 3341 2797 3341 1997 
z
" transform="scale(0.015625)"/>
      <path id="DejaVuSans-78" d="M 3513 3500 
L 2247 1797 
L 3578 0 
L 2900 0 
L 1881 1375 
L 863 0 
L 184 0 
L 1544 1831 
L 300 3500 
L 978 3500 
L 1906 2253 
L 2834 3500 
L 3513 3500 
z
" transform="scale(0.015625)"/>
      <path id="DejaVuSans-36" d="M 2113 2584 
Q 1688 2584 1439 2293 
Q 1191 2003 1191 1497 
Q 1191 994 1439 701 
Q 1688 409 2113 409 
Q 2538 409 2786 701 
Q 3034 994 3034 1497 
Q 3034 2003 2786 2293 
Q 2538 2584 2113 2584 
z
M 3366 4563 
L 3366 3988 
Q 3128 4100 2886 4159 
Q 2644 4219 2406 4219 
Q 1781 4219 1451 3797 
Q 1122 3375 1075 2522 
Q 1259 2794 1537 2939 
Q 1816 3084 2150 3084 
Q 2853 3084 3261 2657 
Q 3669 2231 3669 1497 
Q 3669 778 3244 343 
Q 2819 -91 2113 -91 
Q 1303 -91 875 529 
Q 447 1150 447 2328 
Q 447 3434 972 4092 
Q 1497 4750 2381 4750 
Q 2619 4750 2861 4703 
Q 3103 4656 3366 4563 
z
" transform="scale(0.015625)"/>
      <path id="DejaVuSans-34" d="M 2419 4116 
L 825 1625 
L 2419 1625 
L 2419 4116 
z
M 2253 4666 
L 3047 4666 
L 3047 1625 
L 3713 1625 
L 3713 1100 
L 3047 1100 
L 3047 0 
L 2419 0 
L 2419 1100 
L 313 1100 
L 313 1709 
L 2253 4666 
z
" transform="scale(0.015625)"/>
     </defs>
     <use xlink:href="#DejaVuSans-6d"/>
     <use xlink:href="#DejaVuSans-61" x="97.412109"/>
     <use xlink:href="#DejaVuSans-78" x="158.691406"/>
     <use xlink:href="#DejaVuSans-3d" x="217.871094"/>
     <use xlink:href="#DejaVuSans-32" x="301.660156"/>
     <use xlink:href="#DejaVuSans-2e" x="365.283203"/>
     <use xlink:href="#DejaVuSans-36" x="397.070312"/>
     <use xlink:href="#DejaVuSans-34" x="460.693359"/>
     <use xlink:href="#DejaVuSans-30" x="524.316406"/>
    </g>
   </g>
   <g id="text_9">
    <!-- 10000 samples (μ=-0.375, σ=1.069) of Array[196, 196, 3] n=115248 x∈[-2.118, 2.640] μ=-0.388 σ=1.073 cpu:0 -->
    <g transform="translate(10.7 14.798437) scale(0.1 -0.1)">
     <defs>
      <path id="DejaVuSans-20" transform="scale(0.015625)"/>
      <path id="DejaVuSans-73" d="M 2834 3397 
L 2834 2853 
Q 2591 2978 2328 3040 
Q 2066 3103 1784 3103 
Q 1356 3103 1142 2972 
Q 928 2841 928 2578 
Q 928 2378 1081 2264 
Q 1234 2150 1697 2047 
L 1894 2003 
Q 2506 1872 2764 1633 
Q 3022 1394 3022 966 
Q 3022 478 2636 193 
Q 2250 -91 1575 -91 
Q 1294 -91 989 -36 
Q 684 19 347 128 
L 347 722 
Q 666 556 975 473 
Q 1284 391 1588 391 
Q 1994 391 2212 530 
Q 2431 669 2431 922 
Q 2431 1156 2273 1281 
Q 2116 1406 1581 1522 
L 1381 1569 
Q 847 1681 609 1914 
Q 372 2147 372 2553 
Q 372 3047 722 3315 
Q 1072 3584 1716 3584 
Q 2034 3584 2315 3537 
Q 2597 3491 2834 3397 
z
" transform="scale(0.015625)"/>
      <path id="DejaVuSans-70" d="M 1159 525 
L 1159 -1331 
L 581 -1331 
L 581 3500 
L 1159 3500 
L 1159 2969 
Q 1341 3281 1617 3432 
Q 1894 3584 2278 3584 
Q 2916 3584 3314 3078 
Q 3713 2572 3713 1747 
Q 3713 922 3314 415 
Q 2916 -91 2278 -91 
Q 1894 -91 1617 61 
Q 1341 213 1159 525 
z
M 3116 1747 
Q 3116 2381 2855 2742 
Q 2594 3103 2138 3103 
Q 1681 3103 1420 2742 
Q 1159 2381 1159 1747 
Q 1159 1113 1420 752 
Q 1681 391 2138 391 
Q 2594 391 2855 752 
Q 3116 1113 3116 1747 
z
" transform="scale(0.015625)"/>
      <path id="DejaVuSans-6c" d="M 603 4863 
L 1178 4863 
L 1178 0 
L 603 0 
L 603 4863 
z
" transform="scale(0.015625)"/>
      <path id="DejaVuSans-65" d="M 3597 1894 
L 3597 1613 
L 953 1613 
Q 991 1019 1311 708 
Q 1631 397 2203 397 
Q 2534 397 2845 478 
Q 3156 559 3463 722 
L 3463 178 
Q 3153 47 2828 -22 
Q 2503 -91 2169 -91 
Q 1331 -91 842 396 
Q 353 884 353 1716 
Q 353 2575 817 3079 
Q 1281 3584 2069 3584 
Q 2775 3584 3186 3129 
Q 3597 2675 3597 1894 
z
M 3022 2063 
Q 3016 2534 2758 2815 
Q 2500 3097 2075 3097 
Q 1594 3097 1305 2825 
Q 1016 2553 972 2059 
L 3022 2063 
z
" transform="scale(0.015625)"/>
      <path id="DejaVuSans-28" d="M 1984 4856 
Q 1566 4138 1362 3434 
Q 1159 2731 1159 2009 
Q 1159 1288 1364 580 
Q 1569 -128 1984 -844 
L 1484 -844 
Q 1016 -109 783 600 
Q 550 1309 550 2009 
Q 550 2706 781 3412 
Q 1013 4119 1484 4856 
L 1984 4856 
z
" transform="scale(0.015625)"/>
      <path id="DejaVuSans-3bc" d="M 544 -1331 
L 544 3500 
L 1119 3500 
L 1119 1325 
Q 1119 872 1334 640 
Q 1550 409 1972 409 
Q 2434 409 2667 671 
Q 2900 934 2900 1459 
L 2900 3500 
L 3475 3500 
L 3475 806 
Q 3475 619 3529 530 
Q 3584 441 3700 441 
Q 3728 441 3778 458 
Q 3828 475 3916 513 
L 3916 50 
Q 3788 -22 3673 -56 
Q 3559 -91 3450 -91 
Q 3234 -91 3106 31 
Q 2978 153 2931 403 
Q 2775 156 2548 32 
Q 2322 -91 2016 -91 
Q 1697 -91 1473 31 
Q 1250 153 1119 397 
L 1119 -1331 
L 544 -1331 
z
" transform="scale(0.015625)"/>
      <path id="DejaVuSans-37" d="M 525 4666 
L 3525 4666 
L 3525 4397 
L 1831 0 
L 1172 0 
L 2766 4134 
L 525 4134 
L 525 4666 
z
" transform="scale(0.015625)"/>
      <path id="DejaVuSans-35" d="M 691 4666 
L 3169 4666 
L 3169 4134 
L 1269 4134 
L 1269 2991 
Q 1406 3038 1543 3061 
Q 1681 3084 1819 3084 
Q 2600 3084 3056 2656 
Q 3513 2228 3513 1497 
Q 3513 744 3044 326 
Q 2575 -91 1722 -91 
Q 1428 -91 1123 -41 
Q 819 9 494 109 
L 494 744 
Q 775 591 1075 516 
Q 1375 441 1709 441 
Q 2250 441 2565 725 
Q 2881 1009 2881 1497 
Q 2881 1984 2565 2268 
Q 2250 2553 1709 2553 
Q 1456 2553 1204 2497 
Q 953 2441 691 2322 
L 691 4666 
z
" transform="scale(0.015625)"/>
      <path id="DejaVuSans-2c" d="M 750 794 
L 1409 794 
L 1409 256 
L 897 -744 
L 494 -744 
L 750 256 
L 750 794 
z
" transform="scale(0.015625)"/>
      <path id="DejaVuSans-3c3" d="M 1959 3044 
Q 1484 3044 1228 2700 
Q 959 2341 959 1747 
Q 959 1119 1226 758 
Q 1494 397 1959 397 
Q 2419 397 2687 759 
Q 2956 1122 2956 1747 
Q 2956 2319 2688 2700 
Q 2441 3044 1959 3044 
z
M 1959 3500 
L 3869 3500 
L 3869 2925 
L 3225 2925 
Q 3566 2438 3566 1747 
Q 3566 888 3138 400 
Q 2709 -91 1959 -91 
Q 1206 -91 781 400 
Q 353 888 353 1747 
Q 353 2613 781 3097 
Q 1134 3500 1959 3500 
z
" transform="scale(0.015625)"/>
      <path id="DejaVuSans-39" d="M 703 97 
L 703 672 
Q 941 559 1184 500 
Q 1428 441 1663 441 
Q 2288 441 2617 861 
Q 2947 1281 2994 2138 
Q 2813 1869 2534 1725 
Q 2256 1581 1919 1581 
Q 1219 1581 811 2004 
Q 403 2428 403 3163 
Q 403 3881 828 4315 
Q 1253 4750 1959 4750 
Q 2769 4750 3195 4129 
Q 3622 3509 3622 2328 
Q 3622 1225 3098 567 
Q 2575 -91 1691 -91 
Q 1453 -91 1209 -44 
Q 966 3 703 97 
z
M 1959 2075 
Q 2384 2075 2632 2365 
Q 2881 2656 2881 3163 
Q 2881 3666 2632 3958 
Q 2384 4250 1959 4250 
Q 1534 4250 1286 3958 
Q 1038 3666 1038 3163 
Q 1038 2656 1286 2365 
Q 1534 2075 1959 2075 
z
" transform="scale(0.015625)"/>
      <path id="DejaVuSans-29" d="M 513 4856 
L 1013 4856 
Q 1481 4119 1714 3412 
Q 1947 2706 1947 2009 
Q 1947 1309 1714 600 
Q 1481 -109 1013 -844 
L 513 -844 
Q 928 -128 1133 580 
Q 1338 1288 1338 2009 
Q 1338 2731 1133 3434 
Q 928 4138 513 4856 
z
" transform="scale(0.015625)"/>
      <path id="DejaVuSans-6f" d="M 1959 3097 
Q 1497 3097 1228 2736 
Q 959 2375 959 1747 
Q 959 1119 1226 758 
Q 1494 397 1959 397 
Q 2419 397 2687 759 
Q 2956 1122 2956 1747 
Q 2956 2369 2687 2733 
Q 2419 3097 1959 3097 
z
M 1959 3584 
Q 2709 3584 3137 3096 
Q 3566 2609 3566 1747 
Q 3566 888 3137 398 
Q 2709 -91 1959 -91 
Q 1206 -91 779 398 
Q 353 888 353 1747 
Q 353 2609 779 3096 
Q 1206 3584 1959 3584 
z
" transform="scale(0.015625)"/>
      <path id="DejaVuSans-66" d="M 2375 4863 
L 2375 4384 
L 1825 4384 
Q 1516 4384 1395 4259 
Q 1275 4134 1275 3809 
L 1275 3500 
L 2222 3500 
L 2222 3053 
L 1275 3053 
L 1275 0 
L 697 0 
L 697 3053 
L 147 3053 
L 147 3500 
L 697 3500 
L 697 3744 
Q 697 4328 969 4595 
Q 1241 4863 1831 4863 
L 2375 4863 
z
" transform="scale(0.015625)"/>
      <path id="DejaVuSans-41" d="M 2188 4044 
L 1331 1722 
L 3047 1722 
L 2188 4044 
z
M 1831 4666 
L 2547 4666 
L 4325 0 
L 3669 0 
L 3244 1197 
L 1141 1197 
L 716 0 
L 50 0 
L 1831 4666 
z
" transform="scale(0.015625)"/>
      <path id="DejaVuSans-72" d="M 2631 2963 
Q 2534 3019 2420 3045 
Q 2306 3072 2169 3072 
Q 1681 3072 1420 2755 
Q 1159 2438 1159 1844 
L 1159 0 
L 581 0 
L 581 3500 
L 1159 3500 
L 1159 2956 
Q 1341 3275 1631 3429 
Q 1922 3584 2338 3584 
Q 2397 3584 2469 3576 
Q 2541 3569 2628 3553 
L 2631 2963 
z
" transform="scale(0.015625)"/>
      <path id="DejaVuSans-79" d="M 2059 -325 
Q 1816 -950 1584 -1140 
Q 1353 -1331 966 -1331 
L 506 -1331 
L 506 -850 
L 844 -850 
Q 1081 -850 1212 -737 
Q 1344 -625 1503 -206 
L 1606 56 
L 191 3500 
L 800 3500 
L 1894 763 
L 2988 3500 
L 3597 3500 
L 2059 -325 
z
" transform="scale(0.015625)"/>
      <path id="DejaVuSans-5b" d="M 550 4863 
L 1875 4863 
L 1875 4416 
L 1125 4416 
L 1125 -397 
L 1875 -397 
L 1875 -844 
L 550 -844 
L 550 4863 
z
" transform="scale(0.015625)"/>
      <path id="DejaVuSans-5d" d="M 1947 4863 
L 1947 -844 
L 622 -844 
L 622 -397 
L 1369 -397 
L 1369 4416 
L 622 4416 
L 622 4863 
L 1947 4863 
z
" transform="scale(0.015625)"/>
      <path id="DejaVuSans-2208" d="M 1072 1959 
Q 1094 1728 1291 1353 
Q 1522 919 1959 675 
Q 2388 438 2850 434 
L 5028 434 
L 5028 -63 
L 2850 -63 
Q 2250 -63 1695 246 
Q 1141 556 844 1106 
Q 547 1656 547 2241 
Q 547 2819 844 3369 
Q 1141 3919 1695 4231 
Q 2250 4544 2850 4544 
L 5028 4544 
L 5028 4047 
L 2850 4047 
Q 2388 4044 1959 3803 
Q 1525 3556 1291 3125 
Q 1091 2750 1063 2459 
L 5028 2459 
L 5028 1959 
L 1072 1959 
z
" transform="scale(0.015625)"/>
      <path id="DejaVuSans-63" d="M 3122 3366 
L 3122 2828 
Q 2878 2963 2633 3030 
Q 2388 3097 2138 3097 
Q 1578 3097 1268 2742 
Q 959 2388 959 1747 
Q 959 1106 1268 751 
Q 1578 397 2138 397 
Q 2388 397 2633 464 
Q 2878 531 3122 666 
L 3122 134 
Q 2881 22 2623 -34 
Q 2366 -91 2075 -91 
Q 1284 -91 818 406 
Q 353 903 353 1747 
Q 353 2603 823 3093 
Q 1294 3584 2113 3584 
Q 2378 3584 2631 3529 
Q 2884 3475 3122 3366 
z
" transform="scale(0.015625)"/>
      <path id="DejaVuSans-75" d="M 544 1381 
L 544 3500 
L 1119 3500 
L 1119 1403 
Q 1119 906 1312 657 
Q 1506 409 1894 409 
Q 2359 409 2629 706 
Q 2900 1003 2900 1516 
L 2900 3500 
L 3475 3500 
L 3475 0 
L 2900 0 
L 2900 538 
Q 2691 219 2414 64 
Q 2138 -91 1772 -91 
Q 1169 -91 856 284 
Q 544 659 544 1381 
z
M 1991 3584 
L 1991 3584 
z
" transform="scale(0.015625)"/>
      <path id="DejaVuSans-3a" d="M 750 794 
L 1409 794 
L 1409 0 
L 750 0 
L 750 794 
z
M 750 3309 
L 1409 3309 
L 1409 2516 
L 750 2516 
L 750 3309 
z
" transform="scale(0.015625)"/>
     </defs>
     <use xlink:href="#DejaVuSans-31"/>
     <use xlink:href="#DejaVuSans-30" x="63.623047"/>
     <use xlink:href="#DejaVuSans-30" x="127.246094"/>
     <use xlink:href="#DejaVuSans-30" x="190.869141"/>
     <use xlink:href="#DejaVuSans-30" x="254.492188"/>
     <use xlink:href="#DejaVuSans-20" x="318.115234"/>
     <use xlink:href="#DejaVuSans-73" x="349.902344"/>
     <use xlink:href="#DejaVuSans-61" x="402.001953"/>
     <use xlink:href="#DejaVuSans-6d" x="463.28125"/>
     <use xlink:href="#DejaVuSans-70" x="560.693359"/>
     <use xlink:href="#DejaVuSans-6c" x="624.169922"/>
     <use xlink:href="#DejaVuSans-65" x="651.953125"/>
     <use xlink:href="#DejaVuSans-73" x="713.476562"/>
     <use xlink:href="#DejaVuSans-20" x="765.576172"/>
     <use xlink:href="#DejaVuSans-28" x="797.363281"/>
     <use xlink:href="#DejaVuSans-3bc" x="836.376953"/>
     <use xlink:href="#DejaVuSans-3d" x="900"/>
     <use xlink:href="#DejaVuSans-2d" x="983.789062"/>
     <use xlink:href="#DejaVuSans-30" x="1019.873047"/>
     <use xlink:href="#DejaVuSans-2e" x="1083.496094"/>
     <use xlink:href="#DejaVuSans-33" x="1115.283203"/>
     <use xlink:href="#DejaVuSans-37" x="1178.90625"/>
     <use xlink:href="#DejaVuSans-35" x="1242.529297"/>
     <use xlink:href="#DejaVuSans-2c" x="1306.152344"/>
     <use xlink:href="#DejaVuSans-20" x="1337.939453"/>
     <use xlink:href="#DejaVuSans-3c3" x="1369.726562"/>
     <use xlink:href="#DejaVuSans-3d" x="1433.105469"/>
     <use xlink:href="#DejaVuSans-31" x="1516.894531"/>
     <use xlink:href="#DejaVuSans-2e" x="1580.517578"/>
     <use xlink:href="#DejaVuSans-30" x="1612.304688"/>
     <use xlink:href="#DejaVuSans-36" x="1675.927734"/>
     <use xlink:href="#DejaVuSans-39" x="1739.550781"/>
     <use xlink:href="#DejaVuSans-29" x="1803.173828"/>
     <use xlink:href="#DejaVuSans-20" x="1842.1875"/>
     <use xlink:href="#DejaVuSans-6f" x="1873.974609"/>
     <use xlink:href="#DejaVuSans-66" x="1935.15625"/>
     <use xlink:href="#DejaVuSans-20" x="1970.361328"/>
     <use xlink:href="#DejaVuSans-41" x="2002.148438"/>
     <use xlink:href="#DejaVuSans-72" x="2070.556641"/>
     <use xlink:href="#DejaVuSans-72" x="2109.919922"/>
     <use xlink:href="#DejaVuSans-61" x="2151.033203"/>
     <use xlink:href="#DejaVuSans-79" x="2212.3125"/>
     <use xlink:href="#DejaVuSans-5b" x="2271.492188"/>
     <use xlink:href="#DejaVuSans-31" x="2310.505859"/>
     <use xlink:href="#DejaVuSans-39" x="2374.128906"/>
     <use xlink:href="#DejaVuSans-36" x="2437.751953"/>
     <use xlink:href="#DejaVuSans-2c" x="2501.375"/>
     <use xlink:href="#DejaVuSans-20" x="2533.162109"/>
     <use xlink:href="#DejaVuSans-31" x="2564.949219"/>
     <use xlink:href="#DejaVuSans-39" x="2628.572266"/>
     <use xlink:href="#DejaVuSans-36" x="2692.195312"/>
     <use xlink:href="#DejaVuSans-2c" x="2755.818359"/>
     <use xlink:href="#DejaVuSans-20" x="2787.605469"/>
     <use xlink:href="#DejaVuSans-33" x="2819.392578"/>
     <use xlink:href="#DejaVuSans-5d" x="2883.015625"/>
     <use xlink:href="#DejaVuSans-20" x="2922.029297"/>
     <use xlink:href="#DejaVuSans-6e" x="2953.816406"/>
     <use xlink:href="#DejaVuSans-3d" x="3017.195312"/>
     <use xlink:href="#DejaVuSans-31" x="3100.984375"/>
     <use xlink:href="#DejaVuSans-31" x="3164.607422"/>
     <use xlink:href="#DejaVuSans-35" x="3228.230469"/>
     <use xlink:href="#DejaVuSans-32" x="3291.853516"/>
     <use xlink:href="#DejaVuSans-34" x="3355.476562"/>
     <use xlink:href="#DejaVuSans-38" x="3419.099609"/>
     <use xlink:href="#DejaVuSans-20" x="3482.722656"/>
     <use xlink:href="#DejaVuSans-78" x="3514.509766"/>
     <use xlink:href="#DejaVuSans-2208" x="3573.689453"/>
     <use xlink:href="#DejaVuSans-5b" x="3660.798828"/>
     <use xlink:href="#DejaVuSans-2d" x="3699.8125"/>
     <use xlink:href="#DejaVuSans-32" x="3735.896484"/>
     <use xlink:href="#DejaVuSans-2e" x="3799.519531"/>
     <use xlink:href="#DejaVuSans-31" x="3831.306641"/>
     <use xlink:href="#DejaVuSans-31" x="3894.929688"/>
     <use xlink:href="#DejaVuSans-38" x="3958.552734"/>
     <use xlink:href="#DejaVuSans-2c" x="4022.175781"/>
     <use xlink:href="#DejaVuSans-20" x="4053.962891"/>
     <use xlink:href="#DejaVuSans-32" x="4085.75"/>
     <use xlink:href="#DejaVuSans-2e" x="4149.373047"/>
     <use xlink:href="#DejaVuSans-36" x="4181.160156"/>
     <use xlink:href="#DejaVuSans-34" x="4244.783203"/>
     <use xlink:href="#DejaVuSans-30" x="4308.40625"/>
     <use xlink:href="#DejaVuSans-5d" x="4372.029297"/>
     <use xlink:href="#DejaVuSans-20" x="4411.042969"/>
     <use xlink:href="#DejaVuSans-3bc" x="4442.830078"/>
     <use xlink:href="#DejaVuSans-3d" x="4506.453125"/>
     <use xlink:href="#DejaVuSans-2d" x="4590.242188"/>
     <use xlink:href="#DejaVuSans-30" x="4626.326172"/>
     <use xlink:href="#DejaVuSans-2e" x="4689.949219"/>
     <use xlink:href="#DejaVuSans-33" x="4721.736328"/>
     <use xlink:href="#DejaVuSans-38" x="4785.359375"/>
     <use xlink:href="#DejaVuSans-38" x="4848.982422"/>
     <use xlink:href="#DejaVuSans-20" x="4912.605469"/>
     <use xlink:href="#DejaVuSans-3c3" x="4944.392578"/>
     <use xlink:href="#DejaVuSans-3d" x="5007.771484"/>
     <use xlink:href="#DejaVuSans-31" x="5091.560547"/>
     <use xlink:href="#DejaVuSans-2e" x="5155.183594"/>
     <use xlink:href="#DejaVuSans-30" x="5186.970703"/>
     <use xlink:href="#DejaVuSans-37" x="5250.59375"/>
     <use xlink:href="#DejaVuSans-33" x="5314.216797"/>
     <use xlink:href="#DejaVuSans-20" x="5377.839844"/>
     <use xlink:href="#DejaVuSans-63" x="5409.626953"/>
     <use xlink:href="#DejaVuSans-70" x="5464.607422"/>
     <use xlink:href="#DejaVuSans-75" x="5528.083984"/>
     <use xlink:href="#DejaVuSans-3a" x="5591.462891"/>
     <use xlink:href="#DejaVuSans-30" x="5625.154297"/>
    </g>
   </g>
   <g id="patch_9">
    <path d="M 212.001322 128.528148 
L 220.455573 128.528148 
L 220.455573 127.477141 
L 212.001322 127.477141 
z
" clip-path="url(#pc12b36b30b)" style="fill: #00bfff"/>
   </g>
   <g id="patch_10">
    <path d="M 220.455573 128.528148 
L 228.90984 128.528148 
L 228.90984 122.22212 
L 220.455573 122.22212 
z
" clip-path="url(#pc12b36b30b)" style="fill: #00bfff"/>
   </g>
   <g id="patch_11">
    <path d="M 228.90984 128.528148 
L 237.364091 128.528148 
L 237.364091 122.922779 
L 228.90984 122.922779 
z
" clip-path="url(#pc12b36b30b)" style="fill: #00bfff"/>
   </g>
   <g id="patch_12">
    <path d="M 237.364091 128.528148 
L 245.818342 128.528148 
L 245.818342 116.791907 
L 237.364091 116.791907 
z
" clip-path="url(#pc12b36b30b)" style="fill: #00bfff"/>
   </g>
   <g id="patch_13">
    <path d="M 245.818342 128.528148 
L 254.272593 128.528148 
L 254.272593 116.791907 
L 245.818342 116.791907 
z
" clip-path="url(#pc12b36b30b)" style="fill: #00bfff"/>
   </g>
   <g id="patch_14">
    <path d="M 254.272593 128.528148 
L 262.72686 128.528148 
L 262.72686 106.457051 
L 254.272593 106.457051 
z
" clip-path="url(#pc12b36b30b)" style="fill: #00bfff"/>
   </g>
   <g id="patch_15">
    <path d="M 262.72686 128.528148 
L 271.18111 128.528148 
L 271.18111 108.559022 
L 262.72686 108.559022 
z
" clip-path="url(#pc12b36b30b)" style="fill: #00bfff"/>
   </g>
   <g id="patch_16">
    <path d="M 271.18111 128.528148 
L 279.635361 128.528148 
L 279.635361 104.00466 
L 271.18111 104.00466 
z
" clip-path="url(#pc12b36b30b)" style="fill: #00bfff"/>
   </g>
   <g id="patch_17">
    <path d="M 279.635361 128.528148 
L 288.089628 128.528148 
L 288.089628 106.281884 
L 279.635361 106.281884 
z
" clip-path="url(#pc12b36b30b)" style="fill: #00bfff"/>
   </g>
   <g id="patch_18">
    <path d="M 288.089628 128.528148 
L 296.543879 128.528148 
L 296.543879 99.27513 
L 288.089628 99.27513 
z
" clip-path="url(#pc12b36b30b)" style="fill: #00bfff"/>
   </g>
   <g id="patch_19">
    <path d="M 296.543879 128.528148 
L 304.99813 128.528148 
L 304.99813 91.567749 
L 296.543879 91.567749 
z
" clip-path="url(#pc12b36b30b)" style="fill: #00bfff"/>
   </g>
   <g id="patch_20">
    <path d="M 304.99813 128.528148 
L 313.452397 128.528148 
L 313.452397 93.669829 
L 304.99813 93.669829 
z
" clip-path="url(#pc12b36b30b)" style="fill: #00bfff"/>
   </g>
   <g id="patch_21">
    <path d="M 313.452397 128.528148 
L 321.906648 128.528148 
L 321.906648 64.241577 
L 313.452397 64.241577 
z
" clip-path="url(#pc12b36b30b)" style="fill: #00bfff"/>
   </g>
   <g id="patch_22">
    <path d="M 321.906648 128.528148 
L 330.360898 128.528148 
L 330.360898 74.226139 
L 321.906648 74.226139 
z
" clip-path="url(#pc12b36b30b)" style="fill: #00bfff"/>
   </g>
   <g id="patch_23">
    <path d="M 330.360898 128.528148 
L 338.815149 128.528148 
L 338.815149 51.103994 
L 330.360898 51.103994 
z
" clip-path="url(#pc12b36b30b)" style="fill: #00bfff"/>
   </g>
   <g id="patch_24">
    <path d="M 338.815149 128.528148 
L 347.269416 128.528148 
L 347.269416 71.949067 
L 338.815149 71.949067 
z
" clip-path="url(#pc12b36b30b)" style="fill: #00bfff"/>
   </g>
   <g id="patch_25">
    <path d="M 347.269416 128.528148 
L 355.723667 128.528148 
L 355.723667 58.110705 
L 347.269416 58.110705 
z
" clip-path="url(#pc12b36b30b)" style="fill: #00bfff"/>
   </g>
   <g id="patch_26">
    <path d="M 355.723667 128.528148 
L 364.177926 128.528148 
L 364.177926 57.760437 
L 355.723667 57.760437 
z
" clip-path="url(#pc12b36b30b)" style="fill: #00bfff"/>
   </g>
   <g id="patch_27">
    <path d="M 364.177926 128.528148 
L 372.632177 128.528148 
L 372.632177 77.379159 
L 364.177926 77.379159 
z
" clip-path="url(#pc12b36b30b)" style="fill: #00bfff"/>
   </g>
   <g id="patch_28">
    <path d="M 372.632177 128.528148 
L 381.086436 128.528148 
L 381.086436 53.030912 
L 372.632177 53.030912 
z
" clip-path="url(#pc12b36b30b)" style="fill: #00bfff"/>
   </g>
   <g id="patch_29">
    <path d="M 381.086436 128.528148 
L 389.540686 128.528148 
L 389.540686 54.081846 
L 381.086436 54.081846 
z
" clip-path="url(#pc12b36b30b)" style="fill: #00bfff"/>
   </g>
   <g id="patch_30">
    <path d="M 389.540686 128.528148 
L 397.994945 128.528148 
L 397.994945 52.680577 
L 389.540686 52.680577 
z
" clip-path="url(#pc12b36b30b)" style="fill: #00bfff"/>
   </g>
   <g id="patch_31">
    <path d="M 397.994945 128.528148 
L 406.449196 128.528148 
L 406.449196 49.702652 
L 397.994945 49.702652 
z
" clip-path="url(#pc12b36b30b)" style="fill: #00bfff"/>
   </g>
   <g id="patch_32">
    <path d="M 406.449196 128.528148 
L 414.903455 128.528148 
L 414.903455 49.177225 
L 406.449196 49.177225 
z
" clip-path="url(#pc12b36b30b)" style="fill: #00bfff"/>
   </g>
   <g id="patch_33">
    <path d="M 414.903455 128.528148 
L 423.35771 128.528148 
L 423.35771 57.410068 
L 414.903455 57.410068 
z
" clip-path="url(#pc12b36b30b)" style="fill: #00bfff"/>
   </g>
   <g id="patch_34">
    <path d="M 423.35771 128.528148 
L 431.811969 128.528148 
L 431.811969 54.257085 
L 423.35771 54.257085 
z
" clip-path="url(#pc12b36b30b)" style="fill: #00bfff"/>
   </g>
   <g id="patch_35">
    <path d="M 431.811969 128.528148 
L 440.266224 128.528148 
L 440.266224 81.933544 
L 431.811969 81.933544 
z
" clip-path="url(#pc12b36b30b)" style="fill: #00bfff"/>
   </g>
   <g id="patch_36">
    <path d="M 440.266224 128.528148 
L 448.720478 128.528148 
L 448.720478 88.23958 
L 440.266224 88.23958 
z
" clip-path="url(#pc12b36b30b)" style="fill: #00bfff"/>
   </g>
   <g id="patch_37">
    <path d="M 448.720478 128.528148 
L 457.174733 128.528148 
L 457.174733 103.128833 
L 448.720478 103.128833 
z
" clip-path="url(#pc12b36b30b)" style="fill: #00bfff"/>
   </g>
   <g id="patch_38">
    <path d="M 457.174733 128.528148 
L 465.628988 128.528148 
L 465.628988 113.814062 
L 457.174733 113.814062 
z
" clip-path="url(#pc12b36b30b)" style="fill: #00bfff"/>
   </g>
   <g id="patch_39">
    <path d="M 465.628988 128.528148 
L 474.083244 128.528148 
L 474.083244 112.237555 
L 465.628988 112.237555 
z
" clip-path="url(#pc12b36b30b)" style="fill: #00bfff"/>
   </g>
   <g id="patch_40">
    <path d="M 474.083244 128.528148 
L 482.5375 128.528148 
L 482.5375 121.346273 
L 474.083244 121.346273 
z
" clip-path="url(#pc12b36b30b)" style="fill: #00bfff"/>
   </g>
   <g id="patch_41">
    <path d="M 482.5375 128.528148 
L 490.991756 128.528148 
L 490.991756 118.543591 
L 482.5375 118.543591 
z
" clip-path="url(#pc12b36b30b)" style="fill: #00bfff"/>
   </g>
   <g id="patch_42">
    <path d="M 490.991756 128.528148 
L 499.446012 128.528148 
L 499.446012 120.995938 
L 490.991756 120.995938 
z
" clip-path="url(#pc12b36b30b)" style="fill: #00bfff"/>
   </g>
   <g id="patch_43">
    <path d="M 499.446012 128.528148 
L 507.900266 128.528148 
L 507.900266 122.747614 
L 499.446012 122.747614 
z
" clip-path="url(#pc12b36b30b)" style="fill: #00bfff"/>
   </g>
   <g id="patch_44">
    <path d="M 507.900266 128.528148 
L 516.354521 128.528148 
L 516.354521 120.995937 
L 507.900266 120.995937 
z
" clip-path="url(#pc12b36b30b)" style="fill: #00bfff"/>
   </g>
   <g id="patch_45">
    <path d="M 516.354521 128.528148 
L 524.808776 128.528148 
L 524.808776 119.419428 
L 516.354521 119.419428 
z
" clip-path="url(#pc12b36b30b)" style="fill: #00bfff"/>
   </g>
   <g id="patch_46">
    <path d="M 524.808776 128.528148 
L 533.263035 128.528148 
L 533.263035 119.944935 
L 524.808776 119.944935 
z
" clip-path="url(#pc12b36b30b)" style="fill: #00bfff"/>
   </g>
   <g id="patch_47">
    <path d="M 533.263035 128.528148 
L 541.71729 128.528148 
L 541.71729 119.769763 
L 533.263035 119.769763 
z
" clip-path="url(#pc12b36b30b)" style="fill: #00bfff"/>
   </g>
   <g id="patch_48">
    <path d="M 541.71729 128.528148 
L 550.171545 128.528148 
L 550.171545 120.645602 
L 541.71729 120.645602 
z
" clip-path="url(#pc12b36b30b)" style="fill: #00bfff"/>
   </g>
   <g id="patch_49">
    <path d="M 550.171545 128.528148 
L 558.625799 128.528148 
L 558.625799 120.470434 
L 550.171545 120.470434 
z
" clip-path="url(#pc12b36b30b)" style="fill: #00bfff"/>
   </g>
   <g id="patch_50">
    <path d="M 558.625799 128.528148 
L 567.080058 128.528148 
L 567.080058 119.069097 
L 558.625799 119.069097 
z
" clip-path="url(#pc12b36b30b)" style="fill: #00bfff"/>
   </g>
   <g id="patch_51">
    <path d="M 567.080058 128.528148 
L 575.534309 128.528148 
L 575.534309 122.397276 
L 567.080058 122.397276 
z
" clip-path="url(#pc12b36b30b)" style="fill: #00bfff"/>
   </g>
   <g id="patch_52">
    <path d="M 575.534309 128.528148 
L 583.988568 128.528148 
L 583.988568 123.097952 
L 575.534309 123.097952 
z
" clip-path="url(#pc12b36b30b)" style="fill: #00bfff"/>
   </g>
   <g id="patch_53">
    <path d="M 583.988568 128.528148 
L 592.442819 128.528148 
L 592.442819 121.696605 
L 583.988568 121.696605 
z
" clip-path="url(#pc12b36b30b)" style="fill: #00bfff"/>
   </g>
   <g id="patch_54">
    <path d="M 592.442819 128.528148 
L 600.897078 128.528148 
L 600.897078 122.572449 
L 592.442819 122.572449 
z
" clip-path="url(#pc12b36b30b)" style="fill: #00bfff"/>
   </g>
   <g id="patch_55">
    <path d="M 600.897078 128.528148 
L 609.351337 128.528148 
L 609.351337 122.747617 
L 600.897078 122.747617 
z
" clip-path="url(#pc12b36b30b)" style="fill: #00bfff"/>
   </g>
   <g id="patch_56">
    <path d="M 609.351337 128.528148 
L 617.805587 128.528148 
L 617.805587 125.024792 
L 609.351337 125.024792 
z
" clip-path="url(#pc12b36b30b)" style="fill: #00bfff"/>
   </g>
   <g id="patch_57">
    <path d="M 617.805587 128.528148 
L 626.259838 128.528148 
L 626.259838 124.499289 
L 617.805587 124.499289 
z
" clip-path="url(#pc12b36b30b)" style="fill: #00bfff"/>
   </g>
   <g id="patch_58">
    <path d="M 626.259838 128.528148 
L 634.714105 128.528148 
L 634.714105 122.22212 
L 626.259838 122.22212 
z
" clip-path="url(#pc12b36b30b)" style="fill: #00bfff"/>
   </g>
   <g id="patch_59">
    <path d="M 634.714105 128.528148 
L 643.168356 128.528148 
L 643.168356 124.324121 
L 634.714105 124.324121 
z
" clip-path="url(#pc12b36b30b)" style="fill: #00bfff"/>
   </g>
   <g id="patch_60">
    <path d="M 643.168356 128.528148 
L 651.622607 128.528148 
L 651.622607 121.696605 
L 643.168356 121.696605 
z
" clip-path="url(#pc12b36b30b)" style="fill: #00bfff"/>
   </g>
   <g id="patch_61">
    <path d="M 651.622607 128.528148 
L 660.076874 128.528148 
L 660.076874 121.696618 
L 651.622607 121.696618 
z
" clip-path="url(#pc12b36b30b)" style="fill: #00bfff"/>
   </g>
   <g id="patch_62">
    <path d="M 660.076874 128.528148 
L 668.531125 128.528148 
L 668.531125 121.521437 
L 660.076874 121.521437 
z
" clip-path="url(#pc12b36b30b)" style="fill: #00bfff"/>
   </g>
   <g id="patch_63">
    <path d="M 668.531125 128.528148 
L 676.985375 128.528148 
L 676.985375 117.31741 
L 668.531125 117.31741 
z
" clip-path="url(#pc12b36b30b)" style="fill: #00bfff"/>
   </g>
   <g id="patch_64">
    <path d="M 676.985375 128.528148 
L 685.439626 128.528148 
L 685.439626 120.820766 
L 676.985375 120.820766 
z
" clip-path="url(#pc12b36b30b)" style="fill: #00bfff"/>
   </g>
   <g id="patch_65">
    <path d="M 685.439626 128.528148 
L 693.893893 128.528148 
L 693.893893 115.39059 
L 685.439626 115.39059 
z
" clip-path="url(#pc12b36b30b)" style="fill: #00bfff"/>
   </g>
   <g id="patch_66">
    <path d="M 693.893893 128.528148 
L 702.348144 128.528148 
L 702.348144 112.587881 
L 693.893893 112.587881 
z
" clip-path="url(#pc12b36b30b)" style="fill: #00bfff"/>
   </g>
   <g id="patch_67">
    <path d="M 702.348144 128.528148 
L 710.802395 128.528148 
L 710.802395 114.164391 
L 702.348144 114.164391 
z
" clip-path="url(#pc12b36b30b)" style="fill: #00bfff"/>
   </g>
   <g id="patch_68">
    <path d="M 710.802395 128.528148 
L 719.256662 128.528148 
L 719.256662 113.113414 
L 710.802395 113.113414 
z
" clip-path="url(#pc12b36b30b)" style="fill: #00bfff"/>
   </g>
   <g id="patch_69">
    <path d="M 719.256662 128.528148 
L 727.710913 128.528148 
L 727.710913 110.661035 
L 719.256662 110.661035 
z
" clip-path="url(#pc12b36b30b)" style="fill: #00bfff"/>
   </g>
   <g id="patch_70">
    <path d="M 727.710913 128.528148 
L 736.165163 128.528148 
L 736.165163 111.361706 
L 727.710913 111.361706 
z
" clip-path="url(#pc12b36b30b)" style="fill: #00bfff"/>
   </g>
   <g id="patch_71">
    <path d="M 736.165163 128.528148 
L 744.619414 128.528148 
L 744.619414 107.15768 
L 736.165163 107.15768 
z
" clip-path="url(#pc12b36b30b)" style="fill: #00bfff"/>
   </g>
   <g id="patch_72">
    <path d="M 744.619414 128.528148 
L 753.073681 128.528148 
L 753.073681 109.9604 
L 744.619414 109.9604 
z
" clip-path="url(#pc12b36b30b)" style="fill: #00bfff"/>
   </g>
   <g id="patch_73">
    <path d="M 753.073681 128.528148 
L 761.527948 128.528148 
L 761.527948 108.383893 
L 753.073681 108.383893 
z
" clip-path="url(#pc12b36b30b)" style="fill: #00bfff"/>
   </g>
   <g id="patch_74">
    <path d="M 761.527948 128.528148 
L 769.982199 128.528148 
L 769.982199 113.638887 
L 761.527948 113.638887 
z
" clip-path="url(#pc12b36b30b)" style="fill: #00bfff"/>
   </g>
   <g id="patch_75">
    <path d="M 769.982199 128.528148 
L 778.43645 128.528148 
L 778.43645 114.689894 
L 769.982199 114.689894 
z
" clip-path="url(#pc12b36b30b)" style="fill: #00bfff"/>
   </g>
   <g id="patch_76">
    <path d="M 778.43645 128.528148 
L 786.890701 128.528148 
L 786.890701 114.514726 
L 778.43645 114.514726 
z
" clip-path="url(#pc12b36b30b)" style="fill: #00bfff"/>
   </g>
   <g id="patch_77">
    <path d="M 786.890701 128.528148 
L 795.344951 128.528148 
L 795.344951 118.368417 
L 786.890701 118.368417 
z
" clip-path="url(#pc12b36b30b)" style="fill: #00bfff"/>
   </g>
   <g id="patch_78">
    <path d="M 795.344951 128.528148 
L 803.799202 128.528148 
L 803.799202 121.171101 
L 795.344951 121.171101 
z
" clip-path="url(#pc12b36b30b)" style="fill: #00bfff"/>
   </g>
   <g id="patch_79">
    <path d="M 803.799202 128.528148 
L 812.253453 128.528148 
L 812.253453 122.747611 
L 803.799202 122.747611 
z
" clip-path="url(#pc12b36b30b)" style="fill: #00bfff"/>
   </g>
   <g id="patch_80">
    <path d="M 812.253453 128.528148 
L 820.707736 128.528148 
L 820.707736 121.871798 
L 812.253453 121.871798 
z
" clip-path="url(#pc12b36b30b)" style="fill: #00bfff"/>
   </g>
   <g id="patch_81">
    <path d="M 820.707736 128.528148 
L 829.161987 128.528148 
L 829.161987 126.075799 
L 820.707736 126.075799 
z
" clip-path="url(#pc12b36b30b)" style="fill: #00bfff"/>
   </g>
   <g id="patch_82">
    <path d="M 829.161987 128.528148 
L 837.616238 128.528148 
L 837.616238 127.827477 
L 829.161987 127.827477 
z
" clip-path="url(#pc12b36b30b)" style="fill: #00bfff"/>
   </g>
   <g id="patch_83">
    <path d="M 837.616238 128.528148 
L 846.070489 128.528148 
L 846.070489 128.177812 
L 837.616238 128.177812 
z
" clip-path="url(#pc12b36b30b)" style="fill: #00bfff"/>
   </g>
   <g id="line2d_14">
    <path d="M 10.7 127.979759 
L 19.331308 127.876697 
L 27.962617 127.756983 
L 36.593925 127.618473 
L 45.225233 127.458852 
L 53.856541 127.275633 
L 62.48785 127.066171 
L 71.119158 126.827668 
L 79.750466 126.557199 
L 88.381775 126.251728 
L 97.013083 125.908142 
L 105.644391 125.523281 
L 114.275699 125.093982 
L 122.907008 124.617125 
L 131.538316 124.089687 
L 140.169624 123.508798 
L 148.800933 122.871807 
L 157.432241 122.176349 
L 166.063549 121.420418 
L 174.694857 120.602439 
L 183.326166 119.721344 
L 191.957474 118.776645 
L 200.588782 117.768506 
L 209.220091 116.697811 
L 217.851399 115.566226 
L 226.482707 114.376248 
L 235.114015 113.131254 
L 243.745324 111.835529 
L 252.376632 110.49428 
L 261.00794 109.113643 
L 269.639248 107.700665 
L 278.270557 106.263273 
L 286.901865 104.810219 
L 295.533173 103.351014 
L 304.164482 101.895837 
L 312.79579 100.455432 
L 321.427098 99.040982 
L 330.058406 97.663974 
L 338.689715 96.336048 
L 347.321023 95.068838 
L 355.952331 93.873804 
L 364.58364 92.762063 
L 373.214948 91.744216 
L 381.846256 90.830182 
L 390.477564 90.029035 
L 399.108873 89.34886 
L 407.740181 88.796609 
L 416.371489 88.377991 
L 425.002798 88.097366 
L 433.634106 87.957676 
L 442.265414 87.96039 
L 450.896722 88.10548 
L 459.528031 88.391421 
L 468.159339 88.815214 
L 476.790647 89.372446 
L 485.421956 90.057361 
L 494.053264 90.862958 
L 502.684572 91.781116 
L 511.31588 92.802723 
L 519.947189 93.917832 
L 528.578497 95.115819 
L 537.209805 96.385551 
L 545.841114 97.715559 
L 554.472422 99.094205 
L 563.10373 100.509851 
L 571.735038 101.951021 
L 580.366347 103.406544 
L 588.997655 104.865698 
L 597.628963 106.318325 
L 606.260272 107.754943 
L 614.89158 109.16683 
L 623.522888 110.546091 
L 632.154196 111.885714 
L 640.785505 113.179598 
L 649.416813 114.42257 
L 658.048121 115.610382 
L 666.679429 116.73969 
L 675.310738 117.808029 
L 683.942046 118.813765 
L 692.573354 119.756042 
L 701.204663 120.634722 
L 709.835971 121.450316 
L 718.467279 122.203914 
L 727.098587 122.897107 
L 735.729896 123.531918 
L 744.361204 124.110722 
L 752.992512 124.636182 
L 761.623821 125.111172 
L 770.255129 125.538722 
L 778.886437 125.921954 
L 787.517745 126.264032 
L 796.149054 126.568114 
L 804.780362 126.837312 
L 813.41167 127.074656 
L 822.042979 127.28307 
L 830.674287 127.465343 
L 839.305595 127.624116 
L 847.936903 127.761869 
L 856.568212 127.880912 
L 865.19952 127.983379 
" clip-path="url(#pc12b36b30b)" style="fill: none; stroke: #1f77b4; stroke-width: 1.5; stroke-linecap: square"/>
   </g>
   <g id="text_10">
    <g id="patch_84">
     <path d="M 138.504449 38.307963 
L 154.812262 38.307963 
Q 157.812262 38.307963 157.812262 35.307963 
L 157.812262 25.629838 
Q 157.812262 22.629838 154.812262 22.629838 
L 138.504449 22.629838 
Q 135.504449 22.629838 135.504449 25.629838 
L 135.504449 35.307963 
Q 135.504449 38.307963 138.504449 38.307963 
z
" style="fill: #ffffff"/>
    </g>
    <!-- -2σ -->
    <g transform="translate(138.504449 33.228276) scale(0.1 -0.1)">
     <use xlink:href="#DejaVuSans-2d"/>
     <use xlink:href="#DejaVuSans-32" x="36.083984"/>
     <use xlink:href="#DejaVuSans-3c3" x="99.707031"/>
    </g>
   </g>
   <g id="text_11">
    <g id="patch_85">
     <path d="M 287.249274 38.307963 
L 297.194586 38.307963 
Q 300.194586 38.307963 300.194586 35.307963 
L 300.194586 25.629838 
Q 300.194586 22.629838 297.194586 22.629838 
L 287.249274 22.629838 
Q 284.249274 22.629838 284.249274 25.629838 
L 284.249274 35.307963 
Q 284.249274 38.307963 287.249274 38.307963 
z
" style="fill: #ffffff"/>
    </g>
    <!-- -σ -->
    <g transform="translate(287.249274 33.228276) scale(0.1 -0.1)">
     <use xlink:href="#DejaVuSans-2d"/>
     <use xlink:href="#DejaVuSans-3c3" x="36.083984"/>
    </g>
   </g>
   <g id="text_12">
    <g id="patch_86">
     <path d="M 434.106598 38.307963 
L 441.464411 38.307963 
Q 444.464411 38.307963 444.464411 35.307963 
L 444.464411 25.629838 
Q 444.464411 22.629838 441.464411 22.629838 
L 434.106598 22.629838 
Q 431.106598 22.629838 431.106598 25.629838 
L 431.106598 35.307963 
Q 431.106598 38.307963 434.106598 38.307963 
z
" style="fill: #ffffff"/>
    </g>
    <!-- μ -->
    <g transform="translate(434.106598 33.217338) scale(0.1 -0.1)">
     <defs>
      <path id="DejaVuSans-Bold-3bc" d="M 544 -1338 
L 544 3500 
L 1672 3500 
L 1672 1466 
Q 1672 1103 1828 926 
Q 1984 750 2303 750 
Q 2625 750 2781 926 
Q 2938 1103 2938 1466 
L 2938 3500 
L 4063 3500 
L 4063 1159 
Q 4063 938 4114 850 
Q 4166 763 4288 763 
Q 4344 763 4395 778 
Q 4447 794 4506 831 
L 4506 50 
Q 4341 -22 4195 -56 
Q 4050 -91 3909 -91 
Q 3631 -91 3454 26 
Q 3278 144 3169 403 
Q 3022 156 2811 32 
Q 2600 -91 2322 -91 
Q 2091 -91 1928 -17 
Q 1766 56 1672 206 
L 1672 -1338 
L 544 -1338 
z
" transform="scale(0.015625)"/>
     </defs>
     <use xlink:href="#DejaVuSans-Bold-3bc"/>
    </g>
   </g>
   <g id="text_13">
    <g id="patch_87">
     <path d="M 575.990485 38.307963 
L 590.707673 38.307963 
Q 593.707673 38.307963 593.707673 35.307963 
L 593.707673 25.629838 
Q 593.707673 22.629838 590.707673 22.629838 
L 575.990485 22.629838 
Q 572.990485 22.629838 572.990485 25.629838 
L 572.990485 35.307963 
Q 572.990485 38.307963 575.990485 38.307963 
z
" style="fill: #ffffff"/>
    </g>
    <!-- +σ -->
    <g transform="translate(575.990485 33.228276) scale(0.1 -0.1)">
     <defs>
      <path id="DejaVuSans-2b" d="M 2944 4013 
L 2944 2272 
L 4684 2272 
L 4684 1741 
L 2944 1741 
L 2944 0 
L 2419 0 
L 2419 1741 
L 678 1741 
L 678 2272 
L 2419 2272 
L 2419 4013 
L 2944 4013 
z
" transform="scale(0.015625)"/>
     </defs>
     <use xlink:href="#DejaVuSans-2b"/>
     <use xlink:href="#DejaVuSans-3c3" x="83.789062"/>
    </g>
   </g>
   <g id="text_14">
    <g id="patch_88">
     <path d="M 718.37281 38.307963 
L 739.452497 38.307963 
Q 742.452497 38.307963 742.452497 35.307963 
L 742.452497 25.629838 
Q 742.452497 22.629838 739.452497 22.629838 
L 718.37281 22.629838 
Q 715.37281 22.629838 715.37281 25.629838 
L 715.37281 35.307963 
Q 715.37281 38.307963 718.37281 38.307963 
z
" style="fill: #ffffff"/>
    </g>
    <!-- +2σ -->
    <g transform="translate(718.37281 33.228276) scale(0.1 -0.1)">
     <use xlink:href="#DejaVuSans-2b"/>
     <use xlink:href="#DejaVuSans-32" x="83.789062"/>
     <use xlink:href="#DejaVuSans-3c3" x="147.412109"/>
    </g>
   </g>
  </g>
 </g>
 <defs>
  <clipPath id="pc12b36b30b">
   <rect x="10.7" y="20.214138" width="854.49952" height="108.31401"/>
  </clipPath>
 </defs>
</svg>
