<?xml version="1.0" encoding="utf-8" standalone="no"?>
<!DOCTYPE svg PUBLIC "-//W3C//DTD SVG 1.1//EN"
  "http://www.w3.org/Graphics/SVG/1.1/DTD/svg11.dtd">
<svg xmlns:xlink="http://www.w3.org/1999/xlink" width="872.39952pt" height="152.406273pt" viewBox="0 0 872.39952 152.406273" xmlns="http://www.w3.org/2000/svg" version="1.1">
 <metadata>
  <rdf:RDF xmlns:dc="http://purl.org/dc/elements/1.1/" xmlns:cc="http://creativecommons.org/ns#" xmlns:rdf="http://www.w3.org/1999/02/22-rdf-syntax-ns#">
   <cc:Work>
    <dc:type rdf:resource="http://purl.org/dc/dcmitype/StillImage"/>
    <dc:format>image/svg+xml</dc:format>
    <dc:creator>
     <cc:Agent>
      <dc:title>Matplotlib, https://matplotlib.org/</dc:title>
     </cc:Agent>
    </dc:creator>
   </cc:Work>
  </rdf:RDF>
 </metadata>
 <defs>
  <style type="text/css">*{stroke-linejoin: round; stroke-linecap: butt}</style>
 </defs>
 <g id="figure_1">
  <g id="patch_1">
   <path d="M 0 152.406273 
L 872.39952 152.406273 
L 872.39952 0 
L 0 0 
z
" style="fill: #ffffff"/>
  </g>
  <g id="axes_1">
   <g id="patch_2">
    <path d="M 10.7 128.528148 
L 865.19952 128.528148 
L 865.19952 20.214138 
L 10.7 20.214138 
z
" style="fill: #ffffff"/>
   </g>
   <g id="matplotlib.axis_1">
    <g id="xtick_1">
     <g id="line2d_1">
      <defs>
       <path id="m8f1de1206a" d="M 0 0 
L 0 3.5 
" style="stroke: #000000; stroke-width: 0.8"/>
      </defs>
      <g>
       <use xlink:href="#m8f1de1206a" x="146.537903" y="128.528148" style="stroke: #000000; stroke-width: 0.8"/>
      </g>
     </g>
     <g id="text_1">
      <!-- −4 -->
      <g transform="translate(139.16681 143.126585) scale(0.1 -0.1)">
       <defs>
        <path id="DejaVuSans-2212" d="M 678 2272 
L 4684 2272 
L 4684 1741 
L 678 1741 
L 678 2272 
z
" transform="scale(0.015625)"/>
        <path id="DejaVuSans-34" d="M 2419 4116 
L 825 1625 
L 2419 1625 
L 2419 4116 
z
M 2253 4666 
L 3047 4666 
L 3047 1625 
L 3713 1625 
L 3713 1100 
L 3047 1100 
L 3047 0 
L 2419 0 
L 2419 1100 
L 313 1100 
L 313 1709 
L 2253 4666 
z
" transform="scale(0.015625)"/>
       </defs>
       <use xlink:href="#DejaVuSans-2212"/>
       <use xlink:href="#DejaVuSans-34" x="83.789062"/>
      </g>
     </g>
    </g>
    <g id="xtick_2">
     <g id="line2d_2">
      <g>
       <use xlink:href="#m8f1de1206a" x="292.1617" y="128.528148" style="stroke: #000000; stroke-width: 0.8"/>
      </g>
     </g>
     <g id="text_2">
      <!-- −2 -->
      <g transform="translate(284.790606 143.126585) scale(0.1 -0.1)">
       <defs>
        <path id="DejaVuSans-32" d="M 1228 531 
L 3431 531 
L 3431 0 
L 469 0 
L 469 531 
Q 828 903 1448 1529 
Q 2069 2156 2228 2338 
Q 2531 2678 2651 2914 
Q 2772 3150 2772 3378 
Q 2772 3750 2511 3984 
Q 2250 4219 1831 4219 
Q 1534 4219 1204 4116 
Q 875 4013 500 3803 
L 500 4441 
Q 881 4594 1212 4672 
Q 1544 4750 1819 4750 
Q 2544 4750 2975 4387 
Q 3406 4025 3406 3419 
Q 3406 3131 3298 2873 
Q 3191 2616 2906 2266 
Q 2828 2175 2409 1742 
Q 1991 1309 1228 531 
z
" transform="scale(0.015625)"/>
       </defs>
       <use xlink:href="#DejaVuSans-2212"/>
       <use xlink:href="#DejaVuSans-32" x="83.789062"/>
      </g>
     </g>
    </g>
    <g id="xtick_3">
     <g id="line2d_3">
      <g>
       <use xlink:href="#m8f1de1206a" x="437.785496" y="128.528148" style="stroke: #000000; stroke-width: 0.8"/>
      </g>
     </g>
     <g id="text_3">
      <!-- 0 -->
      <g transform="translate(434.604246 143.126585) scale(0.1 -0.1)">
       <defs>
        <path id="DejaVuSans-30" d="M 2034 4250 
Q 1547 4250 1301 3770 
Q 1056 3291 1056 2328 
Q 1056 1369 1301 889 
Q 1547 409 2034 409 
Q 2525 409 2770 889 
Q 3016 1369 3016 2328 
Q 3016 3291 2770 3770 
Q 2525 4250 2034 4250 
z
M 2034 4750 
Q 2819 4750 3233 4129 
Q 3647 3509 3647 2328 
Q 3647 1150 3233 529 
Q 2819 -91 2034 -91 
Q 1250 -91 836 529 
Q 422 1150 422 2328 
Q 422 3509 836 4129 
Q 1250 4750 2034 4750 
z
" transform="scale(0.015625)"/>
       </defs>
       <use xlink:href="#DejaVuSans-30"/>
      </g>
     </g>
    </g>
    <g id="xtick_4">
     <g id="line2d_4">
      <g>
       <use xlink:href="#m8f1de1206a" x="583.409293" y="128.528148" style="stroke: #000000; stroke-width: 0.8"/>
      </g>
     </g>
     <g id="text_4">
      <!-- 2 -->
      <g transform="translate(580.228043 143.126585) scale(0.1 -0.1)">
       <use xlink:href="#DejaVuSans-32"/>
      </g>
     </g>
    </g>
    <g id="xtick_5">
     <g id="line2d_5">
      <g>
       <use xlink:href="#m8f1de1206a" x="729.033089" y="128.528148" style="stroke: #000000; stroke-width: 0.8"/>
      </g>
     </g>
     <g id="text_5">
      <!-- 4 -->
      <g transform="translate(725.851839 143.126585) scale(0.1 -0.1)">
       <use xlink:href="#DejaVuSans-34"/>
      </g>
     </g>
    </g>
   </g>
   <g id="matplotlib.axis_2"/>
   <g id="line2d_6">
    <path d="M 473.319294 128.528148 
L 473.319294 20.214138 
" clip-path="url(#p793339dd19)" style="fill: none; stroke: #000000; stroke-width: 1.5; stroke-linecap: square"/>
   </g>
   <g id="line2d_7">
    <path d="M 551.12729 128.528148 
L 551.12729 20.214138 
" clip-path="url(#p793339dd19)" style="fill: none; stroke: #000000; stroke-width: 1.5; stroke-linecap: square"/>
   </g>
   <g id="line2d_8">
    <path d="M 628.935287 128.528148 
L 628.935287 20.214138 
" clip-path="url(#p793339dd19)" style="fill: none; stroke: #000000; stroke-width: 1.5; stroke-linecap: square"/>
   </g>
   <g id="line2d_9">
    <path d="M 706.743283 128.528148 
L 706.743283 20.214138 
" clip-path="url(#p793339dd19)" style="fill: none; stroke: #000000; stroke-width: 1.5; stroke-linecap: square"/>
   </g>
   <g id="line2d_10">
    <path d="M 784.55128 128.528148 
L 784.55128 20.214138 
" clip-path="url(#p793339dd19)" style="fill: none; stroke: #000000; stroke-width: 1.5; stroke-linecap: square"/>
   </g>
   <g id="line2d_11">
    <path d="M 502.012584 128.528148 
L 502.012584 20.214138 
" clip-path="url(#p793339dd19)" style="fill: none; stroke: #ff0000; stroke-width: 1.5; stroke-linecap: square"/>
   </g>
   <g id="line2d_12">
    <path d="M 848.444627 128.528148 
L 848.444627 20.214138 
" clip-path="url(#p793339dd19)" style="fill: none; stroke: #ff0000; stroke-width: 1.5; stroke-linecap: square"/>
   </g>
   <g id="patch_3">
    <path d="M 10.7 128.528148 
L 10.7 20.214138 
" style="fill: none; stroke: #000000; stroke-width: 0.8; stroke-linejoin: miter; stroke-linecap: square"/>
   </g>
   <g id="patch_4">
    <path d="M 865.19952 128.528148 
L 865.19952 20.214138 
" style="fill: none; stroke: #000000; stroke-width: 0.8; stroke-linejoin: miter; stroke-linecap: square"/>
   </g>
   <g id="patch_5">
    <path d="M 10.7 128.528148 
L 865.19952 128.528148 
" style="fill: none; stroke: #000000; stroke-width: 0.8; stroke-linejoin: miter; stroke-linecap: square"/>
   </g>
   <g id="patch_6">
    <path d="M 10.7 20.214138 
L 865.19952 20.214138 
" style="fill: none; stroke: #000000; stroke-width: 0.8; stroke-linejoin: miter; stroke-linecap: square"/>
   </g>
   <g id="text_6">
    <g id="patch_7">
     <path d="M 501.012584 102.303174 
L 501.012584 46.439112 
Q 501.012584 46.439112 501.012584 46.439112 
L 491.334459 46.439112 
Q 491.334459 46.439112 491.334459 46.439112 
L 491.334459 102.303174 
Q 491.334459 102.303174 491.334459 102.303174 
L 501.012584 102.303174 
Q 501.012584 102.303174 501.012584 102.303174 
z
" style="fill: #ffffff"/>
    </g>
    <!-- min=0.882 -->
    <g transform="translate(498.932897 102.303174) rotate(-90) scale(0.1 -0.1)">
     <defs>
      <path id="DejaVuSans-6d" d="M 3328 2828 
Q 3544 3216 3844 3400 
Q 4144 3584 4550 3584 
Q 5097 3584 5394 3201 
Q 5691 2819 5691 2113 
L 5691 0 
L 5113 0 
L 5113 2094 
Q 5113 2597 4934 2840 
Q 4756 3084 4391 3084 
Q 3944 3084 3684 2787 
Q 3425 2491 3425 1978 
L 3425 0 
L 2847 0 
L 2847 2094 
Q 2847 2600 2669 2842 
Q 2491 3084 2119 3084 
Q 1678 3084 1418 2786 
Q 1159 2488 1159 1978 
L 1159 0 
L 581 0 
L 581 3500 
L 1159 3500 
L 1159 2956 
Q 1356 3278 1631 3431 
Q 1906 3584 2284 3584 
Q 2666 3584 2933 3390 
Q 3200 3197 3328 2828 
z
" transform="scale(0.015625)"/>
      <path id="DejaVuSans-69" d="M 603 3500 
L 1178 3500 
L 1178 0 
L 603 0 
L 603 3500 
z
M 603 4863 
L 1178 4863 
L 1178 4134 
L 603 4134 
L 603 4863 
z
" transform="scale(0.015625)"/>
      <path id="DejaVuSans-6e" d="M 3513 2113 
L 3513 0 
L 2938 0 
L 2938 2094 
Q 2938 2591 2744 2837 
Q 2550 3084 2163 3084 
Q 1697 3084 1428 2787 
Q 1159 2491 1159 1978 
L 1159 0 
L 581 0 
L 581 3500 
L 1159 3500 
L 1159 2956 
Q 1366 3272 1645 3428 
Q 1925 3584 2291 3584 
Q 2894 3584 3203 3211 
Q 3513 2838 3513 2113 
z
" transform="scale(0.015625)"/>
      <path id="DejaVuSans-3d" d="M 678 2906 
L 4684 2906 
L 4684 2381 
L 678 2381 
L 678 2906 
z
M 678 1631 
L 4684 1631 
L 4684 1100 
L 678 1100 
L 678 1631 
z
" transform="scale(0.015625)"/>
      <path id="DejaVuSans-2e" d="M 684 794 
L 1344 794 
L 1344 0 
L 684 0 
L 684 794 
z
" transform="scale(0.015625)"/>
      <path id="DejaVuSans-38" d="M 2034 2216 
Q 1584 2216 1326 1975 
Q 1069 1734 1069 1313 
Q 1069 891 1326 650 
Q 1584 409 2034 409 
Q 2484 409 2743 651 
Q 3003 894 3003 1313 
Q 3003 1734 2745 1975 
Q 2488 2216 2034 2216 
z
M 1403 2484 
Q 997 2584 770 2862 
Q 544 3141 544 3541 
Q 544 4100 942 4425 
Q 1341 4750 2034 4750 
Q 2731 4750 3128 4425 
Q 3525 4100 3525 3541 
Q 3525 3141 3298 2862 
Q 3072 2584 2669 2484 
Q 3125 2378 3379 2068 
Q 3634 1759 3634 1313 
Q 3634 634 3220 271 
Q 2806 -91 2034 -91 
Q 1263 -91 848 271 
Q 434 634 434 1313 
Q 434 1759 690 2068 
Q 947 2378 1403 2484 
z
M 1172 3481 
Q 1172 3119 1398 2916 
Q 1625 2713 2034 2713 
Q 2441 2713 2670 2916 
Q 2900 3119 2900 3481 
Q 2900 3844 2670 4047 
Q 2441 4250 2034 4250 
Q 1625 4250 1398 4047 
Q 1172 3844 1172 3481 
z
" transform="scale(0.015625)"/>
     </defs>
     <use xlink:href="#DejaVuSans-6d"/>
     <use xlink:href="#DejaVuSans-69" x="97.412109"/>
     <use xlink:href="#DejaVuSans-6e" x="125.195312"/>
     <use xlink:href="#DejaVuSans-3d" x="188.574219"/>
     <use xlink:href="#DejaVuSans-30" x="272.363281"/>
     <use xlink:href="#DejaVuSans-2e" x="335.986328"/>
     <use xlink:href="#DejaVuSans-38" x="367.773438"/>
     <use xlink:href="#DejaVuSans-38" x="431.396484"/>
     <use xlink:href="#DejaVuSans-32" x="495.019531"/>
    </g>
   </g>
   <g id="text_7">
    <g id="patch_8">
     <path d="M 860.122752 103.768799 
L 860.122752 44.973487 
Q 860.122752 44.973487 860.122752 44.973487 
L 850.444627 44.973487 
Q 850.444627 44.973487 850.444627 44.973487 
L 850.444627 103.768799 
Q 850.444627 103.768799 850.444627 103.768799 
L 860.122752 103.768799 
Q 860.122752 103.768799 860.122752 103.768799 
z
" style="fill: #ffffff"/>
    </g>
    <!-- max=5.640 -->
    <g transform="translate(858.043065 103.768799) rotate(-90) scale(0.1 -0.1)">
     <defs>
      <path id="DejaVuSans-61" d="M 2194 1759 
Q 1497 1759 1228 1600 
Q 959 1441 959 1056 
Q 959 750 1161 570 
Q 1363 391 1709 391 
Q 2188 391 2477 730 
Q 2766 1069 2766 1631 
L 2766 1759 
L 2194 1759 
z
M 3341 1997 
L 3341 0 
L 2766 0 
L 2766 531 
Q 2569 213 2275 61 
Q 1981 -91 1556 -91 
Q 1019 -91 701 211 
Q 384 513 384 1019 
Q 384 1609 779 1909 
Q 1175 2209 1959 2209 
L 2766 2209 
L 2766 2266 
Q 2766 2663 2505 2880 
Q 2244 3097 1772 3097 
Q 1472 3097 1187 3025 
Q 903 2953 641 2809 
L 641 3341 
Q 956 3463 1253 3523 
Q 1550 3584 1831 3584 
Q 2591 3584 2966 3190 
Q 3341 2797 3341 1997 
z
" transform="scale(0.015625)"/>
      <path id="DejaVuSans-78" d="M 3513 3500 
L 2247 1797 
L 3578 0 
L 2900 0 
L 1881 1375 
L 863 0 
L 184 0 
L 1544 1831 
L 300 3500 
L 978 3500 
L 1906 2253 
L 2834 3500 
L 3513 3500 
z
" transform="scale(0.015625)"/>
      <path id="DejaVuSans-35" d="M 691 4666 
L 3169 4666 
L 3169 4134 
L 1269 4134 
L 1269 2991 
Q 1406 3038 1543 3061 
Q 1681 3084 1819 3084 
Q 2600 3084 3056 2656 
Q 3513 2228 3513 1497 
Q 3513 744 3044 326 
Q 2575 -91 1722 -91 
Q 1428 -91 1123 -41 
Q 819 9 494 109 
L 494 744 
Q 775 591 1075 516 
Q 1375 441 1709 441 
Q 2250 441 2565 725 
Q 2881 1009 2881 1497 
Q 2881 1984 2565 2268 
Q 2250 2553 1709 2553 
Q 1456 2553 1204 2497 
Q 953 2441 691 2322 
L 691 4666 
z
" transform="scale(0.015625)"/>
      <path id="DejaVuSans-36" d="M 2113 2584 
Q 1688 2584 1439 2293 
Q 1191 2003 1191 1497 
Q 1191 994 1439 701 
Q 1688 409 2113 409 
Q 2538 409 2786 701 
Q 3034 994 3034 1497 
Q 3034 2003 2786 2293 
Q 2538 2584 2113 2584 
z
M 3366 4563 
L 3366 3988 
Q 3128 4100 2886 4159 
Q 2644 4219 2406 4219 
Q 1781 4219 1451 3797 
Q 1122 3375 1075 2522 
Q 1259 2794 1537 2939 
Q 1816 3084 2150 3084 
Q 2853 3084 3261 2657 
Q 3669 2231 3669 1497 
Q 3669 778 3244 343 
Q 2819 -91 2113 -91 
Q 1303 -91 875 529 
Q 447 1150 447 2328 
Q 447 3434 972 4092 
Q 1497 4750 2381 4750 
Q 2619 4750 2861 4703 
Q 3103 4656 3366 4563 
z
" transform="scale(0.015625)"/>
     </defs>
     <use xlink:href="#DejaVuSans-6d"/>
     <use xlink:href="#DejaVuSans-61" x="97.412109"/>
     <use xlink:href="#DejaVuSans-78" x="158.691406"/>
     <use xlink:href="#DejaVuSans-3d" x="217.871094"/>
     <use xlink:href="#DejaVuSans-35" x="301.660156"/>
     <use xlink:href="#DejaVuSans-2e" x="365.283203"/>
     <use xlink:href="#DejaVuSans-36" x="397.070312"/>
     <use xlink:href="#DejaVuSans-34" x="460.693359"/>
     <use xlink:href="#DejaVuSans-30" x="524.316406"/>
    </g>
   </g>
   <g id="text_8">
    <!-- 10000 samples (μ=2.625, σ=1.069) of Array[196, 196, 3] n=115248 x∈[0.882, 5.640] μ=2.612 σ=1.073 gpu:0 -->
    <g transform="translate(10.7 14.798437) scale(0.1 -0.1)">
     <defs>
      <path id="DejaVuSans-31" d="M 794 531 
L 1825 531 
L 1825 4091 
L 703 3866 
L 703 4441 
L 1819 4666 
L 2450 4666 
L 2450 531 
L 3481 531 
L 3481 0 
L 794 0 
L 794 531 
z
" transform="scale(0.015625)"/>
      <path id="DejaVuSans-20" transform="scale(0.015625)"/>
      <path id="DejaVuSans-73" d="M 2834 3397 
L 2834 2853 
Q 2591 2978 2328 3040 
Q 2066 3103 1784 3103 
Q 1356 3103 1142 2972 
Q 928 2841 928 2578 
Q 928 2378 1081 2264 
Q 1234 2150 1697 2047 
L 1894 2003 
Q 2506 1872 2764 1633 
Q 3022 1394 3022 966 
Q 3022 478 2636 193 
Q 2250 -91 1575 -91 
Q 1294 -91 989 -36 
Q 684 19 347 128 
L 347 722 
Q 666 556 975 473 
Q 1284 391 1588 391 
Q 1994 391 2212 530 
Q 2431 669 2431 922 
Q 2431 1156 2273 1281 
Q 2116 1406 1581 1522 
L 1381 1569 
Q 847 1681 609 1914 
Q 372 2147 372 2553 
Q 372 3047 722 3315 
Q 1072 3584 1716 3584 
Q 2034 3584 2315 3537 
Q 2597 3491 2834 3397 
z
" transform="scale(0.015625)"/>
      <path id="DejaVuSans-70" d="M 1159 525 
L 1159 -1331 
L 581 -1331 
L 581 3500 
L 1159 3500 
L 1159 2969 
Q 1341 3281 1617 3432 
Q 1894 3584 2278 3584 
Q 2916 3584 3314 3078 
Q 3713 2572 3713 1747 
Q 3713 922 3314 415 
Q 2916 -91 2278 -91 
Q 1894 -91 1617 61 
Q 1341 213 1159 525 
z
M 3116 1747 
Q 3116 2381 2855 2742 
Q 2594 3103 2138 3103 
Q 1681 3103 1420 2742 
Q 1159 2381 1159 1747 
Q 1159 1113 1420 752 
Q 1681 391 2138 391 
Q 2594 391 2855 752 
Q 3116 1113 3116 1747 
z
" transform="scale(0.015625)"/>
      <path id="DejaVuSans-6c" d="M 603 4863 
L 1178 4863 
L 1178 0 
L 603 0 
L 603 4863 
z
" transform="scale(0.015625)"/>
      <path id="DejaVuSans-65" d="M 3597 1894 
L 3597 1613 
L 953 1613 
Q 991 1019 1311 708 
Q 1631 397 2203 397 
Q 2534 397 2845 478 
Q 3156 559 3463 722 
L 3463 178 
Q 3153 47 2828 -22 
Q 2503 -91 2169 -91 
Q 1331 -91 842 396 
Q 353 884 353 1716 
Q 353 2575 817 3079 
Q 1281 3584 2069 3584 
Q 2775 3584 3186 3129 
Q 3597 2675 3597 1894 
z
M 3022 2063 
Q 3016 2534 2758 2815 
Q 2500 3097 2075 3097 
Q 1594 3097 1305 2825 
Q 1016 2553 972 2059 
L 3022 2063 
z
" transform="scale(0.015625)"/>
      <path id="DejaVuSans-28" d="M 1984 4856 
Q 1566 4138 1362 3434 
Q 1159 2731 1159 2009 
Q 1159 1288 1364 580 
Q 1569 -128 1984 -844 
L 1484 -844 
Q 1016 -109 783 600 
Q 550 1309 550 2009 
Q 550 2706 781 3412 
Q 1013 4119 1484 4856 
L 1984 4856 
z
" transform="scale(0.015625)"/>
      <path id="DejaVuSans-3bc" d="M 544 -1331 
L 544 3500 
L 1119 3500 
L 1119 1325 
Q 1119 872 1334 640 
Q 1550 409 1972 409 
Q 2434 409 2667 671 
Q 2900 934 2900 1459 
L 2900 3500 
L 3475 3500 
L 3475 806 
Q 3475 619 3529 530 
Q 3584 441 3700 441 
Q 3728 441 3778 458 
Q 3828 475 3916 513 
L 3916 50 
Q 3788 -22 3673 -56 
Q 3559 -91 3450 -91 
Q 3234 -91 3106 31 
Q 2978 153 2931 403 
Q 2775 156 2548 32 
Q 2322 -91 2016 -91 
Q 1697 -91 1473 31 
Q 1250 153 1119 397 
L 1119 -1331 
L 544 -1331 
z
" transform="scale(0.015625)"/>
      <path id="DejaVuSans-2c" d="M 750 794 
L 1409 794 
L 1409 256 
L 897 -744 
L 494 -744 
L 750 256 
L 750 794 
z
" transform="scale(0.015625)"/>
      <path id="DejaVuSans-3c3" d="M 1959 3044 
Q 1484 3044 1228 2700 
Q 959 2341 959 1747 
Q 959 1119 1226 758 
Q 1494 397 1959 397 
Q 2419 397 2687 759 
Q 2956 1122 2956 1747 
Q 2956 2319 2688 2700 
Q 2441 3044 1959 3044 
z
M 1959 3500 
L 3869 3500 
L 3869 2925 
L 3225 2925 
Q 3566 2438 3566 1747 
Q 3566 888 3138 400 
Q 2709 -91 1959 -91 
Q 1206 -91 781 400 
Q 353 888 353 1747 
Q 353 2613 781 3097 
Q 1134 3500 1959 3500 
z
" transform="scale(0.015625)"/>
      <path id="DejaVuSans-39" d="M 703 97 
L 703 672 
Q 941 559 1184 500 
Q 1428 441 1663 441 
Q 2288 441 2617 861 
Q 2947 1281 2994 2138 
Q 2813 1869 2534 1725 
Q 2256 1581 1919 1581 
Q 1219 1581 811 2004 
Q 403 2428 403 3163 
Q 403 3881 828 4315 
Q 1253 4750 1959 4750 
Q 2769 4750 3195 4129 
Q 3622 3509 3622 2328 
Q 3622 1225 3098 567 
Q 2575 -91 1691 -91 
Q 1453 -91 1209 -44 
Q 966 3 703 97 
z
M 1959 2075 
Q 2384 2075 2632 2365 
Q 2881 2656 2881 3163 
Q 2881 3666 2632 3958 
Q 2384 4250 1959 4250 
Q 1534 4250 1286 3958 
Q 1038 3666 1038 3163 
Q 1038 2656 1286 2365 
Q 1534 2075 1959 2075 
z
" transform="scale(0.015625)"/>
      <path id="DejaVuSans-29" d="M 513 4856 
L 1013 4856 
Q 1481 4119 1714 3412 
Q 1947 2706 1947 2009 
Q 1947 1309 1714 600 
Q 1481 -109 1013 -844 
L 513 -844 
Q 928 -128 1133 580 
Q 1338 1288 1338 2009 
Q 1338 2731 1133 3434 
Q 928 4138 513 4856 
z
" transform="scale(0.015625)"/>
      <path id="DejaVuSans-6f" d="M 1959 3097 
Q 1497 3097 1228 2736 
Q 959 2375 959 1747 
Q 959 1119 1226 758 
Q 1494 397 1959 397 
Q 2419 397 2687 759 
Q 2956 1122 2956 1747 
Q 2956 2369 2687 2733 
Q 2419 3097 1959 3097 
z
M 1959 3584 
Q 2709 3584 3137 3096 
Q 3566 2609 3566 1747 
Q 3566 888 3137 398 
Q 2709 -91 1959 -91 
Q 1206 -91 779 398 
Q 353 888 353 1747 
Q 353 2609 779 3096 
Q 1206 3584 1959 3584 
z
" transform="scale(0.015625)"/>
      <path id="DejaVuSans-66" d="M 2375 4863 
L 2375 4384 
L 1825 4384 
Q 1516 4384 1395 4259 
Q 1275 4134 1275 3809 
L 1275 3500 
L 2222 3500 
L 2222 3053 
L 1275 3053 
L 1275 0 
L 697 0 
L 697 3053 
L 147 3053 
L 147 3500 
L 697 3500 
L 697 3744 
Q 697 4328 969 4595 
Q 1241 4863 1831 4863 
L 2375 4863 
z
" transform="scale(0.015625)"/>
      <path id="DejaVuSans-41" d="M 2188 4044 
L 1331 1722 
L 3047 1722 
L 2188 4044 
z
M 1831 4666 
L 2547 4666 
L 4325 0 
L 3669 0 
L 3244 1197 
L 1141 1197 
L 716 0 
L 50 0 
L 1831 4666 
z
" transform="scale(0.015625)"/>
      <path id="DejaVuSans-72" d="M 2631 2963 
Q 2534 3019 2420 3045 
Q 2306 3072 2169 3072 
Q 1681 3072 1420 2755 
Q 1159 2438 1159 1844 
L 1159 0 
L 581 0 
L 581 3500 
L 1159 3500 
L 1159 2956 
Q 1341 3275 1631 3429 
Q 1922 3584 2338 3584 
Q 2397 3584 2469 3576 
Q 2541 3569 2628 3553 
L 2631 2963 
z
" transform="scale(0.015625)"/>
      <path id="DejaVuSans-79" d="M 2059 -325 
Q 1816 -950 1584 -1140 
Q 1353 -1331 966 -1331 
L 506 -1331 
L 506 -850 
L 844 -850 
Q 1081 -850 1212 -737 
Q 1344 -625 1503 -206 
L 1606 56 
L 191 3500 
L 800 3500 
L 1894 763 
L 2988 3500 
L 3597 3500 
L 2059 -325 
z
" transform="scale(0.015625)"/>
      <path id="DejaVuSans-5b" d="M 550 4863 
L 1875 4863 
L 1875 4416 
L 1125 4416 
L 1125 -397 
L 1875 -397 
L 1875 -844 
L 550 -844 
L 550 4863 
z
" transform="scale(0.015625)"/>
      <path id="DejaVuSans-33" d="M 2597 2516 
Q 3050 2419 3304 2112 
Q 3559 1806 3559 1356 
Q 3559 666 3084 287 
Q 2609 -91 1734 -91 
Q 1441 -91 1130 -33 
Q 819 25 488 141 
L 488 750 
Q 750 597 1062 519 
Q 1375 441 1716 441 
Q 2309 441 2620 675 
Q 2931 909 2931 1356 
Q 2931 1769 2642 2001 
Q 2353 2234 1838 2234 
L 1294 2234 
L 1294 2753 
L 1863 2753 
Q 2328 2753 2575 2939 
Q 2822 3125 2822 3475 
Q 2822 3834 2567 4026 
Q 2313 4219 1838 4219 
Q 1578 4219 1281 4162 
Q 984 4106 628 3988 
L 628 4550 
Q 988 4650 1302 4700 
Q 1616 4750 1894 4750 
Q 2613 4750 3031 4423 
Q 3450 4097 3450 3541 
Q 3450 3153 3228 2886 
Q 3006 2619 2597 2516 
z
" transform="scale(0.015625)"/>
      <path id="DejaVuSans-5d" d="M 1947 4863 
L 1947 -844 
L 622 -844 
L 622 -397 
L 1369 -397 
L 1369 4416 
L 622 4416 
L 622 4863 
L 1947 4863 
z
" transform="scale(0.015625)"/>
      <path id="DejaVuSans-2208" d="M 1072 1959 
Q 1094 1728 1291 1353 
Q 1522 919 1959 675 
Q 2388 438 2850 434 
L 5028 434 
L 5028 -63 
L 2850 -63 
Q 2250 -63 1695 246 
Q 1141 556 844 1106 
Q 547 1656 547 2241 
Q 547 2819 844 3369 
Q 1141 3919 1695 4231 
Q 2250 4544 2850 4544 
L 5028 4544 
L 5028 4047 
L 2850 4047 
Q 2388 4044 1959 3803 
Q 1525 3556 1291 3125 
Q 1091 2750 1063 2459 
L 5028 2459 
L 5028 1959 
L 1072 1959 
z
" transform="scale(0.015625)"/>
      <path id="DejaVuSans-37" d="M 525 4666 
L 3525 4666 
L 3525 4397 
L 1831 0 
L 1172 0 
L 2766 4134 
L 525 4134 
L 525 4666 
z
" transform="scale(0.015625)"/>
      <path id="DejaVuSans-67" d="M 2906 1791 
Q 2906 2416 2648 2759 
Q 2391 3103 1925 3103 
Q 1463 3103 1205 2759 
Q 947 2416 947 1791 
Q 947 1169 1205 825 
Q 1463 481 1925 481 
Q 2391 481 2648 825 
Q 2906 1169 2906 1791 
z
M 3481 434 
Q 3481 -459 3084 -895 
Q 2688 -1331 1869 -1331 
Q 1566 -1331 1297 -1286 
Q 1028 -1241 775 -1147 
L 775 -588 
Q 1028 -725 1275 -790 
Q 1522 -856 1778 -856 
Q 2344 -856 2625 -561 
Q 2906 -266 2906 331 
L 2906 616 
Q 2728 306 2450 153 
Q 2172 0 1784 0 
Q 1141 0 747 490 
Q 353 981 353 1791 
Q 353 2603 747 3093 
Q 1141 3584 1784 3584 
Q 2172 3584 2450 3431 
Q 2728 3278 2906 2969 
L 2906 3500 
L 3481 3500 
L 3481 434 
z
" transform="scale(0.015625)"/>
      <path id="DejaVuSans-75" d="M 544 1381 
L 544 3500 
L 1119 3500 
L 1119 1403 
Q 1119 906 1312 657 
Q 1506 409 1894 409 
Q 2359 409 2629 706 
Q 2900 1003 2900 1516 
L 2900 3500 
L 3475 3500 
L 3475 0 
L 2900 0 
L 2900 538 
Q 2691 219 2414 64 
Q 2138 -91 1772 -91 
Q 1169 -91 856 284 
Q 544 659 544 1381 
z
M 1991 3584 
L 1991 3584 
z
" transform="scale(0.015625)"/>
      <path id="DejaVuSans-3a" d="M 750 794 
L 1409 794 
L 1409 0 
L 750 0 
L 750 794 
z
M 750 3309 
L 1409 3309 
L 1409 2516 
L 750 2516 
L 750 3309 
z
" transform="scale(0.015625)"/>
     </defs>
     <use xlink:href="#DejaVuSans-31"/>
     <use xlink:href="#DejaVuSans-30" x="63.623047"/>
     <use xlink:href="#DejaVuSans-30" x="127.246094"/>
     <use xlink:href="#DejaVuSans-30" x="190.869141"/>
     <use xlink:href="#DejaVuSans-30" x="254.492188"/>
     <use xlink:href="#DejaVuSans-20" x="318.115234"/>
     <use xlink:href="#DejaVuSans-73" x="349.902344"/>
     <use xlink:href="#DejaVuSans-61" x="402.001953"/>
     <use xlink:href="#DejaVuSans-6d" x="463.28125"/>
     <use xlink:href="#DejaVuSans-70" x="560.693359"/>
     <use xlink:href="#DejaVuSans-6c" x="624.169922"/>
     <use xlink:href="#DejaVuSans-65" x="651.953125"/>
     <use xlink:href="#DejaVuSans-73" x="713.476562"/>
     <use xlink:href="#DejaVuSans-20" x="765.576172"/>
     <use xlink:href="#DejaVuSans-28" x="797.363281"/>
     <use xlink:href="#DejaVuSans-3bc" x="836.376953"/>
     <use xlink:href="#DejaVuSans-3d" x="900"/>
     <use xlink:href="#DejaVuSans-32" x="983.789062"/>
     <use xlink:href="#DejaVuSans-2e" x="1047.412109"/>
     <use xlink:href="#DejaVuSans-36" x="1079.199219"/>
     <use xlink:href="#DejaVuSans-32" x="1142.822266"/>
     <use xlink:href="#DejaVuSans-35" x="1206.445312"/>
     <use xlink:href="#DejaVuSans-2c" x="1270.068359"/>
     <use xlink:href="#DejaVuSans-20" x="1301.855469"/>
     <use xlink:href="#DejaVuSans-3c3" x="1333.642578"/>
     <use xlink:href="#DejaVuSans-3d" x="1397.021484"/>
     <use xlink:href="#DejaVuSans-31" x="1480.810547"/>
     <use xlink:href="#DejaVuSans-2e" x="1544.433594"/>
     <use xlink:href="#DejaVuSans-30" x="1576.220703"/>
     <use xlink:href="#DejaVuSans-36" x="1639.84375"/>
     <use xlink:href="#DejaVuSans-39" x="1703.466797"/>
     <use xlink:href="#DejaVuSans-29" x="1767.089844"/>
     <use xlink:href="#DejaVuSans-20" x="1806.103516"/>
     <use xlink:href="#DejaVuSans-6f" x="1837.890625"/>
     <use xlink:href="#DejaVuSans-66" x="1899.072266"/>
     <use xlink:href="#DejaVuSans-20" x="1934.277344"/>
     <use xlink:href="#DejaVuSans-41" x="1966.064453"/>
     <use xlink:href="#DejaVuSans-72" x="2034.472656"/>
     <use xlink:href="#DejaVuSans-72" x="2073.835938"/>
     <use xlink:href="#DejaVuSans-61" x="2114.949219"/>
     <use xlink:href="#DejaVuSans-79" x="2176.228516"/>
     <use xlink:href="#DejaVuSans-5b" x="2235.408203"/>
     <use xlink:href="#DejaVuSans-31" x="2274.421875"/>
     <use xlink:href="#DejaVuSans-39" x="2338.044922"/>
     <use xlink:href="#DejaVuSans-36" x="2401.667969"/>
     <use xlink:href="#DejaVuSans-2c" x="2465.291016"/>
     <use xlink:href="#DejaVuSans-20" x="2497.078125"/>
     <use xlink:href="#DejaVuSans-31" x="2528.865234"/>
     <use xlink:href="#DejaVuSans-39" x="2592.488281"/>
     <use xlink:href="#DejaVuSans-36" x="2656.111328"/>
     <use xlink:href="#DejaVuSans-2c" x="2719.734375"/>
     <use xlink:href="#DejaVuSans-20" x="2751.521484"/>
     <use xlink:href="#DejaVuSans-33" x="2783.308594"/>
     <use xlink:href="#DejaVuSans-5d" x="2846.931641"/>
     <use xlink:href="#DejaVuSans-20" x="2885.945312"/>
     <use xlink:href="#DejaVuSans-6e" x="2917.732422"/>
     <use xlink:href="#DejaVuSans-3d" x="2981.111328"/>
     <use xlink:href="#DejaVuSans-31" x="3064.900391"/>
     <use xlink:href="#DejaVuSans-31" x="3128.523438"/>
     <use xlink:href="#DejaVuSans-35" x="3192.146484"/>
     <use xlink:href="#DejaVuSans-32" x="3255.769531"/>
     <use xlink:href="#DejaVuSans-34" x="3319.392578"/>
     <use xlink:href="#DejaVuSans-38" x="3383.015625"/>
     <use xlink:href="#DejaVuSans-20" x="3446.638672"/>
     <use xlink:href="#DejaVuSans-78" x="3478.425781"/>
     <use xlink:href="#DejaVuSans-2208" x="3537.605469"/>
     <use xlink:href="#DejaVuSans-5b" x="3624.714844"/>
     <use xlink:href="#DejaVuSans-30" x="3663.728516"/>
     <use xlink:href="#DejaVuSans-2e" x="3727.351562"/>
     <use xlink:href="#DejaVuSans-38" x="3759.138672"/>
     <use xlink:href="#DejaVuSans-38" x="3822.761719"/>
     <use xlink:href="#DejaVuSans-32" x="3886.384766"/>
     <use xlink:href="#DejaVuSans-2c" x="3950.007812"/>
     <use xlink:href="#DejaVuSans-20" x="3981.794922"/>
     <use xlink:href="#DejaVuSans-35" x="4013.582031"/>
     <use xlink:href="#DejaVuSans-2e" x="4077.205078"/>
     <use xlink:href="#DejaVuSans-36" x="4108.992188"/>
     <use xlink:href="#DejaVuSans-34" x="4172.615234"/>
     <use xlink:href="#DejaVuSans-30" x="4236.238281"/>
     <use xlink:href="#DejaVuSans-5d" x="4299.861328"/>
     <use xlink:href="#DejaVuSans-20" x="4338.875"/>
     <use xlink:href="#DejaVuSans-3bc" x="4370.662109"/>
     <use xlink:href="#DejaVuSans-3d" x="4434.285156"/>
     <use xlink:href="#DejaVuSans-32" x="4518.074219"/>
     <use xlink:href="#DejaVuSans-2e" x="4581.697266"/>
     <use xlink:href="#DejaVuSans-36" x="4613.484375"/>
     <use xlink:href="#DejaVuSans-31" x="4677.107422"/>
     <use xlink:href="#DejaVuSans-32" x="4740.730469"/>
     <use xlink:href="#DejaVuSans-20" x="4804.353516"/>
     <use xlink:href="#DejaVuSans-3c3" x="4836.140625"/>
     <use xlink:href="#DejaVuSans-3d" x="4899.519531"/>
     <use xlink:href="#DejaVuSans-31" x="4983.308594"/>
     <use xlink:href="#DejaVuSans-2e" x="5046.931641"/>
     <use xlink:href="#DejaVuSans-30" x="5078.71875"/>
     <use xlink:href="#DejaVuSans-37" x="5142.341797"/>
     <use xlink:href="#DejaVuSans-33" x="5205.964844"/>
     <use xlink:href="#DejaVuSans-20" x="5269.587891"/>
     <use xlink:href="#DejaVuSans-67" x="5301.375"/>
     <use xlink:href="#DejaVuSans-70" x="5364.851562"/>
     <use xlink:href="#DejaVuSans-75" x="5428.328125"/>
     <use xlink:href="#DejaVuSans-3a" x="5491.707031"/>
     <use xlink:href="#DejaVuSans-30" x="5525.398438"/>
    </g>
   </g>
   <g id="patch_9">
    <path d="M 508.247011 128.528148 
L 516.720225 128.528148 
L 516.720225 125.45593 
L 508.247011 125.45593 
z
" clip-path="url(#p793339dd19)" style="fill: #00bfff"/>
   </g>
   <g id="patch_10">
    <path d="M 516.720225 128.528148 
L 525.193438 128.528148 
L 525.193438 120.452603 
L 516.720225 120.452603 
z
" clip-path="url(#p793339dd19)" style="fill: #00bfff"/>
   </g>
   <g id="patch_11">
    <path d="M 525.193438 128.528148 
L 533.666652 128.528148 
L 533.666652 114.5715 
L 525.193438 114.5715 
z
" clip-path="url(#p793339dd19)" style="fill: #00bfff"/>
   </g>
   <g id="patch_12">
    <path d="M 533.666652 128.528148 
L 542.139865 128.528148 
L 542.139865 108.602619 
L 533.666652 108.602619 
z
" clip-path="url(#p793339dd19)" style="fill: #00bfff"/>
   </g>
   <g id="patch_13">
    <path d="M 542.139865 128.528148 
L 550.613078 128.528148 
L 550.613078 105.17929 
L 542.139865 105.17929 
z
" clip-path="url(#p793339dd19)" style="fill: #00bfff"/>
   </g>
   <g id="patch_14">
    <path d="M 550.613078 128.528148 
L 559.086292 128.528148 
L 559.086292 99.210409 
L 550.613078 99.210409 
z
" clip-path="url(#p793339dd19)" style="fill: #00bfff"/>
   </g>
   <g id="patch_15">
    <path d="M 559.086292 128.528148 
L 567.559505 128.528148 
L 567.559505 80.601546 
L 559.086292 80.601546 
z
" clip-path="url(#p793339dd19)" style="fill: #00bfff"/>
   </g>
   <g id="patch_16">
    <path d="M 567.559505 128.528148 
L 576.032718 128.528148 
L 576.032718 62.519348 
L 567.559505 62.519348 
z
" clip-path="url(#p793339dd19)" style="fill: #00bfff"/>
   </g>
   <g id="patch_17">
    <path d="M 576.032718 128.528148 
L 584.50594 128.528148 
L 584.50594 64.88941 
L 576.032718 64.88941 
z
" clip-path="url(#p793339dd19)" style="fill: #00bfff"/>
   </g>
   <g id="patch_18">
    <path d="M 584.50594 128.528148 
L 592.979145 128.528148 
L 592.979145 76.300387 
L 584.50594 76.300387 
z
" clip-path="url(#p793339dd19)" style="fill: #00bfff"/>
   </g>
   <g id="patch_19">
    <path d="M 592.979145 128.528148 
L 601.452367 128.528148 
L 601.452367 60.061643 
L 592.979145 60.061643 
z
" clip-path="url(#p793339dd19)" style="fill: #00bfff"/>
   </g>
   <g id="patch_20">
    <path d="M 601.452367 128.528148 
L 609.925572 128.528148 
L 609.925572 58.832615 
L 601.452367 58.832615 
z
" clip-path="url(#p793339dd19)" style="fill: #00bfff"/>
   </g>
   <g id="patch_21">
    <path d="M 609.925572 128.528148 
L 618.398794 128.528148 
L 618.398794 49.177225 
L 609.925572 49.177225 
z
" clip-path="url(#p793339dd19)" style="fill: #00bfff"/>
   </g>
   <g id="patch_22">
    <path d="M 618.398794 128.528148 
L 626.871999 128.528148 
L 626.871999 63.221502 
L 618.398794 63.221502 
z
" clip-path="url(#p793339dd19)" style="fill: #00bfff"/>
   </g>
   <g id="patch_23">
    <path d="M 626.871999 128.528148 
L 635.345221 128.528148 
L 635.345221 93.06601 
L 626.871999 93.06601 
z
" clip-path="url(#p793339dd19)" style="fill: #00bfff"/>
   </g>
   <g id="patch_24">
    <path d="M 635.345221 128.528148 
L 643.818425 128.528148 
L 643.818425 109.041487 
L 635.345221 109.041487 
z
" clip-path="url(#p793339dd19)" style="fill: #00bfff"/>
   </g>
   <g id="patch_25">
    <path d="M 643.818425 128.528148 
L 652.291647 128.528148 
L 652.291647 116.765953 
L 643.818425 116.765953 
z
" clip-path="url(#p793339dd19)" style="fill: #00bfff"/>
   </g>
   <g id="patch_26">
    <path d="M 652.291647 128.528148 
L 660.764852 128.528148 
L 660.764852 120.62815 
L 652.291647 120.62815 
z
" clip-path="url(#p793339dd19)" style="fill: #00bfff"/>
   </g>
   <g id="patch_27">
    <path d="M 660.764852 128.528148 
L 669.238074 128.528148 
L 669.238074 121.94483 
L 660.764852 121.94483 
z
" clip-path="url(#p793339dd19)" style="fill: #00bfff"/>
   </g>
   <g id="patch_28">
    <path d="M 669.238074 128.528148 
L 677.711296 128.528148 
L 677.711296 120.891499 
L 669.238074 120.891499 
z
" clip-path="url(#p793339dd19)" style="fill: #00bfff"/>
   </g>
   <g id="patch_29">
    <path d="M 677.711296 128.528148 
L 686.184501 128.528148 
L 686.184501 120.277039 
L 677.711296 120.277039 
z
" clip-path="url(#p793339dd19)" style="fill: #00bfff"/>
   </g>
   <g id="patch_30">
    <path d="M 686.184501 128.528148 
L 694.657723 128.528148 
L 694.657723 121.242609 
L 686.184501 121.242609 
z
" clip-path="url(#p793339dd19)" style="fill: #00bfff"/>
   </g>
   <g id="patch_31">
    <path d="M 694.657723 128.528148 
L 703.130927 128.528148 
L 703.130927 121.154817 
L 694.657723 121.154817 
z
" clip-path="url(#p793339dd19)" style="fill: #00bfff"/>
   </g>
   <g id="patch_32">
    <path d="M 703.130927 128.528148 
L 711.604149 128.528148 
L 711.604149 122.910383 
L 703.130927 122.910383 
z
" clip-path="url(#p793339dd19)" style="fill: #00bfff"/>
   </g>
   <g id="patch_33">
    <path d="M 711.604149 128.528148 
L 720.077354 128.528148 
L 720.077354 123.261483 
L 711.604149 123.261483 
z
" clip-path="url(#p793339dd19)" style="fill: #00bfff"/>
   </g>
   <g id="patch_34">
    <path d="M 720.077354 128.528148 
L 728.550576 128.528148 
L 728.550576 124.84149 
L 720.077354 124.84149 
z
" clip-path="url(#p793339dd19)" style="fill: #00bfff"/>
   </g>
   <g id="patch_35">
    <path d="M 728.550576 128.528148 
L 737.023798 128.528148 
L 737.023798 122.910383 
L 728.550576 122.910383 
z
" clip-path="url(#p793339dd19)" style="fill: #00bfff"/>
   </g>
   <g id="patch_36">
    <path d="M 737.023798 128.528148 
L 745.497003 128.528148 
L 745.497003 122.910372 
L 737.023798 122.910372 
z
" clip-path="url(#p793339dd19)" style="fill: #00bfff"/>
   </g>
   <g id="patch_37">
    <path d="M 745.497003 128.528148 
L 753.970208 128.528148 
L 753.970208 121.154817 
L 745.497003 121.154817 
z
" clip-path="url(#p793339dd19)" style="fill: #00bfff"/>
   </g>
   <g id="patch_38">
    <path d="M 753.970208 128.528148 
L 762.443412 128.528148 
L 762.443412 119.487039 
L 753.970208 119.487039 
z
" clip-path="url(#p793339dd19)" style="fill: #00bfff"/>
   </g>
   <g id="patch_39">
    <path d="M 762.443412 128.528148 
L 770.916652 128.528148 
L 770.916652 115.098207 
L 762.443412 115.098207 
z
" clip-path="url(#p793339dd19)" style="fill: #00bfff"/>
   </g>
   <g id="patch_40">
    <path d="M 770.916652 128.528148 
L 779.389856 128.528148 
L 779.389856 114.308152 
L 770.916652 114.308152 
z
" clip-path="url(#p793339dd19)" style="fill: #00bfff"/>
   </g>
   <g id="patch_41">
    <path d="M 779.389856 128.528148 
L 787.863061 128.528148 
L 787.863061 110.972598 
L 779.389856 110.972598 
z
" clip-path="url(#p793339dd19)" style="fill: #00bfff"/>
   </g>
   <g id="patch_42">
    <path d="M 787.863061 128.528148 
L 796.336266 128.528148 
L 796.336266 110.182598 
L 787.863061 110.182598 
z
" clip-path="url(#p793339dd19)" style="fill: #00bfff"/>
   </g>
   <g id="patch_43">
    <path d="M 796.336266 128.528148 
L 804.809505 128.528148 
L 804.809505 112.025998 
L 796.336266 112.025998 
z
" clip-path="url(#p793339dd19)" style="fill: #00bfff"/>
   </g>
   <g id="patch_44">
    <path d="M 804.809505 128.528148 
L 813.28271 128.528148 
L 813.28271 116.063707 
L 804.809505 116.063707 
z
" clip-path="url(#p793339dd19)" style="fill: #00bfff"/>
   </g>
   <g id="patch_45">
    <path d="M 813.28271 128.528148 
L 821.755914 128.528148 
L 821.755914 118.521484 
L 813.28271 118.521484 
z
" clip-path="url(#p793339dd19)" style="fill: #00bfff"/>
   </g>
   <g id="patch_46">
    <path d="M 821.755914 128.528148 
L 830.229119 128.528148 
L 830.229119 121.242594 
L 821.755914 121.242594 
z
" clip-path="url(#p793339dd19)" style="fill: #00bfff"/>
   </g>
   <g id="patch_47">
    <path d="M 830.229119 128.528148 
L 838.702359 128.528148 
L 838.702359 125.192607 
L 830.229119 125.192607 
z
" clip-path="url(#p793339dd19)" style="fill: #00bfff"/>
   </g>
   <g id="patch_48">
    <path d="M 838.702359 128.528148 
L 847.175563 128.528148 
L 847.175563 128.177037 
L 838.702359 128.177037 
z
" clip-path="url(#p793339dd19)" style="fill: #00bfff"/>
   </g>
   <g id="line2d_13">
    <path d="M 10.7 128.528148 
L 19.331308 128.528148 
L 27.962617 128.528148 
L 36.593925 128.528148 
L 45.225233 128.528148 
L 53.856541 128.528148 
L 62.48785 128.528148 
L 71.119158 128.528148 
L 79.750466 128.528148 
L 88.381775 128.528148 
L 97.013083 128.528148 
L 105.644391 128.528148 
L 114.275699 128.528148 
L 122.907008 128.528148 
L 131.538316 128.528148 
L 140.169624 128.528148 
L 148.800933 128.528147 
L 157.432241 128.528147 
L 166.063549 128.528147 
L 174.694857 128.528146 
L 183.326166 128.528145 
L 191.957474 128.528142 
L 200.588782 128.528138 
L 209.220091 128.528129 
L 217.851399 128.528114 
L 226.482707 128.528088 
L 235.114015 128.528043 
L 243.745324 128.527966 
L 252.376632 128.527835 
L 261.00794 128.527616 
L 269.639248 128.527254 
L 278.270557 128.526666 
L 286.901865 128.52572 
L 295.533173 128.524218 
L 304.164482 128.521865 
L 312.79579 128.518227 
L 321.427098 128.512674 
L 330.058406 128.504306 
L 338.689715 128.491863 
L 347.321023 128.473602 
L 355.952331 128.447153 
L 364.58364 128.409351 
L 373.214948 128.356035 
L 381.846256 128.281841 
L 390.477564 128.179975 
L 399.108873 128.041999 
L 407.740181 127.857646 
L 416.371489 127.614695 
L 425.002798 127.298933 
L 433.634106 126.894249 
L 442.265414 126.382896 
L 450.896722 125.745955 
L 459.528031 124.964031 
L 468.159339 124.018192 
L 476.790647 122.891144 
L 485.421956 121.568614 
L 494.053264 120.040884 
L 502.684572 118.304381 
L 511.31588 116.363209 
L 519.947189 114.230499 
L 528.578497 111.929411 
L 537.209805 109.493661 
L 545.841114 106.967439 
L 554.472422 104.404631 
L 563.10373 101.867302 
L 571.735038 99.42346 
L 580.366347 97.144191 
L 588.997655 95.100319 
L 597.628963 93.358796 
L 606.260272 91.979083 
L 614.89158 91.009783 
L 623.522888 90.485805 
L 632.154196 90.426274 
L 640.785505 90.833375 
L 649.416813 91.692217 
L 658.048121 92.971739 
L 666.679429 94.626575 
L 675.310738 96.59972 
L 683.942046 98.82579 
L 692.573354 101.234596 
L 701.204663 103.754788 
L 709.835971 106.317283 
L 718.467279 108.858266 
L 727.098587 111.321599 
L 735.729896 113.660526 
L 744.361204 115.838635 
L 752.992512 117.83011 
L 761.623821 119.619352 
L 770.255129 121.200077 
L 778.886437 122.57405 
L 787.517745 123.749577 
L 796.149054 124.739922 
L 804.780362 125.56175 
L 813.41167 126.233698 
L 822.042979 126.775141 
L 830.674287 127.205195 
L 839.305595 127.541958 
L 847.936903 127.801987 
L 856.568212 127.999994 
L 865.19952 128.148707 
" clip-path="url(#p793339dd19)" style="fill: none; stroke: #1f77b4; stroke-width: 1.5; stroke-linecap: square"/>
   </g>
   <g id="text_9">
    <g id="patch_49">
     <path d="M 465.165387 38.307963 
L 481.4732 38.307963 
Q 484.4732 38.307963 484.4732 35.307963 
L 484.4732 25.629838 
Q 484.4732 22.629838 481.4732 22.629838 
L 465.165387 22.629838 
Q 462.165387 22.629838 462.165387 25.629838 
L 462.165387 35.307963 
Q 462.165387 38.307963 465.165387 38.307963 
z
" style="fill: #ffffff"/>
    </g>
    <!-- -2σ -->
    <g transform="translate(465.165387 33.228276) scale(0.1 -0.1)">
     <defs>
      <path id="DejaVuSans-2d" d="M 313 2009 
L 1997 2009 
L 1997 1497 
L 313 1497 
L 313 2009 
z
" transform="scale(0.015625)"/>
     </defs>
     <use xlink:href="#DejaVuSans-2d"/>
     <use xlink:href="#DejaVuSans-32" x="36.083984"/>
     <use xlink:href="#DejaVuSans-3c3" x="99.707031"/>
    </g>
   </g>
   <g id="text_10">
    <g id="patch_50">
     <path d="M 546.154634 38.307963 
L 556.099946 38.307963 
Q 559.099946 38.307963 559.099946 35.307963 
L 559.099946 25.629838 
Q 559.099946 22.629838 556.099946 22.629838 
L 546.154634 22.629838 
Q 543.154634 22.629838 543.154634 25.629838 
L 543.154634 35.307963 
Q 543.154634 38.307963 546.154634 38.307963 
z
" style="fill: #ffffff"/>
    </g>
    <!-- -σ -->
    <g transform="translate(546.154634 33.228276) scale(0.1 -0.1)">
     <use xlink:href="#DejaVuSans-2d"/>
     <use xlink:href="#DejaVuSans-3c3" x="36.083984"/>
    </g>
   </g>
   <g id="text_11">
    <g id="patch_51">
     <path d="M 625.256381 38.307963 
L 632.614193 38.307963 
Q 635.614193 38.307963 635.614193 35.307963 
L 635.614193 25.629838 
Q 635.614193 22.629838 632.614193 22.629838 
L 625.256381 22.629838 
Q 622.256381 22.629838 622.256381 25.629838 
L 622.256381 35.307963 
Q 622.256381 38.307963 625.256381 38.307963 
z
" style="fill: #ffffff"/>
    </g>
    <!-- μ -->
    <g transform="translate(625.256381 33.217338) scale(0.1 -0.1)">
     <defs>
      <path id="DejaVuSans-Bold-3bc" d="M 544 -1338 
L 544 3500 
L 1672 3500 
L 1672 1466 
Q 1672 1103 1828 926 
Q 1984 750 2303 750 
Q 2625 750 2781 926 
Q 2938 1103 2938 1466 
L 2938 3500 
L 4063 3500 
L 4063 1159 
Q 4063 938 4114 850 
Q 4166 763 4288 763 
Q 4344 763 4395 778 
Q 4447 794 4506 831 
L 4506 50 
Q 4341 -22 4195 -56 
Q 4050 -91 3909 -91 
Q 3631 -91 3454 26 
Q 3278 144 3169 403 
Q 3022 156 2811 32 
Q 2600 -91 2322 -91 
Q 2091 -91 1928 -17 
Q 1766 56 1672 206 
L 1672 -1338 
L 544 -1338 
z
" transform="scale(0.015625)"/>
     </defs>
     <use xlink:href="#DejaVuSans-Bold-3bc"/>
    </g>
   </g>
   <g id="text_12">
    <g id="patch_52">
     <path d="M 699.38469 38.307963 
L 714.101877 38.307963 
Q 717.101877 38.307963 717.101877 35.307963 
L 717.101877 25.629838 
Q 717.101877 22.629838 714.101877 22.629838 
L 699.38469 22.629838 
Q 696.38469 22.629838 696.38469 25.629838 
L 696.38469 35.307963 
Q 696.38469 38.307963 699.38469 38.307963 
z
" style="fill: #ffffff"/>
    </g>
    <!-- +σ -->
    <g transform="translate(699.38469 33.228276) scale(0.1 -0.1)">
     <defs>
      <path id="DejaVuSans-2b" d="M 2944 4013 
L 2944 2272 
L 4684 2272 
L 4684 1741 
L 2944 1741 
L 2944 0 
L 2419 0 
L 2419 1741 
L 678 1741 
L 678 2272 
L 2419 2272 
L 2419 4013 
L 2944 4013 
z
" transform="scale(0.015625)"/>
     </defs>
     <use xlink:href="#DejaVuSans-2b"/>
     <use xlink:href="#DejaVuSans-3c3" x="83.789062"/>
    </g>
   </g>
   <g id="text_13">
    <g id="patch_53">
     <path d="M 774.011436 38.307963 
L 795.091124 38.307963 
Q 798.091124 38.307963 798.091124 35.307963 
L 798.091124 25.629838 
Q 798.091124 22.629838 795.091124 22.629838 
L 774.011436 22.629838 
Q 771.011436 22.629838 771.011436 25.629838 
L 771.011436 35.307963 
Q 771.011436 38.307963 774.011436 38.307963 
z
" style="fill: #ffffff"/>
    </g>
    <!-- +2σ -->
    <g transform="translate(774.011436 33.228276) scale(0.1 -0.1)">
     <use xlink:href="#DejaVuSans-2b"/>
     <use xlink:href="#DejaVuSans-32" x="83.789062"/>
     <use xlink:href="#DejaVuSans-3c3" x="147.412109"/>
    </g>
   </g>
  </g>
 </g>
 <defs>
  <clipPath id="p793339dd19">
   <rect x="10.7" y="20.214138" width="854.49952" height="108.31401"/>
  </clipPath>
 </defs>
</svg>
