<?xml version="1.0" encoding="utf-8" standalone="no"?>
<!DOCTYPE svg PUBLIC "-//W3C//DTD SVG 1.1//EN"
  "http://www.w3.org/Graphics/SVG/1.1/DTD/svg11.dtd">
<svg xmlns:xlink="http://www.w3.org/1999/xlink" width="513.617098pt" height="145.104562pt" viewBox="0 0 513.617098 145.104562" xmlns="http://www.w3.org/2000/svg" version="1.1">
 <metadata>
  <rdf:RDF xmlns:dc="http://purl.org/dc/elements/1.1/" xmlns:cc="http://creativecommons.org/ns#" xmlns:rdf="http://www.w3.org/1999/02/22-rdf-syntax-ns#">
   <cc:Work>
    <dc:type rdf:resource="http://purl.org/dc/dcmitype/StillImage"/>
    <dc:date>2022-12-27T12:15:31.616495</dc:date>
    <dc:format>image/svg+xml</dc:format>
    <dc:creator>
     <cc:Agent>
      <dc:title>Matplotlib v3.6.2, https://matplotlib.org/</dc:title>
     </cc:Agent>
    </dc:creator>
   </cc:Work>
  </rdf:RDF>
 </metadata>
 <defs>
  <style type="text/css">*{stroke-linejoin: round; stroke-linecap: butt}</style>
 </defs>
 <g id="figure_1">
  <g id="patch_1">
   <path d="M 0 145.104562 
L 513.617098 145.104562 
L 513.617098 0 
L 0 0 
z
" style="fill: #ffffff"/>
  </g>
  <g id="axes_1">
   <g id="patch_2">
    <path d="M 12.688973 121.226437 
L 392.193973 121.226437 
L 392.193973 19.866437 
L 12.688973 19.866437 
z
" style="fill: #ffffff"/>
   </g>
   <g id="matplotlib.axis_1">
    <g id="xtick_1">
     <g id="line2d_1">
      <defs>
       <path id="m9613e24f6a" d="M 0 0 
L 0 3.5 
" style="stroke: #000000; stroke-width: 0.8"/>
      </defs>
      <g>
       <use xlink:href="#m9613e24f6a" x="14.571094" y="121.226437" style="stroke: #000000; stroke-width: 0.8"/>
      </g>
     </g>
     <g id="text_1">
      <!-- −8 -->
      <g transform="translate(7.2 135.824875) scale(0.1 -0.1)">
       <defs>
        <path id="DejaVuSans-2212" d="M 678 2272 
L 4684 2272 
L 4684 1741 
L 678 1741 
L 678 2272 
z
" transform="scale(0.015625)"/>
        <path id="DejaVuSans-38" d="M 2034 2216 
Q 1584 2216 1326 1975 
Q 1069 1734 1069 1313 
Q 1069 891 1326 650 
Q 1584 409 2034 409 
Q 2484 409 2743 651 
Q 3003 894 3003 1313 
Q 3003 1734 2745 1975 
Q 2488 2216 2034 2216 
z
M 1403 2484 
Q 997 2584 770 2862 
Q 544 3141 544 3541 
Q 544 4100 942 4425 
Q 1341 4750 2034 4750 
Q 2731 4750 3128 4425 
Q 3525 4100 3525 3541 
Q 3525 3141 3298 2862 
Q 3072 2584 2669 2484 
Q 3125 2378 3379 2068 
Q 3634 1759 3634 1313 
Q 3634 634 3220 271 
Q 2806 -91 2034 -91 
Q 1263 -91 848 271 
Q 434 634 434 1313 
Q 434 1759 690 2068 
Q 947 2378 1403 2484 
z
M 1172 3481 
Q 1172 3119 1398 2916 
Q 1625 2713 2034 2713 
Q 2441 2713 2670 2916 
Q 2900 3119 2900 3481 
Q 2900 3844 2670 4047 
Q 2441 4250 2034 4250 
Q 1625 4250 1398 4047 
Q 1172 3844 1172 3481 
z
" transform="scale(0.015625)"/>
       </defs>
       <use xlink:href="#DejaVuSans-2212"/>
       <use xlink:href="#DejaVuSans-38" x="83.789062"/>
      </g>
     </g>
    </g>
    <g id="xtick_2">
     <g id="line2d_2">
      <g>
       <use xlink:href="#m9613e24f6a" x="61.52045" y="121.226437" style="stroke: #000000; stroke-width: 0.8"/>
      </g>
     </g>
     <g id="text_2">
      <!-- −6 -->
      <g transform="translate(54.149356 135.824875) scale(0.1 -0.1)">
       <defs>
        <path id="DejaVuSans-36" d="M 2113 2584 
Q 1688 2584 1439 2293 
Q 1191 2003 1191 1497 
Q 1191 994 1439 701 
Q 1688 409 2113 409 
Q 2538 409 2786 701 
Q 3034 994 3034 1497 
Q 3034 2003 2786 2293 
Q 2538 2584 2113 2584 
z
M 3366 4563 
L 3366 3988 
Q 3128 4100 2886 4159 
Q 2644 4219 2406 4219 
Q 1781 4219 1451 3797 
Q 1122 3375 1075 2522 
Q 1259 2794 1537 2939 
Q 1816 3084 2150 3084 
Q 2853 3084 3261 2657 
Q 3669 2231 3669 1497 
Q 3669 778 3244 343 
Q 2819 -91 2113 -91 
Q 1303 -91 875 529 
Q 447 1150 447 2328 
Q 447 3434 972 4092 
Q 1497 4750 2381 4750 
Q 2619 4750 2861 4703 
Q 3103 4656 3366 4563 
z
" transform="scale(0.015625)"/>
       </defs>
       <use xlink:href="#DejaVuSans-2212"/>
       <use xlink:href="#DejaVuSans-36" x="83.789062"/>
      </g>
     </g>
    </g>
    <g id="xtick_3">
     <g id="line2d_3">
      <g>
       <use xlink:href="#m9613e24f6a" x="108.469807" y="121.226437" style="stroke: #000000; stroke-width: 0.8"/>
      </g>
     </g>
     <g id="text_3">
      <!-- −4 -->
      <g transform="translate(101.098713 135.824875) scale(0.1 -0.1)">
       <defs>
        <path id="DejaVuSans-34" d="M 2419 4116 
L 825 1625 
L 2419 1625 
L 2419 4116 
z
M 2253 4666 
L 3047 4666 
L 3047 1625 
L 3713 1625 
L 3713 1100 
L 3047 1100 
L 3047 0 
L 2419 0 
L 2419 1100 
L 313 1100 
L 313 1709 
L 2253 4666 
z
" transform="scale(0.015625)"/>
       </defs>
       <use xlink:href="#DejaVuSans-2212"/>
       <use xlink:href="#DejaVuSans-34" x="83.789062"/>
      </g>
     </g>
    </g>
    <g id="xtick_4">
     <g id="line2d_4">
      <g>
       <use xlink:href="#m9613e24f6a" x="155.419163" y="121.226437" style="stroke: #000000; stroke-width: 0.8"/>
      </g>
     </g>
     <g id="text_4">
      <!-- −2 -->
      <g transform="translate(148.048069 135.824875) scale(0.1 -0.1)">
       <defs>
        <path id="DejaVuSans-32" d="M 1228 531 
L 3431 531 
L 3431 0 
L 469 0 
L 469 531 
Q 828 903 1448 1529 
Q 2069 2156 2228 2338 
Q 2531 2678 2651 2914 
Q 2772 3150 2772 3378 
Q 2772 3750 2511 3984 
Q 2250 4219 1831 4219 
Q 1534 4219 1204 4116 
Q 875 4013 500 3803 
L 500 4441 
Q 881 4594 1212 4672 
Q 1544 4750 1819 4750 
Q 2544 4750 2975 4387 
Q 3406 4025 3406 3419 
Q 3406 3131 3298 2873 
Q 3191 2616 2906 2266 
Q 2828 2175 2409 1742 
Q 1991 1309 1228 531 
z
" transform="scale(0.015625)"/>
       </defs>
       <use xlink:href="#DejaVuSans-2212"/>
       <use xlink:href="#DejaVuSans-32" x="83.789062"/>
      </g>
     </g>
    </g>
    <g id="xtick_5">
     <g id="line2d_5">
      <g>
       <use xlink:href="#m9613e24f6a" x="202.36852" y="121.226437" style="stroke: #000000; stroke-width: 0.8"/>
      </g>
     </g>
     <g id="text_5">
      <!-- 0 -->
      <g transform="translate(199.18727 135.824875) scale(0.1 -0.1)">
       <defs>
        <path id="DejaVuSans-30" d="M 2034 4250 
Q 1547 4250 1301 3770 
Q 1056 3291 1056 2328 
Q 1056 1369 1301 889 
Q 1547 409 2034 409 
Q 2525 409 2770 889 
Q 3016 1369 3016 2328 
Q 3016 3291 2770 3770 
Q 2525 4250 2034 4250 
z
M 2034 4750 
Q 2819 4750 3233 4129 
Q 3647 3509 3647 2328 
Q 3647 1150 3233 529 
Q 2819 -91 2034 -91 
Q 1250 -91 836 529 
Q 422 1150 422 2328 
Q 422 3509 836 4129 
Q 1250 4750 2034 4750 
z
" transform="scale(0.015625)"/>
       </defs>
       <use xlink:href="#DejaVuSans-30"/>
      </g>
     </g>
    </g>
    <g id="xtick_6">
     <g id="line2d_6">
      <g>
       <use xlink:href="#m9613e24f6a" x="249.317876" y="121.226437" style="stroke: #000000; stroke-width: 0.8"/>
      </g>
     </g>
     <g id="text_6">
      <!-- 2 -->
      <g transform="translate(246.136626 135.824875) scale(0.1 -0.1)">
       <use xlink:href="#DejaVuSans-32"/>
      </g>
     </g>
    </g>
    <g id="xtick_7">
     <g id="line2d_7">
      <g>
       <use xlink:href="#m9613e24f6a" x="296.267233" y="121.226437" style="stroke: #000000; stroke-width: 0.8"/>
      </g>
     </g>
     <g id="text_7">
      <!-- 4 -->
      <g transform="translate(293.085983 135.824875) scale(0.1 -0.1)">
       <use xlink:href="#DejaVuSans-34"/>
      </g>
     </g>
    </g>
    <g id="xtick_8">
     <g id="line2d_8">
      <g>
       <use xlink:href="#m9613e24f6a" x="343.216589" y="121.226437" style="stroke: #000000; stroke-width: 0.8"/>
      </g>
     </g>
     <g id="text_8">
      <!-- 6 -->
      <g transform="translate(340.035339 135.824875) scale(0.1 -0.1)">
       <use xlink:href="#DejaVuSans-36"/>
      </g>
     </g>
    </g>
    <g id="xtick_9">
     <g id="line2d_9">
      <g>
       <use xlink:href="#m9613e24f6a" x="390.165946" y="121.226437" style="stroke: #000000; stroke-width: 0.8"/>
      </g>
     </g>
     <g id="text_9">
      <!-- 8 -->
      <g transform="translate(386.984696 135.824875) scale(0.1 -0.1)">
       <use xlink:href="#DejaVuSans-38"/>
      </g>
     </g>
    </g>
   </g>
   <g id="matplotlib.axis_2"/>
   <g id="line2d_10">
    <path d="M 179.277239 121.226437 
L 179.277239 19.866437 
" clip-path="url(#p4c1c1fcbdb)" style="fill: none; stroke: #000000; stroke-width: 1.5; stroke-linecap: square"/>
   </g>
   <g id="line2d_11">
    <path d="M 202.73197 121.226437 
L 202.73197 19.866437 
" clip-path="url(#p4c1c1fcbdb)" style="fill: none; stroke: #000000; stroke-width: 1.5; stroke-linecap: square"/>
   </g>
   <g id="line2d_12">
    <path d="M 226.186702 121.226437 
L 226.186702 19.866437 
" clip-path="url(#p4c1c1fcbdb)" style="fill: none; stroke: #000000; stroke-width: 1.5; stroke-linecap: square"/>
   </g>
   <g id="line2d_13">
    <path d="M 249.641433 121.226437 
L 249.641433 19.866437 
" clip-path="url(#p4c1c1fcbdb)" style="fill: none; stroke: #000000; stroke-width: 1.5; stroke-linecap: square"/>
   </g>
   <g id="line2d_14">
    <path d="M 273.096164 121.226437 
L 273.096164 19.866437 
" clip-path="url(#p4c1c1fcbdb)" style="fill: none; stroke: #000000; stroke-width: 1.5; stroke-linecap: square"/>
   </g>
   <g id="line2d_15">
    <path d="M 296.550895 121.226437 
L 296.550895 19.866437 
" clip-path="url(#p4c1c1fcbdb)" style="fill: none; stroke: #000000; stroke-width: 1.5; stroke-linecap: square"/>
   </g>
   <g id="line2d_16">
    <path d="M 320.005627 121.226437 
L 320.005627 19.866437 
" clip-path="url(#p4c1c1fcbdb)" style="fill: none; stroke: #000000; stroke-width: 1.5; stroke-linecap: square"/>
   </g>
   <g id="line2d_17">
    <path d="M 343.460358 121.226437 
L 343.460358 19.866437 
" clip-path="url(#p4c1c1fcbdb)" style="fill: none; stroke: #000000; stroke-width: 1.5; stroke-linecap: square"/>
   </g>
   <g id="line2d_18">
    <path d="M 366.915089 121.226437 
L 366.915089 19.866437 
" clip-path="url(#p4c1c1fcbdb)" style="fill: none; stroke: #000000; stroke-width: 1.5; stroke-linecap: square"/>
   </g>
   <g id="line2d_19">
    <path d="M 161.128436 121.226437 
L 161.128436 19.866437 
" clip-path="url(#p4c1c1fcbdb)" style="fill: none; stroke: #ff0000; stroke-width: 1.5; stroke-linecap: square"/>
   </g>
   <g id="line2d_20">
    <path d="M 384.752699 121.226437 
L 384.752699 19.866437 
" clip-path="url(#p4c1c1fcbdb)" style="fill: none; stroke: #ff0000; stroke-width: 1.5; stroke-linecap: square"/>
   </g>
   <g id="patch_3">
    <path d="M 12.688973 121.226437 
L 12.688973 19.866437 
" style="fill: none; stroke: #000000; stroke-width: 0.8; stroke-linejoin: miter; stroke-linecap: square"/>
   </g>
   <g id="patch_4">
    <path d="M 392.193973 121.226437 
L 392.193973 19.866437 
" style="fill: none; stroke: #000000; stroke-width: 0.8; stroke-linejoin: miter; stroke-linecap: square"/>
   </g>
   <g id="patch_5">
    <path d="M 12.688973 121.226437 
L 392.193973 121.226437 
" style="fill: none; stroke: #000000; stroke-width: 0.8; stroke-linejoin: miter; stroke-linecap: square"/>
   </g>
   <g id="patch_6">
    <path d="M 12.688973 19.866437 
L 392.193973 19.866437 
" style="fill: none; stroke: #000000; stroke-width: 0.8; stroke-linejoin: miter; stroke-linecap: square"/>
   </g>
   <g id="text_10">
    <g id="patch_7">
     <path d="M 160.128436 100.282375 
L 160.128436 40.8105 
Q 160.128436 40.8105 160.128436 40.8105 
L 150.450311 40.8105 
Q 150.450311 40.8105 150.450311 40.8105 
L 150.450311 100.282375 
Q 150.450311 100.282375 150.450311 100.282375 
L 160.128436 100.282375 
Q 160.128436 100.282375 160.128436 100.282375 
z
" style="fill: #ffffff"/>
    </g>
    <!-- min=-1.757 -->
    <g transform="translate(158.048748 100.282375) rotate(-90) scale(0.1 -0.1)">
     <defs>
      <path id="DejaVuSans-6d" d="M 3328 2828 
Q 3544 3216 3844 3400 
Q 4144 3584 4550 3584 
Q 5097 3584 5394 3201 
Q 5691 2819 5691 2113 
L 5691 0 
L 5113 0 
L 5113 2094 
Q 5113 2597 4934 2840 
Q 4756 3084 4391 3084 
Q 3944 3084 3684 2787 
Q 3425 2491 3425 1978 
L 3425 0 
L 2847 0 
L 2847 2094 
Q 2847 2600 2669 2842 
Q 2491 3084 2119 3084 
Q 1678 3084 1418 2786 
Q 1159 2488 1159 1978 
L 1159 0 
L 581 0 
L 581 3500 
L 1159 3500 
L 1159 2956 
Q 1356 3278 1631 3431 
Q 1906 3584 2284 3584 
Q 2666 3584 2933 3390 
Q 3200 3197 3328 2828 
z
" transform="scale(0.015625)"/>
      <path id="DejaVuSans-69" d="M 603 3500 
L 1178 3500 
L 1178 0 
L 603 0 
L 603 3500 
z
M 603 4863 
L 1178 4863 
L 1178 4134 
L 603 4134 
L 603 4863 
z
" transform="scale(0.015625)"/>
      <path id="DejaVuSans-6e" d="M 3513 2113 
L 3513 0 
L 2938 0 
L 2938 2094 
Q 2938 2591 2744 2837 
Q 2550 3084 2163 3084 
Q 1697 3084 1428 2787 
Q 1159 2491 1159 1978 
L 1159 0 
L 581 0 
L 581 3500 
L 1159 3500 
L 1159 2956 
Q 1366 3272 1645 3428 
Q 1925 3584 2291 3584 
Q 2894 3584 3203 3211 
Q 3513 2838 3513 2113 
z
" transform="scale(0.015625)"/>
      <path id="DejaVuSans-3d" d="M 678 2906 
L 4684 2906 
L 4684 2381 
L 678 2381 
L 678 2906 
z
M 678 1631 
L 4684 1631 
L 4684 1100 
L 678 1100 
L 678 1631 
z
" transform="scale(0.015625)"/>
      <path id="DejaVuSans-2d" d="M 313 2009 
L 1997 2009 
L 1997 1497 
L 313 1497 
L 313 2009 
z
" transform="scale(0.015625)"/>
      <path id="DejaVuSans-31" d="M 794 531 
L 1825 531 
L 1825 4091 
L 703 3866 
L 703 4441 
L 1819 4666 
L 2450 4666 
L 2450 531 
L 3481 531 
L 3481 0 
L 794 0 
L 794 531 
z
" transform="scale(0.015625)"/>
      <path id="DejaVuSans-2e" d="M 684 794 
L 1344 794 
L 1344 0 
L 684 0 
L 684 794 
z
" transform="scale(0.015625)"/>
      <path id="DejaVuSans-37" d="M 525 4666 
L 3525 4666 
L 3525 4397 
L 1831 0 
L 1172 0 
L 2766 4134 
L 525 4134 
L 525 4666 
z
" transform="scale(0.015625)"/>
      <path id="DejaVuSans-35" d="M 691 4666 
L 3169 4666 
L 3169 4134 
L 1269 4134 
L 1269 2991 
Q 1406 3038 1543 3061 
Q 1681 3084 1819 3084 
Q 2600 3084 3056 2656 
Q 3513 2228 3513 1497 
Q 3513 744 3044 326 
Q 2575 -91 1722 -91 
Q 1428 -91 1123 -41 
Q 819 9 494 109 
L 494 744 
Q 775 591 1075 516 
Q 1375 441 1709 441 
Q 2250 441 2565 725 
Q 2881 1009 2881 1497 
Q 2881 1984 2565 2268 
Q 2250 2553 1709 2553 
Q 1456 2553 1204 2497 
Q 953 2441 691 2322 
L 691 4666 
z
" transform="scale(0.015625)"/>
     </defs>
     <use xlink:href="#DejaVuSans-6d"/>
     <use xlink:href="#DejaVuSans-69" x="97.412109"/>
     <use xlink:href="#DejaVuSans-6e" x="125.195312"/>
     <use xlink:href="#DejaVuSans-3d" x="188.574219"/>
     <use xlink:href="#DejaVuSans-2d" x="272.363281"/>
     <use xlink:href="#DejaVuSans-31" x="308.447266"/>
     <use xlink:href="#DejaVuSans-2e" x="372.070312"/>
     <use xlink:href="#DejaVuSans-37" x="403.857422"/>
     <use xlink:href="#DejaVuSans-35" x="467.480469"/>
     <use xlink:href="#DejaVuSans-37" x="531.103516"/>
    </g>
   </g>
   <g id="text_11">
    <g id="patch_8">
     <path d="M 396.430824 99.944094 
L 396.430824 41.148781 
Q 396.430824 41.148781 396.430824 41.148781 
L 386.752699 41.148781 
Q 386.752699 41.148781 386.752699 41.148781 
L 386.752699 99.944094 
Q 386.752699 99.944094 386.752699 99.944094 
L 396.430824 99.944094 
Q 396.430824 99.944094 396.430824 99.944094 
z
" style="fill: #ffffff"/>
    </g>
    <!-- max=7.769 -->
    <g transform="translate(394.351136 99.944094) rotate(-90) scale(0.1 -0.1)">
     <defs>
      <path id="DejaVuSans-61" d="M 2194 1759 
Q 1497 1759 1228 1600 
Q 959 1441 959 1056 
Q 959 750 1161 570 
Q 1363 391 1709 391 
Q 2188 391 2477 730 
Q 2766 1069 2766 1631 
L 2766 1759 
L 2194 1759 
z
M 3341 1997 
L 3341 0 
L 2766 0 
L 2766 531 
Q 2569 213 2275 61 
Q 1981 -91 1556 -91 
Q 1019 -91 701 211 
Q 384 513 384 1019 
Q 384 1609 779 1909 
Q 1175 2209 1959 2209 
L 2766 2209 
L 2766 2266 
Q 2766 2663 2505 2880 
Q 2244 3097 1772 3097 
Q 1472 3097 1187 3025 
Q 903 2953 641 2809 
L 641 3341 
Q 956 3463 1253 3523 
Q 1550 3584 1831 3584 
Q 2591 3584 2966 3190 
Q 3341 2797 3341 1997 
z
" transform="scale(0.015625)"/>
      <path id="DejaVuSans-78" d="M 3513 3500 
L 2247 1797 
L 3578 0 
L 2900 0 
L 1881 1375 
L 863 0 
L 184 0 
L 1544 1831 
L 300 3500 
L 978 3500 
L 1906 2253 
L 2834 3500 
L 3513 3500 
z
" transform="scale(0.015625)"/>
      <path id="DejaVuSans-39" d="M 703 97 
L 703 672 
Q 941 559 1184 500 
Q 1428 441 1663 441 
Q 2288 441 2617 861 
Q 2947 1281 2994 2138 
Q 2813 1869 2534 1725 
Q 2256 1581 1919 1581 
Q 1219 1581 811 2004 
Q 403 2428 403 3163 
Q 403 3881 828 4315 
Q 1253 4750 1959 4750 
Q 2769 4750 3195 4129 
Q 3622 3509 3622 2328 
Q 3622 1225 3098 567 
Q 2575 -91 1691 -91 
Q 1453 -91 1209 -44 
Q 966 3 703 97 
z
M 1959 2075 
Q 2384 2075 2632 2365 
Q 2881 2656 2881 3163 
Q 2881 3666 2632 3958 
Q 2384 4250 1959 4250 
Q 1534 4250 1286 3958 
Q 1038 3666 1038 3163 
Q 1038 2656 1286 2365 
Q 1534 2075 1959 2075 
z
" transform="scale(0.015625)"/>
     </defs>
     <use xlink:href="#DejaVuSans-6d"/>
     <use xlink:href="#DejaVuSans-61" x="97.412109"/>
     <use xlink:href="#DejaVuSans-78" x="158.691406"/>
     <use xlink:href="#DejaVuSans-3d" x="217.871094"/>
     <use xlink:href="#DejaVuSans-37" x="301.660156"/>
     <use xlink:href="#DejaVuSans-2e" x="365.283203"/>
     <use xlink:href="#DejaVuSans-37" x="397.070312"/>
     <use xlink:href="#DejaVuSans-36" x="460.693359"/>
     <use xlink:href="#DejaVuSans-39" x="524.316406"/>
    </g>
   </g>
   <g id="text_12">
    <!-- 10000 samples (μ=3.013, σ=0.999) of Array[1000000] x∈[-1.757, 7.769] μ=3.000 σ=1.001 gpu:0 -->
    <g transform="translate(12.688973 14.798437) scale(0.1 -0.1)">
     <defs>
      <path id="DejaVuSans-20" transform="scale(0.015625)"/>
      <path id="DejaVuSans-73" d="M 2834 3397 
L 2834 2853 
Q 2591 2978 2328 3040 
Q 2066 3103 1784 3103 
Q 1356 3103 1142 2972 
Q 928 2841 928 2578 
Q 928 2378 1081 2264 
Q 1234 2150 1697 2047 
L 1894 2003 
Q 2506 1872 2764 1633 
Q 3022 1394 3022 966 
Q 3022 478 2636 193 
Q 2250 -91 1575 -91 
Q 1294 -91 989 -36 
Q 684 19 347 128 
L 347 722 
Q 666 556 975 473 
Q 1284 391 1588 391 
Q 1994 391 2212 530 
Q 2431 669 2431 922 
Q 2431 1156 2273 1281 
Q 2116 1406 1581 1522 
L 1381 1569 
Q 847 1681 609 1914 
Q 372 2147 372 2553 
Q 372 3047 722 3315 
Q 1072 3584 1716 3584 
Q 2034 3584 2315 3537 
Q 2597 3491 2834 3397 
z
" transform="scale(0.015625)"/>
      <path id="DejaVuSans-70" d="M 1159 525 
L 1159 -1331 
L 581 -1331 
L 581 3500 
L 1159 3500 
L 1159 2969 
Q 1341 3281 1617 3432 
Q 1894 3584 2278 3584 
Q 2916 3584 3314 3078 
Q 3713 2572 3713 1747 
Q 3713 922 3314 415 
Q 2916 -91 2278 -91 
Q 1894 -91 1617 61 
Q 1341 213 1159 525 
z
M 3116 1747 
Q 3116 2381 2855 2742 
Q 2594 3103 2138 3103 
Q 1681 3103 1420 2742 
Q 1159 2381 1159 1747 
Q 1159 1113 1420 752 
Q 1681 391 2138 391 
Q 2594 391 2855 752 
Q 3116 1113 3116 1747 
z
" transform="scale(0.015625)"/>
      <path id="DejaVuSans-6c" d="M 603 4863 
L 1178 4863 
L 1178 0 
L 603 0 
L 603 4863 
z
" transform="scale(0.015625)"/>
      <path id="DejaVuSans-65" d="M 3597 1894 
L 3597 1613 
L 953 1613 
Q 991 1019 1311 708 
Q 1631 397 2203 397 
Q 2534 397 2845 478 
Q 3156 559 3463 722 
L 3463 178 
Q 3153 47 2828 -22 
Q 2503 -91 2169 -91 
Q 1331 -91 842 396 
Q 353 884 353 1716 
Q 353 2575 817 3079 
Q 1281 3584 2069 3584 
Q 2775 3584 3186 3129 
Q 3597 2675 3597 1894 
z
M 3022 2063 
Q 3016 2534 2758 2815 
Q 2500 3097 2075 3097 
Q 1594 3097 1305 2825 
Q 1016 2553 972 2059 
L 3022 2063 
z
" transform="scale(0.015625)"/>
      <path id="DejaVuSans-28" d="M 1984 4856 
Q 1566 4138 1362 3434 
Q 1159 2731 1159 2009 
Q 1159 1288 1364 580 
Q 1569 -128 1984 -844 
L 1484 -844 
Q 1016 -109 783 600 
Q 550 1309 550 2009 
Q 550 2706 781 3412 
Q 1013 4119 1484 4856 
L 1984 4856 
z
" transform="scale(0.015625)"/>
      <path id="DejaVuSans-3bc" d="M 544 -1331 
L 544 3500 
L 1119 3500 
L 1119 1325 
Q 1119 872 1334 640 
Q 1550 409 1972 409 
Q 2434 409 2667 671 
Q 2900 934 2900 1459 
L 2900 3500 
L 3475 3500 
L 3475 806 
Q 3475 619 3529 530 
Q 3584 441 3700 441 
Q 3728 441 3778 458 
Q 3828 475 3916 513 
L 3916 50 
Q 3788 -22 3673 -56 
Q 3559 -91 3450 -91 
Q 3234 -91 3106 31 
Q 2978 153 2931 403 
Q 2775 156 2548 32 
Q 2322 -91 2016 -91 
Q 1697 -91 1473 31 
Q 1250 153 1119 397 
L 1119 -1331 
L 544 -1331 
z
" transform="scale(0.015625)"/>
      <path id="DejaVuSans-33" d="M 2597 2516 
Q 3050 2419 3304 2112 
Q 3559 1806 3559 1356 
Q 3559 666 3084 287 
Q 2609 -91 1734 -91 
Q 1441 -91 1130 -33 
Q 819 25 488 141 
L 488 750 
Q 750 597 1062 519 
Q 1375 441 1716 441 
Q 2309 441 2620 675 
Q 2931 909 2931 1356 
Q 2931 1769 2642 2001 
Q 2353 2234 1838 2234 
L 1294 2234 
L 1294 2753 
L 1863 2753 
Q 2328 2753 2575 2939 
Q 2822 3125 2822 3475 
Q 2822 3834 2567 4026 
Q 2313 4219 1838 4219 
Q 1578 4219 1281 4162 
Q 984 4106 628 3988 
L 628 4550 
Q 988 4650 1302 4700 
Q 1616 4750 1894 4750 
Q 2613 4750 3031 4423 
Q 3450 4097 3450 3541 
Q 3450 3153 3228 2886 
Q 3006 2619 2597 2516 
z
" transform="scale(0.015625)"/>
      <path id="DejaVuSans-2c" d="M 750 794 
L 1409 794 
L 1409 256 
L 897 -744 
L 494 -744 
L 750 256 
L 750 794 
z
" transform="scale(0.015625)"/>
      <path id="DejaVuSans-3c3" d="M 1959 3044 
Q 1484 3044 1228 2700 
Q 959 2341 959 1747 
Q 959 1119 1226 758 
Q 1494 397 1959 397 
Q 2419 397 2687 759 
Q 2956 1122 2956 1747 
Q 2956 2319 2688 2700 
Q 2441 3044 1959 3044 
z
M 1959 3500 
L 3869 3500 
L 3869 2925 
L 3225 2925 
Q 3566 2438 3566 1747 
Q 3566 888 3138 400 
Q 2709 -91 1959 -91 
Q 1206 -91 781 400 
Q 353 888 353 1747 
Q 353 2613 781 3097 
Q 1134 3500 1959 3500 
z
" transform="scale(0.015625)"/>
      <path id="DejaVuSans-29" d="M 513 4856 
L 1013 4856 
Q 1481 4119 1714 3412 
Q 1947 2706 1947 2009 
Q 1947 1309 1714 600 
Q 1481 -109 1013 -844 
L 513 -844 
Q 928 -128 1133 580 
Q 1338 1288 1338 2009 
Q 1338 2731 1133 3434 
Q 928 4138 513 4856 
z
" transform="scale(0.015625)"/>
      <path id="DejaVuSans-6f" d="M 1959 3097 
Q 1497 3097 1228 2736 
Q 959 2375 959 1747 
Q 959 1119 1226 758 
Q 1494 397 1959 397 
Q 2419 397 2687 759 
Q 2956 1122 2956 1747 
Q 2956 2369 2687 2733 
Q 2419 3097 1959 3097 
z
M 1959 3584 
Q 2709 3584 3137 3096 
Q 3566 2609 3566 1747 
Q 3566 888 3137 398 
Q 2709 -91 1959 -91 
Q 1206 -91 779 398 
Q 353 888 353 1747 
Q 353 2609 779 3096 
Q 1206 3584 1959 3584 
z
" transform="scale(0.015625)"/>
      <path id="DejaVuSans-66" d="M 2375 4863 
L 2375 4384 
L 1825 4384 
Q 1516 4384 1395 4259 
Q 1275 4134 1275 3809 
L 1275 3500 
L 2222 3500 
L 2222 3053 
L 1275 3053 
L 1275 0 
L 697 0 
L 697 3053 
L 147 3053 
L 147 3500 
L 697 3500 
L 697 3744 
Q 697 4328 969 4595 
Q 1241 4863 1831 4863 
L 2375 4863 
z
" transform="scale(0.015625)"/>
      <path id="DejaVuSans-41" d="M 2188 4044 
L 1331 1722 
L 3047 1722 
L 2188 4044 
z
M 1831 4666 
L 2547 4666 
L 4325 0 
L 3669 0 
L 3244 1197 
L 1141 1197 
L 716 0 
L 50 0 
L 1831 4666 
z
" transform="scale(0.015625)"/>
      <path id="DejaVuSans-72" d="M 2631 2963 
Q 2534 3019 2420 3045 
Q 2306 3072 2169 3072 
Q 1681 3072 1420 2755 
Q 1159 2438 1159 1844 
L 1159 0 
L 581 0 
L 581 3500 
L 1159 3500 
L 1159 2956 
Q 1341 3275 1631 3429 
Q 1922 3584 2338 3584 
Q 2397 3584 2469 3576 
Q 2541 3569 2628 3553 
L 2631 2963 
z
" transform="scale(0.015625)"/>
      <path id="DejaVuSans-79" d="M 2059 -325 
Q 1816 -950 1584 -1140 
Q 1353 -1331 966 -1331 
L 506 -1331 
L 506 -850 
L 844 -850 
Q 1081 -850 1212 -737 
Q 1344 -625 1503 -206 
L 1606 56 
L 191 3500 
L 800 3500 
L 1894 763 
L 2988 3500 
L 3597 3500 
L 2059 -325 
z
" transform="scale(0.015625)"/>
      <path id="DejaVuSans-5b" d="M 550 4863 
L 1875 4863 
L 1875 4416 
L 1125 4416 
L 1125 -397 
L 1875 -397 
L 1875 -844 
L 550 -844 
L 550 4863 
z
" transform="scale(0.015625)"/>
      <path id="DejaVuSans-5d" d="M 1947 4863 
L 1947 -844 
L 622 -844 
L 622 -397 
L 1369 -397 
L 1369 4416 
L 622 4416 
L 622 4863 
L 1947 4863 
z
" transform="scale(0.015625)"/>
      <path id="DejaVuSans-2208" d="M 1072 1959 
Q 1094 1728 1291 1353 
Q 1522 919 1959 675 
Q 2388 438 2850 434 
L 5028 434 
L 5028 -63 
L 2850 -63 
Q 2250 -63 1695 246 
Q 1141 556 844 1106 
Q 547 1656 547 2241 
Q 547 2819 844 3369 
Q 1141 3919 1695 4231 
Q 2250 4544 2850 4544 
L 5028 4544 
L 5028 4047 
L 2850 4047 
Q 2388 4044 1959 3803 
Q 1525 3556 1291 3125 
Q 1091 2750 1063 2459 
L 5028 2459 
L 5028 1959 
L 1072 1959 
z
" transform="scale(0.015625)"/>
      <path id="DejaVuSans-67" d="M 2906 1791 
Q 2906 2416 2648 2759 
Q 2391 3103 1925 3103 
Q 1463 3103 1205 2759 
Q 947 2416 947 1791 
Q 947 1169 1205 825 
Q 1463 481 1925 481 
Q 2391 481 2648 825 
Q 2906 1169 2906 1791 
z
M 3481 434 
Q 3481 -459 3084 -895 
Q 2688 -1331 1869 -1331 
Q 1566 -1331 1297 -1286 
Q 1028 -1241 775 -1147 
L 775 -588 
Q 1028 -725 1275 -790 
Q 1522 -856 1778 -856 
Q 2344 -856 2625 -561 
Q 2906 -266 2906 331 
L 2906 616 
Q 2728 306 2450 153 
Q 2172 0 1784 0 
Q 1141 0 747 490 
Q 353 981 353 1791 
Q 353 2603 747 3093 
Q 1141 3584 1784 3584 
Q 2172 3584 2450 3431 
Q 2728 3278 2906 2969 
L 2906 3500 
L 3481 3500 
L 3481 434 
z
" transform="scale(0.015625)"/>
      <path id="DejaVuSans-75" d="M 544 1381 
L 544 3500 
L 1119 3500 
L 1119 1403 
Q 1119 906 1312 657 
Q 1506 409 1894 409 
Q 2359 409 2629 706 
Q 2900 1003 2900 1516 
L 2900 3500 
L 3475 3500 
L 3475 0 
L 2900 0 
L 2900 538 
Q 2691 219 2414 64 
Q 2138 -91 1772 -91 
Q 1169 -91 856 284 
Q 544 659 544 1381 
z
M 1991 3584 
L 1991 3584 
z
" transform="scale(0.015625)"/>
      <path id="DejaVuSans-3a" d="M 750 794 
L 1409 794 
L 1409 0 
L 750 0 
L 750 794 
z
M 750 3309 
L 1409 3309 
L 1409 2516 
L 750 2516 
L 750 3309 
z
" transform="scale(0.015625)"/>
     </defs>
     <use xlink:href="#DejaVuSans-31"/>
     <use xlink:href="#DejaVuSans-30" x="63.623047"/>
     <use xlink:href="#DejaVuSans-30" x="127.246094"/>
     <use xlink:href="#DejaVuSans-30" x="190.869141"/>
     <use xlink:href="#DejaVuSans-30" x="254.492188"/>
     <use xlink:href="#DejaVuSans-20" x="318.115234"/>
     <use xlink:href="#DejaVuSans-73" x="349.902344"/>
     <use xlink:href="#DejaVuSans-61" x="402.001953"/>
     <use xlink:href="#DejaVuSans-6d" x="463.28125"/>
     <use xlink:href="#DejaVuSans-70" x="560.693359"/>
     <use xlink:href="#DejaVuSans-6c" x="624.169922"/>
     <use xlink:href="#DejaVuSans-65" x="651.953125"/>
     <use xlink:href="#DejaVuSans-73" x="713.476562"/>
     <use xlink:href="#DejaVuSans-20" x="765.576172"/>
     <use xlink:href="#DejaVuSans-28" x="797.363281"/>
     <use xlink:href="#DejaVuSans-3bc" x="836.376953"/>
     <use xlink:href="#DejaVuSans-3d" x="900"/>
     <use xlink:href="#DejaVuSans-33" x="983.789062"/>
     <use xlink:href="#DejaVuSans-2e" x="1047.412109"/>
     <use xlink:href="#DejaVuSans-30" x="1079.199219"/>
     <use xlink:href="#DejaVuSans-31" x="1142.822266"/>
     <use xlink:href="#DejaVuSans-33" x="1206.445312"/>
     <use xlink:href="#DejaVuSans-2c" x="1270.068359"/>
     <use xlink:href="#DejaVuSans-20" x="1301.855469"/>
     <use xlink:href="#DejaVuSans-3c3" x="1333.642578"/>
     <use xlink:href="#DejaVuSans-3d" x="1397.021484"/>
     <use xlink:href="#DejaVuSans-30" x="1480.810547"/>
     <use xlink:href="#DejaVuSans-2e" x="1544.433594"/>
     <use xlink:href="#DejaVuSans-39" x="1576.220703"/>
     <use xlink:href="#DejaVuSans-39" x="1639.84375"/>
     <use xlink:href="#DejaVuSans-39" x="1703.466797"/>
     <use xlink:href="#DejaVuSans-29" x="1767.089844"/>
     <use xlink:href="#DejaVuSans-20" x="1806.103516"/>
     <use xlink:href="#DejaVuSans-6f" x="1837.890625"/>
     <use xlink:href="#DejaVuSans-66" x="1899.072266"/>
     <use xlink:href="#DejaVuSans-20" x="1934.277344"/>
     <use xlink:href="#DejaVuSans-41" x="1966.064453"/>
     <use xlink:href="#DejaVuSans-72" x="2034.472656"/>
     <use xlink:href="#DejaVuSans-72" x="2073.835938"/>
     <use xlink:href="#DejaVuSans-61" x="2114.949219"/>
     <use xlink:href="#DejaVuSans-79" x="2176.228516"/>
     <use xlink:href="#DejaVuSans-5b" x="2235.408203"/>
     <use xlink:href="#DejaVuSans-31" x="2274.421875"/>
     <use xlink:href="#DejaVuSans-30" x="2338.044922"/>
     <use xlink:href="#DejaVuSans-30" x="2401.667969"/>
     <use xlink:href="#DejaVuSans-30" x="2465.291016"/>
     <use xlink:href="#DejaVuSans-30" x="2528.914062"/>
     <use xlink:href="#DejaVuSans-30" x="2592.537109"/>
     <use xlink:href="#DejaVuSans-30" x="2656.160156"/>
     <use xlink:href="#DejaVuSans-5d" x="2719.783203"/>
     <use xlink:href="#DejaVuSans-20" x="2758.796875"/>
     <use xlink:href="#DejaVuSans-78" x="2790.583984"/>
     <use xlink:href="#DejaVuSans-2208" x="2849.763672"/>
     <use xlink:href="#DejaVuSans-5b" x="2936.873047"/>
     <use xlink:href="#DejaVuSans-2d" x="2975.886719"/>
     <use xlink:href="#DejaVuSans-31" x="3011.970703"/>
     <use xlink:href="#DejaVuSans-2e" x="3075.59375"/>
     <use xlink:href="#DejaVuSans-37" x="3107.380859"/>
     <use xlink:href="#DejaVuSans-35" x="3171.003906"/>
     <use xlink:href="#DejaVuSans-37" x="3234.626953"/>
     <use xlink:href="#DejaVuSans-2c" x="3298.25"/>
     <use xlink:href="#DejaVuSans-20" x="3330.037109"/>
     <use xlink:href="#DejaVuSans-37" x="3361.824219"/>
     <use xlink:href="#DejaVuSans-2e" x="3425.447266"/>
     <use xlink:href="#DejaVuSans-37" x="3457.234375"/>
     <use xlink:href="#DejaVuSans-36" x="3520.857422"/>
     <use xlink:href="#DejaVuSans-39" x="3584.480469"/>
     <use xlink:href="#DejaVuSans-5d" x="3648.103516"/>
     <use xlink:href="#DejaVuSans-20" x="3687.117188"/>
     <use xlink:href="#DejaVuSans-3bc" x="3718.904297"/>
     <use xlink:href="#DejaVuSans-3d" x="3782.527344"/>
     <use xlink:href="#DejaVuSans-33" x="3866.316406"/>
     <use xlink:href="#DejaVuSans-2e" x="3929.939453"/>
     <use xlink:href="#DejaVuSans-30" x="3961.726562"/>
     <use xlink:href="#DejaVuSans-30" x="4025.349609"/>
     <use xlink:href="#DejaVuSans-30" x="4088.972656"/>
     <use xlink:href="#DejaVuSans-20" x="4152.595703"/>
     <use xlink:href="#DejaVuSans-3c3" x="4184.382812"/>
     <use xlink:href="#DejaVuSans-3d" x="4247.761719"/>
     <use xlink:href="#DejaVuSans-31" x="4331.550781"/>
     <use xlink:href="#DejaVuSans-2e" x="4395.173828"/>
     <use xlink:href="#DejaVuSans-30" x="4426.960938"/>
     <use xlink:href="#DejaVuSans-30" x="4490.583984"/>
     <use xlink:href="#DejaVuSans-31" x="4554.207031"/>
     <use xlink:href="#DejaVuSans-20" x="4617.830078"/>
     <use xlink:href="#DejaVuSans-67" x="4649.617188"/>
     <use xlink:href="#DejaVuSans-70" x="4713.09375"/>
     <use xlink:href="#DejaVuSans-75" x="4776.570312"/>
     <use xlink:href="#DejaVuSans-3a" x="4839.949219"/>
     <use xlink:href="#DejaVuSans-30" x="4873.640625"/>
    </g>
   </g>
   <g id="patch_9">
    <path d="M 178.562198 121.226437 
L 182.330332 121.226437 
L 182.330332 121.111133 
L 178.562198 121.111133 
z
" clip-path="url(#p4c1c1fcbdb)" style="fill: #00bfff"/>
   </g>
   <g id="patch_10">
    <path d="M 182.330332 121.226437 
L 186.098468 121.226437 
L 186.098468 121.111133 
L 182.330332 121.111133 
z
" clip-path="url(#p4c1c1fcbdb)" style="fill: #00bfff"/>
   </g>
   <g id="patch_11">
    <path d="M 186.098468 121.226437 
L 189.866603 121.226437 
L 189.866603 121.226437 
L 186.098468 121.226437 
z
" clip-path="url(#p4c1c1fcbdb)" style="fill: #00bfff"/>
   </g>
   <g id="patch_12">
    <path d="M 189.866603 121.226437 
L 193.634739 121.226437 
L 193.634739 121.111133 
L 189.866603 121.111133 
z
" clip-path="url(#p4c1c1fcbdb)" style="fill: #00bfff"/>
   </g>
   <g id="patch_13">
    <path d="M 193.634739 121.226437 
L 197.402874 121.226437 
L 197.402874 120.995828 
L 193.634739 120.995828 
z
" clip-path="url(#p4c1c1fcbdb)" style="fill: #00bfff"/>
   </g>
   <g id="patch_14">
    <path d="M 197.402874 121.226437 
L 201.171009 121.226437 
L 201.171009 121.111133 
L 197.402874 121.111133 
z
" clip-path="url(#p4c1c1fcbdb)" style="fill: #00bfff"/>
   </g>
   <g id="patch_15">
    <path d="M 201.171009 121.226437 
L 204.939144 121.226437 
L 204.939144 120.188693 
L 201.171009 120.188693 
z
" clip-path="url(#p4c1c1fcbdb)" style="fill: #00bfff"/>
   </g>
   <g id="patch_16">
    <path d="M 204.939144 121.226437 
L 208.707279 121.226437 
L 208.707279 119.727473 
L 204.939144 119.727473 
z
" clip-path="url(#p4c1c1fcbdb)" style="fill: #00bfff"/>
   </g>
   <g id="patch_17">
    <path d="M 208.707279 121.226437 
L 212.475415 121.226437 
L 212.475415 119.266253 
L 208.707279 119.266253 
z
" clip-path="url(#p4c1c1fcbdb)" style="fill: #00bfff"/>
   </g>
   <g id="patch_18">
    <path d="M 212.475415 121.226437 
L 216.243549 121.226437 
L 216.243549 117.421373 
L 212.475415 117.421373 
z
" clip-path="url(#p4c1c1fcbdb)" style="fill: #00bfff"/>
   </g>
   <g id="patch_19">
    <path d="M 216.243549 121.226437 
L 220.011686 121.226437 
L 220.011686 116.15302 
L 216.243549 116.15302 
z
" clip-path="url(#p4c1c1fcbdb)" style="fill: #00bfff"/>
   </g>
   <g id="patch_20">
    <path d="M 220.011686 121.226437 
L 223.77982 121.226437 
L 223.77982 114.077528 
L 220.011686 114.077528 
z
" clip-path="url(#p4c1c1fcbdb)" style="fill: #00bfff"/>
   </g>
   <g id="patch_21">
    <path d="M 223.77982 121.226437 
L 227.547955 121.226437 
L 227.547955 111.079599 
L 223.77982 111.079599 
z
" clip-path="url(#p4c1c1fcbdb)" style="fill: #00bfff"/>
   </g>
   <g id="patch_22">
    <path d="M 227.547955 121.226437 
L 231.31609 121.226437 
L 231.31609 108.312279 
L 227.547955 108.312279 
z
" clip-path="url(#p4c1c1fcbdb)" style="fill: #00bfff"/>
   </g>
   <g id="patch_23">
    <path d="M 231.31609 121.226437 
L 235.084225 121.226437 
L 235.084225 104.507215 
L 231.31609 104.507215 
z
" clip-path="url(#p4c1c1fcbdb)" style="fill: #00bfff"/>
   </g>
   <g id="patch_24">
    <path d="M 235.084225 121.226437 
L 238.852362 121.226437 
L 238.852362 100.356251 
L 235.084225 100.356251 
z
" clip-path="url(#p4c1c1fcbdb)" style="fill: #00bfff"/>
   </g>
   <g id="patch_25">
    <path d="M 238.852362 121.226437 
L 242.620497 121.226437 
L 242.620497 91.247141 
L 238.852362 91.247141 
z
" clip-path="url(#p4c1c1fcbdb)" style="fill: #00bfff"/>
   </g>
   <g id="patch_26">
    <path d="M 242.620497 121.226437 
L 246.388632 121.226437 
L 246.388632 84.790062 
L 242.620497 84.790062 
z
" clip-path="url(#p4c1c1fcbdb)" style="fill: #00bfff"/>
   </g>
   <g id="patch_27">
    <path d="M 246.388632 121.226437 
L 250.156769 121.226437 
L 250.156769 80.639113 
L 246.388632 80.639113 
z
" clip-path="url(#p4c1c1fcbdb)" style="fill: #00bfff"/>
   </g>
   <g id="patch_28">
    <path d="M 250.156769 121.226437 
L 253.924904 121.226437 
L 253.924904 70.376939 
L 250.156769 70.376939 
z
" clip-path="url(#p4c1c1fcbdb)" style="fill: #00bfff"/>
   </g>
   <g id="patch_29">
    <path d="M 253.924904 121.226437 
L 257.693039 121.226437 
L 257.693039 66.110655 
L 253.924904 66.110655 
z
" clip-path="url(#p4c1c1fcbdb)" style="fill: #00bfff"/>
   </g>
   <g id="patch_30">
    <path d="M 257.693039 121.226437 
L 261.461174 121.226437 
L 261.461174 59.077051 
L 257.693039 59.077051 
z
" clip-path="url(#p4c1c1fcbdb)" style="fill: #00bfff"/>
   </g>
   <g id="patch_31">
    <path d="M 261.461174 121.226437 
L 265.229308 121.226437 
L 265.229308 51.121007 
L 261.461174 51.121007 
z
" clip-path="url(#p4c1c1fcbdb)" style="fill: #00bfff"/>
   </g>
   <g id="patch_32">
    <path d="M 265.229308 121.226437 
L 268.997443 121.226437 
L 268.997443 51.928142 
L 265.229308 51.928142 
z
" clip-path="url(#p4c1c1fcbdb)" style="fill: #00bfff"/>
   </g>
   <g id="patch_33">
    <path d="M 268.997443 121.226437 
L 272.765578 121.226437 
L 272.765578 52.619972 
L 268.997443 52.619972 
z
" clip-path="url(#p4c1c1fcbdb)" style="fill: #00bfff"/>
   </g>
   <g id="patch_34">
    <path d="M 272.765578 121.226437 
L 276.533713 121.226437 
L 276.533713 46.970027 
L 272.765578 46.970027 
z
" clip-path="url(#p4c1c1fcbdb)" style="fill: #00bfff"/>
   </g>
   <g id="patch_35">
    <path d="M 276.533713 121.226437 
L 280.301847 121.226437 
L 280.301847 48.584297 
L 276.533713 48.584297 
z
" clip-path="url(#p4c1c1fcbdb)" style="fill: #00bfff"/>
   </g>
   <g id="patch_36">
    <path d="M 280.301847 121.226437 
L 284.069982 121.226437 
L 284.069982 49.045517 
L 280.301847 49.045517 
z
" clip-path="url(#p4c1c1fcbdb)" style="fill: #00bfff"/>
   </g>
   <g id="patch_37">
    <path d="M 284.069982 121.226437 
L 287.838117 121.226437 
L 287.838117 57.347476 
L 284.069982 57.347476 
z
" clip-path="url(#p4c1c1fcbdb)" style="fill: #00bfff"/>
   </g>
   <g id="patch_38">
    <path d="M 287.838117 121.226437 
L 291.606252 121.226437 
L 291.606252 67.1484 
L 287.838117 67.1484 
z
" clip-path="url(#p4c1c1fcbdb)" style="fill: #00bfff"/>
   </g>
   <g id="patch_39">
    <path d="M 291.606252 121.226437 
L 295.374392 121.226437 
L 295.374392 68.416833 
L 291.606252 68.416833 
z
" clip-path="url(#p4c1c1fcbdb)" style="fill: #00bfff"/>
   </g>
   <g id="patch_40">
    <path d="M 295.374392 121.226437 
L 299.142521 121.226437 
L 299.142521 74.181934 
L 295.374392 74.181934 
z
" clip-path="url(#p4c1c1fcbdb)" style="fill: #00bfff"/>
   </g>
   <g id="patch_41">
    <path d="M 299.142521 121.226437 
L 302.910656 121.226437 
L 302.910656 85.712502 
L 299.142521 85.712502 
z
" clip-path="url(#p4c1c1fcbdb)" style="fill: #00bfff"/>
   </g>
   <g id="patch_42">
    <path d="M 302.910656 121.226437 
L 306.678791 121.226437 
L 306.678791 92.284886 
L 302.910656 92.284886 
z
" clip-path="url(#p4c1c1fcbdb)" style="fill: #00bfff"/>
   </g>
   <g id="patch_43">
    <path d="M 306.678791 121.226437 
L 310.446926 121.226437 
L 310.446926 98.741965 
L 306.678791 98.741965 
z
" clip-path="url(#p4c1c1fcbdb)" style="fill: #00bfff"/>
   </g>
   <g id="patch_44">
    <path d="M 310.446926 121.226437 
L 314.21506 121.226437 
L 314.21506 101.8552 
L 310.446926 101.8552 
z
" clip-path="url(#p4c1c1fcbdb)" style="fill: #00bfff"/>
   </g>
   <g id="patch_45">
    <path d="M 314.21506 121.226437 
L 317.983206 121.226437 
L 317.983206 107.62049 
L 314.21506 107.62049 
z
" clip-path="url(#p4c1c1fcbdb)" style="fill: #00bfff"/>
   </g>
   <g id="patch_46">
    <path d="M 317.983206 121.226437 
L 321.751341 121.226437 
L 321.751341 111.886734 
L 317.983206 111.886734 
z
" clip-path="url(#p4c1c1fcbdb)" style="fill: #00bfff"/>
   </g>
   <g id="patch_47">
    <path d="M 321.751341 121.226437 
L 325.519476 121.226437 
L 325.519476 113.962223 
L 321.751341 113.962223 
z
" clip-path="url(#p4c1c1fcbdb)" style="fill: #00bfff"/>
   </g>
   <g id="patch_48">
    <path d="M 325.519476 121.226437 
L 329.287611 121.226437 
L 329.287611 117.190763 
L 325.519476 117.190763 
z
" clip-path="url(#p4c1c1fcbdb)" style="fill: #00bfff"/>
   </g>
   <g id="patch_49">
    <path d="M 329.287611 121.226437 
L 333.055745 121.226437 
L 333.055745 117.190763 
L 329.287611 117.190763 
z
" clip-path="url(#p4c1c1fcbdb)" style="fill: #00bfff"/>
   </g>
   <g id="patch_50">
    <path d="M 333.055745 121.226437 
L 336.82388 121.226437 
L 336.82388 118.574423 
L 333.055745 118.574423 
z
" clip-path="url(#p4c1c1fcbdb)" style="fill: #00bfff"/>
   </g>
   <g id="patch_51">
    <path d="M 336.82388 121.226437 
L 340.592015 121.226437 
L 340.592015 119.496863 
L 336.82388 119.496863 
z
" clip-path="url(#p4c1c1fcbdb)" style="fill: #00bfff"/>
   </g>
   <g id="patch_52">
    <path d="M 340.592015 121.226437 
L 344.36015 121.226437 
L 344.36015 120.649913 
L 340.592015 120.649913 
z
" clip-path="url(#p4c1c1fcbdb)" style="fill: #00bfff"/>
   </g>
   <g id="patch_53">
    <path d="M 344.36015 121.226437 
L 348.128284 121.226437 
L 348.128284 120.419303 
L 344.36015 120.419303 
z
" clip-path="url(#p4c1c1fcbdb)" style="fill: #00bfff"/>
   </g>
   <g id="patch_54">
    <path d="M 348.128284 121.226437 
L 351.896419 121.226437 
L 351.896419 120.995828 
L 348.128284 120.995828 
z
" clip-path="url(#p4c1c1fcbdb)" style="fill: #00bfff"/>
   </g>
   <g id="patch_55">
    <path d="M 351.896419 121.226437 
L 355.664554 121.226437 
L 355.664554 120.880523 
L 351.896419 120.880523 
z
" clip-path="url(#p4c1c1fcbdb)" style="fill: #00bfff"/>
   </g>
   <g id="patch_56">
    <path d="M 355.664554 121.226437 
L 359.432689 121.226437 
L 359.432689 121.111133 
L 355.664554 121.111133 
z
" clip-path="url(#p4c1c1fcbdb)" style="fill: #00bfff"/>
   </g>
   <g id="patch_57">
    <path d="M 359.432689 121.226437 
L 363.200823 121.226437 
L 363.200823 121.111133 
L 359.432689 121.111133 
z
" clip-path="url(#p4c1c1fcbdb)" style="fill: #00bfff"/>
   </g>
   <g id="line2d_21">
    <path d="M 12.688973 121.226437 
L 16.522357 121.226437 
L 20.355741 121.226437 
L 24.189125 121.226437 
L 28.022509 121.226437 
L 31.855893 121.226437 
L 35.689276 121.226437 
L 39.52266 121.226437 
L 43.356044 121.226437 
L 47.189428 121.226437 
L 51.022812 121.226437 
L 54.856196 121.226437 
L 58.689579 121.226437 
L 62.522963 121.226437 
L 66.356347 121.226437 
L 70.189731 121.226437 
L 74.023115 121.226437 
L 77.856499 121.226437 
L 81.689882 121.226437 
L 85.523266 121.226437 
L 89.35665 121.226437 
L 93.190034 121.226437 
L 97.023418 121.226437 
L 100.856802 121.226437 
L 104.690186 121.226437 
L 108.523569 121.226437 
L 112.356953 121.226437 
L 116.190337 121.226437 
L 120.023721 121.226437 
L 123.857105 121.226437 
L 127.690489 121.226437 
L 131.523872 121.226437 
L 135.357256 121.226435 
L 139.19064 121.226431 
L 143.024024 121.226422 
L 146.857408 121.2264 
L 150.690792 121.226347 
L 154.524175 121.226229 
L 158.357559 121.225967 
L 162.190943 121.225406 
L 166.024327 121.224233 
L 169.857711 121.22185 
L 173.691095 121.217143 
L 177.524478 121.208103 
L 181.357862 121.191225 
L 185.191246 121.160594 
L 189.02463 121.10656 
L 192.858014 121.013938 
L 196.691398 120.85968 
L 200.524781 120.610128 
L 204.358165 120.218071 
L 208.191549 119.6201 
L 212.024933 118.734975 
L 215.858317 117.463984 
L 219.691701 115.694374 
L 223.525084 113.306854 
L 227.358468 110.187768 
L 231.191852 106.2458 
L 235.025236 101.432004 
L 238.85862 95.76077 
L 242.692004 89.328232 
L 246.525388 82.324017 
L 250.358771 75.03237 
L 254.192155 67.819831 
L 258.025539 61.108655 
L 261.858923 55.337861 
L 265.692307 50.916535 
L 269.525691 48.176127 
L 273.359074 47.329434 
L 277.192458 48.443296 
L 281.025842 51.429887 
L 284.859226 56.058148 
L 288.69261 61.983323 
L 292.525994 68.789341 
L 296.359377 76.036827 
L 300.192761 83.309107 
L 304.026145 90.24967 
L 307.859529 96.586837 
L 311.692913 102.144151 
L 315.526297 106.837579 
L 319.35968 110.662605 
L 323.193064 113.67524 
L 327.026448 115.970994 
L 330.859832 117.66519 
L 334.693216 118.876837 
L 338.5266 119.717104 
L 342.359983 120.28243 
L 346.193367 120.651574 
L 350.026751 120.885595 
L 353.860135 121.029675 
L 357.693519 121.115844 
L 361.526903 121.165915 
L 365.360287 121.19419 
L 369.19367 121.209708 
L 373.027054 121.217987 
L 376.860438 121.222282 
L 380.693822 121.224448 
L 384.527206 121.22551 
L 388.36059 121.226016 
L 392.193973 121.226251 
" clip-path="url(#p4c1c1fcbdb)" style="fill: none; stroke: #1f77b4; stroke-width: 1.5; stroke-linecap: square"/>
   </g>
   <g id="text_13">
    <g id="patch_58">
     <path d="M 171.123333 37.612562 
L 187.431145 37.612562 
Q 190.431145 37.612562 190.431145 34.612562 
L 190.431145 24.934437 
Q 190.431145 21.934437 187.431145 21.934437 
L 171.123333 21.934437 
Q 168.123333 21.934437 168.123333 24.934437 
L 168.123333 34.612562 
Q 168.123333 37.612562 171.123333 37.612562 
z
" style="fill: #ffffff"/>
    </g>
    <!-- -4σ -->
    <g transform="translate(171.123333 32.532875) scale(0.1 -0.1)">
     <use xlink:href="#DejaVuSans-2d"/>
     <use xlink:href="#DejaVuSans-34" x="36.083984"/>
     <use xlink:href="#DejaVuSans-3c3" x="99.707031"/>
    </g>
   </g>
   <g id="text_14">
    <g id="patch_59">
     <path d="M 194.578064 37.612562 
L 210.885877 37.612562 
Q 213.885877 37.612562 213.885877 34.612562 
L 213.885877 24.934437 
Q 213.885877 21.934437 210.885877 21.934437 
L 194.578064 21.934437 
Q 191.578064 21.934437 191.578064 24.934437 
L 191.578064 34.612562 
Q 191.578064 37.612562 194.578064 37.612562 
z
" style="fill: #ffffff"/>
    </g>
    <!-- -3σ -->
    <g transform="translate(194.578064 32.532875) scale(0.1 -0.1)">
     <use xlink:href="#DejaVuSans-2d"/>
     <use xlink:href="#DejaVuSans-33" x="36.083984"/>
     <use xlink:href="#DejaVuSans-3c3" x="99.707031"/>
    </g>
   </g>
   <g id="text_15">
    <g id="patch_60">
     <path d="M 218.032795 37.612562 
L 234.340608 37.612562 
Q 237.340608 37.612562 237.340608 34.612562 
L 237.340608 24.934437 
Q 237.340608 21.934437 234.340608 21.934437 
L 218.032795 21.934437 
Q 215.032795 21.934437 215.032795 24.934437 
L 215.032795 34.612562 
Q 215.032795 37.612562 218.032795 37.612562 
z
" style="fill: #ffffff"/>
    </g>
    <!-- -2σ -->
    <g transform="translate(218.032795 32.532875) scale(0.1 -0.1)">
     <use xlink:href="#DejaVuSans-2d"/>
     <use xlink:href="#DejaVuSans-32" x="36.083984"/>
     <use xlink:href="#DejaVuSans-3c3" x="99.707031"/>
    </g>
   </g>
   <g id="text_16">
    <g id="patch_61">
     <path d="M 244.668777 37.612562 
L 254.614089 37.612562 
Q 257.614089 37.612562 257.614089 34.612562 
L 257.614089 24.934437 
Q 257.614089 21.934437 254.614089 21.934437 
L 244.668777 21.934437 
Q 241.668777 21.934437 241.668777 24.934437 
L 241.668777 34.612562 
Q 241.668777 37.612562 244.668777 37.612562 
z
" style="fill: #ffffff"/>
    </g>
    <!-- -σ -->
    <g transform="translate(244.668777 32.532875) scale(0.1 -0.1)">
     <use xlink:href="#DejaVuSans-2d"/>
     <use xlink:href="#DejaVuSans-3c3" x="36.083984"/>
    </g>
   </g>
   <g id="text_17">
    <g id="patch_62">
     <path d="M 269.417258 37.612562 
L 276.77507 37.612562 
Q 279.77507 37.612562 279.77507 34.612562 
L 279.77507 24.934437 
Q 279.77507 21.934437 276.77507 21.934437 
L 269.417258 21.934437 
Q 266.417258 21.934437 266.417258 24.934437 
L 266.417258 34.612562 
Q 266.417258 37.612562 269.417258 37.612562 
z
" style="fill: #ffffff"/>
    </g>
    <!-- μ -->
    <g transform="translate(269.417258 32.521937) scale(0.1 -0.1)">
     <defs>
      <path id="DejaVuSans-Bold-3bc" d="M 544 -1338 
L 544 3500 
L 1672 3500 
L 1672 1466 
Q 1672 1103 1828 926 
Q 1984 750 2303 750 
Q 2625 750 2781 926 
Q 2938 1103 2938 1466 
L 2938 3500 
L 4063 3500 
L 4063 1159 
Q 4063 938 4114 850 
Q 4166 763 4288 763 
Q 4344 763 4395 778 
Q 4447 794 4506 831 
L 4506 50 
Q 4341 -22 4195 -56 
Q 4050 -91 3909 -91 
Q 3631 -91 3454 26 
Q 3278 144 3169 403 
Q 3022 156 2811 32 
Q 2600 -91 2322 -91 
Q 2091 -91 1928 -17 
Q 1766 56 1672 206 
L 1672 -1338 
L 544 -1338 
z
" transform="scale(0.015625)"/>
     </defs>
     <use xlink:href="#DejaVuSans-Bold-3bc"/>
    </g>
   </g>
   <g id="text_18">
    <g id="patch_63">
     <path d="M 289.192302 37.612562 
L 303.909489 37.612562 
Q 306.909489 37.612562 306.909489 34.612562 
L 306.909489 24.934437 
Q 306.909489 21.934437 303.909489 21.934437 
L 289.192302 21.934437 
Q 286.192302 21.934437 286.192302 24.934437 
L 286.192302 34.612562 
Q 286.192302 37.612562 289.192302 37.612562 
z
" style="fill: #ffffff"/>
    </g>
    <!-- +σ -->
    <g transform="translate(289.192302 32.532875) scale(0.1 -0.1)">
     <defs>
      <path id="DejaVuSans-2b" d="M 2944 4013 
L 2944 2272 
L 4684 2272 
L 4684 1741 
L 2944 1741 
L 2944 0 
L 2419 0 
L 2419 1741 
L 678 1741 
L 678 2272 
L 2419 2272 
L 2419 4013 
L 2944 4013 
z
" transform="scale(0.015625)"/>
     </defs>
     <use xlink:href="#DejaVuSans-2b"/>
     <use xlink:href="#DejaVuSans-3c3" x="83.789062"/>
    </g>
   </g>
   <g id="text_19">
    <g id="patch_64">
     <path d="M 309.465783 37.612562 
L 330.54547 37.612562 
Q 333.54547 37.612562 333.54547 34.612562 
L 333.54547 24.934437 
Q 333.54547 21.934437 330.54547 21.934437 
L 309.465783 21.934437 
Q 306.465783 21.934437 306.465783 24.934437 
L 306.465783 34.612562 
Q 306.465783 37.612562 309.465783 37.612562 
z
" style="fill: #ffffff"/>
    </g>
    <!-- +2σ -->
    <g transform="translate(309.465783 32.532875) scale(0.1 -0.1)">
     <use xlink:href="#DejaVuSans-2b"/>
     <use xlink:href="#DejaVuSans-32" x="83.789062"/>
     <use xlink:href="#DejaVuSans-3c3" x="147.412109"/>
    </g>
   </g>
   <g id="text_20">
    <g id="patch_65">
     <path d="M 332.920514 37.612562 
L 354.000202 37.612562 
Q 357.000202 37.612562 357.000202 34.612562 
L 357.000202 24.934437 
Q 357.000202 21.934437 354.000202 21.934437 
L 332.920514 21.934437 
Q 329.920514 21.934437 329.920514 24.934437 
L 329.920514 34.612562 
Q 329.920514 37.612562 332.920514 37.612562 
z
" style="fill: #ffffff"/>
    </g>
    <!-- +3σ -->
    <g transform="translate(332.920514 32.532875) scale(0.1 -0.1)">
     <use xlink:href="#DejaVuSans-2b"/>
     <use xlink:href="#DejaVuSans-33" x="83.789062"/>
     <use xlink:href="#DejaVuSans-3c3" x="147.412109"/>
    </g>
   </g>
   <g id="text_21">
    <g id="patch_66">
     <path d="M 356.375245 37.612562 
L 377.454933 37.612562 
Q 380.454933 37.612562 380.454933 34.612562 
L 380.454933 24.934437 
Q 380.454933 21.934437 377.454933 21.934437 
L 356.375245 21.934437 
Q 353.375245 21.934437 353.375245 24.934437 
L 353.375245 34.612562 
Q 353.375245 37.612562 356.375245 37.612562 
z
" style="fill: #ffffff"/>
    </g>
    <!-- +4σ -->
    <g transform="translate(356.375245 32.532875) scale(0.1 -0.1)">
     <use xlink:href="#DejaVuSans-2b"/>
     <use xlink:href="#DejaVuSans-34" x="83.789062"/>
     <use xlink:href="#DejaVuSans-3c3" x="147.412109"/>
    </g>
   </g>
  </g>
 </g>
 <defs>
  <clipPath id="p4c1c1fcbdb">
   <rect x="12.688973" y="19.866437" width="379.505" height="101.36"/>
  </clipPath>
 </defs>
</svg>
