<?xml version="1.0" encoding="utf-8" standalone="no"?>
<!DOCTYPE svg PUBLIC "-//W3C//DTD SVG 1.1//EN"
  "http://www.w3.org/Graphics/SVG/1.1/DTD/svg11.dtd">
<svg xmlns:xlink="http://www.w3.org/1999/xlink" width="872.39952pt" height="152.406273pt" viewBox="0 0 872.39952 152.406273" xmlns="http://www.w3.org/2000/svg" version="1.1">
 <metadata>
  <rdf:RDF xmlns:dc="http://purl.org/dc/elements/1.1/" xmlns:cc="http://creativecommons.org/ns#" xmlns:rdf="http://www.w3.org/1999/02/22-rdf-syntax-ns#">
   <cc:Work>
    <dc:type rdf:resource="http://purl.org/dc/dcmitype/StillImage"/>
    <dc:format>image/svg+xml</dc:format>
    <dc:creator>
     <cc:Agent>
      <dc:title>Matplotlib, https://matplotlib.org/</dc:title>
     </cc:Agent>
    </dc:creator>
   </cc:Work>
  </rdf:RDF>
 </metadata>
 <defs>
  <style type="text/css">*{stroke-linejoin: round; stroke-linecap: butt}</style>
 </defs>
 <g id="figure_1">
  <g id="patch_1">
   <path d="M 0 152.406273 
L 872.39952 152.406273 
L 872.39952 0 
L 0 0 
z
" style="fill: #ffffff"/>
  </g>
  <g id="axes_1">
   <g id="patch_2">
    <path d="M 7.2 128.528148 
L 865.19952 128.528148 
L 865.19952 20.214138 
L 7.2 20.214138 
z
" style="fill: #ffffff"/>
   </g>
   <g id="matplotlib.axis_1">
    <g id="xtick_1">
     <g id="line2d_1">
      <defs>
       <path id="m8f1de1206a" d="M 0 0 
L 0 3.5 
" style="stroke: #000000; stroke-width: 0.8"/>
      </defs>
      <g>
       <use xlink:href="#m8f1de1206a" x="171.70353" y="128.528148" style="stroke: #000000; stroke-width: 0.8"/>
      </g>
     </g>
     <g id="text_1">
      <!-- 0 -->
      <g transform="translate(168.52228 143.126585) scale(0.1 -0.1)">
       <defs>
        <path id="DejaVuSans-30" d="M 2034 4250 
Q 1547 4250 1301 3770 
Q 1056 3291 1056 2328 
Q 1056 1369 1301 889 
Q 1547 409 2034 409 
Q 2525 409 2770 889 
Q 3016 1369 3016 2328 
Q 3016 3291 2770 3770 
Q 2525 4250 2034 4250 
z
M 2034 4750 
Q 2819 4750 3233 4129 
Q 3647 3509 3647 2328 
Q 3647 1150 3233 529 
Q 2819 -91 2034 -91 
Q 1250 -91 836 529 
Q 422 1150 422 2328 
Q 422 3509 836 4129 
Q 1250 4750 2034 4750 
z
" transform="scale(0.015625)"/>
       </defs>
       <use xlink:href="#DejaVuSans-30"/>
      </g>
     </g>
    </g>
    <g id="xtick_2">
     <g id="line2d_2">
      <g>
       <use xlink:href="#m8f1de1206a" x="351.632902" y="128.528148" style="stroke: #000000; stroke-width: 0.8"/>
      </g>
     </g>
     <g id="text_2">
      <!-- 2 -->
      <g transform="translate(348.451652 143.126585) scale(0.1 -0.1)">
       <defs>
        <path id="DejaVuSans-32" d="M 1228 531 
L 3431 531 
L 3431 0 
L 469 0 
L 469 531 
Q 828 903 1448 1529 
Q 2069 2156 2228 2338 
Q 2531 2678 2651 2914 
Q 2772 3150 2772 3378 
Q 2772 3750 2511 3984 
Q 2250 4219 1831 4219 
Q 1534 4219 1204 4116 
Q 875 4013 500 3803 
L 500 4441 
Q 881 4594 1212 4672 
Q 1544 4750 1819 4750 
Q 2544 4750 2975 4387 
Q 3406 4025 3406 3419 
Q 3406 3131 3298 2873 
Q 3191 2616 2906 2266 
Q 2828 2175 2409 1742 
Q 1991 1309 1228 531 
z
" transform="scale(0.015625)"/>
       </defs>
       <use xlink:href="#DejaVuSans-32"/>
      </g>
     </g>
    </g>
    <g id="xtick_3">
     <g id="line2d_3">
      <g>
       <use xlink:href="#m8f1de1206a" x="531.562274" y="128.528148" style="stroke: #000000; stroke-width: 0.8"/>
      </g>
     </g>
     <g id="text_3">
      <!-- 4 -->
      <g transform="translate(528.381024 143.126585) scale(0.1 -0.1)">
       <defs>
        <path id="DejaVuSans-34" d="M 2419 4116 
L 825 1625 
L 2419 1625 
L 2419 4116 
z
M 2253 4666 
L 3047 4666 
L 3047 1625 
L 3713 1625 
L 3713 1100 
L 3047 1100 
L 3047 0 
L 2419 0 
L 2419 1100 
L 313 1100 
L 313 1709 
L 2253 4666 
z
" transform="scale(0.015625)"/>
       </defs>
       <use xlink:href="#DejaVuSans-34"/>
      </g>
     </g>
    </g>
    <g id="xtick_4">
     <g id="line2d_4">
      <g>
       <use xlink:href="#m8f1de1206a" x="711.491645" y="128.528148" style="stroke: #000000; stroke-width: 0.8"/>
      </g>
     </g>
     <g id="text_4">
      <!-- 6 -->
      <g transform="translate(708.310395 143.126585) scale(0.1 -0.1)">
       <defs>
        <path id="DejaVuSans-36" d="M 2113 2584 
Q 1688 2584 1439 2293 
Q 1191 2003 1191 1497 
Q 1191 994 1439 701 
Q 1688 409 2113 409 
Q 2538 409 2786 701 
Q 3034 994 3034 1497 
Q 3034 2003 2786 2293 
Q 2538 2584 2113 2584 
z
M 3366 4563 
L 3366 3988 
Q 3128 4100 2886 4159 
Q 2644 4219 2406 4219 
Q 1781 4219 1451 3797 
Q 1122 3375 1075 2522 
Q 1259 2794 1537 2939 
Q 1816 3084 2150 3084 
Q 2853 3084 3261 2657 
Q 3669 2231 3669 1497 
Q 3669 778 3244 343 
Q 2819 -91 2113 -91 
Q 1303 -91 875 529 
Q 447 1150 447 2328 
Q 447 3434 972 4092 
Q 1497 4750 2381 4750 
Q 2619 4750 2861 4703 
Q 3103 4656 3366 4563 
z
" transform="scale(0.015625)"/>
       </defs>
       <use xlink:href="#DejaVuSans-36"/>
      </g>
     </g>
    </g>
   </g>
   <g id="matplotlib.axis_2"/>
   <g id="line2d_5">
    <path d="M 86.862492 128.528148 
L 86.862492 20.214138 
" clip-path="url(#p8015cfb9f8)" style="fill: none; stroke: #000000; stroke-width: 1.5; stroke-linecap: square"/>
   </g>
   <g id="line2d_6">
    <path d="M 175.847333 128.528148 
L 175.847333 20.214138 
" clip-path="url(#p8015cfb9f8)" style="fill: none; stroke: #000000; stroke-width: 1.5; stroke-linecap: square"/>
   </g>
   <g id="line2d_7">
    <path d="M 264.832152 128.528148 
L 264.832152 20.214138 
" clip-path="url(#p8015cfb9f8)" style="fill: none; stroke: #000000; stroke-width: 1.5; stroke-linecap: square"/>
   </g>
   <g id="line2d_8">
    <path d="M 353.816994 128.528148 
L 353.816994 20.214138 
" clip-path="url(#p8015cfb9f8)" style="fill: none; stroke: #000000; stroke-width: 1.5; stroke-linecap: square"/>
   </g>
   <g id="line2d_9">
    <path d="M 442.801813 128.528148 
L 442.801813 20.214138 
" clip-path="url(#p8015cfb9f8)" style="fill: none; stroke: #000000; stroke-width: 1.5; stroke-linecap: square"/>
   </g>
   <g id="line2d_10">
    <path d="M 531.786633 128.528148 
L 531.786633 20.214138 
" clip-path="url(#p8015cfb9f8)" style="fill: none; stroke: #000000; stroke-width: 1.5; stroke-linecap: square"/>
   </g>
   <g id="line2d_11">
    <path d="M 620.771474 128.528148 
L 620.771474 20.214138 
" clip-path="url(#p8015cfb9f8)" style="fill: none; stroke: #000000; stroke-width: 1.5; stroke-linecap: square"/>
   </g>
   <g id="line2d_12">
    <path d="M 709.756315 128.528148 
L 709.756315 20.214138 
" clip-path="url(#p8015cfb9f8)" style="fill: none; stroke: #000000; stroke-width: 1.5; stroke-linecap: square"/>
   </g>
   <g id="line2d_13">
    <path d="M 798.741113 128.528148 
L 798.741113 20.214138 
" clip-path="url(#p8015cfb9f8)" style="fill: none; stroke: #000000; stroke-width: 1.5; stroke-linecap: square"/>
   </g>
   <g id="line2d_14">
    <path d="M 23.693649 128.528148 
L 23.693649 20.214138 
" clip-path="url(#p8015cfb9f8)" style="fill: none; stroke: #ff0000; stroke-width: 1.5; stroke-linecap: square"/>
   </g>
   <g id="line2d_15">
    <path d="M 848.376013 128.528148 
L 848.376013 20.214138 
" clip-path="url(#p8015cfb9f8)" style="fill: none; stroke: #ff0000; stroke-width: 1.5; stroke-linecap: square"/>
   </g>
   <g id="patch_3">
    <path d="M 7.2 128.528148 
L 7.2 20.214138 
" style="fill: none; stroke: #000000; stroke-width: 0.8; stroke-linejoin: miter; stroke-linecap: square"/>
   </g>
   <g id="patch_4">
    <path d="M 865.19952 128.528148 
L 865.19952 20.214138 
" style="fill: none; stroke: #000000; stroke-width: 0.8; stroke-linejoin: miter; stroke-linecap: square"/>
   </g>
   <g id="patch_5">
    <path d="M 7.2 128.528148 
L 865.19952 128.528148 
" style="fill: none; stroke: #000000; stroke-width: 0.8; stroke-linejoin: miter; stroke-linecap: square"/>
   </g>
   <g id="patch_6">
    <path d="M 7.2 20.214138 
L 865.19952 20.214138 
" style="fill: none; stroke: #000000; stroke-width: 0.8; stroke-linejoin: miter; stroke-linecap: square"/>
   </g>
   <g id="text_5">
    <g id="patch_7">
     <path d="M 22.693649 104.10708 
L 22.693649 44.635205 
Q 22.693649 44.635205 22.693649 44.635205 
L 13.015524 44.635205 
Q 13.015524 44.635205 13.015524 44.635205 
L 13.015524 104.10708 
Q 13.015524 104.10708 13.015524 104.10708 
L 22.693649 104.10708 
Q 22.693649 104.10708 22.693649 104.10708 
z
" style="fill: #ffffff"/>
    </g>
    <!-- min=-1.645 -->
    <g transform="translate(20.613962 104.10708) rotate(-90) scale(0.1 -0.1)">
     <defs>
      <path id="DejaVuSans-6d" d="M 3328 2828 
Q 3544 3216 3844 3400 
Q 4144 3584 4550 3584 
Q 5097 3584 5394 3201 
Q 5691 2819 5691 2113 
L 5691 0 
L 5113 0 
L 5113 2094 
Q 5113 2597 4934 2840 
Q 4756 3084 4391 3084 
Q 3944 3084 3684 2787 
Q 3425 2491 3425 1978 
L 3425 0 
L 2847 0 
L 2847 2094 
Q 2847 2600 2669 2842 
Q 2491 3084 2119 3084 
Q 1678 3084 1418 2786 
Q 1159 2488 1159 1978 
L 1159 0 
L 581 0 
L 581 3500 
L 1159 3500 
L 1159 2956 
Q 1356 3278 1631 3431 
Q 1906 3584 2284 3584 
Q 2666 3584 2933 3390 
Q 3200 3197 3328 2828 
z
" transform="scale(0.015625)"/>
      <path id="DejaVuSans-69" d="M 603 3500 
L 1178 3500 
L 1178 0 
L 603 0 
L 603 3500 
z
M 603 4863 
L 1178 4863 
L 1178 4134 
L 603 4134 
L 603 4863 
z
" transform="scale(0.015625)"/>
      <path id="DejaVuSans-6e" d="M 3513 2113 
L 3513 0 
L 2938 0 
L 2938 2094 
Q 2938 2591 2744 2837 
Q 2550 3084 2163 3084 
Q 1697 3084 1428 2787 
Q 1159 2491 1159 1978 
L 1159 0 
L 581 0 
L 581 3500 
L 1159 3500 
L 1159 2956 
Q 1366 3272 1645 3428 
Q 1925 3584 2291 3584 
Q 2894 3584 3203 3211 
Q 3513 2838 3513 2113 
z
" transform="scale(0.015625)"/>
      <path id="DejaVuSans-3d" d="M 678 2906 
L 4684 2906 
L 4684 2381 
L 678 2381 
L 678 2906 
z
M 678 1631 
L 4684 1631 
L 4684 1100 
L 678 1100 
L 678 1631 
z
" transform="scale(0.015625)"/>
      <path id="DejaVuSans-2d" d="M 313 2009 
L 1997 2009 
L 1997 1497 
L 313 1497 
L 313 2009 
z
" transform="scale(0.015625)"/>
      <path id="DejaVuSans-31" d="M 794 531 
L 1825 531 
L 1825 4091 
L 703 3866 
L 703 4441 
L 1819 4666 
L 2450 4666 
L 2450 531 
L 3481 531 
L 3481 0 
L 794 0 
L 794 531 
z
" transform="scale(0.015625)"/>
      <path id="DejaVuSans-2e" d="M 684 794 
L 1344 794 
L 1344 0 
L 684 0 
L 684 794 
z
" transform="scale(0.015625)"/>
      <path id="DejaVuSans-35" d="M 691 4666 
L 3169 4666 
L 3169 4134 
L 1269 4134 
L 1269 2991 
Q 1406 3038 1543 3061 
Q 1681 3084 1819 3084 
Q 2600 3084 3056 2656 
Q 3513 2228 3513 1497 
Q 3513 744 3044 326 
Q 2575 -91 1722 -91 
Q 1428 -91 1123 -41 
Q 819 9 494 109 
L 494 744 
Q 775 591 1075 516 
Q 1375 441 1709 441 
Q 2250 441 2565 725 
Q 2881 1009 2881 1497 
Q 2881 1984 2565 2268 
Q 2250 2553 1709 2553 
Q 1456 2553 1204 2497 
Q 953 2441 691 2322 
L 691 4666 
z
" transform="scale(0.015625)"/>
     </defs>
     <use xlink:href="#DejaVuSans-6d"/>
     <use xlink:href="#DejaVuSans-69" transform="translate(97.412109 0)"/>
     <use xlink:href="#DejaVuSans-6e" transform="translate(125.195312 0)"/>
     <use xlink:href="#DejaVuSans-3d" transform="translate(188.574219 0)"/>
     <use xlink:href="#DejaVuSans-2d" transform="translate(272.363281 0)"/>
     <use xlink:href="#DejaVuSans-31" transform="translate(308.447266 0)"/>
     <use xlink:href="#DejaVuSans-2e" transform="translate(372.070312 0)"/>
     <use xlink:href="#DejaVuSans-36" transform="translate(403.857422 0)"/>
     <use xlink:href="#DejaVuSans-34" transform="translate(467.480469 0)"/>
     <use xlink:href="#DejaVuSans-35" transform="translate(531.103516 0)"/>
    </g>
   </g>
   <g id="text_6">
    <g id="patch_8">
     <path d="M 860.054138 103.768799 
L 860.054138 44.973487 
Q 860.054138 44.973487 860.054138 44.973487 
L 850.376013 44.973487 
Q 850.376013 44.973487 850.376013 44.973487 
L 850.376013 103.768799 
Q 850.376013 103.768799 850.376013 103.768799 
L 860.054138 103.768799 
Q 860.054138 103.768799 860.054138 103.768799 
z
" style="fill: #ffffff"/>
    </g>
    <!-- max=7.522 -->
    <g transform="translate(857.974451 103.768799) rotate(-90) scale(0.1 -0.1)">
     <defs>
      <path id="DejaVuSans-61" d="M 2194 1759 
Q 1497 1759 1228 1600 
Q 959 1441 959 1056 
Q 959 750 1161 570 
Q 1363 391 1709 391 
Q 2188 391 2477 730 
Q 2766 1069 2766 1631 
L 2766 1759 
L 2194 1759 
z
M 3341 1997 
L 3341 0 
L 2766 0 
L 2766 531 
Q 2569 213 2275 61 
Q 1981 -91 1556 -91 
Q 1019 -91 701 211 
Q 384 513 384 1019 
Q 384 1609 779 1909 
Q 1175 2209 1959 2209 
L 2766 2209 
L 2766 2266 
Q 2766 2663 2505 2880 
Q 2244 3097 1772 3097 
Q 1472 3097 1187 3025 
Q 903 2953 641 2809 
L 641 3341 
Q 956 3463 1253 3523 
Q 1550 3584 1831 3584 
Q 2591 3584 2966 3190 
Q 3341 2797 3341 1997 
z
" transform="scale(0.015625)"/>
      <path id="DejaVuSans-78" d="M 3513 3500 
L 2247 1797 
L 3578 0 
L 2900 0 
L 1881 1375 
L 863 0 
L 184 0 
L 1544 1831 
L 300 3500 
L 978 3500 
L 1906 2253 
L 2834 3500 
L 3513 3500 
z
" transform="scale(0.015625)"/>
      <path id="DejaVuSans-37" d="M 525 4666 
L 3525 4666 
L 3525 4397 
L 1831 0 
L 1172 0 
L 2766 4134 
L 525 4134 
L 525 4666 
z
" transform="scale(0.015625)"/>
     </defs>
     <use xlink:href="#DejaVuSans-6d"/>
     <use xlink:href="#DejaVuSans-61" transform="translate(97.412109 0)"/>
     <use xlink:href="#DejaVuSans-78" transform="translate(158.691406 0)"/>
     <use xlink:href="#DejaVuSans-3d" transform="translate(217.871094 0)"/>
     <use xlink:href="#DejaVuSans-37" transform="translate(301.660156 0)"/>
     <use xlink:href="#DejaVuSans-2e" transform="translate(365.283203 0)"/>
     <use xlink:href="#DejaVuSans-35" transform="translate(397.070312 0)"/>
     <use xlink:href="#DejaVuSans-32" transform="translate(460.693359 0)"/>
     <use xlink:href="#DejaVuSans-32" transform="translate(524.316406 0)"/>
    </g>
   </g>
   <g id="text_7">
    <!-- 10000 samples (μ=3.013, σ=0.989) of Array[1000000] x∈[-1.645, 7.522] μ=3.000 σ=0.999 cpu:0 -->
    <g transform="translate(7.2 14.798437) scale(0.1 -0.1)">
     <defs>
      <path id="DejaVuSans-20" transform="scale(0.015625)"/>
      <path id="DejaVuSans-73" d="M 2834 3397 
L 2834 2853 
Q 2591 2978 2328 3040 
Q 2066 3103 1784 3103 
Q 1356 3103 1142 2972 
Q 928 2841 928 2578 
Q 928 2378 1081 2264 
Q 1234 2150 1697 2047 
L 1894 2003 
Q 2506 1872 2764 1633 
Q 3022 1394 3022 966 
Q 3022 478 2636 193 
Q 2250 -91 1575 -91 
Q 1294 -91 989 -36 
Q 684 19 347 128 
L 347 722 
Q 666 556 975 473 
Q 1284 391 1588 391 
Q 1994 391 2212 530 
Q 2431 669 2431 922 
Q 2431 1156 2273 1281 
Q 2116 1406 1581 1522 
L 1381 1569 
Q 847 1681 609 1914 
Q 372 2147 372 2553 
Q 372 3047 722 3315 
Q 1072 3584 1716 3584 
Q 2034 3584 2315 3537 
Q 2597 3491 2834 3397 
z
" transform="scale(0.015625)"/>
      <path id="DejaVuSans-70" d="M 1159 525 
L 1159 -1331 
L 581 -1331 
L 581 3500 
L 1159 3500 
L 1159 2969 
Q 1341 3281 1617 3432 
Q 1894 3584 2278 3584 
Q 2916 3584 3314 3078 
Q 3713 2572 3713 1747 
Q 3713 922 3314 415 
Q 2916 -91 2278 -91 
Q 1894 -91 1617 61 
Q 1341 213 1159 525 
z
M 3116 1747 
Q 3116 2381 2855 2742 
Q 2594 3103 2138 3103 
Q 1681 3103 1420 2742 
Q 1159 2381 1159 1747 
Q 1159 1113 1420 752 
Q 1681 391 2138 391 
Q 2594 391 2855 752 
Q 3116 1113 3116 1747 
z
" transform="scale(0.015625)"/>
      <path id="DejaVuSans-6c" d="M 603 4863 
L 1178 4863 
L 1178 0 
L 603 0 
L 603 4863 
z
" transform="scale(0.015625)"/>
      <path id="DejaVuSans-65" d="M 3597 1894 
L 3597 1613 
L 953 1613 
Q 991 1019 1311 708 
Q 1631 397 2203 397 
Q 2534 397 2845 478 
Q 3156 559 3463 722 
L 3463 178 
Q 3153 47 2828 -22 
Q 2503 -91 2169 -91 
Q 1331 -91 842 396 
Q 353 884 353 1716 
Q 353 2575 817 3079 
Q 1281 3584 2069 3584 
Q 2775 3584 3186 3129 
Q 3597 2675 3597 1894 
z
M 3022 2063 
Q 3016 2534 2758 2815 
Q 2500 3097 2075 3097 
Q 1594 3097 1305 2825 
Q 1016 2553 972 2059 
L 3022 2063 
z
" transform="scale(0.015625)"/>
      <path id="DejaVuSans-28" d="M 1984 4856 
Q 1566 4138 1362 3434 
Q 1159 2731 1159 2009 
Q 1159 1288 1364 580 
Q 1569 -128 1984 -844 
L 1484 -844 
Q 1016 -109 783 600 
Q 550 1309 550 2009 
Q 550 2706 781 3412 
Q 1013 4119 1484 4856 
L 1984 4856 
z
" transform="scale(0.015625)"/>
      <path id="DejaVuSans-3bc" d="M 544 -1331 
L 544 3500 
L 1119 3500 
L 1119 1325 
Q 1119 872 1334 640 
Q 1550 409 1972 409 
Q 2434 409 2667 671 
Q 2900 934 2900 1459 
L 2900 3500 
L 3475 3500 
L 3475 806 
Q 3475 619 3529 530 
Q 3584 441 3700 441 
Q 3728 441 3778 458 
Q 3828 475 3916 513 
L 3916 50 
Q 3788 -22 3673 -56 
Q 3559 -91 3450 -91 
Q 3234 -91 3106 31 
Q 2978 153 2931 403 
Q 2775 156 2548 32 
Q 2322 -91 2016 -91 
Q 1697 -91 1473 31 
Q 1250 153 1119 397 
L 1119 -1331 
L 544 -1331 
z
" transform="scale(0.015625)"/>
      <path id="DejaVuSans-33" d="M 2597 2516 
Q 3050 2419 3304 2112 
Q 3559 1806 3559 1356 
Q 3559 666 3084 287 
Q 2609 -91 1734 -91 
Q 1441 -91 1130 -33 
Q 819 25 488 141 
L 488 750 
Q 750 597 1062 519 
Q 1375 441 1716 441 
Q 2309 441 2620 675 
Q 2931 909 2931 1356 
Q 2931 1769 2642 2001 
Q 2353 2234 1838 2234 
L 1294 2234 
L 1294 2753 
L 1863 2753 
Q 2328 2753 2575 2939 
Q 2822 3125 2822 3475 
Q 2822 3834 2567 4026 
Q 2313 4219 1838 4219 
Q 1578 4219 1281 4162 
Q 984 4106 628 3988 
L 628 4550 
Q 988 4650 1302 4700 
Q 1616 4750 1894 4750 
Q 2613 4750 3031 4423 
Q 3450 4097 3450 3541 
Q 3450 3153 3228 2886 
Q 3006 2619 2597 2516 
z
" transform="scale(0.015625)"/>
      <path id="DejaVuSans-2c" d="M 750 794 
L 1409 794 
L 1409 256 
L 897 -744 
L 494 -744 
L 750 256 
L 750 794 
z
" transform="scale(0.015625)"/>
      <path id="DejaVuSans-3c3" d="M 1959 3044 
Q 1484 3044 1228 2700 
Q 959 2341 959 1747 
Q 959 1119 1226 758 
Q 1494 397 1959 397 
Q 2419 397 2687 759 
Q 2956 1122 2956 1747 
Q 2956 2319 2688 2700 
Q 2441 3044 1959 3044 
z
M 1959 3500 
L 3869 3500 
L 3869 2925 
L 3225 2925 
Q 3566 2438 3566 1747 
Q 3566 888 3138 400 
Q 2709 -91 1959 -91 
Q 1206 -91 781 400 
Q 353 888 353 1747 
Q 353 2613 781 3097 
Q 1134 3500 1959 3500 
z
" transform="scale(0.015625)"/>
      <path id="DejaVuSans-39" d="M 703 97 
L 703 672 
Q 941 559 1184 500 
Q 1428 441 1663 441 
Q 2288 441 2617 861 
Q 2947 1281 2994 2138 
Q 2813 1869 2534 1725 
Q 2256 1581 1919 1581 
Q 1219 1581 811 2004 
Q 403 2428 403 3163 
Q 403 3881 828 4315 
Q 1253 4750 1959 4750 
Q 2769 4750 3195 4129 
Q 3622 3509 3622 2328 
Q 3622 1225 3098 567 
Q 2575 -91 1691 -91 
Q 1453 -91 1209 -44 
Q 966 3 703 97 
z
M 1959 2075 
Q 2384 2075 2632 2365 
Q 2881 2656 2881 3163 
Q 2881 3666 2632 3958 
Q 2384 4250 1959 4250 
Q 1534 4250 1286 3958 
Q 1038 3666 1038 3163 
Q 1038 2656 1286 2365 
Q 1534 2075 1959 2075 
z
" transform="scale(0.015625)"/>
      <path id="DejaVuSans-38" d="M 2034 2216 
Q 1584 2216 1326 1975 
Q 1069 1734 1069 1313 
Q 1069 891 1326 650 
Q 1584 409 2034 409 
Q 2484 409 2743 651 
Q 3003 894 3003 1313 
Q 3003 1734 2745 1975 
Q 2488 2216 2034 2216 
z
M 1403 2484 
Q 997 2584 770 2862 
Q 544 3141 544 3541 
Q 544 4100 942 4425 
Q 1341 4750 2034 4750 
Q 2731 4750 3128 4425 
Q 3525 4100 3525 3541 
Q 3525 3141 3298 2862 
Q 3072 2584 2669 2484 
Q 3125 2378 3379 2068 
Q 3634 1759 3634 1313 
Q 3634 634 3220 271 
Q 2806 -91 2034 -91 
Q 1263 -91 848 271 
Q 434 634 434 1313 
Q 434 1759 690 2068 
Q 947 2378 1403 2484 
z
M 1172 3481 
Q 1172 3119 1398 2916 
Q 1625 2713 2034 2713 
Q 2441 2713 2670 2916 
Q 2900 3119 2900 3481 
Q 2900 3844 2670 4047 
Q 2441 4250 2034 4250 
Q 1625 4250 1398 4047 
Q 1172 3844 1172 3481 
z
" transform="scale(0.015625)"/>
      <path id="DejaVuSans-29" d="M 513 4856 
L 1013 4856 
Q 1481 4119 1714 3412 
Q 1947 2706 1947 2009 
Q 1947 1309 1714 600 
Q 1481 -109 1013 -844 
L 513 -844 
Q 928 -128 1133 580 
Q 1338 1288 1338 2009 
Q 1338 2731 1133 3434 
Q 928 4138 513 4856 
z
" transform="scale(0.015625)"/>
      <path id="DejaVuSans-6f" d="M 1959 3097 
Q 1497 3097 1228 2736 
Q 959 2375 959 1747 
Q 959 1119 1226 758 
Q 1494 397 1959 397 
Q 2419 397 2687 759 
Q 2956 1122 2956 1747 
Q 2956 2369 2687 2733 
Q 2419 3097 1959 3097 
z
M 1959 3584 
Q 2709 3584 3137 3096 
Q 3566 2609 3566 1747 
Q 3566 888 3137 398 
Q 2709 -91 1959 -91 
Q 1206 -91 779 398 
Q 353 888 353 1747 
Q 353 2609 779 3096 
Q 1206 3584 1959 3584 
z
" transform="scale(0.015625)"/>
      <path id="DejaVuSans-66" d="M 2375 4863 
L 2375 4384 
L 1825 4384 
Q 1516 4384 1395 4259 
Q 1275 4134 1275 3809 
L 1275 3500 
L 2222 3500 
L 2222 3053 
L 1275 3053 
L 1275 0 
L 697 0 
L 697 3053 
L 147 3053 
L 147 3500 
L 697 3500 
L 697 3744 
Q 697 4328 969 4595 
Q 1241 4863 1831 4863 
L 2375 4863 
z
" transform="scale(0.015625)"/>
      <path id="DejaVuSans-41" d="M 2188 4044 
L 1331 1722 
L 3047 1722 
L 2188 4044 
z
M 1831 4666 
L 2547 4666 
L 4325 0 
L 3669 0 
L 3244 1197 
L 1141 1197 
L 716 0 
L 50 0 
L 1831 4666 
z
" transform="scale(0.015625)"/>
      <path id="DejaVuSans-72" d="M 2631 2963 
Q 2534 3019 2420 3045 
Q 2306 3072 2169 3072 
Q 1681 3072 1420 2755 
Q 1159 2438 1159 1844 
L 1159 0 
L 581 0 
L 581 3500 
L 1159 3500 
L 1159 2956 
Q 1341 3275 1631 3429 
Q 1922 3584 2338 3584 
Q 2397 3584 2469 3576 
Q 2541 3569 2628 3553 
L 2631 2963 
z
" transform="scale(0.015625)"/>
      <path id="DejaVuSans-79" d="M 2059 -325 
Q 1816 -950 1584 -1140 
Q 1353 -1331 966 -1331 
L 506 -1331 
L 506 -850 
L 844 -850 
Q 1081 -850 1212 -737 
Q 1344 -625 1503 -206 
L 1606 56 
L 191 3500 
L 800 3500 
L 1894 763 
L 2988 3500 
L 3597 3500 
L 2059 -325 
z
" transform="scale(0.015625)"/>
      <path id="DejaVuSans-5b" d="M 550 4863 
L 1875 4863 
L 1875 4416 
L 1125 4416 
L 1125 -397 
L 1875 -397 
L 1875 -844 
L 550 -844 
L 550 4863 
z
" transform="scale(0.015625)"/>
      <path id="DejaVuSans-5d" d="M 1947 4863 
L 1947 -844 
L 622 -844 
L 622 -397 
L 1369 -397 
L 1369 4416 
L 622 4416 
L 622 4863 
L 1947 4863 
z
" transform="scale(0.015625)"/>
      <path id="DejaVuSans-2208" d="M 1072 1959 
Q 1094 1728 1291 1353 
Q 1522 919 1959 675 
Q 2388 438 2850 434 
L 5028 434 
L 5028 -63 
L 2850 -63 
Q 2250 -63 1695 246 
Q 1141 556 844 1106 
Q 547 1656 547 2241 
Q 547 2819 844 3369 
Q 1141 3919 1695 4231 
Q 2250 4544 2850 4544 
L 5028 4544 
L 5028 4047 
L 2850 4047 
Q 2388 4044 1959 3803 
Q 1525 3556 1291 3125 
Q 1091 2750 1063 2459 
L 5028 2459 
L 5028 1959 
L 1072 1959 
z
" transform="scale(0.015625)"/>
      <path id="DejaVuSans-63" d="M 3122 3366 
L 3122 2828 
Q 2878 2963 2633 3030 
Q 2388 3097 2138 3097 
Q 1578 3097 1268 2742 
Q 959 2388 959 1747 
Q 959 1106 1268 751 
Q 1578 397 2138 397 
Q 2388 397 2633 464 
Q 2878 531 3122 666 
L 3122 134 
Q 2881 22 2623 -34 
Q 2366 -91 2075 -91 
Q 1284 -91 818 406 
Q 353 903 353 1747 
Q 353 2603 823 3093 
Q 1294 3584 2113 3584 
Q 2378 3584 2631 3529 
Q 2884 3475 3122 3366 
z
" transform="scale(0.015625)"/>
      <path id="DejaVuSans-75" d="M 544 1381 
L 544 3500 
L 1119 3500 
L 1119 1403 
Q 1119 906 1312 657 
Q 1506 409 1894 409 
Q 2359 409 2629 706 
Q 2900 1003 2900 1516 
L 2900 3500 
L 3475 3500 
L 3475 0 
L 2900 0 
L 2900 538 
Q 2691 219 2414 64 
Q 2138 -91 1772 -91 
Q 1169 -91 856 284 
Q 544 659 544 1381 
z
M 1991 3584 
L 1991 3584 
z
" transform="scale(0.015625)"/>
      <path id="DejaVuSans-3a" d="M 750 794 
L 1409 794 
L 1409 0 
L 750 0 
L 750 794 
z
M 750 3309 
L 1409 3309 
L 1409 2516 
L 750 2516 
L 750 3309 
z
" transform="scale(0.015625)"/>
     </defs>
     <use xlink:href="#DejaVuSans-31"/>
     <use xlink:href="#DejaVuSans-30" transform="translate(63.623047 0)"/>
     <use xlink:href="#DejaVuSans-30" transform="translate(127.246094 0)"/>
     <use xlink:href="#DejaVuSans-30" transform="translate(190.869141 0)"/>
     <use xlink:href="#DejaVuSans-30" transform="translate(254.492188 0)"/>
     <use xlink:href="#DejaVuSans-20" transform="translate(318.115234 0)"/>
     <use xlink:href="#DejaVuSans-73" transform="translate(349.902344 0)"/>
     <use xlink:href="#DejaVuSans-61" transform="translate(402.001953 0)"/>
     <use xlink:href="#DejaVuSans-6d" transform="translate(463.28125 0)"/>
     <use xlink:href="#DejaVuSans-70" transform="translate(560.693359 0)"/>
     <use xlink:href="#DejaVuSans-6c" transform="translate(624.169922 0)"/>
     <use xlink:href="#DejaVuSans-65" transform="translate(651.953125 0)"/>
     <use xlink:href="#DejaVuSans-73" transform="translate(713.476562 0)"/>
     <use xlink:href="#DejaVuSans-20" transform="translate(765.576172 0)"/>
     <use xlink:href="#DejaVuSans-28" transform="translate(797.363281 0)"/>
     <use xlink:href="#DejaVuSans-3bc" transform="translate(836.376953 0)"/>
     <use xlink:href="#DejaVuSans-3d" transform="translate(900 0)"/>
     <use xlink:href="#DejaVuSans-33" transform="translate(983.789062 0)"/>
     <use xlink:href="#DejaVuSans-2e" transform="translate(1047.412109 0)"/>
     <use xlink:href="#DejaVuSans-30" transform="translate(1079.199219 0)"/>
     <use xlink:href="#DejaVuSans-31" transform="translate(1142.822266 0)"/>
     <use xlink:href="#DejaVuSans-33" transform="translate(1206.445312 0)"/>
     <use xlink:href="#DejaVuSans-2c" transform="translate(1270.068359 0)"/>
     <use xlink:href="#DejaVuSans-20" transform="translate(1301.855469 0)"/>
     <use xlink:href="#DejaVuSans-3c3" transform="translate(1333.642578 0)"/>
     <use xlink:href="#DejaVuSans-3d" transform="translate(1397.021484 0)"/>
     <use xlink:href="#DejaVuSans-30" transform="translate(1480.810547 0)"/>
     <use xlink:href="#DejaVuSans-2e" transform="translate(1544.433594 0)"/>
     <use xlink:href="#DejaVuSans-39" transform="translate(1576.220703 0)"/>
     <use xlink:href="#DejaVuSans-38" transform="translate(1639.84375 0)"/>
     <use xlink:href="#DejaVuSans-39" transform="translate(1703.466797 0)"/>
     <use xlink:href="#DejaVuSans-29" transform="translate(1767.089844 0)"/>
     <use xlink:href="#DejaVuSans-20" transform="translate(1806.103516 0)"/>
     <use xlink:href="#DejaVuSans-6f" transform="translate(1837.890625 0)"/>
     <use xlink:href="#DejaVuSans-66" transform="translate(1899.072266 0)"/>
     <use xlink:href="#DejaVuSans-20" transform="translate(1934.277344 0)"/>
     <use xlink:href="#DejaVuSans-41" transform="translate(1966.064453 0)"/>
     <use xlink:href="#DejaVuSans-72" transform="translate(2034.472656 0)"/>
     <use xlink:href="#DejaVuSans-72" transform="translate(2073.835938 0)"/>
     <use xlink:href="#DejaVuSans-61" transform="translate(2114.949219 0)"/>
     <use xlink:href="#DejaVuSans-79" transform="translate(2176.228516 0)"/>
     <use xlink:href="#DejaVuSans-5b" transform="translate(2235.408203 0)"/>
     <use xlink:href="#DejaVuSans-31" transform="translate(2274.421875 0)"/>
     <use xlink:href="#DejaVuSans-30" transform="translate(2338.044922 0)"/>
     <use xlink:href="#DejaVuSans-30" transform="translate(2401.667969 0)"/>
     <use xlink:href="#DejaVuSans-30" transform="translate(2465.291016 0)"/>
     <use xlink:href="#DejaVuSans-30" transform="translate(2528.914062 0)"/>
     <use xlink:href="#DejaVuSans-30" transform="translate(2592.537109 0)"/>
     <use xlink:href="#DejaVuSans-30" transform="translate(2656.160156 0)"/>
     <use xlink:href="#DejaVuSans-5d" transform="translate(2719.783203 0)"/>
     <use xlink:href="#DejaVuSans-20" transform="translate(2758.796875 0)"/>
     <use xlink:href="#DejaVuSans-78" transform="translate(2790.583984 0)"/>
     <use xlink:href="#DejaVuSans-2208" transform="translate(2849.763672 0)"/>
     <use xlink:href="#DejaVuSans-5b" transform="translate(2936.873047 0)"/>
     <use xlink:href="#DejaVuSans-2d" transform="translate(2975.886719 0)"/>
     <use xlink:href="#DejaVuSans-31" transform="translate(3011.970703 0)"/>
     <use xlink:href="#DejaVuSans-2e" transform="translate(3075.59375 0)"/>
     <use xlink:href="#DejaVuSans-36" transform="translate(3107.380859 0)"/>
     <use xlink:href="#DejaVuSans-34" transform="translate(3171.003906 0)"/>
     <use xlink:href="#DejaVuSans-35" transform="translate(3234.626953 0)"/>
     <use xlink:href="#DejaVuSans-2c" transform="translate(3298.25 0)"/>
     <use xlink:href="#DejaVuSans-20" transform="translate(3330.037109 0)"/>
     <use xlink:href="#DejaVuSans-37" transform="translate(3361.824219 0)"/>
     <use xlink:href="#DejaVuSans-2e" transform="translate(3425.447266 0)"/>
     <use xlink:href="#DejaVuSans-35" transform="translate(3457.234375 0)"/>
     <use xlink:href="#DejaVuSans-32" transform="translate(3520.857422 0)"/>
     <use xlink:href="#DejaVuSans-32" transform="translate(3584.480469 0)"/>
     <use xlink:href="#DejaVuSans-5d" transform="translate(3648.103516 0)"/>
     <use xlink:href="#DejaVuSans-20" transform="translate(3687.117188 0)"/>
     <use xlink:href="#DejaVuSans-3bc" transform="translate(3718.904297 0)"/>
     <use xlink:href="#DejaVuSans-3d" transform="translate(3782.527344 0)"/>
     <use xlink:href="#DejaVuSans-33" transform="translate(3866.316406 0)"/>
     <use xlink:href="#DejaVuSans-2e" transform="translate(3929.939453 0)"/>
     <use xlink:href="#DejaVuSans-30" transform="translate(3961.726562 0)"/>
     <use xlink:href="#DejaVuSans-30" transform="translate(4025.349609 0)"/>
     <use xlink:href="#DejaVuSans-30" transform="translate(4088.972656 0)"/>
     <use xlink:href="#DejaVuSans-20" transform="translate(4152.595703 0)"/>
     <use xlink:href="#DejaVuSans-3c3" transform="translate(4184.382812 0)"/>
     <use xlink:href="#DejaVuSans-3d" transform="translate(4247.761719 0)"/>
     <use xlink:href="#DejaVuSans-30" transform="translate(4331.550781 0)"/>
     <use xlink:href="#DejaVuSans-2e" transform="translate(4395.173828 0)"/>
     <use xlink:href="#DejaVuSans-39" transform="translate(4426.960938 0)"/>
     <use xlink:href="#DejaVuSans-39" transform="translate(4490.583984 0)"/>
     <use xlink:href="#DejaVuSans-39" transform="translate(4554.207031 0)"/>
     <use xlink:href="#DejaVuSans-20" transform="translate(4617.830078 0)"/>
     <use xlink:href="#DejaVuSans-63" transform="translate(4649.617188 0)"/>
     <use xlink:href="#DejaVuSans-70" transform="translate(4704.597656 0)"/>
     <use xlink:href="#DejaVuSans-75" transform="translate(4768.074219 0)"/>
     <use xlink:href="#DejaVuSans-3a" transform="translate(4831.453125 0)"/>
     <use xlink:href="#DejaVuSans-30" transform="translate(4865.144531 0)"/>
    </g>
   </g>
   <g id="patch_9">
    <path d="M 88.456107 128.528148 
L 96.939061 128.528148 
L 96.939061 128.3374 
L 88.456107 128.3374 
z
" clip-path="url(#p8015cfb9f8)" style="fill: #00bfff"/>
   </g>
   <g id="patch_10">
    <path d="M 96.939061 128.528148 
L 105.422021 128.528148 
L 105.422021 128.528148 
L 96.939061 128.528148 
z
" clip-path="url(#p8015cfb9f8)" style="fill: #00bfff"/>
   </g>
   <g id="patch_11">
    <path d="M 105.422021 128.528148 
L 113.90498 128.528148 
L 113.90498 128.528148 
L 105.422021 128.528148 
z
" clip-path="url(#p8015cfb9f8)" style="fill: #00bfff"/>
   </g>
   <g id="patch_12">
    <path d="M 113.90498 128.528148 
L 122.387934 128.528148 
L 122.387934 128.3374 
L 113.90498 128.3374 
z
" clip-path="url(#p8015cfb9f8)" style="fill: #00bfff"/>
   </g>
   <g id="patch_13">
    <path d="M 122.387934 128.528148 
L 130.870891 128.528148 
L 130.870891 128.528148 
L 122.387934 128.528148 
z
" clip-path="url(#p8015cfb9f8)" style="fill: #00bfff"/>
   </g>
   <g id="patch_14">
    <path d="M 130.870891 128.528148 
L 139.353848 128.528148 
L 139.353848 128.528148 
L 130.870891 128.528148 
z
" clip-path="url(#p8015cfb9f8)" style="fill: #00bfff"/>
   </g>
   <g id="patch_15">
    <path d="M 139.353848 128.528148 
L 147.836808 128.528148 
L 147.836808 128.3374 
L 139.353848 128.3374 
z
" clip-path="url(#p8015cfb9f8)" style="fill: #00bfff"/>
   </g>
   <g id="patch_16">
    <path d="M 147.836808 128.528148 
L 156.319762 128.528148 
L 156.319762 127.955905 
L 147.836808 127.955905 
z
" clip-path="url(#p8015cfb9f8)" style="fill: #00bfff"/>
   </g>
   <g id="patch_17">
    <path d="M 156.319762 128.528148 
L 164.802716 128.528148 
L 164.802716 128.3374 
L 156.319762 128.3374 
z
" clip-path="url(#p8015cfb9f8)" style="fill: #00bfff"/>
   </g>
   <g id="patch_18">
    <path d="M 164.802716 128.528148 
L 173.285675 128.528148 
L 173.285675 128.528148 
L 164.802716 128.528148 
z
" clip-path="url(#p8015cfb9f8)" style="fill: #00bfff"/>
   </g>
   <g id="patch_19">
    <path d="M 173.285675 128.528148 
L 181.768635 128.528148 
L 181.768635 127.002167 
L 173.285675 127.002167 
z
" clip-path="url(#p8015cfb9f8)" style="fill: #00bfff"/>
   </g>
   <g id="patch_20">
    <path d="M 181.768635 128.528148 
L 190.251589 128.528148 
L 190.251589 127.383662 
L 181.768635 127.383662 
z
" clip-path="url(#p8015cfb9f8)" style="fill: #00bfff"/>
   </g>
   <g id="patch_21">
    <path d="M 190.251589 128.528148 
L 198.734543 128.528148 
L 198.734543 127.192914 
L 190.251589 127.192914 
z
" clip-path="url(#p8015cfb9f8)" style="fill: #00bfff"/>
   </g>
   <g id="patch_22">
    <path d="M 198.734543 128.528148 
L 207.217508 128.528148 
L 207.217508 126.429926 
L 198.734543 126.429926 
z
" clip-path="url(#p8015cfb9f8)" style="fill: #00bfff"/>
   </g>
   <g id="patch_23">
    <path d="M 207.217508 128.528148 
L 215.700462 128.528148 
L 215.700462 126.811419 
L 207.217508 126.811419 
z
" clip-path="url(#p8015cfb9f8)" style="fill: #00bfff"/>
   </g>
   <g id="patch_24">
    <path d="M 215.700462 128.528148 
L 224.183417 128.528148 
L 224.183417 125.285438 
L 215.700462 125.285438 
z
" clip-path="url(#p8015cfb9f8)" style="fill: #00bfff"/>
   </g>
   <g id="patch_25">
    <path d="M 224.183417 128.528148 
L 232.666371 128.528148 
L 232.666371 125.476185 
L 224.183417 125.476185 
z
" clip-path="url(#p8015cfb9f8)" style="fill: #00bfff"/>
   </g>
   <g id="patch_26">
    <path d="M 232.666371 128.528148 
L 241.149325 128.528148 
L 241.149325 122.805718 
L 232.666371 122.805718 
z
" clip-path="url(#p8015cfb9f8)" style="fill: #00bfff"/>
   </g>
   <g id="patch_27">
    <path d="M 241.149325 128.528148 
L 249.63229 128.528148 
L 249.63229 121.851988 
L 241.149325 121.851988 
z
" clip-path="url(#p8015cfb9f8)" style="fill: #00bfff"/>
   </g>
   <g id="patch_28">
    <path d="M 249.63229 128.528148 
L 258.115244 128.528148 
L 258.115244 121.088989 
L 249.63229 121.088989 
z
" clip-path="url(#p8015cfb9f8)" style="fill: #00bfff"/>
   </g>
   <g id="patch_29">
    <path d="M 258.115244 128.528148 
L 266.598198 128.528148 
L 266.598198 120.135251 
L 258.115244 120.135251 
z
" clip-path="url(#p8015cfb9f8)" style="fill: #00bfff"/>
   </g>
   <g id="patch_30">
    <path d="M 266.598198 128.528148 
L 275.081163 128.528148 
L 275.081163 116.129566 
L 266.598198 116.129566 
z
" clip-path="url(#p8015cfb9f8)" style="fill: #00bfff"/>
   </g>
   <g id="patch_31">
    <path d="M 275.081163 128.528148 
L 283.564106 128.528148 
L 283.564106 114.985047 
L 275.081163 114.985047 
z
" clip-path="url(#p8015cfb9f8)" style="fill: #00bfff"/>
   </g>
   <g id="patch_32">
    <path d="M 283.564106 128.528148 
L 292.047071 128.528148 
L 292.047071 111.742375 
L 283.564106 111.742375 
z
" clip-path="url(#p8015cfb9f8)" style="fill: #00bfff"/>
   </g>
   <g id="patch_33">
    <path d="M 292.047071 128.528148 
L 300.530036 128.528148 
L 300.530036 109.262659 
L 292.047071 109.262659 
z
" clip-path="url(#p8015cfb9f8)" style="fill: #00bfff"/>
   </g>
   <g id="patch_34">
    <path d="M 300.530036 128.528148 
L 309.01298 128.528148 
L 309.01298 104.875409 
L 300.530036 104.875409 
z
" clip-path="url(#p8015cfb9f8)" style="fill: #00bfff"/>
   </g>
   <g id="patch_35">
    <path d="M 309.01298 128.528148 
L 317.495945 128.528148 
L 317.495945 103.730984 
L 309.01298 103.730984 
z
" clip-path="url(#p8015cfb9f8)" style="fill: #00bfff"/>
   </g>
   <g id="patch_36">
    <path d="M 317.495945 128.528148 
L 325.978909 128.528148 
L 325.978909 100.488278 
L 317.495945 100.488278 
z
" clip-path="url(#p8015cfb9f8)" style="fill: #00bfff"/>
   </g>
   <g id="patch_37">
    <path d="M 325.978909 128.528148 
L 334.461853 128.528148 
L 334.461853 91.332308 
L 325.978909 91.332308 
z
" clip-path="url(#p8015cfb9f8)" style="fill: #00bfff"/>
   </g>
   <g id="patch_38">
    <path d="M 334.461853 128.528148 
L 342.944818 128.528148 
L 342.944818 93.430624 
L 334.461853 93.430624 
z
" clip-path="url(#p8015cfb9f8)" style="fill: #00bfff"/>
   </g>
   <g id="patch_39">
    <path d="M 342.944818 128.528148 
L 351.427761 128.528148 
L 351.427761 89.806325 
L 342.944818 89.806325 
z
" clip-path="url(#p8015cfb9f8)" style="fill: #00bfff"/>
   </g>
   <g id="patch_40">
    <path d="M 351.427761 128.528148 
L 359.910726 128.528148 
L 359.910726 85.60998 
L 351.427761 85.60998 
z
" clip-path="url(#p8015cfb9f8)" style="fill: #00bfff"/>
   </g>
   <g id="patch_41">
    <path d="M 359.910726 128.528148 
L 368.393691 128.528148 
L 368.393691 81.413537 
L 359.910726 81.413537 
z
" clip-path="url(#p8015cfb9f8)" style="fill: #00bfff"/>
   </g>
   <g id="patch_42">
    <path d="M 368.393691 128.528148 
L 376.876635 128.528148 
L 376.876635 72.257519 
L 368.393691 72.257519 
z
" clip-path="url(#p8015cfb9f8)" style="fill: #00bfff"/>
   </g>
   <g id="patch_43">
    <path d="M 376.876635 128.528148 
L 385.359599 128.528148 
L 385.359599 76.07261 
L 376.876635 76.07261 
z
" clip-path="url(#p8015cfb9f8)" style="fill: #00bfff"/>
   </g>
   <g id="patch_44">
    <path d="M 385.359599 128.528148 
L 393.842543 128.528148 
L 393.842543 69.968544 
L 385.359599 69.968544 
z
" clip-path="url(#p8015cfb9f8)" style="fill: #00bfff"/>
   </g>
   <g id="patch_45">
    <path d="M 393.842543 128.528148 
L 402.325508 128.528148 
L 402.325508 63.292533 
L 393.842543 63.292533 
z
" clip-path="url(#p8015cfb9f8)" style="fill: #00bfff"/>
   </g>
   <g id="patch_46">
    <path d="M 402.325508 128.528148 
L 410.808473 128.528148 
L 410.808473 62.529544 
L 402.325508 62.529544 
z
" clip-path="url(#p8015cfb9f8)" style="fill: #00bfff"/>
   </g>
   <g id="patch_47">
    <path d="M 410.808473 128.528148 
L 419.291416 128.528148 
L 419.291416 59.47741 
L 410.808473 59.47741 
z
" clip-path="url(#p8015cfb9f8)" style="fill: #00bfff"/>
   </g>
   <g id="patch_48">
    <path d="M 419.291416 128.528148 
L 427.774381 128.528148 
L 427.774381 59.477585 
L 419.291416 59.477585 
z
" clip-path="url(#p8015cfb9f8)" style="fill: #00bfff"/>
   </g>
   <g id="patch_49">
    <path d="M 427.774381 128.528148 
L 436.257346 128.528148 
L 436.257346 53.755163 
L 427.774381 53.755163 
z
" clip-path="url(#p8015cfb9f8)" style="fill: #00bfff"/>
   </g>
   <g id="patch_50">
    <path d="M 436.257346 128.528148 
L 444.740289 128.528148 
L 444.740289 53.18273 
L 436.257346 53.18273 
z
" clip-path="url(#p8015cfb9f8)" style="fill: #00bfff"/>
   </g>
   <g id="patch_51">
    <path d="M 444.740289 128.528148 
L 453.223254 128.528148 
L 453.223254 49.177225 
L 444.740289 49.177225 
z
" clip-path="url(#p8015cfb9f8)" style="fill: #00bfff"/>
   </g>
   <g id="patch_52">
    <path d="M 453.223254 128.528148 
L 461.706219 128.528148 
L 461.706219 60.622069 
L 453.223254 60.622069 
z
" clip-path="url(#p8015cfb9f8)" style="fill: #00bfff"/>
   </g>
   <g id="patch_53">
    <path d="M 461.706219 128.528148 
L 470.189184 128.528148 
L 470.189184 57.570111 
L 461.706219 57.570111 
z
" clip-path="url(#p8015cfb9f8)" style="fill: #00bfff"/>
   </g>
   <g id="patch_54">
    <path d="M 470.189184 128.528148 
L 478.672106 128.528148 
L 478.672106 56.234513 
L 470.189184 56.234513 
z
" clip-path="url(#p8015cfb9f8)" style="fill: #00bfff"/>
   </g>
   <g id="patch_55">
    <path d="M 478.672106 128.528148 
L 487.155071 128.528148 
L 487.155071 67.488976 
L 478.672106 67.488976 
z
" clip-path="url(#p8015cfb9f8)" style="fill: #00bfff"/>
   </g>
   <g id="patch_56">
    <path d="M 487.155071 128.528148 
L 495.638036 128.528148 
L 495.638036 63.292533 
L 487.155071 63.292533 
z
" clip-path="url(#p8015cfb9f8)" style="fill: #00bfff"/>
   </g>
   <g id="patch_57">
    <path d="M 495.638036 128.528148 
L 504.121001 128.528148 
L 504.121001 70.350187 
L 495.638036 70.350187 
z
" clip-path="url(#p8015cfb9f8)" style="fill: #00bfff"/>
   </g>
   <g id="patch_58">
    <path d="M 504.121001 128.528148 
L 512.603966 128.528148 
L 512.603966 76.835599 
L 504.121001 76.835599 
z
" clip-path="url(#p8015cfb9f8)" style="fill: #00bfff"/>
   </g>
   <g id="patch_59">
    <path d="M 512.603966 128.528148 
L 521.086888 128.528148 
L 521.086888 79.696564 
L 512.603966 79.696564 
z
" clip-path="url(#p8015cfb9f8)" style="fill: #00bfff"/>
   </g>
   <g id="patch_60">
    <path d="M 521.086888 128.528148 
L 529.569852 128.528148 
L 529.569852 79.69681 
L 521.086888 79.69681 
z
" clip-path="url(#p8015cfb9f8)" style="fill: #00bfff"/>
   </g>
   <g id="patch_61">
    <path d="M 529.569852 128.528148 
L 538.052817 128.528148 
L 538.052817 81.985779 
L 529.569852 81.985779 
z
" clip-path="url(#p8015cfb9f8)" style="fill: #00bfff"/>
   </g>
   <g id="patch_62">
    <path d="M 538.052817 128.528148 
L 546.535782 128.528148 
L 546.535782 90.950908 
L 538.052817 90.950908 
z
" clip-path="url(#p8015cfb9f8)" style="fill: #00bfff"/>
   </g>
   <g id="patch_63">
    <path d="M 546.535782 128.528148 
L 555.018747 128.528148 
L 555.018747 95.147351 
L 546.535782 95.147351 
z
" clip-path="url(#p8015cfb9f8)" style="fill: #00bfff"/>
   </g>
   <g id="patch_64">
    <path d="M 555.018747 128.528148 
L 563.501712 128.528148 
L 563.501712 98.390057 
L 555.018747 98.390057 
z
" clip-path="url(#p8015cfb9f8)" style="fill: #00bfff"/>
   </g>
   <g id="patch_65">
    <path d="M 563.501712 128.528148 
L 571.984634 128.528148 
L 571.984634 106.592084 
L 563.501712 106.592084 
z
" clip-path="url(#p8015cfb9f8)" style="fill: #00bfff"/>
   </g>
   <g id="patch_66">
    <path d="M 571.984634 128.528148 
L 580.467599 128.528148 
L 580.467599 103.540237 
L 571.984634 103.540237 
z
" clip-path="url(#p8015cfb9f8)" style="fill: #00bfff"/>
   </g>
   <g id="patch_67">
    <path d="M 580.467599 128.528148 
L 588.950564 128.528148 
L 588.950564 107.927427 
L 580.467599 107.927427 
z
" clip-path="url(#p8015cfb9f8)" style="fill: #00bfff"/>
   </g>
   <g id="patch_68">
    <path d="M 588.950564 128.528148 
L 597.433529 128.528148 
L 597.433529 110.788638 
L 588.950564 110.788638 
z
" clip-path="url(#p8015cfb9f8)" style="fill: #00bfff"/>
   </g>
   <g id="patch_69">
    <path d="M 597.433529 128.528148 
L 605.916494 128.528148 
L 605.916494 114.985081 
L 597.433529 114.985081 
z
" clip-path="url(#p8015cfb9f8)" style="fill: #00bfff"/>
   </g>
   <g id="patch_70">
    <path d="M 605.916494 128.528148 
L 614.399416 128.528148 
L 614.399416 115.175761 
L 605.916494 115.175761 
z
" clip-path="url(#p8015cfb9f8)" style="fill: #00bfff"/>
   </g>
   <g id="patch_71">
    <path d="M 614.399416 128.528148 
L 622.882381 128.528148 
L 622.882381 118.03704 
L 614.399416 118.03704 
z
" clip-path="url(#p8015cfb9f8)" style="fill: #00bfff"/>
   </g>
   <g id="patch_72">
    <path d="M 622.882381 128.528148 
L 631.365345 128.528148 
L 631.365345 120.516756 
L 622.882381 120.516756 
z
" clip-path="url(#p8015cfb9f8)" style="fill: #00bfff"/>
   </g>
   <g id="patch_73">
    <path d="M 631.365345 128.528148 
L 639.84831 128.528148 
L 639.84831 121.851988 
L 631.365345 121.851988 
z
" clip-path="url(#p8015cfb9f8)" style="fill: #00bfff"/>
   </g>
   <g id="patch_74">
    <path d="M 639.84831 128.528148 
L 648.331275 128.528148 
L 648.331275 123.568715 
L 639.84831 123.568715 
z
" clip-path="url(#p8015cfb9f8)" style="fill: #00bfff"/>
   </g>
   <g id="patch_75">
    <path d="M 648.331275 128.528148 
L 656.814197 128.528148 
L 656.814197 123.56869 
L 648.331275 123.56869 
z
" clip-path="url(#p8015cfb9f8)" style="fill: #00bfff"/>
   </g>
   <g id="patch_76">
    <path d="M 656.814197 128.528148 
L 665.297162 128.528148 
L 665.297162 122.805725 
L 656.814197 122.805725 
z
" clip-path="url(#p8015cfb9f8)" style="fill: #00bfff"/>
   </g>
   <g id="patch_77">
    <path d="M 665.297162 128.528148 
L 673.780127 128.528148 
L 673.780127 123.759462 
L 665.297162 123.759462 
z
" clip-path="url(#p8015cfb9f8)" style="fill: #00bfff"/>
   </g>
   <g id="patch_78">
    <path d="M 673.780127 128.528148 
L 682.263092 128.528148 
L 682.263092 126.811421 
L 673.780127 126.811421 
z
" clip-path="url(#p8015cfb9f8)" style="fill: #00bfff"/>
   </g>
   <g id="patch_79">
    <path d="M 682.263092 128.528148 
L 690.746057 128.528148 
L 690.746057 126.811421 
L 682.263092 126.811421 
z
" clip-path="url(#p8015cfb9f8)" style="fill: #00bfff"/>
   </g>
   <g id="patch_80">
    <path d="M 690.746057 128.528148 
L 699.228979 128.528148 
L 699.228979 127.574406 
L 690.746057 127.574406 
z
" clip-path="url(#p8015cfb9f8)" style="fill: #00bfff"/>
   </g>
   <g id="patch_81">
    <path d="M 699.228979 128.528148 
L 707.711944 128.528148 
L 707.711944 127.574411 
L 699.228979 127.574411 
z
" clip-path="url(#p8015cfb9f8)" style="fill: #00bfff"/>
   </g>
   <g id="patch_82">
    <path d="M 707.711944 128.528148 
L 716.194909 128.528148 
L 716.194909 127.765158 
L 707.711944 127.765158 
z
" clip-path="url(#p8015cfb9f8)" style="fill: #00bfff"/>
   </g>
   <g id="patch_83">
    <path d="M 716.194909 128.528148 
L 724.677873 128.528148 
L 724.677873 128.3374 
L 716.194909 128.3374 
z
" clip-path="url(#p8015cfb9f8)" style="fill: #00bfff"/>
   </g>
   <g id="patch_84">
    <path d="M 724.677873 128.528148 
L 733.160838 128.528148 
L 733.160838 127.955905 
L 724.677873 127.955905 
z
" clip-path="url(#p8015cfb9f8)" style="fill: #00bfff"/>
   </g>
   <g id="patch_85">
    <path d="M 733.160838 128.528148 
L 741.643803 128.528148 
L 741.643803 127.955905 
L 733.160838 127.955905 
z
" clip-path="url(#p8015cfb9f8)" style="fill: #00bfff"/>
   </g>
   <g id="patch_86">
    <path d="M 741.643803 128.528148 
L 750.126725 128.528148 
L 750.126725 128.146651 
L 741.643803 128.146651 
z
" clip-path="url(#p8015cfb9f8)" style="fill: #00bfff"/>
   </g>
   <g id="line2d_16">
    <path d="M 7.2 128.527694 
L 15.866662 128.52742 
L 24.533324 128.526992 
L 33.199985 128.526329 
L 41.866647 128.525314 
L 50.533309 128.523774 
L 59.199971 128.521461 
L 67.866633 128.51802 
L 76.533295 128.512954 
L 85.199956 128.505568 
L 93.866618 128.49491 
L 102.53328 128.479682 
L 111.199942 128.458144 
L 119.866604 128.42799 
L 128.533265 128.3862 
L 137.199927 128.328872 
L 145.866589 128.251033 
L 154.533251 128.146428 
L 163.199913 128.007301 
L 171.866575 127.824175 
L 180.533236 127.585645 
L 189.199898 127.278207 
L 197.86656 126.886134 
L 206.533222 126.391443 
L 215.199884 125.773967 
L 223.866545 125.011564 
L 232.533207 124.080506 
L 241.199869 122.956046 
L 249.866531 121.613204 
L 258.533193 120.027761 
L 267.199855 118.177463 
L 275.866516 116.043397 
L 284.533178 113.611506 
L 293.19984 110.874167 
L 301.866502 107.831757 
L 310.533164 104.494097 
L 319.199825 100.881675 
L 327.866487 97.026529 
L 336.533149 92.972679 
L 345.199811 88.776025 
L 353.866473 84.503627 
L 362.533135 80.23235 
L 371.199796 76.046865 
L 379.866458 72.037061 
L 388.53312 68.294966 
L 397.199782 64.911311 
L 405.866444 61.971916 
L 414.533105 59.55409 
L 423.199767 57.723264 
L 431.866429 56.530047 
L 440.533091 56.007903 
L 449.199753 56.171595 
L 457.866415 57.016486 
L 466.533076 58.518763 
L 475.199738 60.636548 
L 483.8664 63.31184 
L 492.533062 66.473149 
L 501.199724 70.038673 
L 509.866385 73.919796 
L 518.533047 78.024727 
L 527.199709 82.262045 
L 535.866371 86.543991 
L 544.533033 90.789326 
L 553.199695 94.925644 
L 561.866356 98.891074 
L 570.533018 102.635325 
L 579.19968 106.120108 
L 587.866342 109.318973 
L 596.533004 112.216645 
L 605.199665 114.807974 
L 613.866327 117.096584 
L 622.532989 119.093362 
L 631.199651 120.814872 
L 639.866313 122.281801 
L 648.532975 123.517503 
L 657.199636 124.546694 
L 665.866298 125.394357 
L 674.53296 126.084837 
L 683.199622 126.641165 
L 691.866284 127.084579 
L 700.532945 127.434223 
L 709.199607 127.707007 
L 717.866269 127.917588 
L 726.532931 128.078451 
L 735.199593 128.200059 
L 743.866255 128.291041 
L 752.532916 128.358411 
L 761.199578 128.407786 
L 769.86624 128.443604 
L 778.532902 128.469324 
L 787.199564 128.487605 
L 795.866225 128.500469 
L 804.532887 128.50943 
L 813.199549 128.515609 
L 821.866211 128.519828 
L 830.532873 128.522679 
L 839.199535 128.524587 
L 847.866196 128.525851 
L 856.532858 128.526681 
L 865.19952 128.527219 
" clip-path="url(#p8015cfb9f8)" style="fill: none; stroke: #1f77b4; stroke-width: 1.5; stroke-linecap: square"/>
   </g>
   <g id="text_8">
    <g id="patch_87">
     <path d="M 78.708586 38.307963 
L 95.016398 38.307963 
Q 98.016398 38.307963 98.016398 35.307963 
L 98.016398 25.629838 
Q 98.016398 22.629838 95.016398 22.629838 
L 78.708586 22.629838 
Q 75.708586 22.629838 75.708586 25.629838 
L 75.708586 35.307963 
Q 75.708586 38.307963 78.708586 38.307963 
z
" style="fill: #ffffff"/>
    </g>
    <!-- -4σ -->
    <g transform="translate(78.708586 33.228276) scale(0.1 -0.1)">
     <use xlink:href="#DejaVuSans-2d"/>
     <use xlink:href="#DejaVuSans-34" transform="translate(36.083984 0)"/>
     <use xlink:href="#DejaVuSans-3c3" transform="translate(99.707031 0)"/>
    </g>
   </g>
   <g id="text_9">
    <g id="patch_88">
     <path d="M 167.693427 38.307963 
L 184.001239 38.307963 
Q 187.001239 38.307963 187.001239 35.307963 
L 187.001239 25.629838 
Q 187.001239 22.629838 184.001239 22.629838 
L 167.693427 22.629838 
Q 164.693427 22.629838 164.693427 25.629838 
L 164.693427 35.307963 
Q 164.693427 38.307963 167.693427 38.307963 
z
" style="fill: #ffffff"/>
    </g>
    <!-- -3σ -->
    <g transform="translate(167.693427 33.228276) scale(0.1 -0.1)">
     <use xlink:href="#DejaVuSans-2d"/>
     <use xlink:href="#DejaVuSans-33" transform="translate(36.083984 0)"/>
     <use xlink:href="#DejaVuSans-3c3" transform="translate(99.707031 0)"/>
    </g>
   </g>
   <g id="text_10">
    <g id="patch_89">
     <path d="M 256.678246 38.307963 
L 272.986059 38.307963 
Q 275.986059 38.307963 275.986059 35.307963 
L 275.986059 25.629838 
Q 275.986059 22.629838 272.986059 22.629838 
L 256.678246 22.629838 
Q 253.678246 22.629838 253.678246 25.629838 
L 253.678246 35.307963 
Q 253.678246 38.307963 256.678246 38.307963 
z
" style="fill: #ffffff"/>
    </g>
    <!-- -2σ -->
    <g transform="translate(256.678246 33.228276) scale(0.1 -0.1)">
     <use xlink:href="#DejaVuSans-2d"/>
     <use xlink:href="#DejaVuSans-32" transform="translate(36.083984 0)"/>
     <use xlink:href="#DejaVuSans-3c3" transform="translate(99.707031 0)"/>
    </g>
   </g>
   <g id="text_11">
    <g id="patch_90">
     <path d="M 348.844337 38.307963 
L 358.78965 38.307963 
Q 361.78965 38.307963 361.78965 35.307963 
L 361.78965 25.629838 
Q 361.78965 22.629838 358.78965 22.629838 
L 348.844337 22.629838 
Q 345.844337 22.629838 345.844337 25.629838 
L 345.844337 35.307963 
Q 345.844337 38.307963 348.844337 38.307963 
z
" style="fill: #ffffff"/>
    </g>
    <!-- -σ -->
    <g transform="translate(348.844337 33.228276) scale(0.1 -0.1)">
     <use xlink:href="#DejaVuSans-2d"/>
     <use xlink:href="#DejaVuSans-3c3" transform="translate(36.083984 0)"/>
    </g>
   </g>
   <g id="text_12">
    <g id="patch_91">
     <path d="M 439.122907 38.307963 
L 446.480719 38.307963 
Q 449.480719 38.307963 449.480719 35.307963 
L 449.480719 25.629838 
Q 449.480719 22.629838 446.480719 22.629838 
L 439.122907 22.629838 
Q 436.122907 22.629838 436.122907 25.629838 
L 436.122907 35.307963 
Q 436.122907 38.307963 439.122907 38.307963 
z
" style="fill: #ffffff"/>
    </g>
    <!-- μ -->
    <g transform="translate(439.122907 33.217338) scale(0.1 -0.1)">
     <defs>
      <path id="DejaVuSans-Bold-3bc" d="M 544 -1338 
L 544 3500 
L 1672 3500 
L 1672 1466 
Q 1672 1103 1828 926 
Q 1984 750 2303 750 
Q 2625 750 2781 926 
Q 2938 1103 2938 1466 
L 2938 3500 
L 4063 3500 
L 4063 1159 
Q 4063 938 4114 850 
Q 4166 763 4288 763 
Q 4344 763 4395 778 
Q 4447 794 4506 831 
L 4506 50 
Q 4341 -22 4195 -56 
Q 4050 -91 3909 -91 
Q 3631 -91 3454 26 
Q 3278 144 3169 403 
Q 3022 156 2811 32 
Q 2600 -91 2322 -91 
Q 2091 -91 1928 -17 
Q 1766 56 1672 206 
L 1672 -1338 
L 544 -1338 
z
" transform="scale(0.015625)"/>
     </defs>
     <use xlink:href="#DejaVuSans-Bold-3bc"/>
    </g>
   </g>
   <g id="text_13">
    <g id="patch_92">
     <path d="M 524.428039 38.307963 
L 539.145226 38.307963 
Q 542.145226 38.307963 542.145226 35.307963 
L 542.145226 25.629838 
Q 542.145226 22.629838 539.145226 22.629838 
L 524.428039 22.629838 
Q 521.428039 22.629838 521.428039 25.629838 
L 521.428039 35.307963 
Q 521.428039 38.307963 524.428039 38.307963 
z
" style="fill: #ffffff"/>
    </g>
    <!-- +σ -->
    <g transform="translate(524.428039 33.228276) scale(0.1 -0.1)">
     <defs>
      <path id="DejaVuSans-2b" d="M 2944 4013 
L 2944 2272 
L 4684 2272 
L 4684 1741 
L 2944 1741 
L 2944 0 
L 2419 0 
L 2419 1741 
L 678 1741 
L 678 2272 
L 2419 2272 
L 2419 4013 
L 2944 4013 
z
" transform="scale(0.015625)"/>
     </defs>
     <use xlink:href="#DejaVuSans-2b"/>
     <use xlink:href="#DejaVuSans-3c3" transform="translate(83.789062 0)"/>
    </g>
   </g>
   <g id="text_14">
    <g id="patch_93">
     <path d="M 610.23163 38.307963 
L 631.311318 38.307963 
Q 634.311318 38.307963 634.311318 35.307963 
L 634.311318 25.629838 
Q 634.311318 22.629838 631.311318 22.629838 
L 610.23163 22.629838 
Q 607.23163 22.629838 607.23163 25.629838 
L 607.23163 35.307963 
Q 607.23163 38.307963 610.23163 38.307963 
z
" style="fill: #ffffff"/>
    </g>
    <!-- +2σ -->
    <g transform="translate(610.23163 33.228276) scale(0.1 -0.1)">
     <use xlink:href="#DejaVuSans-2b"/>
     <use xlink:href="#DejaVuSans-32" transform="translate(83.789062 0)"/>
     <use xlink:href="#DejaVuSans-3c3" transform="translate(147.412109 0)"/>
    </g>
   </g>
   <g id="text_15">
    <g id="patch_94">
     <path d="M 699.216471 38.307963 
L 720.296159 38.307963 
Q 723.296159 38.307963 723.296159 35.307963 
L 723.296159 25.629838 
Q 723.296159 22.629838 720.296159 22.629838 
L 699.216471 22.629838 
Q 696.216471 22.629838 696.216471 25.629838 
L 696.216471 35.307963 
Q 696.216471 38.307963 699.216471 38.307963 
z
" style="fill: #ffffff"/>
    </g>
    <!-- +3σ -->
    <g transform="translate(699.216471 33.228276) scale(0.1 -0.1)">
     <use xlink:href="#DejaVuSans-2b"/>
     <use xlink:href="#DejaVuSans-33" transform="translate(83.789062 0)"/>
     <use xlink:href="#DejaVuSans-3c3" transform="translate(147.412109 0)"/>
    </g>
   </g>
   <g id="text_16">
    <g id="patch_95">
     <path d="M 788.201269 38.307963 
L 809.280957 38.307963 
Q 812.280957 38.307963 812.280957 35.307963 
L 812.280957 25.629838 
Q 812.280957 22.629838 809.280957 22.629838 
L 788.201269 22.629838 
Q 785.201269 22.629838 785.201269 25.629838 
L 785.201269 35.307963 
Q 785.201269 38.307963 788.201269 38.307963 
z
" style="fill: #ffffff"/>
    </g>
    <!-- +4σ -->
    <g transform="translate(788.201269 33.228276) scale(0.1 -0.1)">
     <use xlink:href="#DejaVuSans-2b"/>
     <use xlink:href="#DejaVuSans-34" transform="translate(83.789062 0)"/>
     <use xlink:href="#DejaVuSans-3c3" transform="translate(147.412109 0)"/>
    </g>
   </g>
  </g>
 </g>
 <defs>
  <clipPath id="p8015cfb9f8">
   <rect x="7.2" y="20.214138" width="857.99952" height="108.31401"/>
  </clipPath>
 </defs>
</svg>
