<?xml version="1.0" encoding="utf-8" standalone="no"?>
<!DOCTYPE svg PUBLIC "-//W3C//DTD SVG 1.1//EN"
  "http://www.w3.org/Graphics/SVG/1.1/DTD/svg11.dtd">
<svg xmlns:xlink="http://www.w3.org/1999/xlink" width="872.39952pt" height="152.406273pt" viewBox="0 0 872.39952 152.406273" xmlns="http://www.w3.org/2000/svg" version="1.1">
 <metadata>
  <rdf:RDF xmlns:dc="http://purl.org/dc/elements/1.1/" xmlns:cc="http://creativecommons.org/ns#" xmlns:rdf="http://www.w3.org/1999/02/22-rdf-syntax-ns#">
   <cc:Work>
    <dc:type rdf:resource="http://purl.org/dc/dcmitype/StillImage"/>
    <dc:format>image/svg+xml</dc:format>
    <dc:creator>
     <cc:Agent>
      <dc:title>Matplotlib, https://matplotlib.org/</dc:title>
     </cc:Agent>
    </dc:creator>
   </cc:Work>
  </rdf:RDF>
 </metadata>
 <defs>
  <style type="text/css">*{stroke-linejoin: round; stroke-linecap: butt}</style>
 </defs>
 <g id="figure_1">
  <g id="patch_1">
   <path d="M 0 152.406273 
L 872.39952 152.406273 
L 872.39952 0 
L 0 0 
z
" style="fill: #ffffff"/>
  </g>
  <g id="axes_1">
   <g id="patch_2">
    <path d="M 7.2 128.528148 
L 865.19952 128.528148 
L 865.19952 20.214138 
L 7.2 20.214138 
z
" style="fill: #ffffff"/>
   </g>
   <g id="matplotlib.axis_1">
    <g id="xtick_1">
     <g id="line2d_1">
      <defs>
       <path id="m8f1de1206a" d="M 0 0 
L 0 3.5 
" style="stroke: #000000; stroke-width: 0.8"/>
      </defs>
      <g>
       <use xlink:href="#m8f1de1206a" x="71.254969" y="128.528148" style="stroke: #000000; stroke-width: 0.8"/>
      </g>
     </g>
     <g id="text_1">
      <!-- −4 -->
      <g transform="translate(63.883876 143.126585) scale(0.1 -0.1)">
       <defs>
        <path id="DejaVuSans-2212" d="M 678 2272 
L 4684 2272 
L 4684 1741 
L 678 1741 
L 678 2272 
z
" transform="scale(0.015625)"/>
        <path id="DejaVuSans-34" d="M 2419 4116 
L 825 1625 
L 2419 1625 
L 2419 4116 
z
M 2253 4666 
L 3047 4666 
L 3047 1625 
L 3713 1625 
L 3713 1100 
L 3047 1100 
L 3047 0 
L 2419 0 
L 2419 1100 
L 313 1100 
L 313 1709 
L 2253 4666 
z
" transform="scale(0.015625)"/>
       </defs>
       <use xlink:href="#DejaVuSans-2212"/>
       <use xlink:href="#DejaVuSans-34" transform="translate(83.789062 0)"/>
      </g>
     </g>
    </g>
    <g id="xtick_2">
     <g id="line2d_2">
      <g>
       <use xlink:href="#m8f1de1206a" x="253.644895" y="128.528148" style="stroke: #000000; stroke-width: 0.8"/>
      </g>
     </g>
     <g id="text_2">
      <!-- −2 -->
      <g transform="translate(246.273801 143.126585) scale(0.1 -0.1)">
       <defs>
        <path id="DejaVuSans-32" d="M 1228 531 
L 3431 531 
L 3431 0 
L 469 0 
L 469 531 
Q 828 903 1448 1529 
Q 2069 2156 2228 2338 
Q 2531 2678 2651 2914 
Q 2772 3150 2772 3378 
Q 2772 3750 2511 3984 
Q 2250 4219 1831 4219 
Q 1534 4219 1204 4116 
Q 875 4013 500 3803 
L 500 4441 
Q 881 4594 1212 4672 
Q 1544 4750 1819 4750 
Q 2544 4750 2975 4387 
Q 3406 4025 3406 3419 
Q 3406 3131 3298 2873 
Q 3191 2616 2906 2266 
Q 2828 2175 2409 1742 
Q 1991 1309 1228 531 
z
" transform="scale(0.015625)"/>
       </defs>
       <use xlink:href="#DejaVuSans-2212"/>
       <use xlink:href="#DejaVuSans-32" transform="translate(83.789062 0)"/>
      </g>
     </g>
    </g>
    <g id="xtick_3">
     <g id="line2d_3">
      <g>
       <use xlink:href="#m8f1de1206a" x="436.034821" y="128.528148" style="stroke: #000000; stroke-width: 0.8"/>
      </g>
     </g>
     <g id="text_3">
      <!-- 0 -->
      <g transform="translate(432.853571 143.126585) scale(0.1 -0.1)">
       <defs>
        <path id="DejaVuSans-30" d="M 2034 4250 
Q 1547 4250 1301 3770 
Q 1056 3291 1056 2328 
Q 1056 1369 1301 889 
Q 1547 409 2034 409 
Q 2525 409 2770 889 
Q 3016 1369 3016 2328 
Q 3016 3291 2770 3770 
Q 2525 4250 2034 4250 
z
M 2034 4750 
Q 2819 4750 3233 4129 
Q 3647 3509 3647 2328 
Q 3647 1150 3233 529 
Q 2819 -91 2034 -91 
Q 1250 -91 836 529 
Q 422 1150 422 2328 
Q 422 3509 836 4129 
Q 1250 4750 2034 4750 
z
" transform="scale(0.015625)"/>
       </defs>
       <use xlink:href="#DejaVuSans-30"/>
      </g>
     </g>
    </g>
    <g id="xtick_4">
     <g id="line2d_4">
      <g>
       <use xlink:href="#m8f1de1206a" x="618.424747" y="128.528148" style="stroke: #000000; stroke-width: 0.8"/>
      </g>
     </g>
     <g id="text_4">
      <!-- 2 -->
      <g transform="translate(615.243497 143.126585) scale(0.1 -0.1)">
       <use xlink:href="#DejaVuSans-32"/>
      </g>
     </g>
    </g>
    <g id="xtick_5">
     <g id="line2d_5">
      <g>
       <use xlink:href="#m8f1de1206a" x="800.814672" y="128.528148" style="stroke: #000000; stroke-width: 0.8"/>
      </g>
     </g>
     <g id="text_5">
      <!-- 4 -->
      <g transform="translate(797.633422 143.126585) scale(0.1 -0.1)">
       <use xlink:href="#DejaVuSans-34"/>
      </g>
     </g>
    </g>
   </g>
   <g id="matplotlib.axis_2"/>
   <g id="line2d_6">
    <path d="M 182.418007 128.528148 
L 182.418007 20.214138 
" clip-path="url(#p8015cfb9f8)" style="fill: none; stroke: #000000; stroke-width: 1.5; stroke-linecap: square"/>
   </g>
   <g id="line2d_7">
    <path d="M 236.778442 128.528148 
L 236.778442 20.214138 
" clip-path="url(#p8015cfb9f8)" style="fill: none; stroke: #000000; stroke-width: 1.5; stroke-linecap: square"/>
   </g>
   <g id="line2d_8">
    <path d="M 291.138887 128.528148 
L 291.138887 20.214138 
" clip-path="url(#p8015cfb9f8)" style="fill: none; stroke: #000000; stroke-width: 1.5; stroke-linecap: square"/>
   </g>
   <g id="line2d_9">
    <path d="M 345.499332 128.528148 
L 345.499332 20.214138 
" clip-path="url(#p8015cfb9f8)" style="fill: none; stroke: #000000; stroke-width: 1.5; stroke-linecap: square"/>
   </g>
   <g id="line2d_10">
    <path d="M 399.859777 128.528148 
L 399.859777 20.214138 
" clip-path="url(#p8015cfb9f8)" style="fill: none; stroke: #000000; stroke-width: 1.5; stroke-linecap: square"/>
   </g>
   <g id="line2d_11">
    <path d="M 454.220222 128.528148 
L 454.220222 20.214138 
" clip-path="url(#p8015cfb9f8)" style="fill: none; stroke: #000000; stroke-width: 1.5; stroke-linecap: square"/>
   </g>
   <g id="line2d_12">
    <path d="M 508.580667 128.528148 
L 508.580667 20.214138 
" clip-path="url(#p8015cfb9f8)" style="fill: none; stroke: #000000; stroke-width: 1.5; stroke-linecap: square"/>
   </g>
   <g id="line2d_13">
    <path d="M 562.941113 128.528148 
L 562.941113 20.214138 
" clip-path="url(#p8015cfb9f8)" style="fill: none; stroke: #000000; stroke-width: 1.5; stroke-linecap: square"/>
   </g>
   <g id="line2d_14">
    <path d="M 617.301558 128.528148 
L 617.301558 20.214138 
" clip-path="url(#p8015cfb9f8)" style="fill: none; stroke: #000000; stroke-width: 1.5; stroke-linecap: square"/>
   </g>
   <g id="line2d_15">
    <path d="M 671.662003 128.528148 
L 671.662003 20.214138 
" clip-path="url(#p8015cfb9f8)" style="fill: none; stroke: #000000; stroke-width: 1.5; stroke-linecap: square"/>
   </g>
   <g id="line2d_16">
    <path d="M 726.022437 128.528148 
L 726.022437 20.214138 
" clip-path="url(#p8015cfb9f8)" style="fill: none; stroke: #000000; stroke-width: 1.5; stroke-linecap: square"/>
   </g>
   <g id="line2d_17">
    <path d="M 780.382872 128.528148 
L 780.382872 20.214138 
" clip-path="url(#p8015cfb9f8)" style="fill: none; stroke: #000000; stroke-width: 1.5; stroke-linecap: square"/>
   </g>
   <g id="line2d_18">
    <path d="M 834.743349 128.528148 
L 834.743349 20.214138 
" clip-path="url(#p8015cfb9f8)" style="fill: none; stroke: #000000; stroke-width: 1.5; stroke-linecap: square"/>
   </g>
   <g id="line2d_19">
    <path d="M 436.034821 128.528148 
L 436.034821 20.214138 
" clip-path="url(#p8015cfb9f8)" style="fill: none; stroke: #ff0000; stroke-width: 1.5; stroke-linecap: square"/>
   </g>
   <g id="line2d_20">
    <path d="M 848.375986 128.528148 
L 848.375986 20.214138 
" clip-path="url(#p8015cfb9f8)" style="fill: none; stroke: #ff0000; stroke-width: 1.5; stroke-linecap: square"/>
   </g>
   <g id="patch_3">
    <path d="M 7.2 128.528148 
L 7.2 20.214138 
" style="fill: none; stroke: #000000; stroke-width: 0.8; stroke-linejoin: miter; stroke-linecap: square"/>
   </g>
   <g id="patch_4">
    <path d="M 865.19952 128.528148 
L 865.19952 20.214138 
" style="fill: none; stroke: #000000; stroke-width: 0.8; stroke-linejoin: miter; stroke-linecap: square"/>
   </g>
   <g id="patch_5">
    <path d="M 7.2 128.528148 
L 865.19952 128.528148 
" style="fill: none; stroke: #000000; stroke-width: 0.8; stroke-linejoin: miter; stroke-linecap: square"/>
   </g>
   <g id="patch_6">
    <path d="M 7.2 20.214138 
L 865.19952 20.214138 
" style="fill: none; stroke: #000000; stroke-width: 0.8; stroke-linejoin: miter; stroke-linecap: square"/>
   </g>
   <g id="text_6">
    <g id="patch_7">
     <path d="M 435.034821 92.759424 
L 435.034821 55.982862 
Q 435.034821 55.982862 435.034821 55.982862 
L 425.356696 55.982862 
Q 425.356696 55.982862 425.356696 55.982862 
L 425.356696 92.759424 
Q 425.356696 92.759424 425.356696 92.759424 
L 435.034821 92.759424 
Q 435.034821 92.759424 435.034821 92.759424 
z
" style="fill: #ffffff"/>
    </g>
    <!-- min=0. -->
    <g transform="translate(432.955133 92.759424) rotate(-90) scale(0.1 -0.1)">
     <defs>
      <path id="DejaVuSans-6d" d="M 3328 2828 
Q 3544 3216 3844 3400 
Q 4144 3584 4550 3584 
Q 5097 3584 5394 3201 
Q 5691 2819 5691 2113 
L 5691 0 
L 5113 0 
L 5113 2094 
Q 5113 2597 4934 2840 
Q 4756 3084 4391 3084 
Q 3944 3084 3684 2787 
Q 3425 2491 3425 1978 
L 3425 0 
L 2847 0 
L 2847 2094 
Q 2847 2600 2669 2842 
Q 2491 3084 2119 3084 
Q 1678 3084 1418 2786 
Q 1159 2488 1159 1978 
L 1159 0 
L 581 0 
L 581 3500 
L 1159 3500 
L 1159 2956 
Q 1356 3278 1631 3431 
Q 1906 3584 2284 3584 
Q 2666 3584 2933 3390 
Q 3200 3197 3328 2828 
z
" transform="scale(0.015625)"/>
      <path id="DejaVuSans-69" d="M 603 3500 
L 1178 3500 
L 1178 0 
L 603 0 
L 603 3500 
z
M 603 4863 
L 1178 4863 
L 1178 4134 
L 603 4134 
L 603 4863 
z
" transform="scale(0.015625)"/>
      <path id="DejaVuSans-6e" d="M 3513 2113 
L 3513 0 
L 2938 0 
L 2938 2094 
Q 2938 2591 2744 2837 
Q 2550 3084 2163 3084 
Q 1697 3084 1428 2787 
Q 1159 2491 1159 1978 
L 1159 0 
L 581 0 
L 581 3500 
L 1159 3500 
L 1159 2956 
Q 1366 3272 1645 3428 
Q 1925 3584 2291 3584 
Q 2894 3584 3203 3211 
Q 3513 2838 3513 2113 
z
" transform="scale(0.015625)"/>
      <path id="DejaVuSans-3d" d="M 678 2906 
L 4684 2906 
L 4684 2381 
L 678 2381 
L 678 2906 
z
M 678 1631 
L 4684 1631 
L 4684 1100 
L 678 1100 
L 678 1631 
z
" transform="scale(0.015625)"/>
      <path id="DejaVuSans-2e" d="M 684 794 
L 1344 794 
L 1344 0 
L 684 0 
L 684 794 
z
" transform="scale(0.015625)"/>
     </defs>
     <use xlink:href="#DejaVuSans-6d"/>
     <use xlink:href="#DejaVuSans-69" transform="translate(97.412109 0)"/>
     <use xlink:href="#DejaVuSans-6e" transform="translate(125.195312 0)"/>
     <use xlink:href="#DejaVuSans-3d" transform="translate(188.574219 0)"/>
     <use xlink:href="#DejaVuSans-30" transform="translate(272.363281 0)"/>
     <use xlink:href="#DejaVuSans-2e" transform="translate(335.986328 0)"/>
    </g>
   </g>
   <g id="text_7">
    <g id="patch_8">
     <path d="M 860.054111 103.768799 
L 860.054111 44.973487 
Q 860.054111 44.973487 860.054111 44.973487 
L 850.375986 44.973487 
Q 850.375986 44.973487 850.375986 44.973487 
L 850.375986 103.768799 
Q 850.375986 103.768799 850.375986 103.768799 
L 860.054111 103.768799 
Q 860.054111 103.768799 860.054111 103.768799 
z
" style="fill: #ffffff"/>
    </g>
    <!-- max=4.522 -->
    <g transform="translate(857.974424 103.768799) rotate(-90) scale(0.1 -0.1)">
     <defs>
      <path id="DejaVuSans-61" d="M 2194 1759 
Q 1497 1759 1228 1600 
Q 959 1441 959 1056 
Q 959 750 1161 570 
Q 1363 391 1709 391 
Q 2188 391 2477 730 
Q 2766 1069 2766 1631 
L 2766 1759 
L 2194 1759 
z
M 3341 1997 
L 3341 0 
L 2766 0 
L 2766 531 
Q 2569 213 2275 61 
Q 1981 -91 1556 -91 
Q 1019 -91 701 211 
Q 384 513 384 1019 
Q 384 1609 779 1909 
Q 1175 2209 1959 2209 
L 2766 2209 
L 2766 2266 
Q 2766 2663 2505 2880 
Q 2244 3097 1772 3097 
Q 1472 3097 1187 3025 
Q 903 2953 641 2809 
L 641 3341 
Q 956 3463 1253 3523 
Q 1550 3584 1831 3584 
Q 2591 3584 2966 3190 
Q 3341 2797 3341 1997 
z
" transform="scale(0.015625)"/>
      <path id="DejaVuSans-78" d="M 3513 3500 
L 2247 1797 
L 3578 0 
L 2900 0 
L 1881 1375 
L 863 0 
L 184 0 
L 1544 1831 
L 300 3500 
L 978 3500 
L 1906 2253 
L 2834 3500 
L 3513 3500 
z
" transform="scale(0.015625)"/>
      <path id="DejaVuSans-35" d="M 691 4666 
L 3169 4666 
L 3169 4134 
L 1269 4134 
L 1269 2991 
Q 1406 3038 1543 3061 
Q 1681 3084 1819 3084 
Q 2600 3084 3056 2656 
Q 3513 2228 3513 1497 
Q 3513 744 3044 326 
Q 2575 -91 1722 -91 
Q 1428 -91 1123 -41 
Q 819 9 494 109 
L 494 744 
Q 775 591 1075 516 
Q 1375 441 1709 441 
Q 2250 441 2565 725 
Q 2881 1009 2881 1497 
Q 2881 1984 2565 2268 
Q 2250 2553 1709 2553 
Q 1456 2553 1204 2497 
Q 953 2441 691 2322 
L 691 4666 
z
" transform="scale(0.015625)"/>
     </defs>
     <use xlink:href="#DejaVuSans-6d"/>
     <use xlink:href="#DejaVuSans-61" transform="translate(97.412109 0)"/>
     <use xlink:href="#DejaVuSans-78" transform="translate(158.691406 0)"/>
     <use xlink:href="#DejaVuSans-3d" transform="translate(217.871094 0)"/>
     <use xlink:href="#DejaVuSans-34" transform="translate(301.660156 0)"/>
     <use xlink:href="#DejaVuSans-2e" transform="translate(365.283203 0)"/>
     <use xlink:href="#DejaVuSans-35" transform="translate(397.070312 0)"/>
     <use xlink:href="#DejaVuSans-32" transform="translate(460.693359 0)"/>
     <use xlink:href="#DejaVuSans-32" transform="translate(524.316406 0)"/>
    </g>
   </g>
   <g id="text_8">
    <!-- 10000 non-zero samples (μ=0.796, σ=0.596) of Array[1000000] x∈[0., 4.522] μ=0.399 σ=0.583 cpu:0 -->
    <g transform="translate(7.2 14.798437) scale(0.1 -0.1)">
     <defs>
      <path id="DejaVuSans-31" d="M 794 531 
L 1825 531 
L 1825 4091 
L 703 3866 
L 703 4441 
L 1819 4666 
L 2450 4666 
L 2450 531 
L 3481 531 
L 3481 0 
L 794 0 
L 794 531 
z
" transform="scale(0.015625)"/>
      <path id="DejaVuSans-20" transform="scale(0.015625)"/>
      <path id="DejaVuSans-6f" d="M 1959 3097 
Q 1497 3097 1228 2736 
Q 959 2375 959 1747 
Q 959 1119 1226 758 
Q 1494 397 1959 397 
Q 2419 397 2687 759 
Q 2956 1122 2956 1747 
Q 2956 2369 2687 2733 
Q 2419 3097 1959 3097 
z
M 1959 3584 
Q 2709 3584 3137 3096 
Q 3566 2609 3566 1747 
Q 3566 888 3137 398 
Q 2709 -91 1959 -91 
Q 1206 -91 779 398 
Q 353 888 353 1747 
Q 353 2609 779 3096 
Q 1206 3584 1959 3584 
z
" transform="scale(0.015625)"/>
      <path id="DejaVuSans-2d" d="M 313 2009 
L 1997 2009 
L 1997 1497 
L 313 1497 
L 313 2009 
z
" transform="scale(0.015625)"/>
      <path id="DejaVuSans-7a" d="M 353 3500 
L 3084 3500 
L 3084 2975 
L 922 459 
L 3084 459 
L 3084 0 
L 275 0 
L 275 525 
L 2438 3041 
L 353 3041 
L 353 3500 
z
" transform="scale(0.015625)"/>
      <path id="DejaVuSans-65" d="M 3597 1894 
L 3597 1613 
L 953 1613 
Q 991 1019 1311 708 
Q 1631 397 2203 397 
Q 2534 397 2845 478 
Q 3156 559 3463 722 
L 3463 178 
Q 3153 47 2828 -22 
Q 2503 -91 2169 -91 
Q 1331 -91 842 396 
Q 353 884 353 1716 
Q 353 2575 817 3079 
Q 1281 3584 2069 3584 
Q 2775 3584 3186 3129 
Q 3597 2675 3597 1894 
z
M 3022 2063 
Q 3016 2534 2758 2815 
Q 2500 3097 2075 3097 
Q 1594 3097 1305 2825 
Q 1016 2553 972 2059 
L 3022 2063 
z
" transform="scale(0.015625)"/>
      <path id="DejaVuSans-72" d="M 2631 2963 
Q 2534 3019 2420 3045 
Q 2306 3072 2169 3072 
Q 1681 3072 1420 2755 
Q 1159 2438 1159 1844 
L 1159 0 
L 581 0 
L 581 3500 
L 1159 3500 
L 1159 2956 
Q 1341 3275 1631 3429 
Q 1922 3584 2338 3584 
Q 2397 3584 2469 3576 
Q 2541 3569 2628 3553 
L 2631 2963 
z
" transform="scale(0.015625)"/>
      <path id="DejaVuSans-73" d="M 2834 3397 
L 2834 2853 
Q 2591 2978 2328 3040 
Q 2066 3103 1784 3103 
Q 1356 3103 1142 2972 
Q 928 2841 928 2578 
Q 928 2378 1081 2264 
Q 1234 2150 1697 2047 
L 1894 2003 
Q 2506 1872 2764 1633 
Q 3022 1394 3022 966 
Q 3022 478 2636 193 
Q 2250 -91 1575 -91 
Q 1294 -91 989 -36 
Q 684 19 347 128 
L 347 722 
Q 666 556 975 473 
Q 1284 391 1588 391 
Q 1994 391 2212 530 
Q 2431 669 2431 922 
Q 2431 1156 2273 1281 
Q 2116 1406 1581 1522 
L 1381 1569 
Q 847 1681 609 1914 
Q 372 2147 372 2553 
Q 372 3047 722 3315 
Q 1072 3584 1716 3584 
Q 2034 3584 2315 3537 
Q 2597 3491 2834 3397 
z
" transform="scale(0.015625)"/>
      <path id="DejaVuSans-70" d="M 1159 525 
L 1159 -1331 
L 581 -1331 
L 581 3500 
L 1159 3500 
L 1159 2969 
Q 1341 3281 1617 3432 
Q 1894 3584 2278 3584 
Q 2916 3584 3314 3078 
Q 3713 2572 3713 1747 
Q 3713 922 3314 415 
Q 2916 -91 2278 -91 
Q 1894 -91 1617 61 
Q 1341 213 1159 525 
z
M 3116 1747 
Q 3116 2381 2855 2742 
Q 2594 3103 2138 3103 
Q 1681 3103 1420 2742 
Q 1159 2381 1159 1747 
Q 1159 1113 1420 752 
Q 1681 391 2138 391 
Q 2594 391 2855 752 
Q 3116 1113 3116 1747 
z
" transform="scale(0.015625)"/>
      <path id="DejaVuSans-6c" d="M 603 4863 
L 1178 4863 
L 1178 0 
L 603 0 
L 603 4863 
z
" transform="scale(0.015625)"/>
      <path id="DejaVuSans-28" d="M 1984 4856 
Q 1566 4138 1362 3434 
Q 1159 2731 1159 2009 
Q 1159 1288 1364 580 
Q 1569 -128 1984 -844 
L 1484 -844 
Q 1016 -109 783 600 
Q 550 1309 550 2009 
Q 550 2706 781 3412 
Q 1013 4119 1484 4856 
L 1984 4856 
z
" transform="scale(0.015625)"/>
      <path id="DejaVuSans-3bc" d="M 544 -1331 
L 544 3500 
L 1119 3500 
L 1119 1325 
Q 1119 872 1334 640 
Q 1550 409 1972 409 
Q 2434 409 2667 671 
Q 2900 934 2900 1459 
L 2900 3500 
L 3475 3500 
L 3475 806 
Q 3475 619 3529 530 
Q 3584 441 3700 441 
Q 3728 441 3778 458 
Q 3828 475 3916 513 
L 3916 50 
Q 3788 -22 3673 -56 
Q 3559 -91 3450 -91 
Q 3234 -91 3106 31 
Q 2978 153 2931 403 
Q 2775 156 2548 32 
Q 2322 -91 2016 -91 
Q 1697 -91 1473 31 
Q 1250 153 1119 397 
L 1119 -1331 
L 544 -1331 
z
" transform="scale(0.015625)"/>
      <path id="DejaVuSans-37" d="M 525 4666 
L 3525 4666 
L 3525 4397 
L 1831 0 
L 1172 0 
L 2766 4134 
L 525 4134 
L 525 4666 
z
" transform="scale(0.015625)"/>
      <path id="DejaVuSans-39" d="M 703 97 
L 703 672 
Q 941 559 1184 500 
Q 1428 441 1663 441 
Q 2288 441 2617 861 
Q 2947 1281 2994 2138 
Q 2813 1869 2534 1725 
Q 2256 1581 1919 1581 
Q 1219 1581 811 2004 
Q 403 2428 403 3163 
Q 403 3881 828 4315 
Q 1253 4750 1959 4750 
Q 2769 4750 3195 4129 
Q 3622 3509 3622 2328 
Q 3622 1225 3098 567 
Q 2575 -91 1691 -91 
Q 1453 -91 1209 -44 
Q 966 3 703 97 
z
M 1959 2075 
Q 2384 2075 2632 2365 
Q 2881 2656 2881 3163 
Q 2881 3666 2632 3958 
Q 2384 4250 1959 4250 
Q 1534 4250 1286 3958 
Q 1038 3666 1038 3163 
Q 1038 2656 1286 2365 
Q 1534 2075 1959 2075 
z
" transform="scale(0.015625)"/>
      <path id="DejaVuSans-36" d="M 2113 2584 
Q 1688 2584 1439 2293 
Q 1191 2003 1191 1497 
Q 1191 994 1439 701 
Q 1688 409 2113 409 
Q 2538 409 2786 701 
Q 3034 994 3034 1497 
Q 3034 2003 2786 2293 
Q 2538 2584 2113 2584 
z
M 3366 4563 
L 3366 3988 
Q 3128 4100 2886 4159 
Q 2644 4219 2406 4219 
Q 1781 4219 1451 3797 
Q 1122 3375 1075 2522 
Q 1259 2794 1537 2939 
Q 1816 3084 2150 3084 
Q 2853 3084 3261 2657 
Q 3669 2231 3669 1497 
Q 3669 778 3244 343 
Q 2819 -91 2113 -91 
Q 1303 -91 875 529 
Q 447 1150 447 2328 
Q 447 3434 972 4092 
Q 1497 4750 2381 4750 
Q 2619 4750 2861 4703 
Q 3103 4656 3366 4563 
z
" transform="scale(0.015625)"/>
      <path id="DejaVuSans-2c" d="M 750 794 
L 1409 794 
L 1409 256 
L 897 -744 
L 494 -744 
L 750 256 
L 750 794 
z
" transform="scale(0.015625)"/>
      <path id="DejaVuSans-3c3" d="M 1959 3044 
Q 1484 3044 1228 2700 
Q 959 2341 959 1747 
Q 959 1119 1226 758 
Q 1494 397 1959 397 
Q 2419 397 2687 759 
Q 2956 1122 2956 1747 
Q 2956 2319 2688 2700 
Q 2441 3044 1959 3044 
z
M 1959 3500 
L 3869 3500 
L 3869 2925 
L 3225 2925 
Q 3566 2438 3566 1747 
Q 3566 888 3138 400 
Q 2709 -91 1959 -91 
Q 1206 -91 781 400 
Q 353 888 353 1747 
Q 353 2613 781 3097 
Q 1134 3500 1959 3500 
z
" transform="scale(0.015625)"/>
      <path id="DejaVuSans-29" d="M 513 4856 
L 1013 4856 
Q 1481 4119 1714 3412 
Q 1947 2706 1947 2009 
Q 1947 1309 1714 600 
Q 1481 -109 1013 -844 
L 513 -844 
Q 928 -128 1133 580 
Q 1338 1288 1338 2009 
Q 1338 2731 1133 3434 
Q 928 4138 513 4856 
z
" transform="scale(0.015625)"/>
      <path id="DejaVuSans-66" d="M 2375 4863 
L 2375 4384 
L 1825 4384 
Q 1516 4384 1395 4259 
Q 1275 4134 1275 3809 
L 1275 3500 
L 2222 3500 
L 2222 3053 
L 1275 3053 
L 1275 0 
L 697 0 
L 697 3053 
L 147 3053 
L 147 3500 
L 697 3500 
L 697 3744 
Q 697 4328 969 4595 
Q 1241 4863 1831 4863 
L 2375 4863 
z
" transform="scale(0.015625)"/>
      <path id="DejaVuSans-41" d="M 2188 4044 
L 1331 1722 
L 3047 1722 
L 2188 4044 
z
M 1831 4666 
L 2547 4666 
L 4325 0 
L 3669 0 
L 3244 1197 
L 1141 1197 
L 716 0 
L 50 0 
L 1831 4666 
z
" transform="scale(0.015625)"/>
      <path id="DejaVuSans-79" d="M 2059 -325 
Q 1816 -950 1584 -1140 
Q 1353 -1331 966 -1331 
L 506 -1331 
L 506 -850 
L 844 -850 
Q 1081 -850 1212 -737 
Q 1344 -625 1503 -206 
L 1606 56 
L 191 3500 
L 800 3500 
L 1894 763 
L 2988 3500 
L 3597 3500 
L 2059 -325 
z
" transform="scale(0.015625)"/>
      <path id="DejaVuSans-5b" d="M 550 4863 
L 1875 4863 
L 1875 4416 
L 1125 4416 
L 1125 -397 
L 1875 -397 
L 1875 -844 
L 550 -844 
L 550 4863 
z
" transform="scale(0.015625)"/>
      <path id="DejaVuSans-5d" d="M 1947 4863 
L 1947 -844 
L 622 -844 
L 622 -397 
L 1369 -397 
L 1369 4416 
L 622 4416 
L 622 4863 
L 1947 4863 
z
" transform="scale(0.015625)"/>
      <path id="DejaVuSans-2208" d="M 1072 1959 
Q 1094 1728 1291 1353 
Q 1522 919 1959 675 
Q 2388 438 2850 434 
L 5028 434 
L 5028 -63 
L 2850 -63 
Q 2250 -63 1695 246 
Q 1141 556 844 1106 
Q 547 1656 547 2241 
Q 547 2819 844 3369 
Q 1141 3919 1695 4231 
Q 2250 4544 2850 4544 
L 5028 4544 
L 5028 4047 
L 2850 4047 
Q 2388 4044 1959 3803 
Q 1525 3556 1291 3125 
Q 1091 2750 1063 2459 
L 5028 2459 
L 5028 1959 
L 1072 1959 
z
" transform="scale(0.015625)"/>
      <path id="DejaVuSans-33" d="M 2597 2516 
Q 3050 2419 3304 2112 
Q 3559 1806 3559 1356 
Q 3559 666 3084 287 
Q 2609 -91 1734 -91 
Q 1441 -91 1130 -33 
Q 819 25 488 141 
L 488 750 
Q 750 597 1062 519 
Q 1375 441 1716 441 
Q 2309 441 2620 675 
Q 2931 909 2931 1356 
Q 2931 1769 2642 2001 
Q 2353 2234 1838 2234 
L 1294 2234 
L 1294 2753 
L 1863 2753 
Q 2328 2753 2575 2939 
Q 2822 3125 2822 3475 
Q 2822 3834 2567 4026 
Q 2313 4219 1838 4219 
Q 1578 4219 1281 4162 
Q 984 4106 628 3988 
L 628 4550 
Q 988 4650 1302 4700 
Q 1616 4750 1894 4750 
Q 2613 4750 3031 4423 
Q 3450 4097 3450 3541 
Q 3450 3153 3228 2886 
Q 3006 2619 2597 2516 
z
" transform="scale(0.015625)"/>
      <path id="DejaVuSans-38" d="M 2034 2216 
Q 1584 2216 1326 1975 
Q 1069 1734 1069 1313 
Q 1069 891 1326 650 
Q 1584 409 2034 409 
Q 2484 409 2743 651 
Q 3003 894 3003 1313 
Q 3003 1734 2745 1975 
Q 2488 2216 2034 2216 
z
M 1403 2484 
Q 997 2584 770 2862 
Q 544 3141 544 3541 
Q 544 4100 942 4425 
Q 1341 4750 2034 4750 
Q 2731 4750 3128 4425 
Q 3525 4100 3525 3541 
Q 3525 3141 3298 2862 
Q 3072 2584 2669 2484 
Q 3125 2378 3379 2068 
Q 3634 1759 3634 1313 
Q 3634 634 3220 271 
Q 2806 -91 2034 -91 
Q 1263 -91 848 271 
Q 434 634 434 1313 
Q 434 1759 690 2068 
Q 947 2378 1403 2484 
z
M 1172 3481 
Q 1172 3119 1398 2916 
Q 1625 2713 2034 2713 
Q 2441 2713 2670 2916 
Q 2900 3119 2900 3481 
Q 2900 3844 2670 4047 
Q 2441 4250 2034 4250 
Q 1625 4250 1398 4047 
Q 1172 3844 1172 3481 
z
" transform="scale(0.015625)"/>
      <path id="DejaVuSans-63" d="M 3122 3366 
L 3122 2828 
Q 2878 2963 2633 3030 
Q 2388 3097 2138 3097 
Q 1578 3097 1268 2742 
Q 959 2388 959 1747 
Q 959 1106 1268 751 
Q 1578 397 2138 397 
Q 2388 397 2633 464 
Q 2878 531 3122 666 
L 3122 134 
Q 2881 22 2623 -34 
Q 2366 -91 2075 -91 
Q 1284 -91 818 406 
Q 353 903 353 1747 
Q 353 2603 823 3093 
Q 1294 3584 2113 3584 
Q 2378 3584 2631 3529 
Q 2884 3475 3122 3366 
z
" transform="scale(0.015625)"/>
      <path id="DejaVuSans-75" d="M 544 1381 
L 544 3500 
L 1119 3500 
L 1119 1403 
Q 1119 906 1312 657 
Q 1506 409 1894 409 
Q 2359 409 2629 706 
Q 2900 1003 2900 1516 
L 2900 3500 
L 3475 3500 
L 3475 0 
L 2900 0 
L 2900 538 
Q 2691 219 2414 64 
Q 2138 -91 1772 -91 
Q 1169 -91 856 284 
Q 544 659 544 1381 
z
M 1991 3584 
L 1991 3584 
z
" transform="scale(0.015625)"/>
      <path id="DejaVuSans-3a" d="M 750 794 
L 1409 794 
L 1409 0 
L 750 0 
L 750 794 
z
M 750 3309 
L 1409 3309 
L 1409 2516 
L 750 2516 
L 750 3309 
z
" transform="scale(0.015625)"/>
     </defs>
     <use xlink:href="#DejaVuSans-31"/>
     <use xlink:href="#DejaVuSans-30" transform="translate(63.623047 0)"/>
     <use xlink:href="#DejaVuSans-30" transform="translate(127.246094 0)"/>
     <use xlink:href="#DejaVuSans-30" transform="translate(190.869141 0)"/>
     <use xlink:href="#DejaVuSans-30" transform="translate(254.492188 0)"/>
     <use xlink:href="#DejaVuSans-20" transform="translate(318.115234 0)"/>
     <use xlink:href="#DejaVuSans-6e" transform="translate(349.902344 0)"/>
     <use xlink:href="#DejaVuSans-6f" transform="translate(413.28125 0)"/>
     <use xlink:href="#DejaVuSans-6e" transform="translate(474.462891 0)"/>
     <use xlink:href="#DejaVuSans-2d" transform="translate(537.841797 0)"/>
     <use xlink:href="#DejaVuSans-7a" transform="translate(573.925781 0)"/>
     <use xlink:href="#DejaVuSans-65" transform="translate(626.416016 0)"/>
     <use xlink:href="#DejaVuSans-72" transform="translate(687.939453 0)"/>
     <use xlink:href="#DejaVuSans-6f" transform="translate(726.802734 0)"/>
     <use xlink:href="#DejaVuSans-20" transform="translate(787.984375 0)"/>
     <use xlink:href="#DejaVuSans-73" transform="translate(819.771484 0)"/>
     <use xlink:href="#DejaVuSans-61" transform="translate(871.871094 0)"/>
     <use xlink:href="#DejaVuSans-6d" transform="translate(933.150391 0)"/>
     <use xlink:href="#DejaVuSans-70" transform="translate(1030.5625 0)"/>
     <use xlink:href="#DejaVuSans-6c" transform="translate(1094.039062 0)"/>
     <use xlink:href="#DejaVuSans-65" transform="translate(1121.822266 0)"/>
     <use xlink:href="#DejaVuSans-73" transform="translate(1183.345703 0)"/>
     <use xlink:href="#DejaVuSans-20" transform="translate(1235.445312 0)"/>
     <use xlink:href="#DejaVuSans-28" transform="translate(1267.232422 0)"/>
     <use xlink:href="#DejaVuSans-3bc" transform="translate(1306.246094 0)"/>
     <use xlink:href="#DejaVuSans-3d" transform="translate(1369.869141 0)"/>
     <use xlink:href="#DejaVuSans-30" transform="translate(1453.658203 0)"/>
     <use xlink:href="#DejaVuSans-2e" transform="translate(1517.28125 0)"/>
     <use xlink:href="#DejaVuSans-37" transform="translate(1549.068359 0)"/>
     <use xlink:href="#DejaVuSans-39" transform="translate(1612.691406 0)"/>
     <use xlink:href="#DejaVuSans-36" transform="translate(1676.314453 0)"/>
     <use xlink:href="#DejaVuSans-2c" transform="translate(1739.9375 0)"/>
     <use xlink:href="#DejaVuSans-20" transform="translate(1771.724609 0)"/>
     <use xlink:href="#DejaVuSans-3c3" transform="translate(1803.511719 0)"/>
     <use xlink:href="#DejaVuSans-3d" transform="translate(1866.890625 0)"/>
     <use xlink:href="#DejaVuSans-30" transform="translate(1950.679688 0)"/>
     <use xlink:href="#DejaVuSans-2e" transform="translate(2014.302734 0)"/>
     <use xlink:href="#DejaVuSans-35" transform="translate(2046.089844 0)"/>
     <use xlink:href="#DejaVuSans-39" transform="translate(2109.712891 0)"/>
     <use xlink:href="#DejaVuSans-36" transform="translate(2173.335938 0)"/>
     <use xlink:href="#DejaVuSans-29" transform="translate(2236.958984 0)"/>
     <use xlink:href="#DejaVuSans-20" transform="translate(2275.972656 0)"/>
     <use xlink:href="#DejaVuSans-6f" transform="translate(2307.759766 0)"/>
     <use xlink:href="#DejaVuSans-66" transform="translate(2368.941406 0)"/>
     <use xlink:href="#DejaVuSans-20" transform="translate(2404.146484 0)"/>
     <use xlink:href="#DejaVuSans-41" transform="translate(2435.933594 0)"/>
     <use xlink:href="#DejaVuSans-72" transform="translate(2504.341797 0)"/>
     <use xlink:href="#DejaVuSans-72" transform="translate(2543.705078 0)"/>
     <use xlink:href="#DejaVuSans-61" transform="translate(2584.818359 0)"/>
     <use xlink:href="#DejaVuSans-79" transform="translate(2646.097656 0)"/>
     <use xlink:href="#DejaVuSans-5b" transform="translate(2705.277344 0)"/>
     <use xlink:href="#DejaVuSans-31" transform="translate(2744.291016 0)"/>
     <use xlink:href="#DejaVuSans-30" transform="translate(2807.914062 0)"/>
     <use xlink:href="#DejaVuSans-30" transform="translate(2871.537109 0)"/>
     <use xlink:href="#DejaVuSans-30" transform="translate(2935.160156 0)"/>
     <use xlink:href="#DejaVuSans-30" transform="translate(2998.783203 0)"/>
     <use xlink:href="#DejaVuSans-30" transform="translate(3062.40625 0)"/>
     <use xlink:href="#DejaVuSans-30" transform="translate(3126.029297 0)"/>
     <use xlink:href="#DejaVuSans-5d" transform="translate(3189.652344 0)"/>
     <use xlink:href="#DejaVuSans-20" transform="translate(3228.666016 0)"/>
     <use xlink:href="#DejaVuSans-78" transform="translate(3260.453125 0)"/>
     <use xlink:href="#DejaVuSans-2208" transform="translate(3319.632812 0)"/>
     <use xlink:href="#DejaVuSans-5b" transform="translate(3406.742188 0)"/>
     <use xlink:href="#DejaVuSans-30" transform="translate(3445.755859 0)"/>
     <use xlink:href="#DejaVuSans-2e" transform="translate(3509.378906 0)"/>
     <use xlink:href="#DejaVuSans-2c" transform="translate(3541.166016 0)"/>
     <use xlink:href="#DejaVuSans-20" transform="translate(3572.953125 0)"/>
     <use xlink:href="#DejaVuSans-34" transform="translate(3604.740234 0)"/>
     <use xlink:href="#DejaVuSans-2e" transform="translate(3668.363281 0)"/>
     <use xlink:href="#DejaVuSans-35" transform="translate(3700.150391 0)"/>
     <use xlink:href="#DejaVuSans-32" transform="translate(3763.773438 0)"/>
     <use xlink:href="#DejaVuSans-32" transform="translate(3827.396484 0)"/>
     <use xlink:href="#DejaVuSans-5d" transform="translate(3891.019531 0)"/>
     <use xlink:href="#DejaVuSans-20" transform="translate(3930.033203 0)"/>
     <use xlink:href="#DejaVuSans-3bc" transform="translate(3961.820312 0)"/>
     <use xlink:href="#DejaVuSans-3d" transform="translate(4025.443359 0)"/>
     <use xlink:href="#DejaVuSans-30" transform="translate(4109.232422 0)"/>
     <use xlink:href="#DejaVuSans-2e" transform="translate(4172.855469 0)"/>
     <use xlink:href="#DejaVuSans-33" transform="translate(4204.642578 0)"/>
     <use xlink:href="#DejaVuSans-39" transform="translate(4268.265625 0)"/>
     <use xlink:href="#DejaVuSans-39" transform="translate(4331.888672 0)"/>
     <use xlink:href="#DejaVuSans-20" transform="translate(4395.511719 0)"/>
     <use xlink:href="#DejaVuSans-3c3" transform="translate(4427.298828 0)"/>
     <use xlink:href="#DejaVuSans-3d" transform="translate(4490.677734 0)"/>
     <use xlink:href="#DejaVuSans-30" transform="translate(4574.466797 0)"/>
     <use xlink:href="#DejaVuSans-2e" transform="translate(4638.089844 0)"/>
     <use xlink:href="#DejaVuSans-35" transform="translate(4669.876953 0)"/>
     <use xlink:href="#DejaVuSans-38" transform="translate(4733.5 0)"/>
     <use xlink:href="#DejaVuSans-33" transform="translate(4797.123047 0)"/>
     <use xlink:href="#DejaVuSans-20" transform="translate(4860.746094 0)"/>
     <use xlink:href="#DejaVuSans-63" transform="translate(4892.533203 0)"/>
     <use xlink:href="#DejaVuSans-70" transform="translate(4947.513672 0)"/>
     <use xlink:href="#DejaVuSans-75" transform="translate(5010.990234 0)"/>
     <use xlink:href="#DejaVuSans-3a" transform="translate(5074.369141 0)"/>
     <use xlink:href="#DejaVuSans-30" transform="translate(5108.060547 0)"/>
    </g>
   </g>
   <g id="patch_9">
    <path d="M 436.051454 128.528148 
L 444.473155 128.528148 
L 444.473155 50.565599 
L 436.051454 50.565599 
z
" clip-path="url(#p8015cfb9f8)" style="fill: #00bfff"/>
   </g>
   <g id="patch_10">
    <path d="M 444.473155 128.528148 
L 452.894856 128.528148 
L 452.894856 49.177225 
L 444.473155 49.177225 
z
" clip-path="url(#p8015cfb9f8)" style="fill: #00bfff"/>
   </g>
   <g id="patch_11">
    <path d="M 452.894856 128.528148 
L 461.316558 128.528148 
L 461.316558 53.662747 
L 452.894856 53.662747 
z
" clip-path="url(#p8015cfb9f8)" style="fill: #00bfff"/>
   </g>
   <g id="patch_12">
    <path d="M 461.316558 128.528148 
L 469.738258 128.528148 
L 469.738258 53.555937 
L 461.316558 53.555937 
z
" clip-path="url(#p8015cfb9f8)" style="fill: #00bfff"/>
   </g>
   <g id="patch_13">
    <path d="M 469.738258 128.528148 
L 478.159959 128.528148 
L 478.159959 52.915149 
L 469.738258 52.915149 
z
" clip-path="url(#p8015cfb9f8)" style="fill: #00bfff"/>
   </g>
   <g id="patch_14">
    <path d="M 478.159959 128.528148 
L 486.581662 128.528148 
L 486.581662 61.138618 
L 478.159959 61.138618 
z
" clip-path="url(#p8015cfb9f8)" style="fill: #00bfff"/>
   </g>
   <g id="patch_15">
    <path d="M 486.581662 128.528148 
L 495.00336 128.528148 
L 495.00336 60.818181 
L 486.581662 60.818181 
z
" clip-path="url(#p8015cfb9f8)" style="fill: #00bfff"/>
   </g>
   <g id="patch_16">
    <path d="M 495.00336 128.528148 
L 503.425063 128.528148 
L 503.425063 70.430043 
L 495.00336 70.430043 
z
" clip-path="url(#p8015cfb9f8)" style="fill: #00bfff"/>
   </g>
   <g id="patch_17">
    <path d="M 503.425063 128.528148 
L 511.846766 128.528148 
L 511.846766 72.993195 
L 503.425063 72.993195 
z
" clip-path="url(#p8015cfb9f8)" style="fill: #00bfff"/>
   </g>
   <g id="patch_18">
    <path d="M 511.846766 128.528148 
L 520.268464 128.528148 
L 520.268464 73.954342 
L 511.846766 73.954342 
z
" clip-path="url(#p8015cfb9f8)" style="fill: #00bfff"/>
   </g>
   <g id="patch_19">
    <path d="M 520.268464 128.528148 
L 528.690167 128.528148 
L 528.690167 78.54669 
L 520.268464 78.54669 
z
" clip-path="url(#p8015cfb9f8)" style="fill: #00bfff"/>
   </g>
   <g id="patch_20">
    <path d="M 528.690167 128.528148 
L 537.11187 128.528148 
L 537.11187 84.313781 
L 528.690167 84.313781 
z
" clip-path="url(#p8015cfb9f8)" style="fill: #00bfff"/>
   </g>
   <g id="patch_21">
    <path d="M 537.11187 128.528148 
L 545.533573 128.528148 
L 545.533573 85.702155 
L 537.11187 85.702155 
z
" clip-path="url(#p8015cfb9f8)" style="fill: #00bfff"/>
   </g>
   <g id="patch_22">
    <path d="M 545.533573 128.528148 
L 553.955266 128.528148 
L 553.955266 92.857574 
L 545.533573 92.857574 
z
" clip-path="url(#p8015cfb9f8)" style="fill: #00bfff"/>
   </g>
   <g id="patch_23">
    <path d="M 553.955266 128.528148 
L 562.376969 128.528148 
L 562.376969 96.809146 
L 553.955266 96.809146 
z
" clip-path="url(#p8015cfb9f8)" style="fill: #00bfff"/>
   </g>
   <g id="patch_24">
    <path d="M 562.376969 128.528148 
L 570.798672 128.528148 
L 570.798672 99.799489 
L 562.376969 99.799489 
z
" clip-path="url(#p8015cfb9f8)" style="fill: #00bfff"/>
   </g>
   <g id="patch_25">
    <path d="M 570.798672 128.528148 
L 579.220375 128.528148 
L 579.220375 102.362641 
L 570.798672 102.362641 
z
" clip-path="url(#p8015cfb9f8)" style="fill: #00bfff"/>
   </g>
   <g id="patch_26">
    <path d="M 579.220375 128.528148 
L 587.642078 128.528148 
L 587.642078 107.16855 
L 579.220375 107.16855 
z
" clip-path="url(#p8015cfb9f8)" style="fill: #00bfff"/>
   </g>
   <g id="patch_27">
    <path d="M 587.642078 128.528148 
L 596.063771 128.528148 
L 596.063771 110.692861 
L 587.642078 110.692861 
z
" clip-path="url(#p8015cfb9f8)" style="fill: #00bfff"/>
   </g>
   <g id="patch_28">
    <path d="M 596.063771 128.528148 
L 604.485474 128.528148 
L 604.485474 111.547268 
L 596.063771 111.547268 
z
" clip-path="url(#p8015cfb9f8)" style="fill: #00bfff"/>
   </g>
   <g id="patch_29">
    <path d="M 604.485474 128.528148 
L 612.907177 128.528148 
L 612.907177 114.751207 
L 604.485474 114.751207 
z
" clip-path="url(#p8015cfb9f8)" style="fill: #00bfff"/>
   </g>
   <g id="patch_30">
    <path d="M 612.907177 128.528148 
L 621.32888 128.528148 
L 621.32888 118.489137 
L 612.907177 118.489137 
z
" clip-path="url(#p8015cfb9f8)" style="fill: #00bfff"/>
   </g>
   <g id="patch_31">
    <path d="M 621.32888 128.528148 
L 629.750583 128.528148 
L 629.750583 120.411501 
L 621.32888 120.411501 
z
" clip-path="url(#p8015cfb9f8)" style="fill: #00bfff"/>
   </g>
   <g id="patch_32">
    <path d="M 629.750583 128.528148 
L 638.172287 128.528148 
L 638.172287 120.091107 
L 629.750583 120.091107 
z
" clip-path="url(#p8015cfb9f8)" style="fill: #00bfff"/>
   </g>
   <g id="patch_33">
    <path d="M 638.172287 128.528148 
L 646.59399 128.528148 
L 646.59399 122.974652 
L 638.172287 122.974652 
z
" clip-path="url(#p8015cfb9f8)" style="fill: #00bfff"/>
   </g>
   <g id="patch_34">
    <path d="M 646.59399 128.528148 
L 655.015693 128.528148 
L 655.015693 124.256228 
L 646.59399 124.256228 
z
" clip-path="url(#p8015cfb9f8)" style="fill: #00bfff"/>
   </g>
   <g id="patch_35">
    <path d="M 655.015693 128.528148 
L 663.437374 128.528148 
L 663.437374 124.897007 
L 655.015693 124.897007 
z
" clip-path="url(#p8015cfb9f8)" style="fill: #00bfff"/>
   </g>
   <g id="patch_36">
    <path d="M 663.437374 128.528148 
L 671.859078 128.528148 
L 671.859078 125.110612 
L 663.437374 125.110612 
z
" clip-path="url(#p8015cfb9f8)" style="fill: #00bfff"/>
   </g>
   <g id="patch_37">
    <path d="M 671.859078 128.528148 
L 680.280781 128.528148 
L 680.280781 125.644602 
L 671.859078 125.644602 
z
" clip-path="url(#p8015cfb9f8)" style="fill: #00bfff"/>
   </g>
   <g id="patch_38">
    <path d="M 680.280781 128.528148 
L 688.702484 128.528148 
L 688.702484 127.032976 
L 680.280781 127.032976 
z
" clip-path="url(#p8015cfb9f8)" style="fill: #00bfff"/>
   </g>
   <g id="patch_39">
    <path d="M 688.702484 128.528148 
L 697.124187 128.528148 
L 697.124187 127.246572 
L 688.702484 127.246572 
z
" clip-path="url(#p8015cfb9f8)" style="fill: #00bfff"/>
   </g>
   <g id="patch_40">
    <path d="M 697.124187 128.528148 
L 705.54589 128.528148 
L 705.54589 127.35337 
L 697.124187 127.35337 
z
" clip-path="url(#p8015cfb9f8)" style="fill: #00bfff"/>
   </g>
   <g id="patch_41">
    <path d="M 705.54589 128.528148 
L 713.967594 128.528148 
L 713.967594 127.780562 
L 705.54589 127.780562 
z
" clip-path="url(#p8015cfb9f8)" style="fill: #00bfff"/>
   </g>
   <g id="patch_42">
    <path d="M 713.967594 128.528148 
L 722.389297 128.528148 
L 722.389297 127.994158 
L 713.967594 127.994158 
z
" clip-path="url(#p8015cfb9f8)" style="fill: #00bfff"/>
   </g>
   <g id="patch_43">
    <path d="M 722.389297 128.528148 
L 730.811 128.528148 
L 730.811 128.207754 
L 722.389297 128.207754 
z
" clip-path="url(#p8015cfb9f8)" style="fill: #00bfff"/>
   </g>
   <g id="patch_44">
    <path d="M 730.811 128.528148 
L 739.232703 128.528148 
L 739.232703 128.207754 
L 730.811 128.207754 
z
" clip-path="url(#p8015cfb9f8)" style="fill: #00bfff"/>
   </g>
   <g id="patch_45">
    <path d="M 739.232703 128.528148 
L 747.654406 128.528148 
L 747.654406 128.42135 
L 739.232703 128.42135 
z
" clip-path="url(#p8015cfb9f8)" style="fill: #00bfff"/>
   </g>
   <g id="patch_46">
    <path d="M 747.654406 128.528148 
L 756.076088 128.528148 
L 756.076088 128.421349 
L 747.654406 128.421349 
z
" clip-path="url(#p8015cfb9f8)" style="fill: #00bfff"/>
   </g>
   <g id="patch_47">
    <path d="M 756.076088 128.528148 
L 764.497791 128.528148 
L 764.497791 128.528148 
L 756.076088 128.528148 
z
" clip-path="url(#p8015cfb9f8)" style="fill: #00bfff"/>
   </g>
   <g id="patch_48">
    <path d="M 764.497791 128.528148 
L 772.919494 128.528148 
L 772.919494 128.42135 
L 764.497791 128.42135 
z
" clip-path="url(#p8015cfb9f8)" style="fill: #00bfff"/>
   </g>
   <g id="patch_49">
    <path d="M 772.919494 128.528148 
L 781.341197 128.528148 
L 781.341197 128.528148 
L 772.919494 128.528148 
z
" clip-path="url(#p8015cfb9f8)" style="fill: #00bfff"/>
   </g>
   <g id="patch_50">
    <path d="M 781.341197 128.528148 
L 789.7629 128.528148 
L 789.7629 128.528148 
L 781.341197 128.528148 
z
" clip-path="url(#p8015cfb9f8)" style="fill: #00bfff"/>
   </g>
   <g id="patch_51">
    <path d="M 789.7629 128.528148 
L 798.184604 128.528148 
L 798.184604 128.528148 
L 789.7629 128.528148 
z
" clip-path="url(#p8015cfb9f8)" style="fill: #00bfff"/>
   </g>
   <g id="patch_52">
    <path d="M 798.184604 128.528148 
L 806.606285 128.528148 
L 806.606285 128.421349 
L 798.184604 128.421349 
z
" clip-path="url(#p8015cfb9f8)" style="fill: #00bfff"/>
   </g>
   <g id="line2d_21">
    <path d="M 7.2 128.528148 
L 15.866662 128.528148 
L 24.533324 128.528148 
L 33.199985 128.528148 
L 41.866647 128.528148 
L 50.533309 128.528148 
L 59.199971 128.528148 
L 67.866633 128.528148 
L 76.533295 128.528148 
L 85.199956 128.528148 
L 93.866618 128.528148 
L 102.53328 128.528148 
L 111.199942 128.528148 
L 119.866604 128.528148 
L 128.533265 128.528148 
L 137.199927 128.528148 
L 145.866589 128.528148 
L 154.533251 128.528148 
L 163.199913 128.528147 
L 171.866575 128.528147 
L 180.533236 128.528147 
L 189.199898 128.528145 
L 197.86656 128.528142 
L 206.533222 128.528135 
L 215.199884 128.528116 
L 223.866545 128.528075 
L 232.533207 128.527982 
L 241.199869 128.527779 
L 249.866531 128.527351 
L 258.533193 128.526468 
L 267.199855 128.524695 
L 275.866516 128.521229 
L 284.533178 128.514629 
L 293.19984 128.502397 
L 301.866502 128.480329 
L 310.533164 128.441577 
L 319.199825 128.375354 
L 327.866487 128.26524 
L 336.533149 128.087125 
L 345.199811 127.806908 
L 353.866473 127.378248 
L 362.533135 126.740832 
L 371.199796 125.819804 
L 379.866458 124.527156 
L 388.53312 122.76589 
L 397.199782 120.437582 
L 405.866444 117.453592 
L 414.533105 113.749493 
L 423.199767 109.301449 
L 431.866429 104.14242 
L 440.533091 98.375329 
L 449.199753 92.180082 
L 457.866415 85.811624 
L 466.533076 79.587277 
L 475.199738 73.863233 
L 483.8664 69.002126 
L 492.533062 65.335546 
L 501.199724 63.126783 
L 509.866385 62.539598 
L 518.533047 63.618156 
L 527.199709 66.281536 
L 535.866371 70.333764 
L 544.533033 75.487645 
L 553.199695 81.39837 
L 561.866356 87.701442 
L 570.533018 94.049162 
L 579.19968 100.140734 
L 587.866342 105.742658 
L 596.533004 110.698116 
L 605.199665 114.926014 
L 613.866327 118.411813 
L 622.532989 121.193141 
L 631.199651 123.343264 
L 639.866313 124.955101 
L 648.532975 126.127659 
L 657.199636 126.955897 
L 665.866298 127.524214 
L 674.53296 127.903191 
L 683.199622 128.148872 
L 691.866284 128.303748 
L 700.532945 128.398713 
L 709.199607 128.455363 
L 717.866269 128.488246 
L 726.532931 128.506822 
L 735.199593 128.517036 
L 743.866255 128.522503 
L 752.532916 128.525352 
L 761.199578 128.526798 
L 769.86624 128.527512 
L 778.532902 128.527856 
L 787.199564 128.528017 
L 795.866225 128.528091 
L 804.532887 128.528123 
L 813.199549 128.528138 
L 821.866211 128.528144 
L 830.532873 128.528146 
L 839.199535 128.528147 
L 847.866196 128.528147 
L 856.532858 128.528148 
L 865.19952 128.528148 
" clip-path="url(#p8015cfb9f8)" style="fill: none; stroke: #1f77b4; stroke-width: 1.5; stroke-linecap: square"/>
   </g>
   <g id="text_9">
    <g id="patch_53">
     <path d="M 174.264101 38.307963 
L 190.571914 38.307963 
Q 193.571914 38.307963 193.571914 35.307963 
L 193.571914 25.629838 
Q 193.571914 22.629838 190.571914 22.629838 
L 174.264101 22.629838 
Q 171.264101 22.629838 171.264101 25.629838 
L 171.264101 35.307963 
Q 171.264101 38.307963 174.264101 38.307963 
z
" style="fill: #ffffff"/>
    </g>
    <!-- -6σ -->
    <g transform="translate(174.264101 33.228276) scale(0.1 -0.1)">
     <use xlink:href="#DejaVuSans-2d"/>
     <use xlink:href="#DejaVuSans-36" transform="translate(36.083984 0)"/>
     <use xlink:href="#DejaVuSans-3c3" transform="translate(99.707031 0)"/>
    </g>
   </g>
   <g id="text_10">
    <g id="patch_54">
     <path d="M 228.624535 38.307963 
L 244.932348 38.307963 
Q 247.932348 38.307963 247.932348 35.307963 
L 247.932348 25.629838 
Q 247.932348 22.629838 244.932348 22.629838 
L 228.624535 22.629838 
Q 225.624535 22.629838 225.624535 25.629838 
L 225.624535 35.307963 
Q 225.624535 38.307963 228.624535 38.307963 
z
" style="fill: #ffffff"/>
    </g>
    <!-- -5σ -->
    <g transform="translate(228.624535 33.228276) scale(0.1 -0.1)">
     <use xlink:href="#DejaVuSans-2d"/>
     <use xlink:href="#DejaVuSans-35" transform="translate(36.083984 0)"/>
     <use xlink:href="#DejaVuSans-3c3" transform="translate(99.707031 0)"/>
    </g>
   </g>
   <g id="text_11">
    <g id="patch_55">
     <path d="M 282.984981 38.307963 
L 299.292793 38.307963 
Q 302.292793 38.307963 302.292793 35.307963 
L 302.292793 25.629838 
Q 302.292793 22.629838 299.292793 22.629838 
L 282.984981 22.629838 
Q 279.984981 22.629838 279.984981 25.629838 
L 279.984981 35.307963 
Q 279.984981 38.307963 282.984981 38.307963 
z
" style="fill: #ffffff"/>
    </g>
    <!-- -4σ -->
    <g transform="translate(282.984981 33.228276) scale(0.1 -0.1)">
     <use xlink:href="#DejaVuSans-2d"/>
     <use xlink:href="#DejaVuSans-34" transform="translate(36.083984 0)"/>
     <use xlink:href="#DejaVuSans-3c3" transform="translate(99.707031 0)"/>
    </g>
   </g>
   <g id="text_12">
    <g id="patch_56">
     <path d="M 337.345426 38.307963 
L 353.653238 38.307963 
Q 356.653238 38.307963 356.653238 35.307963 
L 356.653238 25.629838 
Q 356.653238 22.629838 353.653238 22.629838 
L 337.345426 22.629838 
Q 334.345426 22.629838 334.345426 25.629838 
L 334.345426 35.307963 
Q 334.345426 38.307963 337.345426 38.307963 
z
" style="fill: #ffffff"/>
    </g>
    <!-- -3σ -->
    <g transform="translate(337.345426 33.228276) scale(0.1 -0.1)">
     <use xlink:href="#DejaVuSans-2d"/>
     <use xlink:href="#DejaVuSans-33" transform="translate(36.083984 0)"/>
     <use xlink:href="#DejaVuSans-3c3" transform="translate(99.707031 0)"/>
    </g>
   </g>
   <g id="text_13">
    <g id="patch_57">
     <path d="M 391.705871 38.307963 
L 408.013683 38.307963 
Q 411.013683 38.307963 411.013683 35.307963 
L 411.013683 25.629838 
Q 411.013683 22.629838 408.013683 22.629838 
L 391.705871 22.629838 
Q 388.705871 22.629838 388.705871 25.629838 
L 388.705871 35.307963 
Q 388.705871 38.307963 391.705871 38.307963 
z
" style="fill: #ffffff"/>
    </g>
    <!-- -2σ -->
    <g transform="translate(391.705871 33.228276) scale(0.1 -0.1)">
     <use xlink:href="#DejaVuSans-2d"/>
     <use xlink:href="#DejaVuSans-32" transform="translate(36.083984 0)"/>
     <use xlink:href="#DejaVuSans-3c3" transform="translate(99.707031 0)"/>
    </g>
   </g>
   <g id="text_14">
    <g id="patch_58">
     <path d="M 449.247566 38.307963 
L 459.192879 38.307963 
Q 462.192879 38.307963 462.192879 35.307963 
L 462.192879 25.629838 
Q 462.192879 22.629838 459.192879 22.629838 
L 449.247566 22.629838 
Q 446.247566 22.629838 446.247566 25.629838 
L 446.247566 35.307963 
Q 446.247566 38.307963 449.247566 38.307963 
z
" style="fill: #ffffff"/>
    </g>
    <!-- -σ -->
    <g transform="translate(449.247566 33.228276) scale(0.1 -0.1)">
     <use xlink:href="#DejaVuSans-2d"/>
     <use xlink:href="#DejaVuSans-3c3" transform="translate(36.083984 0)"/>
    </g>
   </g>
   <g id="text_15">
    <g id="patch_59">
     <path d="M 504.901761 38.307963 
L 512.259574 38.307963 
Q 515.259574 38.307963 515.259574 35.307963 
L 515.259574 25.629838 
Q 515.259574 22.629838 512.259574 22.629838 
L 504.901761 22.629838 
Q 501.901761 22.629838 501.901761 25.629838 
L 501.901761 35.307963 
Q 501.901761 38.307963 504.901761 38.307963 
z
" style="fill: #ffffff"/>
    </g>
    <!-- μ -->
    <g transform="translate(504.901761 33.217338) scale(0.1 -0.1)">
     <defs>
      <path id="DejaVuSans-Bold-3bc" d="M 544 -1338 
L 544 3500 
L 1672 3500 
L 1672 1466 
Q 1672 1103 1828 926 
Q 1984 750 2303 750 
Q 2625 750 2781 926 
Q 2938 1103 2938 1466 
L 2938 3500 
L 4063 3500 
L 4063 1159 
Q 4063 938 4114 850 
Q 4166 763 4288 763 
Q 4344 763 4395 778 
Q 4447 794 4506 831 
L 4506 50 
Q 4341 -22 4195 -56 
Q 4050 -91 3909 -91 
Q 3631 -91 3454 26 
Q 3278 144 3169 403 
Q 3022 156 2811 32 
Q 2600 -91 2322 -91 
Q 2091 -91 1928 -17 
Q 1766 56 1672 206 
L 1672 -1338 
L 544 -1338 
z
" transform="scale(0.015625)"/>
     </defs>
     <use xlink:href="#DejaVuSans-Bold-3bc"/>
    </g>
   </g>
   <g id="text_16">
    <g id="patch_60">
     <path d="M 555.582519 38.307963 
L 570.299706 38.307963 
Q 573.299706 38.307963 573.299706 35.307963 
L 573.299706 25.629838 
Q 573.299706 22.629838 570.299706 22.629838 
L 555.582519 22.629838 
Q 552.582519 22.629838 552.582519 25.629838 
L 552.582519 35.307963 
Q 552.582519 38.307963 555.582519 38.307963 
z
" style="fill: #ffffff"/>
    </g>
    <!-- +σ -->
    <g transform="translate(555.582519 33.228276) scale(0.1 -0.1)">
     <defs>
      <path id="DejaVuSans-2b" d="M 2944 4013 
L 2944 2272 
L 4684 2272 
L 4684 1741 
L 2944 1741 
L 2944 0 
L 2419 0 
L 2419 1741 
L 678 1741 
L 678 2272 
L 2419 2272 
L 2419 4013 
L 2944 4013 
z
" transform="scale(0.015625)"/>
     </defs>
     <use xlink:href="#DejaVuSans-2b"/>
     <use xlink:href="#DejaVuSans-3c3" transform="translate(83.789062 0)"/>
    </g>
   </g>
   <g id="text_17">
    <g id="patch_61">
     <path d="M 606.761714 38.307963 
L 627.841402 38.307963 
Q 630.841402 38.307963 630.841402 35.307963 
L 630.841402 25.629838 
Q 630.841402 22.629838 627.841402 22.629838 
L 606.761714 22.629838 
Q 603.761714 22.629838 603.761714 25.629838 
L 603.761714 35.307963 
Q 603.761714 38.307963 606.761714 38.307963 
z
" style="fill: #ffffff"/>
    </g>
    <!-- +2σ -->
    <g transform="translate(606.761714 33.228276) scale(0.1 -0.1)">
     <use xlink:href="#DejaVuSans-2b"/>
     <use xlink:href="#DejaVuSans-32" transform="translate(83.789062 0)"/>
     <use xlink:href="#DejaVuSans-3c3" transform="translate(147.412109 0)"/>
    </g>
   </g>
   <g id="text_18">
    <g id="patch_62">
     <path d="M 661.122159 38.307963 
L 682.201847 38.307963 
Q 685.201847 38.307963 685.201847 35.307963 
L 685.201847 25.629838 
Q 685.201847 22.629838 682.201847 22.629838 
L 661.122159 22.629838 
Q 658.122159 22.629838 658.122159 25.629838 
L 658.122159 35.307963 
Q 658.122159 38.307963 661.122159 38.307963 
z
" style="fill: #ffffff"/>
    </g>
    <!-- +3σ -->
    <g transform="translate(661.122159 33.228276) scale(0.1 -0.1)">
     <use xlink:href="#DejaVuSans-2b"/>
     <use xlink:href="#DejaVuSans-33" transform="translate(83.789062 0)"/>
     <use xlink:href="#DejaVuSans-3c3" transform="translate(147.412109 0)"/>
    </g>
   </g>
   <g id="text_19">
    <g id="patch_63">
     <path d="M 715.482593 38.307963 
L 736.562281 38.307963 
Q 739.562281 38.307963 739.562281 35.307963 
L 739.562281 25.629838 
Q 739.562281 22.629838 736.562281 22.629838 
L 715.482593 22.629838 
Q 712.482593 22.629838 712.482593 25.629838 
L 712.482593 35.307963 
Q 712.482593 38.307963 715.482593 38.307963 
z
" style="fill: #ffffff"/>
    </g>
    <!-- +4σ -->
    <g transform="translate(715.482593 33.228276) scale(0.1 -0.1)">
     <use xlink:href="#DejaVuSans-2b"/>
     <use xlink:href="#DejaVuSans-34" transform="translate(83.789062 0)"/>
     <use xlink:href="#DejaVuSans-3c3" transform="translate(147.412109 0)"/>
    </g>
   </g>
   <g id="text_20">
    <g id="patch_64">
     <path d="M 769.843028 38.307963 
L 790.922715 38.307963 
Q 793.922715 38.307963 793.922715 35.307963 
L 793.922715 25.629838 
Q 793.922715 22.629838 790.922715 22.629838 
L 769.843028 22.629838 
Q 766.843028 22.629838 766.843028 25.629838 
L 766.843028 35.307963 
Q 766.843028 38.307963 769.843028 38.307963 
z
" style="fill: #ffffff"/>
    </g>
    <!-- +5σ -->
    <g transform="translate(769.843028 33.228276) scale(0.1 -0.1)">
     <use xlink:href="#DejaVuSans-2b"/>
     <use xlink:href="#DejaVuSans-35" transform="translate(83.789062 0)"/>
     <use xlink:href="#DejaVuSans-3c3" transform="translate(147.412109 0)"/>
    </g>
   </g>
   <g id="text_21">
    <g id="patch_65">
     <path d="M 824.203506 38.307963 
L 845.283193 38.307963 
Q 848.283193 38.307963 848.283193 35.307963 
L 848.283193 25.629838 
Q 848.283193 22.629838 845.283193 22.629838 
L 824.203506 22.629838 
Q 821.203506 22.629838 821.203506 25.629838 
L 821.203506 35.307963 
Q 821.203506 38.307963 824.203506 38.307963 
z
" style="fill: #ffffff"/>
    </g>
    <!-- +6σ -->
    <g transform="translate(824.203506 33.228276) scale(0.1 -0.1)">
     <use xlink:href="#DejaVuSans-2b"/>
     <use xlink:href="#DejaVuSans-36" transform="translate(83.789062 0)"/>
     <use xlink:href="#DejaVuSans-3c3" transform="translate(147.412109 0)"/>
    </g>
   </g>
  </g>
 </g>
 <defs>
  <clipPath id="p8015cfb9f8">
   <rect x="7.2" y="20.214138" width="857.99952" height="108.31401"/>
  </clipPath>
 </defs>
</svg>
