<?xml version="1.0" encoding="utf-8" standalone="no"?>
<!DOCTYPE svg PUBLIC "-//W3C//DTD SVG 1.1//EN"
  "http://www.w3.org/Graphics/SVG/1.1/DTD/svg11.dtd">
<svg xmlns:xlink="http://www.w3.org/1999/xlink" width="872.39952pt" height="152.406273pt" viewBox="0 0 872.39952 152.406273" xmlns="http://www.w3.org/2000/svg" version="1.1">
 <metadata>
  <rdf:RDF xmlns:dc="http://purl.org/dc/elements/1.1/" xmlns:cc="http://creativecommons.org/ns#" xmlns:rdf="http://www.w3.org/1999/02/22-rdf-syntax-ns#">
   <cc:Work>
    <dc:type rdf:resource="http://purl.org/dc/dcmitype/StillImage"/>
    <dc:format>image/svg+xml</dc:format>
    <dc:creator>
     <cc:Agent>
      <dc:title>Matplotlib, https://matplotlib.org/</dc:title>
     </cc:Agent>
    </dc:creator>
   </cc:Work>
  </rdf:RDF>
 </metadata>
 <defs>
  <style type="text/css">*{stroke-linejoin: round; stroke-linecap: butt}</style>
 </defs>
 <g id="figure_1">
  <g id="patch_1">
   <path d="M 0 152.406273 
L 872.39952 152.406273 
L 872.39952 0 
L 0 0 
z
" style="fill: #ffffff"/>
  </g>
  <g id="axes_1">
   <g id="patch_2">
    <path d="M 10.7 128.528148 
L 865.19952 128.528148 
L 865.19952 20.214138 
L 10.7 20.214138 
z
" style="fill: #ffffff"/>
   </g>
   <g id="matplotlib.axis_1">
    <g id="xtick_1">
     <g id="line2d_1">
      <defs>
       <path id="m8f1de1206a" d="M 0 0 
L 0 3.5 
" style="stroke: #000000; stroke-width: 0.8"/>
      </defs>
      <g>
       <use xlink:href="#m8f1de1206a" x="178.380823" y="128.528148" style="stroke: #000000; stroke-width: 0.8"/>
      </g>
     </g>
     <g id="text_1">
      <!-- 0 -->
      <g transform="translate(175.199573 143.126585) scale(0.1 -0.1)">
       <defs>
        <path id="DejaVuSans-30" d="M 2034 4250 
Q 1547 4250 1301 3770 
Q 1056 3291 1056 2328 
Q 1056 1369 1301 889 
Q 1547 409 2034 409 
Q 2525 409 2770 889 
Q 3016 1369 3016 2328 
Q 3016 3291 2770 3770 
Q 2525 4250 2034 4250 
z
M 2034 4750 
Q 2819 4750 3233 4129 
Q 3647 3509 3647 2328 
Q 3647 1150 3233 529 
Q 2819 -91 2034 -91 
Q 1250 -91 836 529 
Q 422 1150 422 2328 
Q 422 3509 836 4129 
Q 1250 4750 2034 4750 
z
" transform="scale(0.015625)"/>
       </defs>
       <use xlink:href="#DejaVuSans-30"/>
      </g>
     </g>
    </g>
    <g id="xtick_2">
     <g id="line2d_2">
      <g>
       <use xlink:href="#m8f1de1206a" x="350.574908" y="128.528148" style="stroke: #000000; stroke-width: 0.8"/>
      </g>
     </g>
     <g id="text_2">
      <!-- 2 -->
      <g transform="translate(347.393658 143.126585) scale(0.1 -0.1)">
       <defs>
        <path id="DejaVuSans-32" d="M 1228 531 
L 3431 531 
L 3431 0 
L 469 0 
L 469 531 
Q 828 903 1448 1529 
Q 2069 2156 2228 2338 
Q 2531 2678 2651 2914 
Q 2772 3150 2772 3378 
Q 2772 3750 2511 3984 
Q 2250 4219 1831 4219 
Q 1534 4219 1204 4116 
Q 875 4013 500 3803 
L 500 4441 
Q 881 4594 1212 4672 
Q 1544 4750 1819 4750 
Q 2544 4750 2975 4387 
Q 3406 4025 3406 3419 
Q 3406 3131 3298 2873 
Q 3191 2616 2906 2266 
Q 2828 2175 2409 1742 
Q 1991 1309 1228 531 
z
" transform="scale(0.015625)"/>
       </defs>
       <use xlink:href="#DejaVuSans-32"/>
      </g>
     </g>
    </g>
    <g id="xtick_3">
     <g id="line2d_3">
      <g>
       <use xlink:href="#m8f1de1206a" x="522.768993" y="128.528148" style="stroke: #000000; stroke-width: 0.8"/>
      </g>
     </g>
     <g id="text_3">
      <!-- 4 -->
      <g transform="translate(519.587743 143.126585) scale(0.1 -0.1)">
       <defs>
        <path id="DejaVuSans-34" d="M 2419 4116 
L 825 1625 
L 2419 1625 
L 2419 4116 
z
M 2253 4666 
L 3047 4666 
L 3047 1625 
L 3713 1625 
L 3713 1100 
L 3047 1100 
L 3047 0 
L 2419 0 
L 2419 1100 
L 313 1100 
L 313 1709 
L 2253 4666 
z
" transform="scale(0.015625)"/>
       </defs>
       <use xlink:href="#DejaVuSans-34"/>
      </g>
     </g>
    </g>
    <g id="xtick_4">
     <g id="line2d_4">
      <g>
       <use xlink:href="#m8f1de1206a" x="694.963078" y="128.528148" style="stroke: #000000; stroke-width: 0.8"/>
      </g>
     </g>
     <g id="text_4">
      <!-- 6 -->
      <g transform="translate(691.781828 143.126585) scale(0.1 -0.1)">
       <defs>
        <path id="DejaVuSans-36" d="M 2113 2584 
Q 1688 2584 1439 2293 
Q 1191 2003 1191 1497 
Q 1191 994 1439 701 
Q 1688 409 2113 409 
Q 2538 409 2786 701 
Q 3034 994 3034 1497 
Q 3034 2003 2786 2293 
Q 2538 2584 2113 2584 
z
M 3366 4563 
L 3366 3988 
Q 3128 4100 2886 4159 
Q 2644 4219 2406 4219 
Q 1781 4219 1451 3797 
Q 1122 3375 1075 2522 
Q 1259 2794 1537 2939 
Q 1816 3084 2150 3084 
Q 2853 3084 3261 2657 
Q 3669 2231 3669 1497 
Q 3669 778 3244 343 
Q 2819 -91 2113 -91 
Q 1303 -91 875 529 
Q 447 1150 447 2328 
Q 447 3434 972 4092 
Q 1497 4750 2381 4750 
Q 2619 4750 2861 4703 
Q 3103 4656 3366 4563 
z
" transform="scale(0.015625)"/>
       </defs>
       <use xlink:href="#DejaVuSans-36"/>
      </g>
     </g>
    </g>
   </g>
   <g id="matplotlib.axis_2"/>
   <g id="line2d_5">
    <path d="M 93.68995 128.528148 
L 93.68995 20.214138 
" clip-path="url(#pf3b17e29f2)" style="fill: none; stroke: #000000; stroke-width: 1.5; stroke-linecap: square"/>
   </g>
   <g id="line2d_6">
    <path d="M 179.713834 128.528148 
L 179.713834 20.214138 
" clip-path="url(#pf3b17e29f2)" style="fill: none; stroke: #000000; stroke-width: 1.5; stroke-linecap: square"/>
   </g>
   <g id="line2d_7">
    <path d="M 265.737718 128.528148 
L 265.737718 20.214138 
" clip-path="url(#pf3b17e29f2)" style="fill: none; stroke: #000000; stroke-width: 1.5; stroke-linecap: square"/>
   </g>
   <g id="line2d_8">
    <path d="M 351.761602 128.528148 
L 351.761602 20.214138 
" clip-path="url(#pf3b17e29f2)" style="fill: none; stroke: #000000; stroke-width: 1.5; stroke-linecap: square"/>
   </g>
   <g id="line2d_9">
    <path d="M 437.785486 128.528148 
L 437.785486 20.214138 
" clip-path="url(#pf3b17e29f2)" style="fill: none; stroke: #000000; stroke-width: 1.5; stroke-linecap: square"/>
   </g>
   <g id="line2d_10">
    <path d="M 523.80937 128.528148 
L 523.80937 20.214138 
" clip-path="url(#pf3b17e29f2)" style="fill: none; stroke: #000000; stroke-width: 1.5; stroke-linecap: square"/>
   </g>
   <g id="line2d_11">
    <path d="M 609.833254 128.528148 
L 609.833254 20.214138 
" clip-path="url(#pf3b17e29f2)" style="fill: none; stroke: #000000; stroke-width: 1.5; stroke-linecap: square"/>
   </g>
   <g id="line2d_12">
    <path d="M 695.857137 128.528148 
L 695.857137 20.214138 
" clip-path="url(#pf3b17e29f2)" style="fill: none; stroke: #000000; stroke-width: 1.5; stroke-linecap: square"/>
   </g>
   <g id="line2d_13">
    <path d="M 781.881021 128.528148 
L 781.881021 20.214138 
" clip-path="url(#pf3b17e29f2)" style="fill: none; stroke: #000000; stroke-width: 1.5; stroke-linecap: square"/>
   </g>
   <g id="line2d_14">
    <path d="M 27.126385 128.528148 
L 27.126385 20.214138 
" clip-path="url(#pf3b17e29f2)" style="fill: none; stroke: #ff0000; stroke-width: 1.5; stroke-linecap: square"/>
   </g>
   <g id="line2d_15">
    <path d="M 847.303237 128.528148 
L 847.303237 20.214138 
" clip-path="url(#pf3b17e29f2)" style="fill: none; stroke: #ff0000; stroke-width: 1.5; stroke-linecap: square"/>
   </g>
   <g id="patch_3">
    <path d="M 10.7 128.528148 
L 10.7 20.214138 
" style="fill: none; stroke: #000000; stroke-width: 0.8; stroke-linejoin: miter; stroke-linecap: square"/>
   </g>
   <g id="patch_4">
    <path d="M 865.19952 128.528148 
L 865.19952 20.214138 
" style="fill: none; stroke: #000000; stroke-width: 0.8; stroke-linejoin: miter; stroke-linecap: square"/>
   </g>
   <g id="patch_5">
    <path d="M 10.7 128.528148 
L 865.19952 128.528148 
" style="fill: none; stroke: #000000; stroke-width: 0.8; stroke-linejoin: miter; stroke-linecap: square"/>
   </g>
   <g id="patch_6">
    <path d="M 10.7 20.214138 
L 865.19952 20.214138 
" style="fill: none; stroke: #000000; stroke-width: 0.8; stroke-linejoin: miter; stroke-linecap: square"/>
   </g>
   <g id="text_5">
    <g id="patch_7">
     <path d="M 26.126385 104.10708 
L 26.126385 44.635205 
Q 26.126385 44.635205 26.126385 44.635205 
L 16.44826 44.635205 
Q 16.44826 44.635205 16.44826 44.635205 
L 16.44826 104.10708 
Q 16.44826 104.10708 16.44826 104.10708 
L 26.126385 104.10708 
Q 26.126385 104.10708 26.126385 104.10708 
z
" style="fill: #ffffff"/>
    </g>
    <!-- min=-1.757 -->
    <g transform="translate(24.046698 104.10708) rotate(-90) scale(0.1 -0.1)">
     <defs>
      <path id="DejaVuSans-6d" d="M 3328 2828 
Q 3544 3216 3844 3400 
Q 4144 3584 4550 3584 
Q 5097 3584 5394 3201 
Q 5691 2819 5691 2113 
L 5691 0 
L 5113 0 
L 5113 2094 
Q 5113 2597 4934 2840 
Q 4756 3084 4391 3084 
Q 3944 3084 3684 2787 
Q 3425 2491 3425 1978 
L 3425 0 
L 2847 0 
L 2847 2094 
Q 2847 2600 2669 2842 
Q 2491 3084 2119 3084 
Q 1678 3084 1418 2786 
Q 1159 2488 1159 1978 
L 1159 0 
L 581 0 
L 581 3500 
L 1159 3500 
L 1159 2956 
Q 1356 3278 1631 3431 
Q 1906 3584 2284 3584 
Q 2666 3584 2933 3390 
Q 3200 3197 3328 2828 
z
" transform="scale(0.015625)"/>
      <path id="DejaVuSans-69" d="M 603 3500 
L 1178 3500 
L 1178 0 
L 603 0 
L 603 3500 
z
M 603 4863 
L 1178 4863 
L 1178 4134 
L 603 4134 
L 603 4863 
z
" transform="scale(0.015625)"/>
      <path id="DejaVuSans-6e" d="M 3513 2113 
L 3513 0 
L 2938 0 
L 2938 2094 
Q 2938 2591 2744 2837 
Q 2550 3084 2163 3084 
Q 1697 3084 1428 2787 
Q 1159 2491 1159 1978 
L 1159 0 
L 581 0 
L 581 3500 
L 1159 3500 
L 1159 2956 
Q 1366 3272 1645 3428 
Q 1925 3584 2291 3584 
Q 2894 3584 3203 3211 
Q 3513 2838 3513 2113 
z
" transform="scale(0.015625)"/>
      <path id="DejaVuSans-3d" d="M 678 2906 
L 4684 2906 
L 4684 2381 
L 678 2381 
L 678 2906 
z
M 678 1631 
L 4684 1631 
L 4684 1100 
L 678 1100 
L 678 1631 
z
" transform="scale(0.015625)"/>
      <path id="DejaVuSans-2d" d="M 313 2009 
L 1997 2009 
L 1997 1497 
L 313 1497 
L 313 2009 
z
" transform="scale(0.015625)"/>
      <path id="DejaVuSans-31" d="M 794 531 
L 1825 531 
L 1825 4091 
L 703 3866 
L 703 4441 
L 1819 4666 
L 2450 4666 
L 2450 531 
L 3481 531 
L 3481 0 
L 794 0 
L 794 531 
z
" transform="scale(0.015625)"/>
      <path id="DejaVuSans-2e" d="M 684 794 
L 1344 794 
L 1344 0 
L 684 0 
L 684 794 
z
" transform="scale(0.015625)"/>
      <path id="DejaVuSans-37" d="M 525 4666 
L 3525 4666 
L 3525 4397 
L 1831 0 
L 1172 0 
L 2766 4134 
L 525 4134 
L 525 4666 
z
" transform="scale(0.015625)"/>
      <path id="DejaVuSans-35" d="M 691 4666 
L 3169 4666 
L 3169 4134 
L 1269 4134 
L 1269 2991 
Q 1406 3038 1543 3061 
Q 1681 3084 1819 3084 
Q 2600 3084 3056 2656 
Q 3513 2228 3513 1497 
Q 3513 744 3044 326 
Q 2575 -91 1722 -91 
Q 1428 -91 1123 -41 
Q 819 9 494 109 
L 494 744 
Q 775 591 1075 516 
Q 1375 441 1709 441 
Q 2250 441 2565 725 
Q 2881 1009 2881 1497 
Q 2881 1984 2565 2268 
Q 2250 2553 1709 2553 
Q 1456 2553 1204 2497 
Q 953 2441 691 2322 
L 691 4666 
z
" transform="scale(0.015625)"/>
     </defs>
     <use xlink:href="#DejaVuSans-6d"/>
     <use xlink:href="#DejaVuSans-69" x="97.412109"/>
     <use xlink:href="#DejaVuSans-6e" x="125.195312"/>
     <use xlink:href="#DejaVuSans-3d" x="188.574219"/>
     <use xlink:href="#DejaVuSans-2d" x="272.363281"/>
     <use xlink:href="#DejaVuSans-31" x="308.447266"/>
     <use xlink:href="#DejaVuSans-2e" x="372.070312"/>
     <use xlink:href="#DejaVuSans-37" x="403.857422"/>
     <use xlink:href="#DejaVuSans-35" x="467.480469"/>
     <use xlink:href="#DejaVuSans-37" x="531.103516"/>
    </g>
   </g>
   <g id="text_6">
    <g id="patch_8">
     <path d="M 858.981362 103.768799 
L 858.981362 44.973487 
Q 858.981362 44.973487 858.981362 44.973487 
L 849.303237 44.973487 
Q 849.303237 44.973487 849.303237 44.973487 
L 849.303237 103.768799 
Q 849.303237 103.768799 849.303237 103.768799 
L 858.981362 103.768799 
Q 858.981362 103.768799 858.981362 103.768799 
z
" style="fill: #ffffff"/>
    </g>
    <!-- max=7.769 -->
    <g transform="translate(856.901674 103.768799) rotate(-90) scale(0.1 -0.1)">
     <defs>
      <path id="DejaVuSans-61" d="M 2194 1759 
Q 1497 1759 1228 1600 
Q 959 1441 959 1056 
Q 959 750 1161 570 
Q 1363 391 1709 391 
Q 2188 391 2477 730 
Q 2766 1069 2766 1631 
L 2766 1759 
L 2194 1759 
z
M 3341 1997 
L 3341 0 
L 2766 0 
L 2766 531 
Q 2569 213 2275 61 
Q 1981 -91 1556 -91 
Q 1019 -91 701 211 
Q 384 513 384 1019 
Q 384 1609 779 1909 
Q 1175 2209 1959 2209 
L 2766 2209 
L 2766 2266 
Q 2766 2663 2505 2880 
Q 2244 3097 1772 3097 
Q 1472 3097 1187 3025 
Q 903 2953 641 2809 
L 641 3341 
Q 956 3463 1253 3523 
Q 1550 3584 1831 3584 
Q 2591 3584 2966 3190 
Q 3341 2797 3341 1997 
z
" transform="scale(0.015625)"/>
      <path id="DejaVuSans-78" d="M 3513 3500 
L 2247 1797 
L 3578 0 
L 2900 0 
L 1881 1375 
L 863 0 
L 184 0 
L 1544 1831 
L 300 3500 
L 978 3500 
L 1906 2253 
L 2834 3500 
L 3513 3500 
z
" transform="scale(0.015625)"/>
      <path id="DejaVuSans-39" d="M 703 97 
L 703 672 
Q 941 559 1184 500 
Q 1428 441 1663 441 
Q 2288 441 2617 861 
Q 2947 1281 2994 2138 
Q 2813 1869 2534 1725 
Q 2256 1581 1919 1581 
Q 1219 1581 811 2004 
Q 403 2428 403 3163 
Q 403 3881 828 4315 
Q 1253 4750 1959 4750 
Q 2769 4750 3195 4129 
Q 3622 3509 3622 2328 
Q 3622 1225 3098 567 
Q 2575 -91 1691 -91 
Q 1453 -91 1209 -44 
Q 966 3 703 97 
z
M 1959 2075 
Q 2384 2075 2632 2365 
Q 2881 2656 2881 3163 
Q 2881 3666 2632 3958 
Q 2384 4250 1959 4250 
Q 1534 4250 1286 3958 
Q 1038 3666 1038 3163 
Q 1038 2656 1286 2365 
Q 1534 2075 1959 2075 
z
" transform="scale(0.015625)"/>
     </defs>
     <use xlink:href="#DejaVuSans-6d"/>
     <use xlink:href="#DejaVuSans-61" x="97.412109"/>
     <use xlink:href="#DejaVuSans-78" x="158.691406"/>
     <use xlink:href="#DejaVuSans-3d" x="217.871094"/>
     <use xlink:href="#DejaVuSans-37" x="301.660156"/>
     <use xlink:href="#DejaVuSans-2e" x="365.283203"/>
     <use xlink:href="#DejaVuSans-37" x="397.070312"/>
     <use xlink:href="#DejaVuSans-36" x="460.693359"/>
     <use xlink:href="#DejaVuSans-39" x="524.316406"/>
    </g>
   </g>
   <g id="text_7">
    <!-- 10000 samples (μ=3.013, σ=0.999) of Array[1000000] x∈[-1.757, 7.769] μ=3.000 σ=1.001 gpu:0 -->
    <g transform="translate(10.7 14.798437) scale(0.1 -0.1)">
     <defs>
      <path id="DejaVuSans-20" transform="scale(0.015625)"/>
      <path id="DejaVuSans-73" d="M 2834 3397 
L 2834 2853 
Q 2591 2978 2328 3040 
Q 2066 3103 1784 3103 
Q 1356 3103 1142 2972 
Q 928 2841 928 2578 
Q 928 2378 1081 2264 
Q 1234 2150 1697 2047 
L 1894 2003 
Q 2506 1872 2764 1633 
Q 3022 1394 3022 966 
Q 3022 478 2636 193 
Q 2250 -91 1575 -91 
Q 1294 -91 989 -36 
Q 684 19 347 128 
L 347 722 
Q 666 556 975 473 
Q 1284 391 1588 391 
Q 1994 391 2212 530 
Q 2431 669 2431 922 
Q 2431 1156 2273 1281 
Q 2116 1406 1581 1522 
L 1381 1569 
Q 847 1681 609 1914 
Q 372 2147 372 2553 
Q 372 3047 722 3315 
Q 1072 3584 1716 3584 
Q 2034 3584 2315 3537 
Q 2597 3491 2834 3397 
z
" transform="scale(0.015625)"/>
      <path id="DejaVuSans-70" d="M 1159 525 
L 1159 -1331 
L 581 -1331 
L 581 3500 
L 1159 3500 
L 1159 2969 
Q 1341 3281 1617 3432 
Q 1894 3584 2278 3584 
Q 2916 3584 3314 3078 
Q 3713 2572 3713 1747 
Q 3713 922 3314 415 
Q 2916 -91 2278 -91 
Q 1894 -91 1617 61 
Q 1341 213 1159 525 
z
M 3116 1747 
Q 3116 2381 2855 2742 
Q 2594 3103 2138 3103 
Q 1681 3103 1420 2742 
Q 1159 2381 1159 1747 
Q 1159 1113 1420 752 
Q 1681 391 2138 391 
Q 2594 391 2855 752 
Q 3116 1113 3116 1747 
z
" transform="scale(0.015625)"/>
      <path id="DejaVuSans-6c" d="M 603 4863 
L 1178 4863 
L 1178 0 
L 603 0 
L 603 4863 
z
" transform="scale(0.015625)"/>
      <path id="DejaVuSans-65" d="M 3597 1894 
L 3597 1613 
L 953 1613 
Q 991 1019 1311 708 
Q 1631 397 2203 397 
Q 2534 397 2845 478 
Q 3156 559 3463 722 
L 3463 178 
Q 3153 47 2828 -22 
Q 2503 -91 2169 -91 
Q 1331 -91 842 396 
Q 353 884 353 1716 
Q 353 2575 817 3079 
Q 1281 3584 2069 3584 
Q 2775 3584 3186 3129 
Q 3597 2675 3597 1894 
z
M 3022 2063 
Q 3016 2534 2758 2815 
Q 2500 3097 2075 3097 
Q 1594 3097 1305 2825 
Q 1016 2553 972 2059 
L 3022 2063 
z
" transform="scale(0.015625)"/>
      <path id="DejaVuSans-28" d="M 1984 4856 
Q 1566 4138 1362 3434 
Q 1159 2731 1159 2009 
Q 1159 1288 1364 580 
Q 1569 -128 1984 -844 
L 1484 -844 
Q 1016 -109 783 600 
Q 550 1309 550 2009 
Q 550 2706 781 3412 
Q 1013 4119 1484 4856 
L 1984 4856 
z
" transform="scale(0.015625)"/>
      <path id="DejaVuSans-3bc" d="M 544 -1331 
L 544 3500 
L 1119 3500 
L 1119 1325 
Q 1119 872 1334 640 
Q 1550 409 1972 409 
Q 2434 409 2667 671 
Q 2900 934 2900 1459 
L 2900 3500 
L 3475 3500 
L 3475 806 
Q 3475 619 3529 530 
Q 3584 441 3700 441 
Q 3728 441 3778 458 
Q 3828 475 3916 513 
L 3916 50 
Q 3788 -22 3673 -56 
Q 3559 -91 3450 -91 
Q 3234 -91 3106 31 
Q 2978 153 2931 403 
Q 2775 156 2548 32 
Q 2322 -91 2016 -91 
Q 1697 -91 1473 31 
Q 1250 153 1119 397 
L 1119 -1331 
L 544 -1331 
z
" transform="scale(0.015625)"/>
      <path id="DejaVuSans-33" d="M 2597 2516 
Q 3050 2419 3304 2112 
Q 3559 1806 3559 1356 
Q 3559 666 3084 287 
Q 2609 -91 1734 -91 
Q 1441 -91 1130 -33 
Q 819 25 488 141 
L 488 750 
Q 750 597 1062 519 
Q 1375 441 1716 441 
Q 2309 441 2620 675 
Q 2931 909 2931 1356 
Q 2931 1769 2642 2001 
Q 2353 2234 1838 2234 
L 1294 2234 
L 1294 2753 
L 1863 2753 
Q 2328 2753 2575 2939 
Q 2822 3125 2822 3475 
Q 2822 3834 2567 4026 
Q 2313 4219 1838 4219 
Q 1578 4219 1281 4162 
Q 984 4106 628 3988 
L 628 4550 
Q 988 4650 1302 4700 
Q 1616 4750 1894 4750 
Q 2613 4750 3031 4423 
Q 3450 4097 3450 3541 
Q 3450 3153 3228 2886 
Q 3006 2619 2597 2516 
z
" transform="scale(0.015625)"/>
      <path id="DejaVuSans-2c" d="M 750 794 
L 1409 794 
L 1409 256 
L 897 -744 
L 494 -744 
L 750 256 
L 750 794 
z
" transform="scale(0.015625)"/>
      <path id="DejaVuSans-3c3" d="M 1959 3044 
Q 1484 3044 1228 2700 
Q 959 2341 959 1747 
Q 959 1119 1226 758 
Q 1494 397 1959 397 
Q 2419 397 2687 759 
Q 2956 1122 2956 1747 
Q 2956 2319 2688 2700 
Q 2441 3044 1959 3044 
z
M 1959 3500 
L 3869 3500 
L 3869 2925 
L 3225 2925 
Q 3566 2438 3566 1747 
Q 3566 888 3138 400 
Q 2709 -91 1959 -91 
Q 1206 -91 781 400 
Q 353 888 353 1747 
Q 353 2613 781 3097 
Q 1134 3500 1959 3500 
z
" transform="scale(0.015625)"/>
      <path id="DejaVuSans-29" d="M 513 4856 
L 1013 4856 
Q 1481 4119 1714 3412 
Q 1947 2706 1947 2009 
Q 1947 1309 1714 600 
Q 1481 -109 1013 -844 
L 513 -844 
Q 928 -128 1133 580 
Q 1338 1288 1338 2009 
Q 1338 2731 1133 3434 
Q 928 4138 513 4856 
z
" transform="scale(0.015625)"/>
      <path id="DejaVuSans-6f" d="M 1959 3097 
Q 1497 3097 1228 2736 
Q 959 2375 959 1747 
Q 959 1119 1226 758 
Q 1494 397 1959 397 
Q 2419 397 2687 759 
Q 2956 1122 2956 1747 
Q 2956 2369 2687 2733 
Q 2419 3097 1959 3097 
z
M 1959 3584 
Q 2709 3584 3137 3096 
Q 3566 2609 3566 1747 
Q 3566 888 3137 398 
Q 2709 -91 1959 -91 
Q 1206 -91 779 398 
Q 353 888 353 1747 
Q 353 2609 779 3096 
Q 1206 3584 1959 3584 
z
" transform="scale(0.015625)"/>
      <path id="DejaVuSans-66" d="M 2375 4863 
L 2375 4384 
L 1825 4384 
Q 1516 4384 1395 4259 
Q 1275 4134 1275 3809 
L 1275 3500 
L 2222 3500 
L 2222 3053 
L 1275 3053 
L 1275 0 
L 697 0 
L 697 3053 
L 147 3053 
L 147 3500 
L 697 3500 
L 697 3744 
Q 697 4328 969 4595 
Q 1241 4863 1831 4863 
L 2375 4863 
z
" transform="scale(0.015625)"/>
      <path id="DejaVuSans-41" d="M 2188 4044 
L 1331 1722 
L 3047 1722 
L 2188 4044 
z
M 1831 4666 
L 2547 4666 
L 4325 0 
L 3669 0 
L 3244 1197 
L 1141 1197 
L 716 0 
L 50 0 
L 1831 4666 
z
" transform="scale(0.015625)"/>
      <path id="DejaVuSans-72" d="M 2631 2963 
Q 2534 3019 2420 3045 
Q 2306 3072 2169 3072 
Q 1681 3072 1420 2755 
Q 1159 2438 1159 1844 
L 1159 0 
L 581 0 
L 581 3500 
L 1159 3500 
L 1159 2956 
Q 1341 3275 1631 3429 
Q 1922 3584 2338 3584 
Q 2397 3584 2469 3576 
Q 2541 3569 2628 3553 
L 2631 2963 
z
" transform="scale(0.015625)"/>
      <path id="DejaVuSans-79" d="M 2059 -325 
Q 1816 -950 1584 -1140 
Q 1353 -1331 966 -1331 
L 506 -1331 
L 506 -850 
L 844 -850 
Q 1081 -850 1212 -737 
Q 1344 -625 1503 -206 
L 1606 56 
L 191 3500 
L 800 3500 
L 1894 763 
L 2988 3500 
L 3597 3500 
L 2059 -325 
z
" transform="scale(0.015625)"/>
      <path id="DejaVuSans-5b" d="M 550 4863 
L 1875 4863 
L 1875 4416 
L 1125 4416 
L 1125 -397 
L 1875 -397 
L 1875 -844 
L 550 -844 
L 550 4863 
z
" transform="scale(0.015625)"/>
      <path id="DejaVuSans-5d" d="M 1947 4863 
L 1947 -844 
L 622 -844 
L 622 -397 
L 1369 -397 
L 1369 4416 
L 622 4416 
L 622 4863 
L 1947 4863 
z
" transform="scale(0.015625)"/>
      <path id="DejaVuSans-2208" d="M 1072 1959 
Q 1094 1728 1291 1353 
Q 1522 919 1959 675 
Q 2388 438 2850 434 
L 5028 434 
L 5028 -63 
L 2850 -63 
Q 2250 -63 1695 246 
Q 1141 556 844 1106 
Q 547 1656 547 2241 
Q 547 2819 844 3369 
Q 1141 3919 1695 4231 
Q 2250 4544 2850 4544 
L 5028 4544 
L 5028 4047 
L 2850 4047 
Q 2388 4044 1959 3803 
Q 1525 3556 1291 3125 
Q 1091 2750 1063 2459 
L 5028 2459 
L 5028 1959 
L 1072 1959 
z
" transform="scale(0.015625)"/>
      <path id="DejaVuSans-67" d="M 2906 1791 
Q 2906 2416 2648 2759 
Q 2391 3103 1925 3103 
Q 1463 3103 1205 2759 
Q 947 2416 947 1791 
Q 947 1169 1205 825 
Q 1463 481 1925 481 
Q 2391 481 2648 825 
Q 2906 1169 2906 1791 
z
M 3481 434 
Q 3481 -459 3084 -895 
Q 2688 -1331 1869 -1331 
Q 1566 -1331 1297 -1286 
Q 1028 -1241 775 -1147 
L 775 -588 
Q 1028 -725 1275 -790 
Q 1522 -856 1778 -856 
Q 2344 -856 2625 -561 
Q 2906 -266 2906 331 
L 2906 616 
Q 2728 306 2450 153 
Q 2172 0 1784 0 
Q 1141 0 747 490 
Q 353 981 353 1791 
Q 353 2603 747 3093 
Q 1141 3584 1784 3584 
Q 2172 3584 2450 3431 
Q 2728 3278 2906 2969 
L 2906 3500 
L 3481 3500 
L 3481 434 
z
" transform="scale(0.015625)"/>
      <path id="DejaVuSans-75" d="M 544 1381 
L 544 3500 
L 1119 3500 
L 1119 1403 
Q 1119 906 1312 657 
Q 1506 409 1894 409 
Q 2359 409 2629 706 
Q 2900 1003 2900 1516 
L 2900 3500 
L 3475 3500 
L 3475 0 
L 2900 0 
L 2900 538 
Q 2691 219 2414 64 
Q 2138 -91 1772 -91 
Q 1169 -91 856 284 
Q 544 659 544 1381 
z
M 1991 3584 
L 1991 3584 
z
" transform="scale(0.015625)"/>
      <path id="DejaVuSans-3a" d="M 750 794 
L 1409 794 
L 1409 0 
L 750 0 
L 750 794 
z
M 750 3309 
L 1409 3309 
L 1409 2516 
L 750 2516 
L 750 3309 
z
" transform="scale(0.015625)"/>
     </defs>
     <use xlink:href="#DejaVuSans-31"/>
     <use xlink:href="#DejaVuSans-30" x="63.623047"/>
     <use xlink:href="#DejaVuSans-30" x="127.246094"/>
     <use xlink:href="#DejaVuSans-30" x="190.869141"/>
     <use xlink:href="#DejaVuSans-30" x="254.492188"/>
     <use xlink:href="#DejaVuSans-20" x="318.115234"/>
     <use xlink:href="#DejaVuSans-73" x="349.902344"/>
     <use xlink:href="#DejaVuSans-61" x="402.001953"/>
     <use xlink:href="#DejaVuSans-6d" x="463.28125"/>
     <use xlink:href="#DejaVuSans-70" x="560.693359"/>
     <use xlink:href="#DejaVuSans-6c" x="624.169922"/>
     <use xlink:href="#DejaVuSans-65" x="651.953125"/>
     <use xlink:href="#DejaVuSans-73" x="713.476562"/>
     <use xlink:href="#DejaVuSans-20" x="765.576172"/>
     <use xlink:href="#DejaVuSans-28" x="797.363281"/>
     <use xlink:href="#DejaVuSans-3bc" x="836.376953"/>
     <use xlink:href="#DejaVuSans-3d" x="900"/>
     <use xlink:href="#DejaVuSans-33" x="983.789062"/>
     <use xlink:href="#DejaVuSans-2e" x="1047.412109"/>
     <use xlink:href="#DejaVuSans-30" x="1079.199219"/>
     <use xlink:href="#DejaVuSans-31" x="1142.822266"/>
     <use xlink:href="#DejaVuSans-33" x="1206.445312"/>
     <use xlink:href="#DejaVuSans-2c" x="1270.068359"/>
     <use xlink:href="#DejaVuSans-20" x="1301.855469"/>
     <use xlink:href="#DejaVuSans-3c3" x="1333.642578"/>
     <use xlink:href="#DejaVuSans-3d" x="1397.021484"/>
     <use xlink:href="#DejaVuSans-30" x="1480.810547"/>
     <use xlink:href="#DejaVuSans-2e" x="1544.433594"/>
     <use xlink:href="#DejaVuSans-39" x="1576.220703"/>
     <use xlink:href="#DejaVuSans-39" x="1639.84375"/>
     <use xlink:href="#DejaVuSans-39" x="1703.466797"/>
     <use xlink:href="#DejaVuSans-29" x="1767.089844"/>
     <use xlink:href="#DejaVuSans-20" x="1806.103516"/>
     <use xlink:href="#DejaVuSans-6f" x="1837.890625"/>
     <use xlink:href="#DejaVuSans-66" x="1899.072266"/>
     <use xlink:href="#DejaVuSans-20" x="1934.277344"/>
     <use xlink:href="#DejaVuSans-41" x="1966.064453"/>
     <use xlink:href="#DejaVuSans-72" x="2034.472656"/>
     <use xlink:href="#DejaVuSans-72" x="2073.835938"/>
     <use xlink:href="#DejaVuSans-61" x="2114.949219"/>
     <use xlink:href="#DejaVuSans-79" x="2176.228516"/>
     <use xlink:href="#DejaVuSans-5b" x="2235.408203"/>
     <use xlink:href="#DejaVuSans-31" x="2274.421875"/>
     <use xlink:href="#DejaVuSans-30" x="2338.044922"/>
     <use xlink:href="#DejaVuSans-30" x="2401.667969"/>
     <use xlink:href="#DejaVuSans-30" x="2465.291016"/>
     <use xlink:href="#DejaVuSans-30" x="2528.914062"/>
     <use xlink:href="#DejaVuSans-30" x="2592.537109"/>
     <use xlink:href="#DejaVuSans-30" x="2656.160156"/>
     <use xlink:href="#DejaVuSans-5d" x="2719.783203"/>
     <use xlink:href="#DejaVuSans-20" x="2758.796875"/>
     <use xlink:href="#DejaVuSans-78" x="2790.583984"/>
     <use xlink:href="#DejaVuSans-2208" x="2849.763672"/>
     <use xlink:href="#DejaVuSans-5b" x="2936.873047"/>
     <use xlink:href="#DejaVuSans-2d" x="2975.886719"/>
     <use xlink:href="#DejaVuSans-31" x="3011.970703"/>
     <use xlink:href="#DejaVuSans-2e" x="3075.59375"/>
     <use xlink:href="#DejaVuSans-37" x="3107.380859"/>
     <use xlink:href="#DejaVuSans-35" x="3171.003906"/>
     <use xlink:href="#DejaVuSans-37" x="3234.626953"/>
     <use xlink:href="#DejaVuSans-2c" x="3298.25"/>
     <use xlink:href="#DejaVuSans-20" x="3330.037109"/>
     <use xlink:href="#DejaVuSans-37" x="3361.824219"/>
     <use xlink:href="#DejaVuSans-2e" x="3425.447266"/>
     <use xlink:href="#DejaVuSans-37" x="3457.234375"/>
     <use xlink:href="#DejaVuSans-36" x="3520.857422"/>
     <use xlink:href="#DejaVuSans-39" x="3584.480469"/>
     <use xlink:href="#DejaVuSans-5d" x="3648.103516"/>
     <use xlink:href="#DejaVuSans-20" x="3687.117188"/>
     <use xlink:href="#DejaVuSans-3bc" x="3718.904297"/>
     <use xlink:href="#DejaVuSans-3d" x="3782.527344"/>
     <use xlink:href="#DejaVuSans-33" x="3866.316406"/>
     <use xlink:href="#DejaVuSans-2e" x="3929.939453"/>
     <use xlink:href="#DejaVuSans-30" x="3961.726562"/>
     <use xlink:href="#DejaVuSans-30" x="4025.349609"/>
     <use xlink:href="#DejaVuSans-30" x="4088.972656"/>
     <use xlink:href="#DejaVuSans-20" x="4152.595703"/>
     <use xlink:href="#DejaVuSans-3c3" x="4184.382812"/>
     <use xlink:href="#DejaVuSans-3d" x="4247.761719"/>
     <use xlink:href="#DejaVuSans-31" x="4331.550781"/>
     <use xlink:href="#DejaVuSans-2e" x="4395.173828"/>
     <use xlink:href="#DejaVuSans-30" x="4426.960938"/>
     <use xlink:href="#DejaVuSans-30" x="4490.583984"/>
     <use xlink:href="#DejaVuSans-31" x="4554.207031"/>
     <use xlink:href="#DejaVuSans-20" x="4617.830078"/>
     <use xlink:href="#DejaVuSans-67" x="4649.617188"/>
     <use xlink:href="#DejaVuSans-70" x="4713.09375"/>
     <use xlink:href="#DejaVuSans-75" x="4776.570312"/>
     <use xlink:href="#DejaVuSans-3a" x="4839.949219"/>
     <use xlink:href="#DejaVuSans-30" x="4873.640625"/>
    </g>
   </g>
   <g id="patch_9">
    <path d="M 91.067424 128.528148 
L 99.532312 128.528148 
L 99.532312 128.340999 
L 91.067424 128.340999 
z
" clip-path="url(#pf3b17e29f2)" style="fill: #00bfff"/>
   </g>
   <g id="patch_10">
    <path d="M 99.532312 128.528148 
L 107.997199 128.528148 
L 107.997199 128.528148 
L 99.532312 128.528148 
z
" clip-path="url(#pf3b17e29f2)" style="fill: #00bfff"/>
   </g>
   <g id="patch_11">
    <path d="M 107.997199 128.528148 
L 116.462086 128.528148 
L 116.462086 128.528148 
L 107.997199 128.528148 
z
" clip-path="url(#pf3b17e29f2)" style="fill: #00bfff"/>
   </g>
   <g id="patch_12">
    <path d="M 116.462086 128.528148 
L 124.926974 128.528148 
L 124.926974 128.340999 
L 116.462086 128.340999 
z
" clip-path="url(#pf3b17e29f2)" style="fill: #00bfff"/>
   </g>
   <g id="patch_13">
    <path d="M 124.926974 128.528148 
L 133.391861 128.528148 
L 133.391861 128.528148 
L 124.926974 128.528148 
z
" clip-path="url(#pf3b17e29f2)" style="fill: #00bfff"/>
   </g>
   <g id="patch_14">
    <path d="M 133.391861 128.528148 
L 141.856746 128.528148 
L 141.856746 128.340999 
L 133.391861 128.340999 
z
" clip-path="url(#pf3b17e29f2)" style="fill: #00bfff"/>
   </g>
   <g id="patch_15">
    <path d="M 141.856746 128.528148 
L 150.321633 128.528148 
L 150.321633 128.528148 
L 141.856746 128.528148 
z
" clip-path="url(#pf3b17e29f2)" style="fill: #00bfff"/>
   </g>
   <g id="patch_16">
    <path d="M 150.321633 128.528148 
L 158.786519 128.528148 
L 158.786519 128.15385 
L 150.321633 128.15385 
z
" clip-path="url(#pf3b17e29f2)" style="fill: #00bfff"/>
   </g>
   <g id="patch_17">
    <path d="M 158.786519 128.528148 
L 167.251405 128.528148 
L 167.251405 128.528148 
L 158.786519 128.528148 
z
" clip-path="url(#pf3b17e29f2)" style="fill: #00bfff"/>
   </g>
   <g id="patch_18">
    <path d="M 167.251405 128.528148 
L 175.716293 128.528148 
L 175.716293 128.340999 
L 167.251405 128.340999 
z
" clip-path="url(#pf3b17e29f2)" style="fill: #00bfff"/>
   </g>
   <g id="patch_19">
    <path d="M 175.716293 128.528148 
L 184.18118 128.528148 
L 184.18118 127.592404 
L 175.716293 127.592404 
z
" clip-path="url(#pf3b17e29f2)" style="fill: #00bfff"/>
   </g>
   <g id="patch_20">
    <path d="M 184.18118 128.528148 
L 192.646066 128.528148 
L 192.646066 127.405256 
L 184.18118 127.405256 
z
" clip-path="url(#pf3b17e29f2)" style="fill: #00bfff"/>
   </g>
   <g id="patch_21">
    <path d="M 192.646066 128.528148 
L 201.110952 128.528148 
L 201.110952 126.469512 
L 192.646066 126.469512 
z
" clip-path="url(#pf3b17e29f2)" style="fill: #00bfff"/>
   </g>
   <g id="patch_22">
    <path d="M 201.110952 128.528148 
L 209.57584 128.528148 
L 209.57584 126.282364 
L 201.110952 126.282364 
z
" clip-path="url(#pf3b17e29f2)" style="fill: #00bfff"/>
   </g>
   <g id="patch_23">
    <path d="M 209.57584 128.528148 
L 218.040727 128.528148 
L 218.040727 125.908067 
L 209.57584 125.908067 
z
" clip-path="url(#pf3b17e29f2)" style="fill: #00bfff"/>
   </g>
   <g id="patch_24">
    <path d="M 218.040727 128.528148 
L 226.505612 128.528148 
L 226.505612 125.159471 
L 218.040727 125.159471 
z
" clip-path="url(#pf3b17e29f2)" style="fill: #00bfff"/>
   </g>
   <g id="patch_25">
    <path d="M 226.505612 128.528148 
L 234.970499 128.528148 
L 234.970499 124.785175 
L 226.505612 124.785175 
z
" clip-path="url(#pf3b17e29f2)" style="fill: #00bfff"/>
   </g>
   <g id="patch_26">
    <path d="M 234.970499 128.528148 
L 243.435387 128.528148 
L 243.435387 122.539391 
L 234.970499 122.539391 
z
" clip-path="url(#pf3b17e29f2)" style="fill: #00bfff"/>
   </g>
   <g id="patch_27">
    <path d="M 243.435387 128.528148 
L 251.900274 128.528148 
L 251.900274 121.229351 
L 243.435387 121.229351 
z
" clip-path="url(#pf3b17e29f2)" style="fill: #00bfff"/>
   </g>
   <g id="patch_28">
    <path d="M 251.900274 128.528148 
L 260.365161 128.528148 
L 260.365161 122.165094 
L 251.900274 122.165094 
z
" clip-path="url(#pf3b17e29f2)" style="fill: #00bfff"/>
   </g>
   <g id="patch_29">
    <path d="M 260.365161 128.528148 
L 268.830049 128.528148 
L 268.830049 117.29923 
L 260.365161 117.29923 
z
" clip-path="url(#pf3b17e29f2)" style="fill: #00bfff"/>
   </g>
   <g id="patch_30">
    <path d="M 268.830049 128.528148 
L 277.294936 128.528148 
L 277.294936 118.234973 
L 268.830049 118.234973 
z
" clip-path="url(#pf3b17e29f2)" style="fill: #00bfff"/>
   </g>
   <g id="patch_31">
    <path d="M 277.294936 128.528148 
L 285.759824 128.528148 
L 285.759824 113.369109 
L 277.294936 113.369109 
z
" clip-path="url(#pf3b17e29f2)" style="fill: #00bfff"/>
   </g>
   <g id="patch_32">
    <path d="M 285.759824 128.528148 
L 294.224711 128.528148 
L 294.224711 112.620514 
L 285.759824 112.620514 
z
" clip-path="url(#pf3b17e29f2)" style="fill: #00bfff"/>
   </g>
   <g id="patch_33">
    <path d="M 294.224711 128.528148 
L 302.689598 128.528148 
L 302.689598 110.187582 
L 294.224711 110.187582 
z
" clip-path="url(#pf3b17e29f2)" style="fill: #00bfff"/>
   </g>
   <g id="patch_34">
    <path d="M 302.689598 128.528148 
L 311.154486 128.528148 
L 311.154486 107.006055 
L 302.689598 107.006055 
z
" clip-path="url(#pf3b17e29f2)" style="fill: #00bfff"/>
   </g>
   <g id="patch_35">
    <path d="M 311.154486 128.528148 
L 319.619373 128.528148 
L 319.619373 97.274326 
L 311.154486 97.274326 
z
" clip-path="url(#pf3b17e29f2)" style="fill: #00bfff"/>
   </g>
   <g id="patch_36">
    <path d="M 319.619373 128.528148 
L 328.08426 128.528148 
L 328.08426 100.83015 
L 319.619373 100.83015 
z
" clip-path="url(#pf3b17e29f2)" style="fill: #00bfff"/>
   </g>
   <g id="patch_37">
    <path d="M 328.08426 128.528148 
L 336.549148 128.528148 
L 336.549148 89.414084 
L 328.08426 89.414084 
z
" clip-path="url(#pf3b17e29f2)" style="fill: #00bfff"/>
   </g>
   <g id="patch_38">
    <path d="M 336.549148 128.528148 
L 345.014025 128.528148 
L 345.014025 93.905609 
L 336.549148 93.905609 
z
" clip-path="url(#pf3b17e29f2)" style="fill: #00bfff"/>
   </g>
   <g id="patch_39">
    <path d="M 345.014025 128.528148 
L 353.478923 128.528148 
L 353.478923 84.92257 
L 345.014025 84.92257 
z
" clip-path="url(#pf3b17e29f2)" style="fill: #00bfff"/>
   </g>
   <g id="patch_40">
    <path d="M 353.478923 128.528148 
L 361.9438 128.528148 
L 361.9438 78.185105 
L 353.478923 78.185105 
z
" clip-path="url(#pf3b17e29f2)" style="fill: #00bfff"/>
   </g>
   <g id="patch_41">
    <path d="M 361.9438 128.528148 
L 370.408697 128.528148 
L 370.408697 77.249485 
L 361.9438 77.249485 
z
" clip-path="url(#pf3b17e29f2)" style="fill: #00bfff"/>
   </g>
   <g id="patch_42">
    <path d="M 370.408697 128.528148 
L 378.873574 128.528148 
L 378.873574 74.06783 
L 370.408697 74.06783 
z
" clip-path="url(#pf3b17e29f2)" style="fill: #00bfff"/>
   </g>
   <g id="patch_43">
    <path d="M 378.873574 128.528148 
L 387.338472 128.528148 
L 387.338472 64.336245 
L 378.873574 64.336245 
z
" clip-path="url(#pf3b17e29f2)" style="fill: #00bfff"/>
   </g>
   <g id="patch_44">
    <path d="M 387.338472 128.528148 
L 395.803349 128.528148 
L 395.803349 68.640513 
L 387.338472 68.640513 
z
" clip-path="url(#pf3b17e29f2)" style="fill: #00bfff"/>
   </g>
   <g id="patch_45">
    <path d="M 395.803349 128.528148 
L 404.268247 128.528148 
L 404.268247 63.400503 
L 395.803349 63.400503 
z
" clip-path="url(#pf3b17e29f2)" style="fill: #00bfff"/>
   </g>
   <g id="patch_46">
    <path d="M 404.268247 128.528148 
L 412.733124 128.528148 
L 412.733124 50.861372 
L 404.268247 50.861372 
z
" clip-path="url(#pf3b17e29f2)" style="fill: #00bfff"/>
   </g>
   <g id="patch_47">
    <path d="M 412.733124 128.528148 
L 421.198022 128.528148 
L 421.198022 63.213355 
L 412.733124 63.213355 
z
" clip-path="url(#pf3b17e29f2)" style="fill: #00bfff"/>
   </g>
   <g id="patch_48">
    <path d="M 421.198022 128.528148 
L 429.662899 128.528148 
L 429.662899 59.844517 
L 421.198022 59.844517 
z
" clip-path="url(#pf3b17e29f2)" style="fill: #00bfff"/>
   </g>
   <g id="patch_49">
    <path d="M 429.662899 128.528148 
L 438.127776 128.528148 
L 438.127776 61.903155 
L 429.662899 61.903155 
z
" clip-path="url(#pf3b17e29f2)" style="fill: #00bfff"/>
   </g>
   <g id="patch_50">
    <path d="M 438.127776 128.528148 
L 446.592673 128.528148 
L 446.592673 49.177225 
L 438.127776 49.177225 
z
" clip-path="url(#pf3b17e29f2)" style="fill: #00bfff"/>
   </g>
   <g id="patch_51">
    <path d="M 446.592673 128.528148 
L 455.057551 128.528148 
L 455.057551 57.411582 
L 446.592673 57.411582 
z
" clip-path="url(#pf3b17e29f2)" style="fill: #00bfff"/>
   </g>
   <g id="patch_52">
    <path d="M 455.057551 128.528148 
L 463.522448 128.528148 
L 463.522448 56.476013 
L 455.057551 56.476013 
z
" clip-path="url(#pf3b17e29f2)" style="fill: #00bfff"/>
   </g>
   <g id="patch_53">
    <path d="M 463.522448 128.528148 
L 471.987325 128.528148 
L 471.987325 57.598731 
L 463.522448 57.598731 
z
" clip-path="url(#pf3b17e29f2)" style="fill: #00bfff"/>
   </g>
   <g id="patch_54">
    <path d="M 471.987325 128.528148 
L 480.452223 128.528148 
L 480.452223 60.967574 
L 471.987325 60.967574 
z
" clip-path="url(#pf3b17e29f2)" style="fill: #00bfff"/>
   </g>
   <g id="patch_55">
    <path d="M 480.452223 128.528148 
L 488.9171 128.528148 
L 488.9171 63.400345 
L 480.452223 63.400345 
z
" clip-path="url(#pf3b17e29f2)" style="fill: #00bfff"/>
   </g>
   <g id="patch_56">
    <path d="M 488.9171 128.528148 
L 497.381998 128.528148 
L 497.381998 67.517768 
L 488.9171 67.517768 
z
" clip-path="url(#pf3b17e29f2)" style="fill: #00bfff"/>
   </g>
   <g id="patch_57">
    <path d="M 497.381998 128.528148 
L 505.846875 128.528148 
L 505.846875 80.430891 
L 497.381998 80.430891 
z
" clip-path="url(#pf3b17e29f2)" style="fill: #00bfff"/>
   </g>
   <g id="patch_58">
    <path d="M 505.846875 128.528148 
L 514.311773 128.528148 
L 514.311773 72.757924 
L 505.846875 72.757924 
z
" clip-path="url(#pf3b17e29f2)" style="fill: #00bfff"/>
   </g>
   <g id="patch_59">
    <path d="M 514.311773 128.528148 
L 522.77667 128.528148 
L 522.77667 79.308118 
L 514.311773 79.308118 
z
" clip-path="url(#pf3b17e29f2)" style="fill: #00bfff"/>
   </g>
   <g id="patch_60">
    <path d="M 522.77667 128.528148 
L 531.241527 128.528148 
L 531.241527 81.179372 
L 522.77667 81.179372 
z
" clip-path="url(#pf3b17e29f2)" style="fill: #00bfff"/>
   </g>
   <g id="patch_61">
    <path d="M 531.241527 128.528148 
L 539.706424 128.528148 
L 539.706424 92.034209 
L 531.241527 92.034209 
z
" clip-path="url(#pf3b17e29f2)" style="fill: #00bfff"/>
   </g>
   <g id="patch_62">
    <path d="M 539.706424 128.528148 
L 548.171322 128.528148 
L 548.171322 93.344248 
L 539.706424 93.344248 
z
" clip-path="url(#pf3b17e29f2)" style="fill: #00bfff"/>
   </g>
   <g id="patch_63">
    <path d="M 548.171322 128.528148 
L 556.63622 128.528148 
L 556.63622 99.894442 
L 548.171322 99.894442 
z
" clip-path="url(#pf3b17e29f2)" style="fill: #00bfff"/>
   </g>
   <g id="patch_64">
    <path d="M 556.63622 128.528148 
L 565.101076 128.528148 
L 565.101076 103.262991 
L 556.63622 103.262991 
z
" clip-path="url(#pf3b17e29f2)" style="fill: #00bfff"/>
   </g>
   <g id="patch_65">
    <path d="M 565.101076 128.528148 
L 573.565974 128.528148 
L 573.565974 106.631784 
L 565.101076 106.631784 
z
" clip-path="url(#pf3b17e29f2)" style="fill: #00bfff"/>
   </g>
   <g id="patch_66">
    <path d="M 573.565974 128.528148 
L 582.030872 128.528148 
L 582.030872 107.567526 
L 573.565974 107.567526 
z
" clip-path="url(#pf3b17e29f2)" style="fill: #00bfff"/>
   </g>
   <g id="patch_67">
    <path d="M 582.030872 128.528148 
L 590.495769 128.528148 
L 590.495769 111.497643 
L 582.030872 111.497643 
z
" clip-path="url(#pf3b17e29f2)" style="fill: #00bfff"/>
   </g>
   <g id="patch_68">
    <path d="M 590.495769 128.528148 
L 598.960626 128.528148 
L 598.960626 114.3048 
L 590.495769 114.3048 
z
" clip-path="url(#pf3b17e29f2)" style="fill: #00bfff"/>
   </g>
   <g id="patch_69">
    <path d="M 598.960626 128.528148 
L 607.425523 128.528148 
L 607.425523 119.732173 
L 598.960626 119.732173 
z
" clip-path="url(#pf3b17e29f2)" style="fill: #00bfff"/>
   </g>
   <g id="patch_70">
    <path d="M 607.425523 128.528148 
L 615.890421 128.528148 
L 615.890421 118.422134 
L 607.425523 118.422134 
z
" clip-path="url(#pf3b17e29f2)" style="fill: #00bfff"/>
   </g>
   <g id="patch_71">
    <path d="M 615.890421 128.528148 
L 624.355278 128.528148 
L 624.355278 120.293578 
L 615.890421 120.293578 
z
" clip-path="url(#pf3b17e29f2)" style="fill: #00bfff"/>
   </g>
   <g id="patch_72">
    <path d="M 624.355278 128.528148 
L 632.820175 128.528148 
L 632.820175 122.913696 
L 624.355278 122.913696 
z
" clip-path="url(#pf3b17e29f2)" style="fill: #00bfff"/>
   </g>
   <g id="patch_73">
    <path d="M 632.820175 128.528148 
L 641.285073 128.528148 
L 641.285073 124.598031 
L 632.820175 124.598031 
z
" clip-path="url(#pf3b17e29f2)" style="fill: #00bfff"/>
   </g>
   <g id="patch_74">
    <path d="M 641.285073 128.528148 
L 649.749971 128.528148 
L 649.749971 125.533773 
L 641.285073 125.533773 
z
" clip-path="url(#pf3b17e29f2)" style="fill: #00bfff"/>
   </g>
   <g id="patch_75">
    <path d="M 649.749971 128.528148 
L 658.214827 128.528148 
L 658.214827 123.100818 
L 649.749971 123.100818 
z
" clip-path="url(#pf3b17e29f2)" style="fill: #00bfff"/>
   </g>
   <g id="patch_76">
    <path d="M 658.214827 128.528148 
L 666.679725 128.528148 
L 666.679725 125.533773 
L 658.214827 125.533773 
z
" clip-path="url(#pf3b17e29f2)" style="fill: #00bfff"/>
   </g>
   <g id="patch_77">
    <path d="M 666.679725 128.528148 
L 675.144622 128.528148 
L 675.144622 127.405257 
L 666.679725 127.405257 
z
" clip-path="url(#pf3b17e29f2)" style="fill: #00bfff"/>
   </g>
   <g id="patch_78">
    <path d="M 675.144622 128.528148 
L 683.60952 128.528148 
L 683.60952 126.282367 
L 675.144622 126.282367 
z
" clip-path="url(#pf3b17e29f2)" style="fill: #00bfff"/>
   </g>
   <g id="patch_79">
    <path d="M 683.60952 128.528148 
L 692.074377 128.528148 
L 692.074377 128.153849 
L 683.60952 128.153849 
z
" clip-path="url(#pf3b17e29f2)" style="fill: #00bfff"/>
   </g>
   <g id="patch_80">
    <path d="M 692.074377 128.528148 
L 700.539274 128.528148 
L 700.539274 127.592406 
L 692.074377 127.592406 
z
" clip-path="url(#pf3b17e29f2)" style="fill: #00bfff"/>
   </g>
   <g id="patch_81">
    <path d="M 700.539274 128.528148 
L 709.004172 128.528148 
L 709.004172 127.779554 
L 700.539274 127.779554 
z
" clip-path="url(#pf3b17e29f2)" style="fill: #00bfff"/>
   </g>
   <g id="patch_82">
    <path d="M 709.004172 128.528148 
L 717.46907 128.528148 
L 717.46907 128.153851 
L 709.004172 128.153851 
z
" clip-path="url(#pf3b17e29f2)" style="fill: #00bfff"/>
   </g>
   <g id="patch_83">
    <path d="M 717.46907 128.528148 
L 725.933926 128.528148 
L 725.933926 128.340998 
L 717.46907 128.340998 
z
" clip-path="url(#pf3b17e29f2)" style="fill: #00bfff"/>
   </g>
   <g id="patch_84">
    <path d="M 725.933926 128.528148 
L 734.398824 128.528148 
L 734.398824 128.153851 
L 725.933926 128.153851 
z
" clip-path="url(#pf3b17e29f2)" style="fill: #00bfff"/>
   </g>
   <g id="patch_85">
    <path d="M 734.398824 128.528148 
L 742.863721 128.528148 
L 742.863721 128.340999 
L 734.398824 128.340999 
z
" clip-path="url(#pf3b17e29f2)" style="fill: #00bfff"/>
   </g>
   <g id="patch_86">
    <path d="M 742.863721 128.528148 
L 751.328619 128.528148 
L 751.328619 128.528148 
L 742.863721 128.528148 
z
" clip-path="url(#pf3b17e29f2)" style="fill: #00bfff"/>
   </g>
   <g id="patch_87">
    <path d="M 751.328619 128.528148 
L 759.793476 128.528148 
L 759.793476 128.340998 
L 751.328619 128.340998 
z
" clip-path="url(#pf3b17e29f2)" style="fill: #00bfff"/>
   </g>
   <g id="patch_88">
    <path d="M 759.793476 128.528148 
L 768.258373 128.528148 
L 768.258373 128.340999 
L 759.793476 128.340999 
z
" clip-path="url(#pf3b17e29f2)" style="fill: #00bfff"/>
   </g>
   <g id="line2d_16">
    <path d="M 10.7 128.527821 
L 19.331308 128.527613 
L 27.962617 128.527281 
L 36.593925 128.526757 
L 45.225233 128.525939 
L 53.856541 128.524674 
L 62.48785 128.522739 
L 71.119158 128.519811 
L 79.750466 128.515426 
L 88.381775 128.508929 
L 97.013083 128.499405 
L 105.644391 128.485592 
L 114.275699 128.465771 
L 122.907008 128.437635 
L 131.538316 128.398124 
L 140.169624 128.343235 
L 148.800933 128.267809 
L 157.432241 128.165289 
L 166.063549 128.027463 
L 174.694857 127.844206 
L 183.326166 127.603233 
L 191.957474 127.289887 
L 200.588782 126.88699 
L 209.220091 126.374789 
L 217.851399 125.731033 
L 226.482707 124.931218 
L 235.114015 123.949035 
L 243.745324 122.757047 
L 252.376632 121.32763 
L 261.00794 119.634159 
L 269.639248 117.652447 
L 278.270557 115.362394 
L 286.901865 112.749782 
L 295.533173 109.808137 
L 304.164482 106.540539 
L 312.79579 102.961269 
L 321.427098 99.097134 
L 330.058406 94.988343 
L 338.689715 90.688799 
L 347.321023 86.265706 
L 355.952331 81.798413 
L 364.58364 77.376474 
L 373.214948 73.096959 
L 381.846256 69.061105 
L 390.477564 65.370449 
L 399.108873 62.122647 
L 407.740181 59.40721 
L 416.371489 57.301421 
L 425.002798 55.86668 
L 433.634106 55.145539 
L 442.265414 55.159598 
L 450.896722 55.908435 
L 459.528031 57.369625 
L 468.159339 59.499856 
L 476.790647 62.237061 
L 485.421956 65.503424 
L 494.053264 69.209045 
L 502.684572 73.256044 
L 511.31588 77.542819 
L 519.947189 81.968224 
L 528.578497 86.435417 
L 537.209805 90.855187 
L 545.841114 95.148619 
L 554.472422 99.248998 
L 563.10373 103.102939 
L 571.735038 106.670753 
L 580.366347 109.926129 
L 588.997655 112.855241 
L 597.628963 115.455401 
L 606.260272 117.733414 
L 614.89158 119.703755 
L 623.522888 121.386712 
L 632.154196 122.806593 
L 640.785505 123.990086 
L 649.416813 124.964831 
L 658.048121 125.758233 
L 666.679429 126.396546 
L 675.310738 126.904194 
L 683.942046 127.303337 
L 692.573354 127.61363 
L 701.204663 127.852153 
L 709.835971 128.03347 
L 718.467279 128.16978 
L 727.098587 128.27113 
L 735.729896 128.345664 
L 744.361204 128.399881 
L 752.992512 128.438893 
L 761.623821 128.466661 
L 770.255129 128.486215 
L 778.886437 128.499837 
L 787.517745 128.509225 
L 796.149054 128.515627 
L 804.780362 128.519946 
L 813.41167 128.522829 
L 822.042979 128.524733 
L 830.674287 128.525977 
L 839.305595 128.526782 
L 847.936903 128.527297 
L 856.568212 128.527623 
L 865.19952 128.527827 
" clip-path="url(#pf3b17e29f2)" style="fill: none; stroke: #1f77b4; stroke-width: 1.5; stroke-linecap: square"/>
   </g>
   <g id="text_8">
    <g id="patch_89">
     <path d="M 85.536044 38.307963 
L 101.843857 38.307963 
Q 104.843857 38.307963 104.843857 35.307963 
L 104.843857 25.629838 
Q 104.843857 22.629838 101.843857 22.629838 
L 85.536044 22.629838 
Q 82.536044 22.629838 82.536044 25.629838 
L 82.536044 35.307963 
Q 82.536044 38.307963 85.536044 38.307963 
z
" style="fill: #ffffff"/>
    </g>
    <!-- -4σ -->
    <g transform="translate(85.536044 33.228276) scale(0.1 -0.1)">
     <use xlink:href="#DejaVuSans-2d"/>
     <use xlink:href="#DejaVuSans-34" x="36.083984"/>
     <use xlink:href="#DejaVuSans-3c3" x="99.707031"/>
    </g>
   </g>
   <g id="text_9">
    <g id="patch_90">
     <path d="M 171.559928 38.307963 
L 187.867741 38.307963 
Q 190.867741 38.307963 190.867741 35.307963 
L 190.867741 25.629838 
Q 190.867741 22.629838 187.867741 22.629838 
L 171.559928 22.629838 
Q 168.559928 22.629838 168.559928 25.629838 
L 168.559928 35.307963 
Q 168.559928 38.307963 171.559928 38.307963 
z
" style="fill: #ffffff"/>
    </g>
    <!-- -3σ -->
    <g transform="translate(171.559928 33.228276) scale(0.1 -0.1)">
     <use xlink:href="#DejaVuSans-2d"/>
     <use xlink:href="#DejaVuSans-33" x="36.083984"/>
     <use xlink:href="#DejaVuSans-3c3" x="99.707031"/>
    </g>
   </g>
   <g id="text_10">
    <g id="patch_91">
     <path d="M 257.583812 38.307963 
L 273.891624 38.307963 
Q 276.891624 38.307963 276.891624 35.307963 
L 276.891624 25.629838 
Q 276.891624 22.629838 273.891624 22.629838 
L 257.583812 22.629838 
Q 254.583812 22.629838 254.583812 25.629838 
L 254.583812 35.307963 
Q 254.583812 38.307963 257.583812 38.307963 
z
" style="fill: #ffffff"/>
    </g>
    <!-- -2σ -->
    <g transform="translate(257.583812 33.228276) scale(0.1 -0.1)">
     <use xlink:href="#DejaVuSans-2d"/>
     <use xlink:href="#DejaVuSans-32" x="36.083984"/>
     <use xlink:href="#DejaVuSans-3c3" x="99.707031"/>
    </g>
   </g>
   <g id="text_11">
    <g id="patch_92">
     <path d="M 346.788946 38.307963 
L 356.734258 38.307963 
Q 359.734258 38.307963 359.734258 35.307963 
L 359.734258 25.629838 
Q 359.734258 22.629838 356.734258 22.629838 
L 346.788946 22.629838 
Q 343.788946 22.629838 343.788946 25.629838 
L 343.788946 35.307963 
Q 343.788946 38.307963 346.788946 38.307963 
z
" style="fill: #ffffff"/>
    </g>
    <!-- -σ -->
    <g transform="translate(346.788946 33.228276) scale(0.1 -0.1)">
     <use xlink:href="#DejaVuSans-2d"/>
     <use xlink:href="#DejaVuSans-3c3" x="36.083984"/>
    </g>
   </g>
   <g id="text_12">
    <g id="patch_93">
     <path d="M 434.10658 38.307963 
L 441.464392 38.307963 
Q 444.464392 38.307963 444.464392 35.307963 
L 444.464392 25.629838 
Q 444.464392 22.629838 441.464392 22.629838 
L 434.10658 22.629838 
Q 431.10658 22.629838 431.10658 25.629838 
L 431.10658 35.307963 
Q 431.10658 38.307963 434.10658 38.307963 
z
" style="fill: #ffffff"/>
    </g>
    <!-- μ -->
    <g transform="translate(434.10658 33.217338) scale(0.1 -0.1)">
     <defs>
      <path id="DejaVuSans-Bold-3bc" d="M 544 -1338 
L 544 3500 
L 1672 3500 
L 1672 1466 
Q 1672 1103 1828 926 
Q 1984 750 2303 750 
Q 2625 750 2781 926 
Q 2938 1103 2938 1466 
L 2938 3500 
L 4063 3500 
L 4063 1159 
Q 4063 938 4114 850 
Q 4166 763 4288 763 
Q 4344 763 4395 778 
Q 4447 794 4506 831 
L 4506 50 
Q 4341 -22 4195 -56 
Q 4050 -91 3909 -91 
Q 3631 -91 3454 26 
Q 3278 144 3169 403 
Q 3022 156 2811 32 
Q 2600 -91 2322 -91 
Q 2091 -91 1928 -17 
Q 1766 56 1672 206 
L 1672 -1338 
L 544 -1338 
z
" transform="scale(0.015625)"/>
     </defs>
     <use xlink:href="#DejaVuSans-Bold-3bc"/>
    </g>
   </g>
   <g id="text_13">
    <g id="patch_94">
     <path d="M 516.450776 38.307963 
L 531.167964 38.307963 
Q 534.167964 38.307963 534.167964 35.307963 
L 534.167964 25.629838 
Q 534.167964 22.629838 531.167964 22.629838 
L 516.450776 22.629838 
Q 513.450776 22.629838 513.450776 25.629838 
L 513.450776 35.307963 
Q 513.450776 38.307963 516.450776 38.307963 
z
" style="fill: #ffffff"/>
    </g>
    <!-- +σ -->
    <g transform="translate(516.450776 33.228276) scale(0.1 -0.1)">
     <defs>
      <path id="DejaVuSans-2b" d="M 2944 4013 
L 2944 2272 
L 4684 2272 
L 4684 1741 
L 2944 1741 
L 2944 0 
L 2419 0 
L 2419 1741 
L 678 1741 
L 678 2272 
L 2419 2272 
L 2419 4013 
L 2944 4013 
z
" transform="scale(0.015625)"/>
     </defs>
     <use xlink:href="#DejaVuSans-2b"/>
     <use xlink:href="#DejaVuSans-3c3" x="83.789062"/>
    </g>
   </g>
   <g id="text_14">
    <g id="patch_95">
     <path d="M 599.29341 38.307963 
L 620.373097 38.307963 
Q 623.373097 38.307963 623.373097 35.307963 
L 623.373097 25.629838 
Q 623.373097 22.629838 620.373097 22.629838 
L 599.29341 22.629838 
Q 596.29341 22.629838 596.29341 25.629838 
L 596.29341 35.307963 
Q 596.29341 38.307963 599.29341 38.307963 
z
" style="fill: #ffffff"/>
    </g>
    <!-- +2σ -->
    <g transform="translate(599.29341 33.228276) scale(0.1 -0.1)">
     <use xlink:href="#DejaVuSans-2b"/>
     <use xlink:href="#DejaVuSans-32" x="83.789062"/>
     <use xlink:href="#DejaVuSans-3c3" x="147.412109"/>
    </g>
   </g>
   <g id="text_15">
    <g id="patch_96">
     <path d="M 685.317294 38.307963 
L 706.396981 38.307963 
Q 709.396981 38.307963 709.396981 35.307963 
L 709.396981 25.629838 
Q 709.396981 22.629838 706.396981 22.629838 
L 685.317294 22.629838 
Q 682.317294 22.629838 682.317294 25.629838 
L 682.317294 35.307963 
Q 682.317294 38.307963 685.317294 38.307963 
z
" style="fill: #ffffff"/>
    </g>
    <!-- +3σ -->
    <g transform="translate(685.317294 33.228276) scale(0.1 -0.1)">
     <use xlink:href="#DejaVuSans-2b"/>
     <use xlink:href="#DejaVuSans-33" x="83.789062"/>
     <use xlink:href="#DejaVuSans-3c3" x="147.412109"/>
    </g>
   </g>
   <g id="text_16">
    <g id="patch_97">
     <path d="M 771.341178 38.307963 
L 792.420865 38.307963 
Q 795.420865 38.307963 795.420865 35.307963 
L 795.420865 25.629838 
Q 795.420865 22.629838 792.420865 22.629838 
L 771.341178 22.629838 
Q 768.341178 22.629838 768.341178 25.629838 
L 768.341178 35.307963 
Q 768.341178 38.307963 771.341178 38.307963 
z
" style="fill: #ffffff"/>
    </g>
    <!-- +4σ -->
    <g transform="translate(771.341178 33.228276) scale(0.1 -0.1)">
     <use xlink:href="#DejaVuSans-2b"/>
     <use xlink:href="#DejaVuSans-34" x="83.789062"/>
     <use xlink:href="#DejaVuSans-3c3" x="147.412109"/>
    </g>
   </g>
  </g>
 </g>
 <defs>
  <clipPath id="pf3b17e29f2">
   <rect x="10.7" y="20.214138" width="854.49952" height="108.31401"/>
  </clipPath>
 </defs>
</svg>
