<?xml version="1.0" encoding="utf-8" standalone="no"?>
<!DOCTYPE svg PUBLIC "-//W3C//DTD SVG 1.1//EN"
  "http://www.w3.org/Graphics/SVG/1.1/DTD/svg11.dtd">
<svg xmlns:xlink="http://www.w3.org/1999/xlink" width="872.39952pt" height="152.406273pt" viewBox="0 0 872.39952 152.406273" xmlns="http://www.w3.org/2000/svg" version="1.1">
 <metadata>
  <rdf:RDF xmlns:dc="http://purl.org/dc/elements/1.1/" xmlns:cc="http://creativecommons.org/ns#" xmlns:rdf="http://www.w3.org/1999/02/22-rdf-syntax-ns#">
   <cc:Work>
    <dc:type rdf:resource="http://purl.org/dc/dcmitype/StillImage"/>
    <dc:format>image/svg+xml</dc:format>
    <dc:creator>
     <cc:Agent>
      <dc:title>Matplotlib, https://matplotlib.org/</dc:title>
     </cc:Agent>
    </dc:creator>
   </cc:Work>
  </rdf:RDF>
 </metadata>
 <defs>
  <style type="text/css">*{stroke-linejoin: round; stroke-linecap: butt}</style>
 </defs>
 <g id="figure_1">
  <g id="patch_1">
   <path d="M 0 152.406273 
L 872.39952 152.406273 
L 872.39952 0 
L 0 0 
z
" style="fill: #ffffff"/>
  </g>
  <g id="axes_1">
   <g id="patch_2">
    <path d="M 10.7 128.528148 
L 865.19952 128.528148 
L 865.19952 20.214138 
L 10.7 20.214138 
z
" style="fill: #ffffff"/>
   </g>
   <g id="matplotlib.axis_1">
    <g id="xtick_1">
     <g id="line2d_1">
      <defs>
       <path id="m8f1de1206a" d="M 0 0 
L 0 3.5 
" style="stroke: #000000; stroke-width: 0.8"/>
      </defs>
      <g>
       <use xlink:href="#m8f1de1206a" x="126.680106" y="128.528148" style="stroke: #000000; stroke-width: 0.8"/>
      </g>
     </g>
     <g id="text_1">
      <!-- −2 -->
      <g transform="translate(119.309013 143.126585) scale(0.1 -0.1)">
       <defs>
        <path id="DejaVuSans-2212" d="M 678 2272 
L 4684 2272 
L 4684 1741 
L 678 1741 
L 678 2272 
z
" transform="scale(0.015625)"/>
        <path id="DejaVuSans-32" d="M 1228 531 
L 3431 531 
L 3431 0 
L 469 0 
L 469 531 
Q 828 903 1448 1529 
Q 2069 2156 2228 2338 
Q 2531 2678 2651 2914 
Q 2772 3150 2772 3378 
Q 2772 3750 2511 3984 
Q 2250 4219 1831 4219 
Q 1534 4219 1204 4116 
Q 875 4013 500 3803 
L 500 4441 
Q 881 4594 1212 4672 
Q 1544 4750 1819 4750 
Q 2544 4750 2975 4387 
Q 3406 4025 3406 3419 
Q 3406 3131 3298 2873 
Q 3191 2616 2906 2266 
Q 2828 2175 2409 1742 
Q 1991 1309 1228 531 
z
" transform="scale(0.015625)"/>
       </defs>
       <use xlink:href="#DejaVuSans-2212"/>
       <use xlink:href="#DejaVuSans-32" x="83.789062"/>
      </g>
     </g>
    </g>
    <g id="xtick_2">
     <g id="line2d_2">
      <g>
       <use xlink:href="#m8f1de1206a" x="282.232801" y="128.528148" style="stroke: #000000; stroke-width: 0.8"/>
      </g>
     </g>
     <g id="text_2">
      <!-- −1 -->
      <g transform="translate(274.861708 143.126585) scale(0.1 -0.1)">
       <defs>
        <path id="DejaVuSans-31" d="M 794 531 
L 1825 531 
L 1825 4091 
L 703 3866 
L 703 4441 
L 1819 4666 
L 2450 4666 
L 2450 531 
L 3481 531 
L 3481 0 
L 794 0 
L 794 531 
z
" transform="scale(0.015625)"/>
       </defs>
       <use xlink:href="#DejaVuSans-2212"/>
       <use xlink:href="#DejaVuSans-31" x="83.789062"/>
      </g>
     </g>
    </g>
    <g id="xtick_3">
     <g id="line2d_3">
      <g>
       <use xlink:href="#m8f1de1206a" x="437.785496" y="128.528148" style="stroke: #000000; stroke-width: 0.8"/>
      </g>
     </g>
     <g id="text_3">
      <!-- 0 -->
      <g transform="translate(434.604246 143.126585) scale(0.1 -0.1)">
       <defs>
        <path id="DejaVuSans-30" d="M 2034 4250 
Q 1547 4250 1301 3770 
Q 1056 3291 1056 2328 
Q 1056 1369 1301 889 
Q 1547 409 2034 409 
Q 2525 409 2770 889 
Q 3016 1369 3016 2328 
Q 3016 3291 2770 3770 
Q 2525 4250 2034 4250 
z
M 2034 4750 
Q 2819 4750 3233 4129 
Q 3647 3509 3647 2328 
Q 3647 1150 3233 529 
Q 2819 -91 2034 -91 
Q 1250 -91 836 529 
Q 422 1150 422 2328 
Q 422 3509 836 4129 
Q 1250 4750 2034 4750 
z
" transform="scale(0.015625)"/>
       </defs>
       <use xlink:href="#DejaVuSans-30"/>
      </g>
     </g>
    </g>
    <g id="xtick_4">
     <g id="line2d_4">
      <g>
       <use xlink:href="#m8f1de1206a" x="593.338191" y="128.528148" style="stroke: #000000; stroke-width: 0.8"/>
      </g>
     </g>
     <g id="text_4">
      <!-- 1 -->
      <g transform="translate(590.156941 143.126585) scale(0.1 -0.1)">
       <use xlink:href="#DejaVuSans-31"/>
      </g>
     </g>
    </g>
    <g id="xtick_5">
     <g id="line2d_5">
      <g>
       <use xlink:href="#m8f1de1206a" x="748.890886" y="128.528148" style="stroke: #000000; stroke-width: 0.8"/>
      </g>
     </g>
     <g id="text_5">
      <!-- 2 -->
      <g transform="translate(745.709636 143.126585) scale(0.1 -0.1)">
       <use xlink:href="#DejaVuSans-32"/>
      </g>
     </g>
    </g>
   </g>
   <g id="matplotlib.axis_2"/>
   <g id="line2d_6">
    <path d="M 47.040498 128.528148 
L 47.040498 20.214138 
" clip-path="url(#pc12b36b30b)" style="fill: none; stroke: #000000; stroke-width: 1.5; stroke-linecap: square"/>
   </g>
   <g id="line2d_7">
    <path d="M 213.266676 128.528148 
L 213.266676 20.214138 
" clip-path="url(#pc12b36b30b)" style="fill: none; stroke: #000000; stroke-width: 1.5; stroke-linecap: square"/>
   </g>
   <g id="line2d_8">
    <path d="M 379.492854 128.528148 
L 379.492854 20.214138 
" clip-path="url(#pc12b36b30b)" style="fill: none; stroke: #000000; stroke-width: 1.5; stroke-linecap: square"/>
   </g>
   <g id="line2d_9">
    <path d="M 545.719031 128.528148 
L 545.719031 20.214138 
" clip-path="url(#pc12b36b30b)" style="fill: none; stroke: #000000; stroke-width: 1.5; stroke-linecap: square"/>
   </g>
   <g id="line2d_10">
    <path d="M 711.945209 128.528148 
L 711.945209 20.214138 
" clip-path="url(#pc12b36b30b)" style="fill: none; stroke: #000000; stroke-width: 1.5; stroke-linecap: square"/>
   </g>
   <g id="line2d_11">
    <path d="M 108.33983 128.528148 
L 108.33983 20.214138 
" clip-path="url(#pc12b36b30b)" style="fill: none; stroke: #ff0000; stroke-width: 1.5; stroke-linecap: square"/>
   </g>
   <g id="line2d_12">
    <path d="M 848.444627 128.528148 
L 848.444627 20.214138 
" clip-path="url(#pc12b36b30b)" style="fill: none; stroke: #ff0000; stroke-width: 1.5; stroke-linecap: square"/>
   </g>
   <g id="patch_3">
    <path d="M 10.7 128.528148 
L 10.7 20.214138 
" style="fill: none; stroke: #000000; stroke-width: 0.8; stroke-linejoin: miter; stroke-linecap: square"/>
   </g>
   <g id="patch_4">
    <path d="M 865.19952 128.528148 
L 865.19952 20.214138 
" style="fill: none; stroke: #000000; stroke-width: 0.8; stroke-linejoin: miter; stroke-linecap: square"/>
   </g>
   <g id="patch_5">
    <path d="M 10.7 128.528148 
L 865.19952 128.528148 
" style="fill: none; stroke: #000000; stroke-width: 0.8; stroke-linejoin: miter; stroke-linecap: square"/>
   </g>
   <g id="patch_6">
    <path d="M 10.7 20.214138 
L 865.19952 20.214138 
" style="fill: none; stroke: #000000; stroke-width: 0.8; stroke-linejoin: miter; stroke-linecap: square"/>
   </g>
   <g id="text_6">
    <g id="patch_7">
     <path d="M 107.33983 104.10708 
L 107.33983 44.635205 
Q 107.33983 44.635205 107.33983 44.635205 
L 97.661705 44.635205 
Q 97.661705 44.635205 97.661705 44.635205 
L 97.661705 104.10708 
Q 97.661705 104.10708 97.661705 104.10708 
L 107.33983 104.10708 
Q 107.33983 104.10708 107.33983 104.10708 
z
" style="fill: #ffffff"/>
    </g>
    <!-- min=-2.118 -->
    <g transform="translate(105.260142 104.10708) rotate(-90) scale(0.1 -0.1)">
     <defs>
      <path id="DejaVuSans-6d" d="M 3328 2828 
Q 3544 3216 3844 3400 
Q 4144 3584 4550 3584 
Q 5097 3584 5394 3201 
Q 5691 2819 5691 2113 
L 5691 0 
L 5113 0 
L 5113 2094 
Q 5113 2597 4934 2840 
Q 4756 3084 4391 3084 
Q 3944 3084 3684 2787 
Q 3425 2491 3425 1978 
L 3425 0 
L 2847 0 
L 2847 2094 
Q 2847 2600 2669 2842 
Q 2491 3084 2119 3084 
Q 1678 3084 1418 2786 
Q 1159 2488 1159 1978 
L 1159 0 
L 581 0 
L 581 3500 
L 1159 3500 
L 1159 2956 
Q 1356 3278 1631 3431 
Q 1906 3584 2284 3584 
Q 2666 3584 2933 3390 
Q 3200 3197 3328 2828 
z
" transform="scale(0.015625)"/>
      <path id="DejaVuSans-69" d="M 603 3500 
L 1178 3500 
L 1178 0 
L 603 0 
L 603 3500 
z
M 603 4863 
L 1178 4863 
L 1178 4134 
L 603 4134 
L 603 4863 
z
" transform="scale(0.015625)"/>
      <path id="DejaVuSans-6e" d="M 3513 2113 
L 3513 0 
L 2938 0 
L 2938 2094 
Q 2938 2591 2744 2837 
Q 2550 3084 2163 3084 
Q 1697 3084 1428 2787 
Q 1159 2491 1159 1978 
L 1159 0 
L 581 0 
L 581 3500 
L 1159 3500 
L 1159 2956 
Q 1366 3272 1645 3428 
Q 1925 3584 2291 3584 
Q 2894 3584 3203 3211 
Q 3513 2838 3513 2113 
z
" transform="scale(0.015625)"/>
      <path id="DejaVuSans-3d" d="M 678 2906 
L 4684 2906 
L 4684 2381 
L 678 2381 
L 678 2906 
z
M 678 1631 
L 4684 1631 
L 4684 1100 
L 678 1100 
L 678 1631 
z
" transform="scale(0.015625)"/>
      <path id="DejaVuSans-2d" d="M 313 2009 
L 1997 2009 
L 1997 1497 
L 313 1497 
L 313 2009 
z
" transform="scale(0.015625)"/>
      <path id="DejaVuSans-2e" d="M 684 794 
L 1344 794 
L 1344 0 
L 684 0 
L 684 794 
z
" transform="scale(0.015625)"/>
      <path id="DejaVuSans-38" d="M 2034 2216 
Q 1584 2216 1326 1975 
Q 1069 1734 1069 1313 
Q 1069 891 1326 650 
Q 1584 409 2034 409 
Q 2484 409 2743 651 
Q 3003 894 3003 1313 
Q 3003 1734 2745 1975 
Q 2488 2216 2034 2216 
z
M 1403 2484 
Q 997 2584 770 2862 
Q 544 3141 544 3541 
Q 544 4100 942 4425 
Q 1341 4750 2034 4750 
Q 2731 4750 3128 4425 
Q 3525 4100 3525 3541 
Q 3525 3141 3298 2862 
Q 3072 2584 2669 2484 
Q 3125 2378 3379 2068 
Q 3634 1759 3634 1313 
Q 3634 634 3220 271 
Q 2806 -91 2034 -91 
Q 1263 -91 848 271 
Q 434 634 434 1313 
Q 434 1759 690 2068 
Q 947 2378 1403 2484 
z
M 1172 3481 
Q 1172 3119 1398 2916 
Q 1625 2713 2034 2713 
Q 2441 2713 2670 2916 
Q 2900 3119 2900 3481 
Q 2900 3844 2670 4047 
Q 2441 4250 2034 4250 
Q 1625 4250 1398 4047 
Q 1172 3844 1172 3481 
z
" transform="scale(0.015625)"/>
     </defs>
     <use xlink:href="#DejaVuSans-6d"/>
     <use xlink:href="#DejaVuSans-69" x="97.412109"/>
     <use xlink:href="#DejaVuSans-6e" x="125.195312"/>
     <use xlink:href="#DejaVuSans-3d" x="188.574219"/>
     <use xlink:href="#DejaVuSans-2d" x="272.363281"/>
     <use xlink:href="#DejaVuSans-32" x="308.447266"/>
     <use xlink:href="#DejaVuSans-2e" x="372.070312"/>
     <use xlink:href="#DejaVuSans-31" x="403.857422"/>
     <use xlink:href="#DejaVuSans-31" x="467.480469"/>
     <use xlink:href="#DejaVuSans-38" x="531.103516"/>
    </g>
   </g>
   <g id="text_7">
    <g id="patch_8">
     <path d="M 860.122752 103.768799 
L 860.122752 44.973487 
Q 860.122752 44.973487 860.122752 44.973487 
L 850.444627 44.973487 
Q 850.444627 44.973487 850.444627 44.973487 
L 850.444627 103.768799 
Q 850.444627 103.768799 850.444627 103.768799 
L 860.122752 103.768799 
Q 860.122752 103.768799 860.122752 103.768799 
z
" style="fill: #ffffff"/>
    </g>
    <!-- max=2.640 -->
    <g transform="translate(858.043065 103.768799) rotate(-90) scale(0.1 -0.1)">
     <defs>
      <path id="DejaVuSans-61" d="M 2194 1759 
Q 1497 1759 1228 1600 
Q 959 1441 959 1056 
Q 959 750 1161 570 
Q 1363 391 1709 391 
Q 2188 391 2477 730 
Q 2766 1069 2766 1631 
L 2766 1759 
L 2194 1759 
z
M 3341 1997 
L 3341 0 
L 2766 0 
L 2766 531 
Q 2569 213 2275 61 
Q 1981 -91 1556 -91 
Q 1019 -91 701 211 
Q 384 513 384 1019 
Q 384 1609 779 1909 
Q 1175 2209 1959 2209 
L 2766 2209 
L 2766 2266 
Q 2766 2663 2505 2880 
Q 2244 3097 1772 3097 
Q 1472 3097 1187 3025 
Q 903 2953 641 2809 
L 641 3341 
Q 956 3463 1253 3523 
Q 1550 3584 1831 3584 
Q 2591 3584 2966 3190 
Q 3341 2797 3341 1997 
z
" transform="scale(0.015625)"/>
      <path id="DejaVuSans-78" d="M 3513 3500 
L 2247 1797 
L 3578 0 
L 2900 0 
L 1881 1375 
L 863 0 
L 184 0 
L 1544 1831 
L 300 3500 
L 978 3500 
L 1906 2253 
L 2834 3500 
L 3513 3500 
z
" transform="scale(0.015625)"/>
      <path id="DejaVuSans-36" d="M 2113 2584 
Q 1688 2584 1439 2293 
Q 1191 2003 1191 1497 
Q 1191 994 1439 701 
Q 1688 409 2113 409 
Q 2538 409 2786 701 
Q 3034 994 3034 1497 
Q 3034 2003 2786 2293 
Q 2538 2584 2113 2584 
z
M 3366 4563 
L 3366 3988 
Q 3128 4100 2886 4159 
Q 2644 4219 2406 4219 
Q 1781 4219 1451 3797 
Q 1122 3375 1075 2522 
Q 1259 2794 1537 2939 
Q 1816 3084 2150 3084 
Q 2853 3084 3261 2657 
Q 3669 2231 3669 1497 
Q 3669 778 3244 343 
Q 2819 -91 2113 -91 
Q 1303 -91 875 529 
Q 447 1150 447 2328 
Q 447 3434 972 4092 
Q 1497 4750 2381 4750 
Q 2619 4750 2861 4703 
Q 3103 4656 3366 4563 
z
" transform="scale(0.015625)"/>
      <path id="DejaVuSans-34" d="M 2419 4116 
L 825 1625 
L 2419 1625 
L 2419 4116 
z
M 2253 4666 
L 3047 4666 
L 3047 1625 
L 3713 1625 
L 3713 1100 
L 3047 1100 
L 3047 0 
L 2419 0 
L 2419 1100 
L 313 1100 
L 313 1709 
L 2253 4666 
z
" transform="scale(0.015625)"/>
     </defs>
     <use xlink:href="#DejaVuSans-6d"/>
     <use xlink:href="#DejaVuSans-61" x="97.412109"/>
     <use xlink:href="#DejaVuSans-78" x="158.691406"/>
     <use xlink:href="#DejaVuSans-3d" x="217.871094"/>
     <use xlink:href="#DejaVuSans-32" x="301.660156"/>
     <use xlink:href="#DejaVuSans-2e" x="365.283203"/>
     <use xlink:href="#DejaVuSans-36" x="397.070312"/>
     <use xlink:href="#DejaVuSans-34" x="460.693359"/>
     <use xlink:href="#DejaVuSans-30" x="524.316406"/>
    </g>
   </g>
   <g id="text_8">
    <!-- 10000 samples (μ=-0.375, σ=1.069) of Array[196, 196, 3] n=115248 x∈[-2.118, 2.640] μ=-0.388 σ=1.073 gpu:0 -->
    <g transform="translate(10.7 14.798437) scale(0.1 -0.1)">
     <defs>
      <path id="DejaVuSans-20" transform="scale(0.015625)"/>
      <path id="DejaVuSans-73" d="M 2834 3397 
L 2834 2853 
Q 2591 2978 2328 3040 
Q 2066 3103 1784 3103 
Q 1356 3103 1142 2972 
Q 928 2841 928 2578 
Q 928 2378 1081 2264 
Q 1234 2150 1697 2047 
L 1894 2003 
Q 2506 1872 2764 1633 
Q 3022 1394 3022 966 
Q 3022 478 2636 193 
Q 2250 -91 1575 -91 
Q 1294 -91 989 -36 
Q 684 19 347 128 
L 347 722 
Q 666 556 975 473 
Q 1284 391 1588 391 
Q 1994 391 2212 530 
Q 2431 669 2431 922 
Q 2431 1156 2273 1281 
Q 2116 1406 1581 1522 
L 1381 1569 
Q 847 1681 609 1914 
Q 372 2147 372 2553 
Q 372 3047 722 3315 
Q 1072 3584 1716 3584 
Q 2034 3584 2315 3537 
Q 2597 3491 2834 3397 
z
" transform="scale(0.015625)"/>
      <path id="DejaVuSans-70" d="M 1159 525 
L 1159 -1331 
L 581 -1331 
L 581 3500 
L 1159 3500 
L 1159 2969 
Q 1341 3281 1617 3432 
Q 1894 3584 2278 3584 
Q 2916 3584 3314 3078 
Q 3713 2572 3713 1747 
Q 3713 922 3314 415 
Q 2916 -91 2278 -91 
Q 1894 -91 1617 61 
Q 1341 213 1159 525 
z
M 3116 1747 
Q 3116 2381 2855 2742 
Q 2594 3103 2138 3103 
Q 1681 3103 1420 2742 
Q 1159 2381 1159 1747 
Q 1159 1113 1420 752 
Q 1681 391 2138 391 
Q 2594 391 2855 752 
Q 3116 1113 3116 1747 
z
" transform="scale(0.015625)"/>
      <path id="DejaVuSans-6c" d="M 603 4863 
L 1178 4863 
L 1178 0 
L 603 0 
L 603 4863 
z
" transform="scale(0.015625)"/>
      <path id="DejaVuSans-65" d="M 3597 1894 
L 3597 1613 
L 953 1613 
Q 991 1019 1311 708 
Q 1631 397 2203 397 
Q 2534 397 2845 478 
Q 3156 559 3463 722 
L 3463 178 
Q 3153 47 2828 -22 
Q 2503 -91 2169 -91 
Q 1331 -91 842 396 
Q 353 884 353 1716 
Q 353 2575 817 3079 
Q 1281 3584 2069 3584 
Q 2775 3584 3186 3129 
Q 3597 2675 3597 1894 
z
M 3022 2063 
Q 3016 2534 2758 2815 
Q 2500 3097 2075 3097 
Q 1594 3097 1305 2825 
Q 1016 2553 972 2059 
L 3022 2063 
z
" transform="scale(0.015625)"/>
      <path id="DejaVuSans-28" d="M 1984 4856 
Q 1566 4138 1362 3434 
Q 1159 2731 1159 2009 
Q 1159 1288 1364 580 
Q 1569 -128 1984 -844 
L 1484 -844 
Q 1016 -109 783 600 
Q 550 1309 550 2009 
Q 550 2706 781 3412 
Q 1013 4119 1484 4856 
L 1984 4856 
z
" transform="scale(0.015625)"/>
      <path id="DejaVuSans-3bc" d="M 544 -1331 
L 544 3500 
L 1119 3500 
L 1119 1325 
Q 1119 872 1334 640 
Q 1550 409 1972 409 
Q 2434 409 2667 671 
Q 2900 934 2900 1459 
L 2900 3500 
L 3475 3500 
L 3475 806 
Q 3475 619 3529 530 
Q 3584 441 3700 441 
Q 3728 441 3778 458 
Q 3828 475 3916 513 
L 3916 50 
Q 3788 -22 3673 -56 
Q 3559 -91 3450 -91 
Q 3234 -91 3106 31 
Q 2978 153 2931 403 
Q 2775 156 2548 32 
Q 2322 -91 2016 -91 
Q 1697 -91 1473 31 
Q 1250 153 1119 397 
L 1119 -1331 
L 544 -1331 
z
" transform="scale(0.015625)"/>
      <path id="DejaVuSans-33" d="M 2597 2516 
Q 3050 2419 3304 2112 
Q 3559 1806 3559 1356 
Q 3559 666 3084 287 
Q 2609 -91 1734 -91 
Q 1441 -91 1130 -33 
Q 819 25 488 141 
L 488 750 
Q 750 597 1062 519 
Q 1375 441 1716 441 
Q 2309 441 2620 675 
Q 2931 909 2931 1356 
Q 2931 1769 2642 2001 
Q 2353 2234 1838 2234 
L 1294 2234 
L 1294 2753 
L 1863 2753 
Q 2328 2753 2575 2939 
Q 2822 3125 2822 3475 
Q 2822 3834 2567 4026 
Q 2313 4219 1838 4219 
Q 1578 4219 1281 4162 
Q 984 4106 628 3988 
L 628 4550 
Q 988 4650 1302 4700 
Q 1616 4750 1894 4750 
Q 2613 4750 3031 4423 
Q 3450 4097 3450 3541 
Q 3450 3153 3228 2886 
Q 3006 2619 2597 2516 
z
" transform="scale(0.015625)"/>
      <path id="DejaVuSans-37" d="M 525 4666 
L 3525 4666 
L 3525 4397 
L 1831 0 
L 1172 0 
L 2766 4134 
L 525 4134 
L 525 4666 
z
" transform="scale(0.015625)"/>
      <path id="DejaVuSans-35" d="M 691 4666 
L 3169 4666 
L 3169 4134 
L 1269 4134 
L 1269 2991 
Q 1406 3038 1543 3061 
Q 1681 3084 1819 3084 
Q 2600 3084 3056 2656 
Q 3513 2228 3513 1497 
Q 3513 744 3044 326 
Q 2575 -91 1722 -91 
Q 1428 -91 1123 -41 
Q 819 9 494 109 
L 494 744 
Q 775 591 1075 516 
Q 1375 441 1709 441 
Q 2250 441 2565 725 
Q 2881 1009 2881 1497 
Q 2881 1984 2565 2268 
Q 2250 2553 1709 2553 
Q 1456 2553 1204 2497 
Q 953 2441 691 2322 
L 691 4666 
z
" transform="scale(0.015625)"/>
      <path id="DejaVuSans-2c" d="M 750 794 
L 1409 794 
L 1409 256 
L 897 -744 
L 494 -744 
L 750 256 
L 750 794 
z
" transform="scale(0.015625)"/>
      <path id="DejaVuSans-3c3" d="M 1959 3044 
Q 1484 3044 1228 2700 
Q 959 2341 959 1747 
Q 959 1119 1226 758 
Q 1494 397 1959 397 
Q 2419 397 2687 759 
Q 2956 1122 2956 1747 
Q 2956 2319 2688 2700 
Q 2441 3044 1959 3044 
z
M 1959 3500 
L 3869 3500 
L 3869 2925 
L 3225 2925 
Q 3566 2438 3566 1747 
Q 3566 888 3138 400 
Q 2709 -91 1959 -91 
Q 1206 -91 781 400 
Q 353 888 353 1747 
Q 353 2613 781 3097 
Q 1134 3500 1959 3500 
z
" transform="scale(0.015625)"/>
      <path id="DejaVuSans-39" d="M 703 97 
L 703 672 
Q 941 559 1184 500 
Q 1428 441 1663 441 
Q 2288 441 2617 861 
Q 2947 1281 2994 2138 
Q 2813 1869 2534 1725 
Q 2256 1581 1919 1581 
Q 1219 1581 811 2004 
Q 403 2428 403 3163 
Q 403 3881 828 4315 
Q 1253 4750 1959 4750 
Q 2769 4750 3195 4129 
Q 3622 3509 3622 2328 
Q 3622 1225 3098 567 
Q 2575 -91 1691 -91 
Q 1453 -91 1209 -44 
Q 966 3 703 97 
z
M 1959 2075 
Q 2384 2075 2632 2365 
Q 2881 2656 2881 3163 
Q 2881 3666 2632 3958 
Q 2384 4250 1959 4250 
Q 1534 4250 1286 3958 
Q 1038 3666 1038 3163 
Q 1038 2656 1286 2365 
Q 1534 2075 1959 2075 
z
" transform="scale(0.015625)"/>
      <path id="DejaVuSans-29" d="M 513 4856 
L 1013 4856 
Q 1481 4119 1714 3412 
Q 1947 2706 1947 2009 
Q 1947 1309 1714 600 
Q 1481 -109 1013 -844 
L 513 -844 
Q 928 -128 1133 580 
Q 1338 1288 1338 2009 
Q 1338 2731 1133 3434 
Q 928 4138 513 4856 
z
" transform="scale(0.015625)"/>
      <path id="DejaVuSans-6f" d="M 1959 3097 
Q 1497 3097 1228 2736 
Q 959 2375 959 1747 
Q 959 1119 1226 758 
Q 1494 397 1959 397 
Q 2419 397 2687 759 
Q 2956 1122 2956 1747 
Q 2956 2369 2687 2733 
Q 2419 3097 1959 3097 
z
M 1959 3584 
Q 2709 3584 3137 3096 
Q 3566 2609 3566 1747 
Q 3566 888 3137 398 
Q 2709 -91 1959 -91 
Q 1206 -91 779 398 
Q 353 888 353 1747 
Q 353 2609 779 3096 
Q 1206 3584 1959 3584 
z
" transform="scale(0.015625)"/>
      <path id="DejaVuSans-66" d="M 2375 4863 
L 2375 4384 
L 1825 4384 
Q 1516 4384 1395 4259 
Q 1275 4134 1275 3809 
L 1275 3500 
L 2222 3500 
L 2222 3053 
L 1275 3053 
L 1275 0 
L 697 0 
L 697 3053 
L 147 3053 
L 147 3500 
L 697 3500 
L 697 3744 
Q 697 4328 969 4595 
Q 1241 4863 1831 4863 
L 2375 4863 
z
" transform="scale(0.015625)"/>
      <path id="DejaVuSans-41" d="M 2188 4044 
L 1331 1722 
L 3047 1722 
L 2188 4044 
z
M 1831 4666 
L 2547 4666 
L 4325 0 
L 3669 0 
L 3244 1197 
L 1141 1197 
L 716 0 
L 50 0 
L 1831 4666 
z
" transform="scale(0.015625)"/>
      <path id="DejaVuSans-72" d="M 2631 2963 
Q 2534 3019 2420 3045 
Q 2306 3072 2169 3072 
Q 1681 3072 1420 2755 
Q 1159 2438 1159 1844 
L 1159 0 
L 581 0 
L 581 3500 
L 1159 3500 
L 1159 2956 
Q 1341 3275 1631 3429 
Q 1922 3584 2338 3584 
Q 2397 3584 2469 3576 
Q 2541 3569 2628 3553 
L 2631 2963 
z
" transform="scale(0.015625)"/>
      <path id="DejaVuSans-79" d="M 2059 -325 
Q 1816 -950 1584 -1140 
Q 1353 -1331 966 -1331 
L 506 -1331 
L 506 -850 
L 844 -850 
Q 1081 -850 1212 -737 
Q 1344 -625 1503 -206 
L 1606 56 
L 191 3500 
L 800 3500 
L 1894 763 
L 2988 3500 
L 3597 3500 
L 2059 -325 
z
" transform="scale(0.015625)"/>
      <path id="DejaVuSans-5b" d="M 550 4863 
L 1875 4863 
L 1875 4416 
L 1125 4416 
L 1125 -397 
L 1875 -397 
L 1875 -844 
L 550 -844 
L 550 4863 
z
" transform="scale(0.015625)"/>
      <path id="DejaVuSans-5d" d="M 1947 4863 
L 1947 -844 
L 622 -844 
L 622 -397 
L 1369 -397 
L 1369 4416 
L 622 4416 
L 622 4863 
L 1947 4863 
z
" transform="scale(0.015625)"/>
      <path id="DejaVuSans-2208" d="M 1072 1959 
Q 1094 1728 1291 1353 
Q 1522 919 1959 675 
Q 2388 438 2850 434 
L 5028 434 
L 5028 -63 
L 2850 -63 
Q 2250 -63 1695 246 
Q 1141 556 844 1106 
Q 547 1656 547 2241 
Q 547 2819 844 3369 
Q 1141 3919 1695 4231 
Q 2250 4544 2850 4544 
L 5028 4544 
L 5028 4047 
L 2850 4047 
Q 2388 4044 1959 3803 
Q 1525 3556 1291 3125 
Q 1091 2750 1063 2459 
L 5028 2459 
L 5028 1959 
L 1072 1959 
z
" transform="scale(0.015625)"/>
      <path id="DejaVuSans-67" d="M 2906 1791 
Q 2906 2416 2648 2759 
Q 2391 3103 1925 3103 
Q 1463 3103 1205 2759 
Q 947 2416 947 1791 
Q 947 1169 1205 825 
Q 1463 481 1925 481 
Q 2391 481 2648 825 
Q 2906 1169 2906 1791 
z
M 3481 434 
Q 3481 -459 3084 -895 
Q 2688 -1331 1869 -1331 
Q 1566 -1331 1297 -1286 
Q 1028 -1241 775 -1147 
L 775 -588 
Q 1028 -725 1275 -790 
Q 1522 -856 1778 -856 
Q 2344 -856 2625 -561 
Q 2906 -266 2906 331 
L 2906 616 
Q 2728 306 2450 153 
Q 2172 0 1784 0 
Q 1141 0 747 490 
Q 353 981 353 1791 
Q 353 2603 747 3093 
Q 1141 3584 1784 3584 
Q 2172 3584 2450 3431 
Q 2728 3278 2906 2969 
L 2906 3500 
L 3481 3500 
L 3481 434 
z
" transform="scale(0.015625)"/>
      <path id="DejaVuSans-75" d="M 544 1381 
L 544 3500 
L 1119 3500 
L 1119 1403 
Q 1119 906 1312 657 
Q 1506 409 1894 409 
Q 2359 409 2629 706 
Q 2900 1003 2900 1516 
L 2900 3500 
L 3475 3500 
L 3475 0 
L 2900 0 
L 2900 538 
Q 2691 219 2414 64 
Q 2138 -91 1772 -91 
Q 1169 -91 856 284 
Q 544 659 544 1381 
z
M 1991 3584 
L 1991 3584 
z
" transform="scale(0.015625)"/>
      <path id="DejaVuSans-3a" d="M 750 794 
L 1409 794 
L 1409 0 
L 750 0 
L 750 794 
z
M 750 3309 
L 1409 3309 
L 1409 2516 
L 750 2516 
L 750 3309 
z
" transform="scale(0.015625)"/>
     </defs>
     <use xlink:href="#DejaVuSans-31"/>
     <use xlink:href="#DejaVuSans-30" x="63.623047"/>
     <use xlink:href="#DejaVuSans-30" x="127.246094"/>
     <use xlink:href="#DejaVuSans-30" x="190.869141"/>
     <use xlink:href="#DejaVuSans-30" x="254.492188"/>
     <use xlink:href="#DejaVuSans-20" x="318.115234"/>
     <use xlink:href="#DejaVuSans-73" x="349.902344"/>
     <use xlink:href="#DejaVuSans-61" x="402.001953"/>
     <use xlink:href="#DejaVuSans-6d" x="463.28125"/>
     <use xlink:href="#DejaVuSans-70" x="560.693359"/>
     <use xlink:href="#DejaVuSans-6c" x="624.169922"/>
     <use xlink:href="#DejaVuSans-65" x="651.953125"/>
     <use xlink:href="#DejaVuSans-73" x="713.476562"/>
     <use xlink:href="#DejaVuSans-20" x="765.576172"/>
     <use xlink:href="#DejaVuSans-28" x="797.363281"/>
     <use xlink:href="#DejaVuSans-3bc" x="836.376953"/>
     <use xlink:href="#DejaVuSans-3d" x="900"/>
     <use xlink:href="#DejaVuSans-2d" x="983.789062"/>
     <use xlink:href="#DejaVuSans-30" x="1019.873047"/>
     <use xlink:href="#DejaVuSans-2e" x="1083.496094"/>
     <use xlink:href="#DejaVuSans-33" x="1115.283203"/>
     <use xlink:href="#DejaVuSans-37" x="1178.90625"/>
     <use xlink:href="#DejaVuSans-35" x="1242.529297"/>
     <use xlink:href="#DejaVuSans-2c" x="1306.152344"/>
     <use xlink:href="#DejaVuSans-20" x="1337.939453"/>
     <use xlink:href="#DejaVuSans-3c3" x="1369.726562"/>
     <use xlink:href="#DejaVuSans-3d" x="1433.105469"/>
     <use xlink:href="#DejaVuSans-31" x="1516.894531"/>
     <use xlink:href="#DejaVuSans-2e" x="1580.517578"/>
     <use xlink:href="#DejaVuSans-30" x="1612.304688"/>
     <use xlink:href="#DejaVuSans-36" x="1675.927734"/>
     <use xlink:href="#DejaVuSans-39" x="1739.550781"/>
     <use xlink:href="#DejaVuSans-29" x="1803.173828"/>
     <use xlink:href="#DejaVuSans-20" x="1842.1875"/>
     <use xlink:href="#DejaVuSans-6f" x="1873.974609"/>
     <use xlink:href="#DejaVuSans-66" x="1935.15625"/>
     <use xlink:href="#DejaVuSans-20" x="1970.361328"/>
     <use xlink:href="#DejaVuSans-41" x="2002.148438"/>
     <use xlink:href="#DejaVuSans-72" x="2070.556641"/>
     <use xlink:href="#DejaVuSans-72" x="2109.919922"/>
     <use xlink:href="#DejaVuSans-61" x="2151.033203"/>
     <use xlink:href="#DejaVuSans-79" x="2212.3125"/>
     <use xlink:href="#DejaVuSans-5b" x="2271.492188"/>
     <use xlink:href="#DejaVuSans-31" x="2310.505859"/>
     <use xlink:href="#DejaVuSans-39" x="2374.128906"/>
     <use xlink:href="#DejaVuSans-36" x="2437.751953"/>
     <use xlink:href="#DejaVuSans-2c" x="2501.375"/>
     <use xlink:href="#DejaVuSans-20" x="2533.162109"/>
     <use xlink:href="#DejaVuSans-31" x="2564.949219"/>
     <use xlink:href="#DejaVuSans-39" x="2628.572266"/>
     <use xlink:href="#DejaVuSans-36" x="2692.195312"/>
     <use xlink:href="#DejaVuSans-2c" x="2755.818359"/>
     <use xlink:href="#DejaVuSans-20" x="2787.605469"/>
     <use xlink:href="#DejaVuSans-33" x="2819.392578"/>
     <use xlink:href="#DejaVuSans-5d" x="2883.015625"/>
     <use xlink:href="#DejaVuSans-20" x="2922.029297"/>
     <use xlink:href="#DejaVuSans-6e" x="2953.816406"/>
     <use xlink:href="#DejaVuSans-3d" x="3017.195312"/>
     <use xlink:href="#DejaVuSans-31" x="3100.984375"/>
     <use xlink:href="#DejaVuSans-31" x="3164.607422"/>
     <use xlink:href="#DejaVuSans-35" x="3228.230469"/>
     <use xlink:href="#DejaVuSans-32" x="3291.853516"/>
     <use xlink:href="#DejaVuSans-34" x="3355.476562"/>
     <use xlink:href="#DejaVuSans-38" x="3419.099609"/>
     <use xlink:href="#DejaVuSans-20" x="3482.722656"/>
     <use xlink:href="#DejaVuSans-78" x="3514.509766"/>
     <use xlink:href="#DejaVuSans-2208" x="3573.689453"/>
     <use xlink:href="#DejaVuSans-5b" x="3660.798828"/>
     <use xlink:href="#DejaVuSans-2d" x="3699.8125"/>
     <use xlink:href="#DejaVuSans-32" x="3735.896484"/>
     <use xlink:href="#DejaVuSans-2e" x="3799.519531"/>
     <use xlink:href="#DejaVuSans-31" x="3831.306641"/>
     <use xlink:href="#DejaVuSans-31" x="3894.929688"/>
     <use xlink:href="#DejaVuSans-38" x="3958.552734"/>
     <use xlink:href="#DejaVuSans-2c" x="4022.175781"/>
     <use xlink:href="#DejaVuSans-20" x="4053.962891"/>
     <use xlink:href="#DejaVuSans-32" x="4085.75"/>
     <use xlink:href="#DejaVuSans-2e" x="4149.373047"/>
     <use xlink:href="#DejaVuSans-36" x="4181.160156"/>
     <use xlink:href="#DejaVuSans-34" x="4244.783203"/>
     <use xlink:href="#DejaVuSans-30" x="4308.40625"/>
     <use xlink:href="#DejaVuSans-5d" x="4372.029297"/>
     <use xlink:href="#DejaVuSans-20" x="4411.042969"/>
     <use xlink:href="#DejaVuSans-3bc" x="4442.830078"/>
     <use xlink:href="#DejaVuSans-3d" x="4506.453125"/>
     <use xlink:href="#DejaVuSans-2d" x="4590.242188"/>
     <use xlink:href="#DejaVuSans-30" x="4626.326172"/>
     <use xlink:href="#DejaVuSans-2e" x="4689.949219"/>
     <use xlink:href="#DejaVuSans-33" x="4721.736328"/>
     <use xlink:href="#DejaVuSans-38" x="4785.359375"/>
     <use xlink:href="#DejaVuSans-38" x="4848.982422"/>
     <use xlink:href="#DejaVuSans-20" x="4912.605469"/>
     <use xlink:href="#DejaVuSans-3c3" x="4944.392578"/>
     <use xlink:href="#DejaVuSans-3d" x="5007.771484"/>
     <use xlink:href="#DejaVuSans-31" x="5091.560547"/>
     <use xlink:href="#DejaVuSans-2e" x="5155.183594"/>
     <use xlink:href="#DejaVuSans-30" x="5186.970703"/>
     <use xlink:href="#DejaVuSans-37" x="5250.59375"/>
     <use xlink:href="#DejaVuSans-33" x="5314.216797"/>
     <use xlink:href="#DejaVuSans-20" x="5377.839844"/>
     <use xlink:href="#DejaVuSans-67" x="5409.626953"/>
     <use xlink:href="#DejaVuSans-70" x="5473.103516"/>
     <use xlink:href="#DejaVuSans-75" x="5536.580078"/>
     <use xlink:href="#DejaVuSans-3a" x="5599.958984"/>
     <use xlink:href="#DejaVuSans-30" x="5633.650391"/>
    </g>
   </g>
   <g id="patch_9">
    <path d="M 121.658833 128.528148 
L 130.177359 128.528148 
L 130.177359 127.470135 
L 121.658833 127.470135 
z
" clip-path="url(#pc12b36b30b)" style="fill: #00bfff"/>
   </g>
   <g id="patch_10">
    <path d="M 130.177359 128.528148 
L 138.695885 128.528148 
L 138.695885 123.414421 
L 130.177359 123.414421 
z
" clip-path="url(#pc12b36b30b)" style="fill: #00bfff"/>
   </g>
   <g id="patch_11">
    <path d="M 138.695885 128.528148 
L 147.214411 128.528148 
L 147.214411 123.943428 
L 138.695885 123.943428 
z
" clip-path="url(#pc12b36b30b)" style="fill: #00bfff"/>
   </g>
   <g id="patch_12">
    <path d="M 147.214411 128.528148 
L 155.732937 128.528148 
L 155.732937 121.651068 
L 147.214411 121.651068 
z
" clip-path="url(#pc12b36b30b)" style="fill: #00bfff"/>
   </g>
   <g id="patch_13">
    <path d="M 155.732937 128.528148 
L 164.251463 128.528148 
L 164.251463 117.419018 
L 155.732937 117.419018 
z
" clip-path="url(#pc12b36b30b)" style="fill: #00bfff"/>
   </g>
   <g id="patch_14">
    <path d="M 164.251463 128.528148 
L 172.769989 128.528148 
L 172.769989 115.126658 
L 164.251463 115.126658 
z
" clip-path="url(#pc12b36b30b)" style="fill: #00bfff"/>
   </g>
   <g id="patch_15">
    <path d="M 172.769989 128.528148 
L 181.288515 128.528148 
L 181.288515 109.483926 
L 172.769989 109.483926 
z
" clip-path="url(#pc12b36b30b)" style="fill: #00bfff"/>
   </g>
   <g id="patch_16">
    <path d="M 181.288515 128.528148 
L 189.807041 128.528148 
L 189.807041 108.073243 
L 181.288515 108.073243 
z
" clip-path="url(#pc12b36b30b)" style="fill: #00bfff"/>
   </g>
   <g id="patch_17">
    <path d="M 189.807041 128.528148 
L 198.325567 128.528148 
L 198.325567 106.486225 
L 189.807041 106.486225 
z
" clip-path="url(#pc12b36b30b)" style="fill: #00bfff"/>
   </g>
   <g id="patch_18">
    <path d="M 198.325567 128.528148 
L 206.844093 128.528148 
L 206.844093 109.660262 
L 198.325567 109.660262 
z
" clip-path="url(#pc12b36b30b)" style="fill: #00bfff"/>
   </g>
   <g id="patch_19">
    <path d="M 206.844093 128.528148 
L 215.362618 128.528148 
L 215.362618 101.548834 
L 206.844093 101.548834 
z
" clip-path="url(#pc12b36b30b)" style="fill: #00bfff"/>
   </g>
   <g id="patch_20">
    <path d="M 215.362618 128.528148 
L 223.881144 128.528148 
L 223.881144 102.254175 
L 215.362618 102.254175 
z
" clip-path="url(#pc12b36b30b)" style="fill: #00bfff"/>
   </g>
   <g id="patch_21">
    <path d="M 223.881144 128.528148 
L 232.39967 128.528148 
L 232.39967 99.609145 
L 223.881144 99.609145 
z
" clip-path="url(#pc12b36b30b)" style="fill: #00bfff"/>
   </g>
   <g id="patch_22">
    <path d="M 232.39967 128.528148 
L 240.918196 128.528148 
L 240.918196 91.321382 
L 232.39967 91.321382 
z
" clip-path="url(#pc12b36b30b)" style="fill: #00bfff"/>
   </g>
   <g id="patch_23">
    <path d="M 240.918196 128.528148 
L 249.436704 128.528148 
L 249.436704 63.812921 
L 240.918196 63.812921 
z
" clip-path="url(#pc12b36b30b)" style="fill: #00bfff"/>
   </g>
   <g id="patch_24">
    <path d="M 249.436704 128.528148 
L 257.95523 128.528148 
L 257.95523 69.455794 
L 249.436704 69.455794 
z
" clip-path="url(#pc12b36b30b)" style="fill: #00bfff"/>
   </g>
   <g id="patch_25">
    <path d="M 257.95523 128.528148 
L 266.473756 128.528148 
L 266.473756 69.103123 
L 257.95523 69.103123 
z
" clip-path="url(#pc12b36b30b)" style="fill: #00bfff"/>
   </g>
   <g id="patch_26">
    <path d="M 266.473756 128.528148 
L 274.992281 128.528148 
L 274.992281 71.571819 
L 266.473756 71.571819 
z
" clip-path="url(#pc12b36b30b)" style="fill: #00bfff"/>
   </g>
   <g id="patch_27">
    <path d="M 274.992281 128.528148 
L 283.510817 128.528148 
L 283.510817 77.390942 
L 274.992281 77.390942 
z
" clip-path="url(#pc12b36b30b)" style="fill: #00bfff"/>
   </g>
   <g id="patch_28">
    <path d="M 283.510817 128.528148 
L 292.029343 128.528148 
L 292.029343 74.040514 
L 283.510817 74.040514 
z
" clip-path="url(#pc12b36b30b)" style="fill: #00bfff"/>
   </g>
   <g id="patch_29">
    <path d="M 292.029343 128.528148 
L 300.547869 128.528148 
L 300.547869 68.750452 
L 292.029343 68.750452 
z
" clip-path="url(#pc12b36b30b)" style="fill: #00bfff"/>
   </g>
   <g id="patch_30">
    <path d="M 300.547869 128.528148 
L 309.066385 128.528148 
L 309.066385 62.931313 
L 300.547869 62.931313 
z
" clip-path="url(#pc12b36b30b)" style="fill: #00bfff"/>
   </g>
   <g id="patch_31">
    <path d="M 309.066385 128.528148 
L 317.584911 128.528148 
L 317.584911 67.163434 
L 309.066385 67.163434 
z
" clip-path="url(#pc12b36b30b)" style="fill: #00bfff"/>
   </g>
   <g id="patch_32">
    <path d="M 317.584911 128.528148 
L 326.103437 128.528148 
L 326.103437 66.810763 
L 317.584911 66.810763 
z
" clip-path="url(#pc12b36b30b)" style="fill: #00bfff"/>
   </g>
   <g id="patch_33">
    <path d="M 326.103437 128.528148 
L 334.621963 128.528148 
L 334.621963 61.697037 
L 326.103437 61.697037 
z
" clip-path="url(#pc12b36b30b)" style="fill: #00bfff"/>
   </g>
   <g id="patch_34">
    <path d="M 334.621963 128.528148 
L 343.140489 128.528148 
L 343.140489 49.177225 
L 334.621963 49.177225 
z
" clip-path="url(#pc12b36b30b)" style="fill: #00bfff"/>
   </g>
   <g id="patch_35">
    <path d="M 343.140489 128.528148 
L 351.659015 128.528148 
L 351.659015 60.286354 
L 343.140489 60.286354 
z
" clip-path="url(#pc12b36b30b)" style="fill: #00bfff"/>
   </g>
   <g id="patch_36">
    <path d="M 351.659015 128.528148 
L 360.177541 128.528148 
L 360.177541 63.636726 
L 351.659015 63.636726 
z
" clip-path="url(#pc12b36b30b)" style="fill: #00bfff"/>
   </g>
   <g id="patch_37">
    <path d="M 360.177541 128.528148 
L 368.696067 128.528148 
L 368.696067 66.810763 
L 360.177541 66.810763 
z
" clip-path="url(#pc12b36b30b)" style="fill: #00bfff"/>
   </g>
   <g id="patch_38">
    <path d="M 368.696067 128.528148 
L 377.214593 128.528148 
L 377.214593 65.047409 
L 368.696067 65.047409 
z
" clip-path="url(#pc12b36b30b)" style="fill: #00bfff"/>
   </g>
   <g id="patch_39">
    <path d="M 377.214593 128.528148 
L 385.733119 128.528148 
L 385.733119 92.203059 
L 377.214593 92.203059 
z
" clip-path="url(#pc12b36b30b)" style="fill: #00bfff"/>
   </g>
   <g id="patch_40">
    <path d="M 385.733119 128.528148 
L 394.25164 128.528148 
L 394.25164 101.548819 
L 385.733119 101.548819 
z
" clip-path="url(#pc12b36b30b)" style="fill: #00bfff"/>
   </g>
   <g id="patch_41">
    <path d="M 394.25164 128.528148 
L 402.770168 128.528148 
L 402.770168 110.894614 
L 394.25164 110.894614 
z
" clip-path="url(#pc12b36b30b)" style="fill: #00bfff"/>
   </g>
   <g id="patch_42">
    <path d="M 402.770168 128.528148 
L 411.288692 128.528148 
L 411.288692 113.715971 
L 402.770168 113.715971 
z
" clip-path="url(#pc12b36b30b)" style="fill: #00bfff"/>
   </g>
   <g id="patch_43">
    <path d="M 411.288692 128.528148 
L 419.807218 128.528148 
L 419.807218 116.008335 
L 411.288692 116.008335 
z
" clip-path="url(#pc12b36b30b)" style="fill: #00bfff"/>
   </g>
   <g id="patch_44">
    <path d="M 419.807218 128.528148 
L 428.325743 128.528148 
L 428.325743 118.47703 
L 419.807218 118.47703 
z
" clip-path="url(#pc12b36b30b)" style="fill: #00bfff"/>
   </g>
   <g id="patch_45">
    <path d="M 428.325743 128.528148 
L 436.844269 128.528148 
L 436.844269 121.122061 
L 428.325743 121.122061 
z
" clip-path="url(#pc12b36b30b)" style="fill: #00bfff"/>
   </g>
   <g id="patch_46">
    <path d="M 436.844269 128.528148 
L 445.362794 128.528148 
L 445.362794 120.593055 
L 436.844269 120.593055 
z
" clip-path="url(#pc12b36b30b)" style="fill: #00bfff"/>
   </g>
   <g id="patch_47">
    <path d="M 445.362794 128.528148 
L 453.881319 128.528148 
L 453.881319 122.003738 
L 445.362794 122.003738 
z
" clip-path="url(#pc12b36b30b)" style="fill: #00bfff"/>
   </g>
   <g id="patch_48">
    <path d="M 453.881319 128.528148 
L 462.399845 128.528148 
L 462.399845 123.590757 
L 453.881319 123.590757 
z
" clip-path="url(#pc12b36b30b)" style="fill: #00bfff"/>
   </g>
   <g id="patch_49">
    <path d="M 462.399845 128.528148 
L 470.918369 128.528148 
L 470.918369 121.651066 
L 462.399845 121.651066 
z
" clip-path="url(#pc12b36b30b)" style="fill: #00bfff"/>
   </g>
   <g id="patch_50">
    <path d="M 470.918369 128.528148 
L 479.436895 128.528148 
L 479.436895 120.945726 
L 470.918369 120.945726 
z
" clip-path="url(#pc12b36b30b)" style="fill: #00bfff"/>
   </g>
   <g id="patch_51">
    <path d="M 479.436895 128.528148 
L 487.955421 128.528148 
L 487.955421 119.887714 
L 479.436895 119.887714 
z
" clip-path="url(#pc12b36b30b)" style="fill: #00bfff"/>
   </g>
   <g id="patch_52">
    <path d="M 487.955421 128.528148 
L 496.473946 128.528148 
L 496.473946 120.769391 
L 487.955421 120.769391 
z
" clip-path="url(#pc12b36b30b)" style="fill: #00bfff"/>
   </g>
   <g id="patch_53">
    <path d="M 496.473946 128.528148 
L 504.992472 128.528148 
L 504.992472 121.827403 
L 496.473946 121.827403 
z
" clip-path="url(#pc12b36b30b)" style="fill: #00bfff"/>
   </g>
   <g id="patch_54">
    <path d="M 504.992472 128.528148 
L 513.510998 128.528148 
L 513.510998 119.887714 
L 504.992472 119.887714 
z
" clip-path="url(#pc12b36b30b)" style="fill: #00bfff"/>
   </g>
   <g id="patch_55">
    <path d="M 513.510998 128.528148 
L 522.029524 128.528148 
L 522.029524 121.651068 
L 513.510998 121.651068 
z
" clip-path="url(#pc12b36b30b)" style="fill: #00bfff"/>
   </g>
   <g id="patch_56">
    <path d="M 522.029524 128.528148 
L 530.54805 128.528148 
L 530.54805 122.532745 
L 522.029524 122.532745 
z
" clip-path="url(#pc12b36b30b)" style="fill: #00bfff"/>
   </g>
   <g id="patch_57">
    <path d="M 530.54805 128.528148 
L 539.066576 128.528148 
L 539.066576 122.885415 
L 530.54805 122.885415 
z
" clip-path="url(#pc12b36b30b)" style="fill: #00bfff"/>
   </g>
   <g id="patch_58">
    <path d="M 539.066576 128.528148 
L 547.585093 128.528148 
L 547.585093 123.414416 
L 539.066576 123.414416 
z
" clip-path="url(#pc12b36b30b)" style="fill: #00bfff"/>
   </g>
   <g id="patch_59">
    <path d="M 547.585093 128.528148 
L 556.103619 128.528148 
L 556.103619 122.356409 
L 547.585093 122.356409 
z
" clip-path="url(#pc12b36b30b)" style="fill: #00bfff"/>
   </g>
   <g id="patch_60">
    <path d="M 556.103619 128.528148 
L 564.622145 128.528148 
L 564.622145 123.414421 
L 556.103619 123.414421 
z
" clip-path="url(#pc12b36b30b)" style="fill: #00bfff"/>
   </g>
   <g id="patch_61">
    <path d="M 564.622145 128.528148 
L 573.140671 128.528148 
L 573.140671 123.590757 
L 564.622145 123.590757 
z
" clip-path="url(#pc12b36b30b)" style="fill: #00bfff"/>
   </g>
   <g id="patch_62">
    <path d="M 573.140671 128.528148 
L 581.659197 128.528148 
L 581.659197 125.00144 
L 573.140671 125.00144 
z
" clip-path="url(#pc12b36b30b)" style="fill: #00bfff"/>
   </g>
   <g id="patch_63">
    <path d="M 581.659197 128.528148 
L 590.177722 128.528148 
L 590.177722 124.825105 
L 581.659197 124.825105 
z
" clip-path="url(#pc12b36b30b)" style="fill: #00bfff"/>
   </g>
   <g id="patch_64">
    <path d="M 590.177722 128.528148 
L 598.696248 128.528148 
L 598.696248 122.885415 
L 590.177722 122.885415 
z
" clip-path="url(#pc12b36b30b)" style="fill: #00bfff"/>
   </g>
   <g id="patch_65">
    <path d="M 598.696248 128.528148 
L 607.214774 128.528148 
L 607.214774 124.119763 
L 598.696248 124.119763 
z
" clip-path="url(#pc12b36b30b)" style="fill: #00bfff"/>
   </g>
   <g id="patch_66">
    <path d="M 607.214774 128.528148 
L 615.7333 128.528148 
L 615.7333 124.119763 
L 607.214774 124.119763 
z
" clip-path="url(#pc12b36b30b)" style="fill: #00bfff"/>
   </g>
   <g id="patch_67">
    <path d="M 615.7333 128.528148 
L 624.251826 128.528148 
L 624.251826 123.414421 
L 615.7333 123.414421 
z
" clip-path="url(#pc12b36b30b)" style="fill: #00bfff"/>
   </g>
   <g id="patch_68">
    <path d="M 624.251826 128.528148 
L 632.770352 128.528148 
L 632.770352 123.061751 
L 624.251826 123.061751 
z
" clip-path="url(#pc12b36b30b)" style="fill: #00bfff"/>
   </g>
   <g id="patch_69">
    <path d="M 632.770352 128.528148 
L 641.288878 128.528148 
L 641.288878 120.240385 
L 632.770352 120.240385 
z
" clip-path="url(#pc12b36b30b)" style="fill: #00bfff"/>
   </g>
   <g id="patch_70">
    <path d="M 641.288878 128.528148 
L 649.807404 128.528148 
L 649.807404 120.945726 
L 641.288878 120.945726 
z
" clip-path="url(#pc12b36b30b)" style="fill: #00bfff"/>
   </g>
   <g id="patch_71">
    <path d="M 649.807404 128.528148 
L 658.32593 128.528148 
L 658.32593 119.358708 
L 649.807404 119.358708 
z
" clip-path="url(#pc12b36b30b)" style="fill: #00bfff"/>
   </g>
   <g id="patch_72">
    <path d="M 658.32593 128.528148 
L 666.844456 128.528148 
L 666.844456 119.006037 
L 658.32593 119.006037 
z
" clip-path="url(#pc12b36b30b)" style="fill: #00bfff"/>
   </g>
   <g id="patch_73">
    <path d="M 666.844456 128.528148 
L 675.362982 128.528148 
L 675.362982 119.711378 
L 666.844456 119.711378 
z
" clip-path="url(#pc12b36b30b)" style="fill: #00bfff"/>
   </g>
   <g id="patch_74">
    <path d="M 675.362982 128.528148 
L 683.881508 128.528148 
L 683.881508 110.189268 
L 675.362982 110.189268 
z
" clip-path="url(#pc12b36b30b)" style="fill: #00bfff"/>
   </g>
   <g id="patch_75">
    <path d="M 683.881508 128.528148 
L 692.400034 128.528148 
L 692.400034 116.713677 
L 683.881508 116.713677 
z
" clip-path="url(#pc12b36b30b)" style="fill: #00bfff"/>
   </g>
   <g id="patch_76">
    <path d="M 692.400034 128.528148 
L 700.91856 128.528148 
L 700.91856 115.302994 
L 692.400034 115.302994 
z
" clip-path="url(#pc12b36b30b)" style="fill: #00bfff"/>
   </g>
   <g id="patch_77">
    <path d="M 700.91856 128.528148 
L 709.437086 128.528148 
L 709.437086 113.53964 
L 700.91856 113.53964 
z
" clip-path="url(#pc12b36b30b)" style="fill: #00bfff"/>
   </g>
   <g id="patch_78">
    <path d="M 709.437086 128.528148 
L 717.955611 128.528148 
L 717.955611 111.24728 
L 709.437086 111.24728 
z
" clip-path="url(#pc12b36b30b)" style="fill: #00bfff"/>
   </g>
   <g id="patch_79">
    <path d="M 717.955611 128.528148 
L 726.474119 128.528148 
L 726.474119 108.42587 
L 717.955611 108.42587 
z
" clip-path="url(#pc12b36b30b)" style="fill: #00bfff"/>
   </g>
   <g id="patch_80">
    <path d="M 726.474119 128.528148 
L 734.992645 128.528148 
L 734.992645 113.010634 
L 726.474119 113.010634 
z
" clip-path="url(#pc12b36b30b)" style="fill: #00bfff"/>
   </g>
   <g id="patch_81">
    <path d="M 734.992645 128.528148 
L 743.511171 128.528148 
L 743.511171 112.481628 
L 734.992645 112.481628 
z
" clip-path="url(#pc12b36b30b)" style="fill: #00bfff"/>
   </g>
   <g id="patch_82">
    <path d="M 743.511171 128.528148 
L 752.029715 128.528148 
L 752.029715 111.070983 
L 743.511171 111.070983 
z
" clip-path="url(#pc12b36b30b)" style="fill: #00bfff"/>
   </g>
   <g id="patch_83">
    <path d="M 752.029715 128.528148 
L 760.548223 128.528148 
L 760.548223 116.889987 
L 752.029715 116.889987 
z
" clip-path="url(#pc12b36b30b)" style="fill: #00bfff"/>
   </g>
   <g id="patch_84">
    <path d="M 760.548223 128.528148 
L 769.066767 128.528148 
L 769.066767 116.890038 
L 760.548223 116.890038 
z
" clip-path="url(#pc12b36b30b)" style="fill: #00bfff"/>
   </g>
   <g id="patch_85">
    <path d="M 769.066767 128.528148 
L 777.585274 128.528148 
L 777.585274 117.066323 
L 769.066767 117.066323 
z
" clip-path="url(#pc12b36b30b)" style="fill: #00bfff"/>
   </g>
   <g id="patch_86">
    <path d="M 777.585274 128.528148 
L 786.103819 128.528148 
L 786.103819 117.242708 
L 777.585274 117.242708 
z
" clip-path="url(#pc12b36b30b)" style="fill: #00bfff"/>
   </g>
   <g id="patch_87">
    <path d="M 786.103819 128.528148 
L 794.622326 128.528148 
L 794.622326 120.769374 
L 786.103819 120.769374 
z
" clip-path="url(#pc12b36b30b)" style="fill: #00bfff"/>
   </g>
   <g id="patch_88">
    <path d="M 794.622326 128.528148 
L 803.140871 128.528148 
L 803.140871 123.238098 
L 794.622326 123.238098 
z
" clip-path="url(#pc12b36b30b)" style="fill: #00bfff"/>
   </g>
   <g id="patch_89">
    <path d="M 803.140871 128.528148 
L 811.659378 128.528148 
L 811.659378 122.18006 
L 803.140871 122.18006 
z
" clip-path="url(#pc12b36b30b)" style="fill: #00bfff"/>
   </g>
   <g id="patch_90">
    <path d="M 811.659378 128.528148 
L 820.177923 128.528148 
L 820.177923 125.354118 
L 811.659378 125.354118 
z
" clip-path="url(#pc12b36b30b)" style="fill: #00bfff"/>
   </g>
   <g id="patch_91">
    <path d="M 820.177923 128.528148 
L 828.69643 128.528148 
L 828.69643 126.76479 
L 820.177923 126.76479 
z
" clip-path="url(#pc12b36b30b)" style="fill: #00bfff"/>
   </g>
   <g id="patch_92">
    <path d="M 828.69643 128.528148 
L 837.214975 128.528148 
L 837.214975 128.175478 
L 828.69643 128.175478 
z
" clip-path="url(#pc12b36b30b)" style="fill: #00bfff"/>
   </g>
   <g id="patch_93">
    <path d="M 837.214975 128.528148 
L 845.733482 128.528148 
L 845.733482 128.175476 
L 837.214975 128.175476 
z
" clip-path="url(#pc12b36b30b)" style="fill: #00bfff"/>
   </g>
   <g id="line2d_13">
    <path d="M 10.7 125.451658 
L 19.331308 125.080669 
L 27.962617 124.675345 
L 36.593925 124.23396 
L 45.225233 123.754896 
L 53.856541 123.236674 
L 62.48785 122.677983 
L 71.119158 122.07772 
L 79.750466 121.435016 
L 88.381775 120.749277 
L 97.013083 120.020213 
L 105.644391 119.247874 
L 114.275699 118.43268 
L 122.907008 117.575448 
L 131.538316 116.677421 
L 140.169624 115.74029 
L 148.800933 114.766207 
L 157.432241 113.757803 
L 166.063549 112.718194 
L 174.694857 111.650977 
L 183.326166 110.560232 
L 191.957474 109.450499 
L 200.588782 108.326769 
L 209.220091 107.194445 
L 217.851399 106.059315 
L 226.482707 104.927505 
L 235.114015 103.80543 
L 243.745324 102.69974 
L 252.376632 101.617255 
L 261.00794 100.564899 
L 269.639248 99.549628 
L 278.270557 98.578356 
L 286.901865 97.657874 
L 295.533173 96.794778 
L 304.164482 95.995384 
L 312.79579 95.265657 
L 321.427098 94.611132 
L 330.058406 94.036849 
L 338.689715 93.547286 
L 347.321023 93.1463 
L 355.952331 92.837078 
L 364.58364 92.622094 
L 373.214948 92.503078 
L 381.846256 92.480989 
L 390.477564 92.556006 
L 399.108873 92.727524 
L 407.740181 92.99416 
L 416.371489 93.353776 
L 425.002798 93.803504 
L 433.634106 94.339785 
L 442.265414 94.958418 
L 450.896722 95.65461 
L 459.528031 96.423043 
L 468.159339 97.257938 
L 476.790647 98.153131 
L 485.421956 99.102141 
L 494.053264 100.098259 
L 502.684572 101.134614 
L 511.31588 102.204262 
L 519.947189 103.300254 
L 528.578497 104.415715 
L 537.209805 105.54391 
L 545.841114 106.678308 
L 554.472422 107.812647 
L 563.10373 108.940979 
L 571.735038 110.05772 
L 580.366347 111.157689 
L 588.997655 112.236138 
L 597.628963 113.288775 
L 606.260272 114.311782 
L 614.89158 115.301825 
L 623.522888 116.256054 
L 632.154196 117.172098 
L 640.785505 118.048059 
L 649.416813 118.882493 
L 658.048121 119.674393 
L 666.679429 120.423161 
L 675.310738 121.128583 
L 683.942046 121.790798 
L 692.573354 122.410266 
L 701.204663 122.987736 
L 709.835971 123.524207 
L 718.467279 124.020902 
L 727.098587 124.479226 
L 735.729896 124.900738 
L 744.361204 125.287119 
L 752.992512 125.640141 
L 761.623821 125.96164 
L 770.255129 126.25349 
L 778.886437 126.517581 
L 787.517745 126.755796 
L 796.149054 126.969993 
L 804.780362 127.161992 
L 813.41167 127.333558 
L 822.042979 127.486391 
L 830.674287 127.622116 
L 839.305595 127.742281 
L 847.936903 127.848343 
L 856.568212 127.941675 
L 865.19952 128.023555 
" clip-path="url(#pc12b36b30b)" style="fill: none; stroke: #1f77b4; stroke-width: 1.5; stroke-linecap: square"/>
   </g>
   <g id="text_9">
    <g id="patch_94">
     <path d="M 38.886591 38.307963 
L 55.194404 38.307963 
Q 58.194404 38.307963 58.194404 35.307963 
L 58.194404 25.629838 
Q 58.194404 22.629838 55.194404 22.629838 
L 38.886591 22.629838 
Q 35.886591 22.629838 35.886591 25.629838 
L 35.886591 35.307963 
Q 35.886591 38.307963 38.886591 38.307963 
z
" style="fill: #ffffff"/>
    </g>
    <!-- -2σ -->
    <g transform="translate(38.886591 33.228276) scale(0.1 -0.1)">
     <use xlink:href="#DejaVuSans-2d"/>
     <use xlink:href="#DejaVuSans-32" x="36.083984"/>
     <use xlink:href="#DejaVuSans-3c3" x="99.707031"/>
    </g>
   </g>
   <g id="text_10">
    <g id="patch_95">
     <path d="M 208.294019 38.307963 
L 218.239332 38.307963 
Q 221.239332 38.307963 221.239332 35.307963 
L 221.239332 25.629838 
Q 221.239332 22.629838 218.239332 22.629838 
L 208.294019 22.629838 
Q 205.294019 22.629838 205.294019 25.629838 
L 205.294019 35.307963 
Q 205.294019 38.307963 208.294019 38.307963 
z
" style="fill: #ffffff"/>
    </g>
    <!-- -σ -->
    <g transform="translate(208.294019 33.228276) scale(0.1 -0.1)">
     <use xlink:href="#DejaVuSans-2d"/>
     <use xlink:href="#DejaVuSans-3c3" x="36.083984"/>
    </g>
   </g>
   <g id="text_11">
    <g id="patch_96">
     <path d="M 375.813947 38.307963 
L 383.17176 38.307963 
Q 386.17176 38.307963 386.17176 35.307963 
L 386.17176 25.629838 
Q 386.17176 22.629838 383.17176 22.629838 
L 375.813947 22.629838 
Q 372.813947 22.629838 372.813947 25.629838 
L 372.813947 35.307963 
Q 372.813947 38.307963 375.813947 38.307963 
z
" style="fill: #ffffff"/>
    </g>
    <!-- μ -->
    <g transform="translate(375.813947 33.217338) scale(0.1 -0.1)">
     <defs>
      <path id="DejaVuSans-Bold-3bc" d="M 544 -1338 
L 544 3500 
L 1672 3500 
L 1672 1466 
Q 1672 1103 1828 926 
Q 1984 750 2303 750 
Q 2625 750 2781 926 
Q 2938 1103 2938 1466 
L 2938 3500 
L 4063 3500 
L 4063 1159 
Q 4063 938 4114 850 
Q 4166 763 4288 763 
Q 4344 763 4395 778 
Q 4447 794 4506 831 
L 4506 50 
Q 4341 -22 4195 -56 
Q 4050 -91 3909 -91 
Q 3631 -91 3454 26 
Q 3278 144 3169 403 
Q 3022 156 2811 32 
Q 2600 -91 2322 -91 
Q 2091 -91 1928 -17 
Q 1766 56 1672 206 
L 1672 -1338 
L 544 -1338 
z
" transform="scale(0.015625)"/>
     </defs>
     <use xlink:href="#DejaVuSans-Bold-3bc"/>
    </g>
   </g>
   <g id="text_12">
    <g id="patch_97">
     <path d="M 538.360438 38.307963 
L 553.077625 38.307963 
Q 556.077625 38.307963 556.077625 35.307963 
L 556.077625 25.629838 
Q 556.077625 22.629838 553.077625 22.629838 
L 538.360438 22.629838 
Q 535.360438 22.629838 535.360438 25.629838 
L 535.360438 35.307963 
Q 535.360438 38.307963 538.360438 38.307963 
z
" style="fill: #ffffff"/>
    </g>
    <!-- +σ -->
    <g transform="translate(538.360438 33.228276) scale(0.1 -0.1)">
     <defs>
      <path id="DejaVuSans-2b" d="M 2944 4013 
L 2944 2272 
L 4684 2272 
L 4684 1741 
L 2944 1741 
L 2944 0 
L 2419 0 
L 2419 1741 
L 678 1741 
L 678 2272 
L 2419 2272 
L 2419 4013 
L 2944 4013 
z
" transform="scale(0.015625)"/>
     </defs>
     <use xlink:href="#DejaVuSans-2b"/>
     <use xlink:href="#DejaVuSans-3c3" x="83.789062"/>
    </g>
   </g>
   <g id="text_13">
    <g id="patch_98">
     <path d="M 701.405366 38.307963 
L 722.485053 38.307963 
Q 725.485053 38.307963 725.485053 35.307963 
L 725.485053 25.629838 
Q 725.485053 22.629838 722.485053 22.629838 
L 701.405366 22.629838 
Q 698.405366 22.629838 698.405366 25.629838 
L 698.405366 35.307963 
Q 698.405366 38.307963 701.405366 38.307963 
z
" style="fill: #ffffff"/>
    </g>
    <!-- +2σ -->
    <g transform="translate(701.405366 33.228276) scale(0.1 -0.1)">
     <use xlink:href="#DejaVuSans-2b"/>
     <use xlink:href="#DejaVuSans-32" x="83.789062"/>
     <use xlink:href="#DejaVuSans-3c3" x="147.412109"/>
    </g>
   </g>
  </g>
 </g>
 <defs>
  <clipPath id="pc12b36b30b">
   <rect x="10.7" y="20.214138" width="854.49952" height="108.31401"/>
  </clipPath>
 </defs>
</svg>
